<?xml version="1.0" encoding="UTF-8" standalone="no"?>
<svg
   width="37.951359"
   height="36.001507"
   viewBox="0 0 30.361087 28.801205"
   version="1.1"
   id="svg1"
   sodipodi:docname="delay.svg"
   inkscape:version="1.4.2 (ebf0e940d0, 2025-05-08)"
   xmlns:inkscape="http://www.inkscape.org/namespaces/inkscape"
   xmlns:sodipodi="http://sodipodi.sourceforge.net/DTD/sodipodi-0.dtd"
   xmlns="http://www.w3.org/2000/svg"
   xmlns:svg="http://www.w3.org/2000/svg">
  <defs
     id="defs1" />
  <sodipodi:namedview
     id="namedview1"
     pagecolor="#ffffff"
     bordercolor="#000000"
     borderopacity="0.25"
     inkscape:showpageshadow="2"
     inkscape:pageopacity="0.0"
     inkscape:pagecheckerboard="0"
     inkscape:deskcolor="#d1d1d1"
     inkscape:zoom="11.2"
     inkscape:cx="18.839286"
     inkscape:cy="30.892857"
     inkscape:window-width="2560"
     inkscape:window-height="1536"
     inkscape:window-x="0"
     inkscape:window-y="0"
     inkscape:window-maximized="1"
     inkscape:current-layer="svg1" />
  <g
     id="path1"
     style="opacity:1"
     transform="translate(7.13525,-0.30630845)">
    <path
       style="baseline-shift:baseline;display:inline;overflow:visible;vector-effect:none;fill:#ffffff;enable-background:accumulate;stop-color:#000000;stop-opacity:1"
       d="m 8.0357147,28.201534 q -2.5363555,0 -4.7521163,-0.985014 Q 1.067838,26.231507 -0.57166224,24.558503 -2.2111624,22.882735 -3.1743013,20.621211 -4.13744,18.359685 -4.1387927,15.76798 q 0,-2.590323 0.9644914,-4.85323 Q -2.2098097,8.6518432 -0.57166224,6.9774581 1.0691908,5.3030731 3.2835984,4.3194408 5.4980056,3.3358087 8.0357147,3.3344272 q 2.5363553,0 4.7521153,0.9850136 2.21576,0.9850138 3.85526,2.6593989 1.639502,1.6743851 2.603993,3.9372913 0.964492,2.262907 0.963139,4.851849 0,2.590323 -0.964492,4.853231 -0.964491,2.262907 -2.60264,3.937292 -1.640852,1.674385 -3.85526,2.659398 -2.214408,0.985014 -4.7521153,0.983633 z m 0,-12.433554 z M 11.82334,21.570305 13.717151,19.636196 9.3884376,15.215378 V 8.8604507 H 6.6829905 V 16.320582 Z M -0.62171285,1.0549425 1.2720993,2.9890507 l -5.7490729,5.8714 -1.8938122,-1.9341081 z m 17.31485385,0 5.749073,5.8714001 -1.893813,1.9341081 -5.749071,-5.8714 z M 8.0357147,25.438521 q 3.9567133,0 6.7135633,-2.815508 2.75685,-2.81551 2.755497,-6.855033 0,-4.040904 -2.756849,-6.8564136 -2.756849,-2.8155091 -6.7122113,-2.8141276 -3.9567152,0 -6.7135647,2.8155092 -2.7568495,2.815509 -2.7554967,6.855032 0,4.040905 2.7568495,6.856414 2.7568494,2.815508 6.7122119,2.814127 z"
       id="path2" />
    <path
       style="baseline-shift:baseline;display:inline;overflow:visible;vector-effect:none;enable-background:accumulate;stop-color:#000000;stop-opacity:1"
       d="m -0.62109375,0.52148437 -6.27148435,6.40429683 2.4160156,2.4687501 6.2714844,-6.40625 z m 17.31445275,0 -2.416015,2.46679693 6.271484,6.40625 2.416016,-2.4687501 z M -0.62109375,1.5878906 0.75,2.9882813 -4.4765625,8.3261719 -5.8476562,6.9257812 Z m 17.31445275,0 5.226563,5.3378906 L 20.548828,8.328125 15.322266,2.9882813 Z M 8.0351563,2.9609375 C 6.2951724,2.9618847 4.6573794,3.3013082 3.1328125,3.9785156 1.6159812,4.6522869 0.28919496,5.5666785 -0.83789063,6.7167969 -1.9631707,7.8669694 -2.8577136,9.2193926 -3.5175781,10.767578 c -0.6631408,1.555873 -0.9941406,3.226781 -0.9941406,5 9.259e-4,1.773995 0.3319278,3.445072 0.9941406,5 0.6589901,1.547359 1.553533,2.901668 2.67968747,4.052734 1.12621109,1.149226 2.45306873,2.06362 3.97070313,2.738282 1.5254926,0.678156 3.1631096,1.015625 4.9023438,1.015625 1.7401687,9.47e-4 3.3795767,-0.337399 4.9042967,-1.015625 1.51676,-0.674685 2.843654,-1.5882 3.970703,-2.738282 1.125281,-1.150172 2.019824,-2.504548 2.679688,-4.052734 0.663141,-1.555873 0.99414,-3.22678 0.99414,-5 9.27e-4,-1.77238 -0.330985,-3.442141 -0.99414,-4.998047 C 18.929955,9.2212881 18.036375,7.8669779 16.910156,6.7167969 15.783939,5.5666159 14.457146,4.6532046 12.939453,3.9785156 11.413961,3.3003599 9.7743903,2.9609375 8.0351563,2.9609375 Z m 0,0.7460938 c 1.642573,0 3.1727077,0.3179292 4.6015627,0.9531249 1.436653,0.6386628 2.680452,1.4977457 3.740234,2.5800782 1.059784,1.0823324 1.901245,2.3533005 2.527344,3.8222656 0.622834,1.461304 0.932518,3.025536 0.93164,4.705078 0,1.680544 -0.310745,3.245694 -0.933593,4.707031 -0.626124,1.469024 -1.466473,2.739925 -2.525391,3.822266 -1.060754,1.082432 -2.30445,1.941412 -3.740234,2.580078 -1.427824,0.635125 -2.9581217,0.952066 -4.6015627,0.951172 -1.6425732,0 -3.1707543,-0.317929 -4.5996094,-0.953125 -1.4367128,-0.638689 -2.68044517,-1.496679 -3.7402344,-2.578125 -1.0598457,-1.083291 -1.9001955,-2.35426 -2.5253906,-3.822266 -0.6219722,-1.46044 -0.9346692,-3.025419 -0.9355469,-4.707031 0,-1.680544 0.3126991,-3.245695 0.9355469,-4.707031 C -2.2039539,9.5915234 -1.363604,8.3206222 -0.3046875,7.2382812 0.75603097,6.1558863 1.9998347,5.2978947 3.4355469,4.6601562 4.8635229,4.0258542 6.391528,3.707926 8.0351563,3.7070313 Z m 0,2.0175781 c -2.7263648,0 -5.0801023,0.9869322 -6.9804688,2.9277344 -1.90036649,1.9408022 -2.8622584,4.3372582 -2.8613281,7.1152342 0,2.77884 0.96291473,5.176386 2.8632812,7.117188 1.9003665,1.940801 4.2529922,2.928686 6.9785157,2.927734 2.7263637,0 5.0801017,-0.986933 6.9804687,-2.927734 1.900367,-1.940803 2.864212,-4.339211 2.863281,-7.117188 0,-2.778839 -0.962915,-5.176385 -2.863281,-7.1171874 C 13.115259,6.7095886 10.76068,5.7236574 8.0351563,5.7246094 Z m 0,0.7460937 c 2.5482927,-8.9e-4 4.6698797,0.8879618 6.4453127,2.7011719 1.775432,1.81321 2.65039,3.98667 2.65039,6.595703 8.74e-4,2.608054 -0.873004,4.780539 -2.648437,6.59375 -1.775433,1.81321 -3.898012,2.703125 -6.4472657,2.703125 -2.5482932,8.9e-4 -4.6698798,-0.887962 -6.4453126,-2.701172 -1.77543278,-1.81321 -2.6503906,-3.986669 -2.6503906,-6.595703 -8.734e-4,-2.608054 0.87495781,-4.78054 2.6503906,-6.5937499 1.7754329,-1.8132101 3.896057,-2.703125 6.4453126,-2.703125 z m -1.7246094,2.015625 v 7.9863279 l 5.5136721,5.63086 2.416015,-2.466797 L 9.7617188,15.0625 V 8.4863281 Z M 7.0566406,9.234375 H 9.015625 v 6.132813 l 4.179688,4.269531 -1.371094,1.40039 -4.7675784,-4.86914 z"
       id="path3" />
  </g>
  <g
     id="g7"
     transform="translate(7.13525,-0.30630845)"
     style="stroke:#000000;stroke-opacity:1;stroke-width:1.15999999;stroke-dasharray:none">
    <path
       style="fill:#ffffff;fill-opacity:1;fill-rule:evenodd;stroke:#000000;stroke-width:1.44999999;stroke-linecap:round;stroke-linejoin:round;stroke-dasharray:none;paint-order:markers fill stroke;stroke-opacity:1"
       d="m 8.32101,10.480259 c -0.9597668,0.520718 -0.6256841,1.709739 -0.6816754,2.600098 0.026477,2.438089 -0.052866,4.888043 0.03955,7.318738 0.190374,0.87051 1.0887035,1.336055 1.6151162,2.005042 1.6002322,1.596084 3.1333532,3.274488 4.7756062,4.819058 0.702807,0.581312 1.596075,0.02917 2.059616,-0.588179 0.577718,-0.677178 1.599556,-1.251623 1.470424,-2.27005 -0.238342,-0.868513 -1.094701,-1.37545 -1.635641,-2.05397 -1.1633,-1.208381 -2.34109,-2.402696 -3.511962,-3.603721 -0.02703,-2.438258 0.05131,-4.888384 -0.0417,-7.319248 -0.09489,-0.903245 -1.113559,-1.135259 -1.874632,-1.025478 -0.73764,0.03623 -1.4979826,-0.09668 -2.2147038,0.11771 z"
       id="path4"
       transform="scale(0.8)" />
    <path
       style="fill:#ffffff;fill-opacity:1;fill-rule:evenodd;stroke:#000000;stroke-width:1.44999999;stroke-linecap:round;stroke-linejoin:round;stroke-dasharray:none;paint-order:markers fill stroke;stroke-opacity:1"
       d="M 9.7828893,3.4756905 C 4.2308071,3.4739196 -1.087347,6.7855574 -3.7595288,11.613402 c -2.8604221,4.978093 -2.8383027,11.477057 0.1253212,16.405571 2.6282447,4.552241 7.6164055,7.739553 12.8998665,7.927036 2.0429081,0.01373 4.1200121,-0.129114 6.0395831,-0.886561 C 20.929565,33.063533 25.182929,27.722749 25.84249,21.787904 26.357682,17.665468 25.305271,13.35631 22.816511,10.013777 19.920144,5.9975101 15.075989,3.4008496 10.095738,3.4734236 c -0.1042844,3.458e-4 -0.2085657,0.00162 -0.3128487,0.00227 z m 0.5838447,4.9133301 c 3.110683,-0.066842 6.075855,1.5173281 8.059256,3.8610844 1.83555,2.01709 2.787452,4.770924 2.662006,7.488839 0.07104,1.719819 -0.272181,3.441855 -1.03895,4.985785 -1.625413,3.369337 -4.936434,5.911009 -8.702456,6.275772 C 8.066058,31.413396 4.6253982,30.273125 2.31393,27.892543 0.21560268,25.856221 -1.0766788,22.928521 -1.0164462,20.020771 -1.2026975,16.912955 0.01023321,13.773909 2.2465091,11.605453 4.1294545,9.6342966 6.8253214,8.4070357 9.5327509,8.4071348 9.8105661,8.3947179 10.08864,8.3886143 10.366734,8.3890206 Z"
       id="path5"
       transform="scale(0.8)" />
    <path
       style="fill:#ffffff;fill-opacity:1;fill-rule:evenodd;stroke:#000000;stroke-width:1.44999999;stroke-linecap:round;stroke-linejoin:round;stroke-dasharray:none;paint-order:markers fill stroke;stroke-opacity:1"
       d="m 20.193743,1.0014997 c -0.740419,0.7381088 -1.596286,1.4081475 -2.159947,2.296317 -0.295905,1.0430265 0.757051,1.6619626 1.33595,2.3540402 1.832465,1.8806915 3.651297,3.7830208 5.517666,5.6254071 0.667223,0.608322 1.609578,0.166153 2.070777,-0.475515 0.588803,-0.70901 1.63578,-1.225091 1.636607,-2.2519444 C 28.35371,7.6030529 27.406568,7.095385 26.822325,6.3667058 25.076954,4.6179473 23.395283,2.7948681 21.600374,1.1016942 21.195501,0.76314705 20.648016,0.763455 20.193743,1.0014997 Z"
       id="path6"
       transform="scale(0.8)" />
    <path
       style="fill:#ffffff;fill-opacity:1;fill-rule:evenodd;stroke:#000000;stroke-width:1.44999999;stroke-linecap:round;stroke-linejoin:round;stroke-dasharray:none;paint-order:markers fill stroke;stroke-opacity:1"
       d="M -1.385498,0.97185411 C -3.6937513,3.2012965 -5.8984444,5.5457808 -8.1668527,7.8194754 c -0.5998738,0.6416858 -0.2790845,1.6048654 0.3811076,2.0666513 0.6755369,0.5532353 1.1537787,1.4957863 2.0542066,1.6671213 1.0016309,0.108948 1.5016198,-0.983989 2.1816078,-1.53432 C -1.7547499,8.1628262 0.09388902,6.3496675 1.8413866,4.4527518 2.4166821,3.7798301 1.9688098,2.8681129 1.3414708,2.4114105 0.62989,1.8294937 0.08326438,0.69846759 -0.96662821,0.83024795 -1.1062514,0.87745 -1.2458747,0.92465205 -1.385498,0.97185411 Z"
       id="path7"
       transform="scale(0.8)" />
  </g>
</svg>
