<?xml version="1.0" encoding="UTF-8"?>
<!-- Generator: visioncortex VTracer 0.6.5 -->
<svg version="1.1" xmlns="http://www.w3.org/2000/svg" width="240" height="240">
<path d="M0,0 L178,0 L178,178 L0,178 Z M87,19 L87,22 L84,22 L84,25 L81,25 L81,28 L78,28 L78,31 L75,31 L75,34 L72,35 L72,37 L106,37 L106,34 L103,34 L103,31 L100,31 L100,28 L97,28 L97,25 L94,25 L94,22 L91,22 L91,19 Z M35,72 L34,75 L31,75 L31,78 L28,78 L28,81 L25,81 L25,84 L22,84 L22,87 L19,87 L19,91 L22,91 L22,94 L25,94 L25,97 L28,97 L28,100 L31,100 L31,103 L34,103 L35,106 L37,106 L37,72 Z M141,72 L141,106 L144,106 L144,103 L147,103 L147,100 L150,100 L150,97 L153,97 L153,94 L156,94 L156,91 L159,91 L159,87 L156,87 L156,84 L153,84 L153,81 L150,81 L150,78 L147,78 L147,75 L144,75 L144,72 Z M72,141 L72,144 L75,144 L75,147 L78,147 L78,150 L81,150 L81,153 L84,153 L84,156 L87,156 L87,159 L91,159 L91,156 L94,156 L94,153 L97,153 L97,150 L100,150 L100,147 L103,147 L103,144 L106,144 L106,141 Z " fill="#FDFDFD" transform="translate(31,31)"/>
</svg>
