<?xml version="1.0" encoding="UTF-8" standalone="no"?>
<svg
   viewBox="0 0 192.97366 171.5217"
   version="1.1"
   id="svg1"
   sodipodi:docname="delay.svg"
   width="192.97366"
   height="171.5217"
   inkscape:version="1.4.2 (ebf0e940d0, 2025-05-08)"
   xmlns:inkscape="http://www.inkscape.org/namespaces/inkscape"
   xmlns:sodipodi="http://sodipodi.sourceforge.net/DTD/sodipodi-0.dtd"
   xmlns="http://www.w3.org/2000/svg"
   xmlns:svg="http://www.w3.org/2000/svg">
  <defs
     id="defs1" />
  <sodipodi:namedview
     id="namedview1"
     pagecolor="#ffffff"
     bordercolor="#000000"
     borderopacity="0.25"
     inkscape:showpageshadow="2"
     inkscape:pageopacity="0.0"
     inkscape:pagecheckerboard="0"
     inkscape:deskcolor="#d1d1d1"
     inkscape:zoom="2.9683823"
     inkscape:cx="85.568492"
     inkscape:cy="104.77087"
     inkscape:window-width="2560"
     inkscape:window-height="1536"
     inkscape:window-x="0"
     inkscape:window-y="0"
     inkscape:window-maximized="1"
     inkscape:current-layer="svg1" />
  <path
     d="m 96.486829,2.3900001 c -51.753259,0 -94.0968289,37.5168799 -94.0968289,83.3708489 0,45.853971 42.3435699,83.370851 94.0968289,83.370851 51.753261,0 94.096831,-37.51688 94.096831,-83.370851 0,-45.853969 -42.34357,-83.3708489 -94.096831,-83.3708489 M 143.53525,94.097934 H 87.077146 V 44.07542 h 14.114524 v 37.516885 h 42.34358 z"
     id="path1"
     style="fill:#ffffff;fill-opacity:1;stroke:#000000;stroke-width:4.78;stroke-dasharray:none;stroke-opacity:1" />
  <path
     style="fill:#ffffff;fill-opacity:1;fill-rule:evenodd;stroke:#000000;stroke-width:1.6103;stroke-linecap:round;stroke-linejoin:round;stroke-dasharray:none;stroke-opacity:1;paint-order:markers fill stroke"
     d="m 88.588406,45.69695 c -0.872549,2.70896 -0.12942,5.77348 -0.375704,8.620145 0.08304,12.561069 -0.166123,25.185855 0.124641,37.707084 1.042594,1.752641 3.721205,0.51845 5.454997,0.88717 15.72125,0 31.44249,0 47.16374,0 2.17997,-0.737904 0.82796,-3.668746 1.20014,-5.411197 -0.15448,-1.647904 0.80107,-5.021142 -1.87391,-4.737429 -13.41219,0 -26.82438,0 -40.23656,0 0,-12.064652 0,-24.129304 0,-36.193953 -0.778921,-2.21403 -3.793477,-0.80275 -5.579642,-1.20015 -1.933111,0.16536 -4.053832,-0.36294 -5.877702,0.32833 z"
     id="path2" />
</svg>
