<?xml version="1.0" encoding="UTF-8" standalone="no"?>
<!-- Created with Inkscape (http://www.inkscape.org/) -->

<svg
   width="166.58862mm"
   height="146.27449mm"
   viewBox="0 0 166.58862 146.27449"
   version="1.1"
   id="svg1"
   inkscape:version="1.3.2 (091e20ef0f, 2023-11-25)"
   sodipodi:docname="pfp.svg"
   xmlns:inkscape="http://www.inkscape.org/namespaces/inkscape"
   xmlns:sodipodi="http://sodipodi.sourceforge.net/DTD/sodipodi-0.dtd"
   xmlns="http://www.w3.org/2000/svg"
   xmlns:svg="http://www.w3.org/2000/svg">
  <sodipodi:namedview
     id="namedview1"
     pagecolor="#ffffff"
     bordercolor="#000000"
     borderopacity="0.25"
     inkscape:showpageshadow="2"
     inkscape:pageopacity="0.0"
     inkscape:pagecheckerboard="0"
     inkscape:deskcolor="#d1d1d1"
     inkscape:document-units="mm"
     inkscape:zoom="0.5946522"
     inkscape:cx="385.09905"
     inkscape:cy="391.82568"
     inkscape:window-width="1440"
     inkscape:window-height="855"
     inkscape:window-x="0"
     inkscape:window-y="0"
     inkscape:window-maximized="1"
     inkscape:current-layer="layer1" />
  <defs
     id="defs1" />
  <g
     inkscape:label="Layer 1"
     inkscape:groupmode="layer"
     id="layer1"
     transform="translate(-21.166667,-75.40625)">
    <path
       style="fill:#000000;fill-opacity:1;stroke:none;stroke-width:1.2662;stroke-linecap:round;stroke-linejoin:round"
       d="m 103.49206,75.424336 c -1.59265,0.05841 -3.17111,0.580925 -4.392537,1.597248 -1.675183,1.111728 -2.905993,2.848333 -4.214262,4.36661 -1.411116,2.33136 -2.631715,4.844774 -4.160425,7.122411 -0.314454,0.951772 -1.072994,1.566434 -1.403024,2.520103 -1.431994,2.467221 -2.964828,4.87077 -4.308785,7.377253 -0.624051,0.623265 -0.799936,1.676199 -1.40462,2.362969 -3.715919,6.4781 -7.613412,12.85014 -11.299187,19.33249 -0.224687,0.85962 -1.047665,1.22817 -1.245891,2.10374 -2.068155,3.42383 -4.001664,6.95131 -6.158085,10.3229 -1.020286,2.10691 -2.348819,4.13995 -3.511153,6.19995 -0.48887,0.88858 -1.091443,1.65333 -1.504325,2.57913 -0.59508,0.62377 -0.835917,1.61931 -1.407811,2.31391 -4.297145,7.58406 -8.850966,15.02565 -13.162444,22.58841 -3.398382,5.56557 -6.482583,11.37457 -10.00743,16.84868 -0.273839,1.02142 -1.262378,1.63182 -1.542212,2.68042 -0.211862,0.64123 -0.830738,0.9299 -0.906901,1.6471 -0.712456,0.83819 -1.05651,1.97003 -1.797852,2.75899 -0.399698,0.40692 -0.322586,1.20506 -0.900521,1.5123 -0.247275,0.54624 -0.374852,1.10732 -0.800419,1.53743 -0.954891,1.90382 -2.283806,3.59617 -3.254717,5.49804 -0.488273,0.71768 -0.844562,1.50936 -1.315686,2.2194 -0.175098,0.70159 -0.812989,0.96204 -0.874997,1.69775 -0.903267,2.0082 -1.91681,4.01403 -2.619009,6.08071 -0.07756,1.57017 -0.319265,3.26722 0.139585,4.78218 0.647556,1.87661 1.955784,3.43056 3.503577,4.64976 1.256414,0.96558 2.559953,2.02434 3.962206,2.68211 48.047433,0.36733 96.095295,0.87559 144.144315,0.87441 1.8052,-0.15858 3.84171,0.22087 5.44548,-0.73611 1.09277,-0.26307 2.15955,-0.76854 3.1933,-1.18128 0.4885,-0.61367 1.50188,-0.64285 2.05549,-1.26624 2.27495,-1.69424 4.2405,-4.3159 3.98495,-7.28792 0.1874,-2.76807 -0.63882,-5.45577 -1.72009,-7.9655 -0.53431,-0.47973 -0.6822,-1.43321 -1.18682,-2.01056 -1.87963,-2.97452 -3.67382,-5.98698 -5.50926,-8.99829 -1.59528,-2.62227 -3.24996,-5.22148 -4.79693,-7.87537 -0.10354,-0.54887 -0.73174,-0.66142 -0.78805,-1.25427 -0.74566,-1.19629 -1.43904,-2.40691 -2.19547,-3.58174 -0.0704,-0.55801 -0.78094,-0.75803 -0.8754,-1.38349 -4.89479,-8.11513 -9.91771,-16.18378 -14.83586,-24.29891 -1.42025,-2.27324 -2.7989,-4.56094 -4.18755,-6.85601 -1.47005,-2.35244 -2.90238,-4.7393 -4.35636,-7.10968 -2.2847,-3.62871 -4.49764,-7.35234 -6.77093,-10.99765 -3.0739,-5.1405 -6.25716,-10.22301 -9.38289,-15.32561 -4.72854,-7.75559 -9.49269,-15.501572 -14.18819,-23.266783 -0.54071,-0.953437 -1.24752,-1.916941 -1.72248,-2.845136 -0.58008,-0.690481 -0.88345,-1.620896 -1.47484,-2.33603 -0.68452,-1.205746 -1.58123,-2.415215 -2.21379,-3.585157 -1.13654,-1.242587 -2.00377,-2.786102 -3.3604,-3.85533 -1.31586,-1.114749 -2.81789,-2.42722 -4.6713,-2.239338 z m 0.94558,2.570752 c 0.70927,0.01069 0.0687,0.8393 -0.21775,0.241681 -0.0977,-0.148326 0.0823,-0.257413 0.21775,-0.241681 z m -2.9572,1.833744 c 0.48021,-0.112861 1.20071,0.289325 0.63651,0.781674 -2.246534,3.255151 -4.905123,6.204088 -7.151393,9.46285 -2.013625,2.660351 -3.507296,5.665549 -5.518121,8.323439 -0.373354,0.514184 -0.560766,1.22672 -1.060842,1.705725 -0.560302,0.99554 -1.312307,2.0406 -2.268852,2.65012 -0.528487,-0.44917 0.325244,-1.20984 0.524441,-1.65468 0.02236,-0.60107 0.644859,-0.71871 0.675989,-1.335626 0.679786,-1.033923 1.191046,-2.225075 1.963756,-3.184528 0.730613,-1.567005 1.761281,-3.140448 2.644064,-4.683265 2.107099,-3.333083 3.975758,-6.846573 6.318874,-10.009426 0.253333,-0.334391 0.367022,-0.889095 0.851866,-1.107506 0.686982,-0.54193 1.487108,-0.954667 2.383708,-0.948777 z m 6.47873,2.250107 c 0.87927,-0.0047 1.87786,0.504459 2.02358,1.4118 0.67617,0.452221 0.72732,1.491711 1.30252,2.085396 1.08807,1.222251 0.33237,1.39836 -0.90436,1.263491 -3.14523,0.144214 -6.33118,0.80323 -9.46878,0.337746 -1.536564,-0.324625 -1.292542,-2.522167 -0.11206,-3.155413 1.7756,-1.076685 3.87802,-1.258731 5.86893,-1.682993 0.40209,-0.198808 0.83354,-0.274762 1.29017,-0.260027 z m 3.81066,7.278348 c 0.98238,-0.104195 2.2373,0.09792 2.51452,1.202423 0.91172,1.474407 1.95,2.93002 2.69239,4.471498 -0.34626,0.509 -1.32812,0.108506 -1.85744,0.297442 -3.65205,0.225573 -7.3649,-0.06924 -10.98396,0.404069 -1.48774,0.518618 -3.11087,0.574392 -4.63501,0.996638 -1.561211,0.169153 -3.755517,0.200377 -4.598321,-1.384681 -0.245155,-1.130538 -0.204002,-2.789465 1.176105,-3.147835 2.454373,-1.268868 5.144256,-2.021473 7.893316,-2.238942 2.55927,-0.586837 5.18432,-0.605189 7.7984,-0.600612 z m 1.09435,8.225131 c 1.90958,0.07256 3.86232,-0.05905 5.74491,0.270796 1.54912,1.850993 2.55017,4.072916 3.90797,6.058776 1.48843,2.52772 3.0502,5.0274 4.53052,7.56111 0.57041,0.91435 1.44901,2.0423 1.17052,3.17694 -0.26578,0.19606 -0.58005,0.18321 -0.74419,0.51527 -0.68798,0.33246 -1.13476,0.57064 -0.22254,1.01777 1.11202,0.72159 2.80271,0.15965 3.53828,1.5135 0.45361,0.37409 0.41683,1.05377 0.92724,1.27501 0.35554,1.11251 1.31905,1.99211 1.63474,3.10436 -1.64286,1.82094 -3.33297,3.71709 -5.41111,5.05018 -2.95715,1.27742 -6.30839,0.89419 -9.44372,1.2461 -1.61643,0.13837 -3.3154,0.20592 -4.72508,-0.75154 -1.32104,-0.48966 -2.58424,-1.30713 -3.92457,-1.66548 -1.18151,0.58217 -2.62338,0.4718 -3.82821,1.03014 -5.74476,0.53702 -11.568818,-0.0197 -17.28857,0.75695 -1.637662,0.41442 -3.277145,0.88769 -4.89145,1.34679 -1.380196,0.56559 -2.829639,1.00943 -4.139684,1.72726 -1.053788,0.50225 -1.927029,1.33327 -3.021809,1.78948 -0.749257,0.66187 -1.872575,0.72611 -2.697154,1.34116 -1.754637,0.77352 -3.522552,2.32221 -5.561079,1.95503 -1.32193,-0.35198 -1.508376,-2.68308 0.004,-2.86827 0.974437,-0.24931 2.115865,-0.11326 2.917323,-0.72344 1.240837,-0.60077 2.614006,-1.25194 3.521125,-2.29797 -1.189694,-0.11479 -2.446764,0.58878 -3.628406,0.90052 -0.683567,0.0781 -1.562669,0.55153 -2.186297,0.29393 0.25396,-1.03522 0.920403,-2.01088 1.644706,-2.74663 2.456423,-1.4887 5.612156,0.12593 8.042875,-1.44889 1.313331,-0.3892 2.557648,-0.97898 3.960598,-1.11772 1.354847,-0.39142 2.82217,-0.37081 4.158848,-0.69808 1.494282,-0.6038 3.458501,-0.11795 4.737505,-1.22755 0.270438,-0.69053 -0.418344,-1.11766 -1.055259,-0.96552 -1.259292,0.0178 -2.267606,1.03519 -3.577394,0.9047 -1.584521,-0.0538 -3.187555,-0.35175 -4.738547,0.17671 -2.314708,0.65673 -4.691719,1.41785 -7.138485,1.18265 -1.45678,-0.0498 -1.418029,-1.98957 -0.584661,-2.77534 0.925891,-0.94487 2.391313,-0.88065 3.581599,-1.26825 3.858178,-0.77997 7.805663,-1.07966 11.654676,-1.86723 0.716455,-0.21358 1.314913,-0.67947 1.949402,-1.05525 -1.090813,-1.03584 -2.668071,-0.56969 -3.878466,-0.0514 -3.735192,0.7669 -7.588599,0.97894 -11.393702,0.93681 -0.71506,-0.11287 0.285237,-0.98462 0.297514,-1.33004 0.797623,-1.14664 1.200234,-2.80085 2.473044,-3.51155 0.85258,0.0104 1.314334,1.16514 2.277981,0.83728 6.934221,-0.0305 13.880115,0.26298 20.807337,-0.10187 3.30656,-0.59894 6.71811,-0.31672 10.01183,-0.91169 0.5671,-0.2553 1.45891,-0.77376 0.4339,-0.99903 -1.73448,-0.45691 -3.53247,0.008 -5.16424,0.59822 -3.12852,0.32436 -6.26655,-0.33152 -9.405539,-0.25087 -4.348924,-0.22047 -8.736181,0.0427 -13.063217,-0.44147 -1.739066,-0.36268 -1.910434,-2.70232 -0.793639,-3.81146 1.433444,-1.66934 3.820782,-1.39395 5.665124,-2.28849 1.641491,-0.52606 3.678105,-1.32164 5.155088,0.0424 0.740876,0.94605 2.341314,1.00165 2.909345,-0.14956 0.589958,-0.96598 -0.892029,-2.2197 -1.706522,-1.35157 -1.772635,0.23846 -3.671494,0.37395 -5.415891,-0.0136 -1.032661,-0.66082 -2.227258,-1.43821 -2.246914,-2.83157 -0.138202,-1.49199 1.578145,-2.25556 2.656896,-2.875447 4.366435,-1.804173 9.263279,-0.279215 13.749049,-1.520979 1.40831,-0.219318 2.71938,-0.820536 4.17916,-0.665112 1.2108,-0.031 2.42213,-0.03248 3.63325,-0.02693 z M 82.418745,108.62397 c 0.85733,0.13691 0.12364,1.40186 -0.331411,1.66226 -0.793433,-0.1517 -0.247005,-1.54611 0.331411,-1.66226 z m 51.046545,16.3354 c 1.85634,-0.30196 2.83518,1.69052 3.48124,3.08203 0.51818,0.89007 0.30494,2.29634 -0.87579,2.46627 -1.12136,0.20896 -2.4512,0.47433 -3.43977,-0.18425 -1.10996,-0.29606 -2.50788,-0.76897 -3.03218,-1.88479 -0.3382,-1.7414 1.46436,-3.29857 3.092,-3.44336 0.25728,-0.0267 0.51597,-0.0357 0.7745,-0.0359 z m -17.3795,4.14328 c 1.51206,0.12367 3.27365,-0.18609 4.59992,0.67918 0.48932,0.54098 0.2142,1.70292 -0.67121,1.51031 -3.08073,0.23475 -6.43557,-0.84125 -9.2764,0.78885 -1.25479,0.52777 -2.59213,0.85925 -3.75483,1.56654 -1.25424,0.54029 -0.41949,1.01972 0.45943,1.19843 0.71575,0.21565 1.45452,0.15136 2.07224,-0.22453 2.79528,-0.50401 5.53072,-1.39759 8.40635,-1.42084 1.35199,-0.15264 2.74741,0.15892 3.90263,0.84456 0.86812,0.82063 -0.29163,1.74784 -1.03971,2.06824 -2.13649,1.08271 -3.45829,3.2623 -5.688,4.2234 -2.41565,1.4735 -5.12474,2.47318 -7.97657,2.54191 -1.44656,0.14806 -2.89734,0.24877 -4.34744,0.35471 1.19,0.61044 1.43044,2.56356 0.0658,3.09958 -0.51839,0.20605 -1.67607,0.006 -1.69535,0.7745 1.34349,1.02427 3.03227,-0.14076 4.37817,-0.5719 1.35463,-0.55604 2.46832,-1.55608 3.82821,-2.05828 1.12657,-0.83184 2.74269,-0.87606 4.11735,-0.95356 1.57861,0.0399 3.11818,0.48718 4.65097,0.81159 0.80499,0.38984 2.43921,0.37714 2.34064,1.63274 -0.63022,1.4356 -2.55959,0.67018 -3.70783,0.65683 -1.0735,0.0304 -2.53499,-0.61095 -3.44171,0.20062 -0.22778,0.78269 1.10177,0.88128 1.52746,1.21319 3.77629,0.71699 7.69387,0.75067 11.39889,1.83414 1.93582,0.44711 3.85538,1.10467 5.66634,1.89995 1.64673,0.50858 3.28632,1.38881 4.72913,2.33385 0.40996,0.16767 1.63125,0.0658 1.03293,-0.61058 -1.41515,-1.66995 -3.94,-2.07515 -5.12874,-3.93988 -0.19035,-0.95934 1.33101,-1.20326 1.88479,-0.63929 1.05089,0.15566 2.3036,0.60735 3.30098,0.134 0.73189,-0.75879 0.20942,-2.20311 1.36993,-2.66607 1.50654,-0.59725 3.16035,-0.78633 4.59912,-1.5809 0.82988,-0.29667 1.43738,-1.66226 2.42359,-1.26304 0.89692,1.17419 1.77092,2.50178 2.15638,3.9315 -0.20343,0.92781 -1.493,0.34066 -1.90274,1.15138 -1.62022,1.44622 -3.73952,2.31633 -5.93355,2.13126 -0.24989,0.0496 -1.26058,-0.0523 -0.71587,0.4028 1.00838,1.30284 2.69873,2.38819 2.70396,4.2007 0.61464,1.45328 2.07107,2.41675 3.30058,3.30497 1.11023,0.67504 2.17877,1.40472 3.33368,1.9837 0.40252,0.49676 1.25481,0.4164 1.70638,0.92768 2.06834,1.08523 4.17952,2.17875 5.88379,3.79635 0.58025,0.63115 1.7524,1.51423 0.90975,2.43148 -0.59986,1.10928 -1.87021,-0.0681 -2.62662,-0.3316 -1.34003,-0.75747 -2.75604,-1.53215 -4.09618,-2.21203 -2.9111,-1.69064 -5.95591,-3.19425 -8.83133,-4.96164 -3.70819,-2.06576 -7.5102,-4.04554 -11.44635,-5.6488 -0.53701,-0.16779 -1.89833,-0.5424 -1.82298,0.41158 1.1142,1.34196 3.04174,1.51615 4.50501,2.34483 1.73049,0.8335 3.54847,1.65852 5.26513,2.43176 2.034,1.18354 4.14172,2.30903 6.19423,3.48108 1.60472,0.76236 3.18765,1.71997 4.63196,2.68418 1.14557,0.4166 1.98434,1.38875 3.0573,1.89955 2.06543,1.4281 4.67247,2.0937 6.49349,3.84416 0.55053,0.66364 0.73037,1.91689 1.84212,1.815 0.79955,-0.0392 1.42741,0.63762 2.12368,0.76014 0.10784,-1.34019 -0.94233,-2.63128 -2.13644,-3.15222 -0.49758,-1.03538 -0.61824,-2.25955 -1.22835,-3.27665 -0.15649,-0.84895 -1.19503,-1.43952 -0.99145,-2.33147 0.45182,-0.53983 1.05626,0.49584 1.30492,0.79723 0.53207,0.74254 0.89042,1.72212 1.54859,2.2864 1.29518,2.73971 3.37605,5.13174 4.26771,8.05085 0.0719,0.88795 -1.21101,0.8003 -1.5466,1.50113 -0.96889,0.98067 -2.19222,1.88585 -3.33927,2.50934 -1.31945,1.03521 -3.01838,1.61041 -4.51457,2.39408 -0.57611,0.23053 -1.13942,0.36785 -1.65627,0.67279 -0.61649,0.16004 -1.91393,0.0485 -1.58489,-0.88576 0.22838,-0.84726 1.167,-1.17362 1.78709,-1.52785 0.57104,-0.57894 1.55043,-0.64929 2.09602,-1.33109 1.35675,-1.1036 2.91832,-2.10201 4.20404,-3.21699 -0.5657,-0.30158 -1.0766,-1.10243 -1.75518,-0.48017 -1.18295,0.77236 -2.41131,1.55059 -3.67348,2.14363 -0.40584,0.46405 -1.22465,0.41711 -1.62157,0.97709 -0.59574,0.53569 -1.48326,0.82704 -2.05589,1.27142 -0.87387,0.95027 -2.2795,1.37703 -3.49161,1.79027 -1.0364,0.27828 -2.22563,0.10661 -3.0924,0.75575 -1.53317,0.63931 -2.80567,1.81807 -4.32514,2.51532 -0.59537,0.45644 -1.4755,0.54089 -1.9482,1.09514 -2.25317,0.75223 -4.34327,2.01245 -6.61512,2.71752 -1.9554,0.77742 -4.15933,0.31041 -6.14171,1.01774 -2.42127,0.39282 -4.71861,1.25289 -7.04147,1.97615 -0.93897,0.58245 -2.28509,0.30162 -3.36747,0.45946 -3.19163,0.077 -6.40435,-0.0349 -9.55796,0.50832 -5.58307,0.27432 -11.195543,0.24557 -16.752354,-0.38875 -3.560149,-0.20136 -7.143083,-0.18147 -10.680957,0.30514 4.006398,0.66873 8.148998,0.66011 12.039386,1.88839 1.519036,0.62425 2.072063,2.284 2.922505,3.53229 0.211154,0.29311 1.110348,0.81779 1.204818,0.27119 -0.904526,-0.90241 -2.680015,-2.40908 -1.320472,-3.71495 1.517769,-0.93998 3.500908,-0.26015 4.969216,0.45983 0.318008,0.50438 1.106318,0.49947 1.490278,1.04172 0.64371,0.73796 2.03399,1.57208 2.89747,0.76292 0.63659,-0.81035 0.86427,-1.931 1.87602,-2.44314 1.72923,-0.7954 3.45468,0.77169 4.58995,1.92667 0.39229,0.50689 0.99562,0.76861 1.49914,1.0437 0.22607,0.33388 1.12315,0.33741 1.33921,0.049 -0.72343,-0.57595 -2.08233,-1.14515 -1.6128,-2.32668 0.68468,-0.96781 1.97472,-1.05319 2.97993,-1.34799 2.11246,-0.58133 4.38746,-0.57135 6.53057,-1.11189 1.94568,-0.30767 3.83116,-0.90835 5.72697,-1.37591 1.39001,-0.002 2.9122,-0.35211 4.23181,0.15993 0.60437,0.45766 1.2926,1.80165 0.39682,2.2525 -1.33936,0.21578 -3.09349,0.038 -4.01845,1.22116 -0.18585,0.68675 1.03229,0.58574 1.25148,0.14438 1.2279,-0.42055 2.41481,-0.95542 3.6631,-1.31569 0.71162,-0.37187 1.70391,-0.18116 2.32788,-0.61737 -0.82986,-0.99096 -1.18745,-2.44264 -0.68636,-3.6627 0.96607,-0.79028 2.41911,-0.20311 3.55263,-0.22254 3.28812,0.5215 6.58416,1.0569 9.93006,0.89335 3.80288,0.0119 7.83969,0.0418 11.21065,-1.9833 1.04736,-0.39306 1.98125,-1.28939 1.82258,-2.49698 0.069,-1.23377 -0.31914,-2.8522 0.95077,-3.62601 1.0968,-0.78775 2.31885,-1.39576 3.47845,-2.06147 0.58537,-0.14056 0.87817,-0.73452 1.56495,-0.68795 1.3398,-0.47988 2.43091,0.58437 3.05332,1.64311 1.22346,1.81966 2.3785,3.77578 3.3249,5.71181 1.86083,2.88671 3.59619,5.86943 5.26434,8.87161 0.45371,0.49585 0.30252,1.20401 -0.39961,1.28099 -2.54734,0.58809 -5.17599,-0.14906 -7.74735,-0.22214 -1.41196,0.009 -3.1046,-0.92446 -2.83956,-2.56079 -0.25134,-1.16435 0.77921,-2.30144 1.97254,-1.9127 1.05599,0.11764 2.16511,0.96554 3.03258,1.16612 -0.65526,-0.56393 -1.83148,-1.3856 -1.09435,-2.37134 0.39284,-0.87025 1.52525,-0.79724 2.15878,-1.43214 -0.47602,-0.73072 -0.73826,-1.65223 -1.10232,-2.39368 -0.58751,-0.33455 -0.50427,-1.2959 -1.13742,-1.61001 -0.64997,-1.1238 -1.42461,-2.39356 -2.62419,-2.97315 -1.32071,-0.2674 -2.85714,-0.0882 -3.89043,0.84787 1.26901,1.4712 3.31894,1.71376 4.93055,2.67276 1.17794,0.3948 1.42888,2.08988 0.71466,2.97325 -1.62178,0.90892 -2.95379,2.19338 -4.11496,3.63678 -1.30748,0.93413 -2.97224,-0.105 -4.29961,-0.50291 -0.52864,-0.0998 -1.02047,-0.22273 -1.45886,-0.49811 -1.16585,-0.0874 -2.75291,-0.0338 -3.4617,1.0405 0.0808,0.96436 1.47649,0.70491 2.14482,0.97031 1.78631,0.61937 4.31988,0.46055 5.2424,2.46467 0.43005,0.79184 -0.12447,1.6811 -0.99743,1.75239 -4.06812,0.75842 -8.10889,1.6817 -12.17726,2.41813 -3.72997,0.599 -7.58549,0.4106 -11.22484,1.48124 -2.87582,0.39163 -5.62598,1.3032 -8.47866,1.79449 -2.69519,0.84899 -5.5829,0.93563 -8.29652,1.73723 -1.68758,0.0768 -3.36191,0.90498 -5.04539,0.59344 -3.09678,-1.18585 -6.37803,0.21001 -9.55875,0.10004 -10.659796,0.34269 -21.343583,0.42554 -31.997227,-0.12676 -6.161828,-0.92689 -12.470455,-0.33424 -18.610236,-1.44411 -1.673473,-0.38349 -3.151941,-1.3111 -4.778584,-1.79625 -1.256482,-0.30161 -2.534621,0.0764 -3.438096,1.00159 -0.06032,0.36219 1.067782,0.61147 1.59159,0.72567 3.143295,0.42172 6.361827,0.55966 9.431542,1.39425 4.246117,0.56566 8.615457,0.23664 12.798326,1.21199 1.870091,0.53942 3.946922,0.34114 5.892139,0.55084 6.619462,0.55621 13.261184,0.72475 19.903114,0.66115 8.554352,-0.003 17.105332,-0.65845 25.554502,-1.97679 5.10468,-0.51119 10.27846,-0.67334 15.26205,-1.97272 4.13574,-0.87681 8.27355,-1.97608 12.53947,-1.87682 2.61209,0.13637 5.66738,-0.58173 7.87822,1.20409 0.93898,1.04266 0.14228,2.56493 -1.02056,3.01384 -2.68748,1.41674 -6.17338,0.30376 -8.64708,2.19387 -0.49528,0.30894 -0.49013,0.96597 0.13839,1.0429 1.90663,0.34487 3.94723,-0.46472 5.7832,0.20698 1.21942,0.77368 2.17633,2.71727 0.94319,3.90399 -0.71726,0.94643 -1.74024,1.74497 -2.91014,1.89356 0.0303,0.48876 1.01459,0.945 0.23889,1.38668 -1.13688,0.77852 -2.68741,0.39419 -3.99199,0.50197 -0.99777,0.0243 -2.22799,-0.22166 -2.52064,-1.32792 -0.9684,-1.6201 -3.31252,-1.61841 -4.78935,-0.79044 -0.82135,0.42783 -0.19296,1.76862 -1.24111,1.9494 -1.6366,0.24485 -3.46631,0.42816 -5.02864,-0.22374 -0.65789,-0.41833 -0.50097,-1.49017 -1.42416,-1.65188 -0.88687,-0.44245 -1.96343,-0.89435 -2.85311,-0.18426 -1.21865,0.41909 -1.53002,2.0457 -2.91693,2.12807 -2.27806,0.17948 -4.96074,0.45772 -6.8225,-1.15217 -1.6345,-0.59717 -2.94045,0.97636 -4.52454,1.00621 -3.64255,0.20777 -7.33375,0.32547 -10.96378,-0.0889 -0.70953,0.006 -1.00162,-0.64013 -1.40582,-1.03771 -0.86856,0.29339 -1.46329,1.28483 -2.50854,1.2782 -1.50671,0.10314 -3.37906,0.44262 -4.626636,-0.61417 -0.189537,-0.56941 -0.755939,-0.93029 -1.298935,-0.51408 -0.734232,0.44009 -1.355651,1.11947 -2.306738,1.08318 -2.007867,0.23394 -4.063659,0.1103 -6.059175,0.0359 -0.08277,-0.3835 0.228732,-1.36336 -0.03749,-1.53662 -0.396687,0.5318 -0.485069,1.29741 -1.305714,1.40502 -2.773108,0.50326 -5.655357,0.0943 -8.448468,0.13839 -0.317153,-0.76796 -0.146034,-2.52186 -1.349587,-2.51812 -1.537147,0.33683 -2.633866,1.49257 -3.874473,2.33985 -2.47041,0.47898 -5.057963,0.26749 -7.561506,0.11286 -0.675955,0.0439 -1.583926,-0.51594 -1.079188,-1.25626 1.035582,-1.2955 3.078567,-0.53163 4.301204,-1.4477 -0.01648,-0.71511 -0.913497,-1.08601 -1.293352,-1.62078 -1.618906,1.38757 -3.264667,3.40783 -5.618379,3.22976 -5.57725,0.036 -11.141475,-0.52679 -16.705183,-0.85844 -2.21289,-0.3234 -4.742225,-0.20651 -6.600394,-1.61955 -0.340278,-0.63359 -0.384529,0.0384 -0.158329,0.31506 0.292436,0.69095 0.606311,1.6495 0.27917,2.36417 -1.400035,0.73955 -3.13549,0.29335 -4.657344,0.46581 -2.068582,0.002 -4.141024,0.0121 -6.207135,-0.004 -1.748895,-1.7467 -3.60637,-3.50082 -4.777388,-5.67911 -0.37363,-1.04534 -0.24039,-2.19846 -0.01595,-3.24833 2.864232,-0.23145 5.913855,0.41597 8.284555,2.07782 0.728708,0.43518 1.575918,1.74269 0.55794,2.32986 -0.892528,0.41256 -2.410029,0.45128 -2.681622,1.60722 0.550299,1.26494 2.32753,0.79653 3.372766,0.54997 1.681699,-0.54564 3.271236,-1.48681 5.041002,-1.67023 -0.69107,-0.8361 -1.872144,-2.17654 -1.084773,-3.31454 0.680307,-0.70752 2.177314,-0.94277 2.2856,-2.07304 -0.386421,-1.33626 -2.164447,-0.73543 -3.158262,-0.96759 -3.010723,-0.28582 -6.450187,0.32651 -9.029877,-1.61871 -0.68454,-0.42066 -1.661185,-1.08594 -1.133827,-2.03116 0.567032,-1.50638 1.810265,-3.40102 3.692615,-2.90297 1.812885,0.3345 3.701568,0.5076 5.41429,1.16933 2.17111,0.35311 3.629319,2.23912 5.446599,3.26867 0.323855,0.0559 0.328644,0.54213 0.797626,0.39443 0.681175,0.17053 1.604013,-0.0733 1.447694,-0.95197 0.0065,-0.90321 -0.148513,-2.06008 0.867818,-2.50255 0.859874,-0.49151 -0.198798,-1.28488 -0.794036,-1.25826 -2.659666,-0.51181 -5.382511,-0.74748 -7.991031,-1.45647 -1.703966,-0.29563 -3.114361,-1.3645 -4.472292,-2.33346 -0.595713,-0.15727 0.109969,-1.01004 0.190234,-1.342 1.095696,-1.97044 2.167746,-4.03716 3.43777,-5.86336 0.795245,0.29883 1.114034,1.4634 0.973905,2.24572 -0.331359,0.80598 -1.481505,1.15551 -1.640718,2.00165 0.765379,0.8684 2.205826,0.51383 3.193298,0.27238 0.721903,-0.47329 1.876748,-0.55725 2.353797,-1.33363 0.185788,-0.9384 -0.603443,-1.65553 -0.390837,-2.61502 -0.433221,-1.2008 0.94406,-1.08119 1.700543,-1.37511 1.260721,-0.19009 2.539024,-0.41099 3.511087,-1.33491 1.261642,-1.05867 2.555671,-2.06447 3.937154,-2.95792 1.061966,-0.82933 -0.0807,-2.12026 -0.980284,-2.48022 -1.978806,-1.01899 -4.428585,-1.38527 -6.031257,-3.02061 -0.101332,-1.00748 0.779373,-1.92196 1.164135,-2.81802 0.348695,-0.57236 0.793062,-1.13044 1.139809,-1.65986 0.736209,-0.22147 0.457624,0.69349 0.226926,1.02854 0.232529,1.30188 1.620054,2.07642 2.394375,3.06225 0.683726,0.93035 1.792521,1.15676 2.884247,1.06823 3.272899,0.29473 6.586678,0.39247 9.826046,0.93485 2.583505,1.26647 5.048694,2.84591 7.790423,3.77956 1.069049,0.75133 2.622055,0.14294 3.237172,-0.93841 0.705964,-1.04186 -0.586209,-2.10859 -1.037786,-2.97597 -0.779944,-0.94347 -1.518917,-2.1319 -2.514375,-2.75887 -2.160439,-0.12728 -5.107488,-0.0502 -6.196441,-2.36387 -0.427437,-0.75676 -0.809593,-2.50227 0.506097,-2.58152 1.850835,-0.38195 2.714316,1.66908 3.878062,2.64852 0.922223,0.25894 0.936347,-1.20005 1.033325,-1.78669 0.254193,-1.00283 0.321968,-2.63139 1.522272,-2.95879 0.86569,-0.26881 1.571387,0.25894 1.851692,1.06642 2.104675,3.6899 3.648281,7.79133 6.708843,10.84335 0.717833,1.01683 0.668245,3.03169 -0.86383,3.24155 -0.22906,0.0855 -1.16885,0.12358 -1.055661,0.41357 1.546471,0.16131 3.120369,-0.0971 4.595929,-0.47578 2.230818,0.55316 3.812619,2.9983 6.321994,2.60465 -3.477646,-1.46015 -6.584561,-3.86961 -8.539401,-7.1276 -1.895131,-2.26764 -2.548821,-5.28017 -3.804883,-7.90457 -0.418623,-1.08944 -0.855265,-2.15241 -1.104111,-3.29371 -0.548249,-1.3996 -0.486847,-3.03268 -0.338193,-4.51098 0.312803,-0.86105 1.177861,-2.31696 2.266854,-1.79187 0.496361,1.23636 -0.581855,2.95708 0.520052,3.97457 2.081117,1.47247 3.329014,3.82869 5.256766,5.48528 1.935109,2.06214 4.356764,3.51772 6.696813,5.0508 0.635997,0.28472 0.95023,1.35345 0.05231,1.50251 -2.039083,0.29481 -3.774017,-1.41119 -5.739728,-1.43732 0.02254,0.67929 1.093102,0.62226 1.458828,1.09465 2.986484,2.05126 6.260306,3.69907 9.575548,5.15396 2.946747,0.81541 6.075876,0.64845 9.107308,0.87699 3.791536,-0.0298 7.629196,-0.21964 11.355416,-0.89374 1.50848,-0.51285 3.16577,-0.86728 4.35903,-2.00643 0.36913,-0.083 0.71093,-0.12522 0.85785,-0.48536 1.23842,-0.50059 2.34957,-1.42051 3.5299,-1.97652 0.41427,-0.55497 1.39202,-0.31937 1.83175,-0.95317 2.23025,-1.69922 3.51888,-4.24968 4.43633,-6.82878 0.45411,-1.15934 0.86781,-2.3395 1.28106,-3.51883 0.0344,-0.4798 0.61831,-0.64114 0.55834,-1.20801 0.0946,-0.68614 1.04705,-1.46723 0.11605,-1.9829 -0.63038,-0.45898 -1.21339,-1.56396 -0.28156,-2.04831 0.89401,-0.559 2.21094,-1.03667 3.1283,-0.35095 2.65394,0.46404 4.90696,2.11205 7.31225,3.24435 1.18117,0.8764 2.91883,1.49609 3.3265,3.06568 -0.0899,1.2675 -1.57851,1.83455 -1.88759,3.05212 -0.48277,0.97693 -0.43562,2.13698 -0.96672,3.07046 -0.2167,2.23431 -2.1845,3.77617 -3.51036,5.41549 -0.94563,1.19405 -2.32789,2.19379 -2.92569,3.60488 0.70739,0.0916 1.26687,-0.78428 1.97452,-0.94838 0.99637,-0.56429 2.16796,-1.00424 3.17097,-1.4114 0.60836,-0.53054 1.59575,-0.52061 2.29557,-0.9743 3.2217,-0.93361 6.14339,-2.72396 9.26563,-3.94985 0.43221,-0.1963 0.79866,-0.66383 1.36993,-0.73023 1.65172,-0.97704 3.50507,-1.7063 5.01109,-2.89818 0.45748,-0.8108 -0.92992,-1.21436 -1.4429,-1.51948 -1.64391,-0.78865 -3.12275,-1.81205 -4.69016,-2.70475 -0.59271,-0.41467 -1.04893,-1.00309 -1.83085,-1.00023 -1.84503,-0.79492 -3.53399,-1.99132 -5.29584,-2.89219 -1.15041,-0.9476 -2.60788,-1.58849 -3.89521,-2.26686 -1.37379,-0.91074 -3.00893,-1.51183 -4.44518,-2.22498 -0.22779,-0.50514 -1.11718,-0.25582 -1.52028,-0.65804 -1.1396,-0.61253 -2.47068,-1.029 -3.58573,-1.58848 -0.21703,-0.54095 -1.15388,-0.3875 -1.59339,-0.77254 -1.13884,-0.56196 -2.22119,-1.14125 -3.46317,-1.45004 -1.81405,-0.87061 -4.24227,-0.37175 -5.7465,-1.87443 -0.63576,-0.72793 -0.22942,-1.83304 0.60221,-2.17633 -0.18689,-0.41935 -1.05825,-0.0645 -1.43095,-0.0195 -1.18379,0.35937 -1.6932,1.79387 -2.71745,2.2557 -8.07774,0.26994 -16.183724,0.2553 -24.235165,0.96631 -2.260756,0.43535 -4.582562,0.43409 -6.792624,1.08904 -2.081622,0.24692 -3.975182,1.1924 -6.064326,1.44781 -2.212877,0.54922 -4.402603,1.19284 -6.633469,1.69137 -0.939012,0.44455 -2.05241,0.58569 -2.951618,1.02176 -1.558726,0.74213 -3.369183,0.93185 -4.976397,1.5793 -1.785398,0.34712 -3.642466,0.65398 -5.205714,1.60603 -1.482357,0.6486 -0.818536,2.69137 -1.959369,3.57057 -1.360969,0.40096 -2.717917,0.8024 -4.092625,1.17571 -2.142919,0.76473 -4.16858,1.84828 -5.777611,3.48124 -0.47306,0.25995 -0.991672,1.01447 -1.525466,0.96673 0.408249,-1.91099 1.836343,-3.40513 2.645405,-5.1576 0.470151,-1.03942 1.252024,-1.90766 1.666171,-2.94909 1.026681,-1.33827 1.827331,-3.33137 3.690622,-3.61046 1.072825,-0.66606 2.404724,-0.9402 3.502856,-1.61935 1.825292,-0.87587 4.245713,-1.9022 6.119717,-0.67462 0.413089,0.4387 1.23076,-0.17843 1.667836,-0.38012 1.084164,-0.36526 0.213865,-1.73177 0.358933,-2.58666 -0.164846,-1.66562 1.697014,-2.50738 2.743796,-3.45696 2.898817,-2.10579 6.097008,-3.78758 9.443151,-5.05691 1.733454,-0.65391 3.569454,-0.99117 5.398754,-1.31385 2.389555,-0.40956 4.702542,-1.70553 7.17491,-1.4139 1.153424,0.17274 2.210829,0.74187 3.282764,1.0635 0.674508,0.0396 1.42879,0.1458 1.884395,-0.42075 1.128725,-0.56433 2.003628,-1.53098 3.168972,-2.0144 0.625991,-0.32154 1.320631,-0.47699 1.983701,-0.70152 -2.81214,-0.27856 -5.729293,-0.4442 -8.501909,0.12603 -1.886972,0.47746 -3.840216,0.62875 -5.72457,1.12066 -2.200505,0.22714 -4.487476,0.67302 -6.678134,0.26322 -0.924324,-0.80856 0.331047,-1.94402 1.115081,-2.2509 1.135621,-0.71408 2.912759,-1.35512 3.01942,-2.8934 -0.126386,-1.18677 -1.588492,-1.01847 -2.208128,-0.34041 -1.423514,0.97013 -1.83293,2.83729 -3.205768,3.89584 -0.376129,0.5237 -0.987563,0.72979 -1.478002,1.03731 -0.566455,0.56258 -1.619309,0.24989 -2.346219,0.20858 -1.725727,-0.62374 -3.184515,-1.85801 -4.950074,-2.3869 -0.583877,-0.20795 -1.352717,-1.48558 -0.462627,-1.76634 2.644585,-0.40323 5.43292,0.11919 8.008578,-0.66882 0.500716,-0.11687 1.010684,-0.61259 0.505695,-1.08597 -0.887163,-0.9094 0.514578,-1.80271 1.263044,-2.13205 0.667126,-0.4005 1.492409,-0.28061 2.087388,-0.76692 2.823181,-0.55636 5.49855,-1.6974 8.193233,-2.68256 1.325541,-0.49899 2.652763,-0.98942 3.990523,-1.44357 1.376796,-0.48999 2.868946,-0.82566 4.108976,-1.58727 0.554614,-0.44715 1.399985,-0.46883 2.042324,-0.81757 0.942248,-0.23056 2.407685,-0.79283 3.00865,0.29313 -0.4449,1.07246 -1.698108,1.36062 -2.545229,2.03155 -0.693553,0.48787 -1.787404,0.73241 -2.222585,1.43294 0.853755,0.86612 2.300809,0.3951 3.312543,0.1025 0.937561,-0.46079 2.170621,-0.36663 2.962781,-1.01578 2.10196,-0.40995 4.03236,-1.38356 6.03764,-2.06426 1.47063,-0.42394 2.90688,-0.98894 4.4711,-0.99823 1.15736,-0.0908 2.31796,-0.14169 3.47885,-0.15115 z m 23.45024,5.28269 c 0.775,5.2e-4 1.68169,0.69398 1.74122,1.4776 -0.68143,0.79273 -2.02944,0.50686 -2.94604,0.86662 -2.15409,0.5255 -4.08905,1.66384 -5.84804,2.98096 -2.35689,1.41603 -4.64398,3.09041 -7.30084,3.88302 -0.61459,0.26843 -1.26961,0.50379 -1.99367,0.36851 -1.68296,-0.19662 -3.56951,-0.45219 -4.64618,-1.93465 -0.50909,-0.57788 -1.06746,-1.68107 -0.54876,-2.36257 0.30201,-0.31246 0.53402,-0.84799 1.02455,-1.0768 1.32736,-0.95607 2.81136,-1.67286 4.24417,-2.44831 3.64507,-0.9814 7.4974,-0.70216 11.2241,-1.17029 1.69277,-0.12763 3.33966,-0.58992 5.04949,-0.58409 z m -3.28423,5.08088 c 2.14902,-0.10953 4.43585,0.47451 5.95349,2.06346 0.811,1.12275 -0.10946,2.71723 -1.44131,2.77415 -1.679,0.30383 -3.3887,-0.092 -4.91538,-0.75256 0.0784,0.32416 0.51134,0.72341 0.41317,1.18448 -0.0991,0.70302 0.53326,2.2154 -0.36648,2.24556 -1.97714,-0.0381 -4.09601,-0.40121 -5.77166,-1.49899 -0.73298,-0.52102 -1.44265,-1.61219 -0.59024,-2.37812 0.73785,-1.04126 2.25497,-0.57753 3.33528,-0.74219 0.75503,-0.16965 1.62387,0.33739 2.30554,0.11286 -0.83189,-0.68286 -0.48324,-2.23277 0.30669,-2.84713 0.22727,-0.14713 0.5091,-0.15621 0.7709,-0.16152 z m -73.890985,3.08243 c 0.902148,0.33496 0.584063,1.86959 -0.09213,2.34024 -0.683784,0.49543 -0.988309,-0.51714 -0.709491,-1.02017 0.0081,-0.56187 0.488567,-0.76459 0.577086,-1.24908 0.0596,-0.0559 0.144983,-0.0743 0.22453,-0.071 z m 3.712956,2.02837 c 0.736045,-0.0636 1.836241,0.12973 1.543807,1.13223 0.194302,0.97511 -0.724598,1.61265 -1.624367,1.5139 -0.740076,-0.0471 -2.241888,0.35986 -2.311924,-0.75536 -0.218559,-1.48897 1.138587,-1.93649 2.392484,-1.89077 z m 4.491837,2.23215 c 1.106689,-0.13344 2.15148,0.9467 1.617985,2.04273 -0.521806,1.21334 -2.926688,1.60733 -3.143845,-0.0323 -0.307192,-1.10902 0.320831,-2.07181 1.52586,-2.01043 z m -9.173512,3.0617 c 1.247003,-0.26829 2.764312,1.16004 2.163168,2.39088 -0.940515,1.32597 -2.843366,0.49473 -3.832998,-0.34178 -1.004678,-1.05623 0.563287,-2.33827 1.66983,-2.0491 z m 87.496914,0 c 1.26455,0.0874 2.15706,1.45163 2.41801,2.59667 0.25161,1.23621 -1.1944,1.61043 -2.13844,1.48837 -1.26832,-0.121 -2.82545,0.31864 -3.90599,-0.5041 -1.03447,-1.54985 0.53032,-3.47412 2.19348,-3.50238 0.47651,-0.0404 0.95464,-0.0723 1.43294,-0.0786 z m 3.0585,5.16463 c 1.16011,0.0457 2.17155,1.36993 1.9821,2.47344 -0.87249,0.32328 -2.1122,0.30505 -2.89977,-0.28275 -0.60575,-0.66726 -0.54717,-2.17338 0.6054,-2.16756 0.1031,-0.017 0.20776,-0.025 0.31227,-0.0231 z m -48.34897,4.28924 c 0.76677,-0.10902 1.02345,0.86634 0.45425,1.30053 -1.17265,1.52603 -2.99211,2.28851 -4.522546,3.35004 -0.530424,1.26341 1.122296,2.02726 1.905126,2.71432 0.79524,0.81446 -0.35884,1.71917 -0.95236,2.20504 -1.179477,0.95989 -1.702217,2.67277 -3.097587,3.34366 -2.369905,0.38614 -5.099402,0.0697 -6.783819,-1.82657 -1.460016,-1.53935 -3.258643,-3.24323 -3.440565,-5.4789 -0.19889,-1.98306 1.797127,-3.08757 3.477316,-3.39121 2.962481,-0.99102 6.176002,-0.84041 9.215723,-1.50423 1.236812,-0.29476 2.447282,-0.73891 3.744462,-0.71268 z m 52.79534,1.77672 c 0.75731,0.2644 1.3721,1.58453 0.71228,2.20424 -0.99293,0.43268 -1.26727,-0.95217 -1.11747,-1.65189 0.002,-0.25552 0.076,-0.59187 0.40519,-0.55235 z m -39.52841,0.41157 c 1.24297,-0.0881 1.07313,1.58261 1.10671,2.39687 -0.10965,2.31034 -0.0355,4.70556 -0.82594,6.89868 -0.9208,3.2739 -3.60168,5.88525 -6.5908,7.36768 -1.49585,0.79844 -3.29009,0.7301 -4.95127,0.69793 -0.63573,-0.28541 -1.20343,-0.81526 -1.98928,-0.65526 -0.93405,-0.12461 -2.06937,0.45783 -1.90593,1.53863 -0.0367,1.15258 -1.21648,1.98217 -2.299557,1.49076 -1.488125,-0.39208 -0.856678,-2.87565 -2.468258,-2.99947 -0.911162,-0.17464 -1.790123,0.0849 -2.552406,0.54837 -2.332255,0.68222 -4.824513,0.2108 -6.889581,-1.01996 -1.284594,-0.63683 -2.524302,-1.49384 -3.797427,-2.06646 -0.758148,-0.62912 -1.773909,-1.07009 -2.406444,-1.91072 -1.490374,-1.63599 -2.752928,-3.59061 -3.338983,-5.72976 -0.02548,-1.18143 -0.605065,-2.76836 0.353468,-3.71295 0.844113,-0.65367 2.595488,-0.28187 2.328272,1.02176 -0.684305,1.51182 -0.538186,3.38687 0.661231,4.62305 1.602174,2.03064 3.648493,3.79343 5.928368,4.98956 1.191903,0.82709 2.587262,1.37072 3.952639,1.81181 0.202936,0.36757 1.533255,0.19897 0.920065,-0.24607 -1.798963,-1.2372 -4.111638,-2.09808 -5.226852,-4.08625 0.03829,-0.51807 0.722045,-1.28443 1.168921,-0.65684 3.011451,0.96654 5.674016,2.91993 8.8078,3.55821 2.783686,0.74676 5.862384,0.8299 8.627934,-0.012 1.38998,-0.39655 2.91571,-0.53261 4.31723,-1.00796 1.44985,-0.28219 2.92079,-0.88656 3.59842,-2.30139 1.50217,-1.88634 2.23323,-4.20601 2.37785,-6.59221 0.28417,-1.25313 0.0313,-2.71703 0.65393,-3.8579 0.12536,-0.0928 0.29166,-0.0872 0.43989,-0.0881 z m -58.213221,3.08602 c 0.696849,-0.0809 1.866545,0.0223 1.562153,1.01897 -0.323977,1.34852 -2.675618,1.78622 -3.040954,0.24447 0.02595,-0.6973 0.770061,-1.35703 1.478801,-1.26344 z m -18.87864,16.92166 c 1.831004,0.81549 3.848478,1.5975 5.204119,3.14345 0.852085,0.66968 0.04375,1.89251 -0.908497,1.74322 -2.322486,0.0111 -4.704562,0.19418 -6.993994,-0.21417 -0.428511,-0.43659 0.434163,-1.0962 0.516861,-1.56016 0.767231,-1.00937 0.922145,-2.55029 2.181511,-3.11234 z m 105.700751,3.6994 c 1.38974,0.0543 2.39566,2.11164 1.41061,3.15382 -0.87035,0.36522 -1.88032,0.64671 -2.82041,0.6389 -0.84627,-0.20146 -1.50973,-1.13139 -0.94279,-1.93784 0.42526,-0.97607 1.241,-1.79176 2.35259,-1.85488 z m 6.81533,1.55298 c 0.78745,-0.0554 1.94189,0.15104 1.87721,1.17291 0.17502,0.89098 -0.0459,2.35241 -1.26104,2.19746 -0.73427,0.0495 -0.95757,-0.81756 -1.63075,-0.89533 -0.46192,-0.62944 -0.70358,-2.06321 0.18385,-2.42639 0.27271,-0.0521 0.55429,-0.0425 0.83073,-0.0487 z m 17.05048,13.53414 c 1.43214,0.053 2.92523,-0.12201 4.25973,0.4367 2.0874,0.0217 3.56701,2.25006 2.93127,4.19552 -0.64449,1.65119 -2.79684,1.22714 -4.19192,1.31204 -1.99465,0.0144 -4.01605,0.0286 -5.90803,-0.66796 -1.89493,-0.37209 -4.20089,-1.04766 -5.05735,-2.95042 -0.0778,-1.28019 1.49264,-1.99244 2.60624,-1.97772 1.40547,-0.58263 3.07675,-0.20105 4.57599,-0.34856 0.26136,1.3e-4 0.52271,2.6e-4 0.78407,5.3e-4 z m 12.14347,3.47247 c 1.19752,0.90832 1.77566,2.50873 2.2537,3.90199 0.68755,1.34544 0.56053,2.93488 0.71348,4.40808 -0.7988,0.87056 -1.33543,1.93742 -1.97333,2.89021 -1.32748,1.23237 -2.96649,2.1162 -4.61787,2.7566 -2.47277,0.88347 -5.21268,0.47782 -7.79676,0.66566 -3.67825,-0.0252 -7.39003,0.22319 -11.04877,-0.18828 -0.71728,0.0396 -1.05063,-0.75101 -0.52604,-1.23912 0.47269,-0.81188 1.49787,-0.85076 2.04472,-1.62038 0.47106,-0.27037 0.78823,-0.83526 0.11805,-1.09474 -0.96821,-0.86109 -2.66864,-1.13026 -3.1622,-2.43157 -0.30759,-1.01386 0.11813,-2.19906 1.23234,-2.4519 3.64878,-1.14769 7.58673,-0.79096 11.33827,-0.44986 1.26776,0.14175 2.42247,0.67778 3.62561,1.06363 1.04873,0.46145 1.86538,1.45995 1.86127,2.62778 1.07416,0.29647 2.32746,0.14085 3.42637,0.53851 0.73658,0.0964 1.91915,0.85195 2.28942,-0.22982 0.23597,-0.4227 0.91274,-1.07708 0.60141,-1.52467 -1.64463,-0.29151 -3.8663,-1.27896 -3.75642,-3.2611 0.20639,-1.36076 1.95117,-1.15244 2.87265,-0.73581 0.34547,0.0495 1.35711,0.53866 1.08797,-0.21815 -0.025,-1.157 -1.05301,-2.16194 -0.88537,-3.2938 0.0696,-0.0911 0.19326,-0.1155 0.3015,-0.11326 z M 30.523926,219.29634 c 0.445424,-0.0497 1.809527,0.13486 1.464045,0.78406 -0.841222,0.0709 -2.157668,0.21986 -2.681224,-0.56551 0.263196,-0.31242 0.860192,-0.15994 1.217179,-0.21855 z"
       id="path1" />
  </g>
</svg>
