<?xml version="1.0" encoding="UTF-8" standalone="no"?>
<!-- Created with Inkscape (http://www.inkscape.org/) -->

<svg
   width="91.017677mm"
   height="91.189789mm"
   viewBox="0 0 91.017677 91.189789"
   version="1.1"
   id="svg1"
   inkscape:version="1.4.2 (ebf0e940d0, 2025-05-08)"
   sodipodi:docname="a.svg"
   xmlns:inkscape="http://www.inkscape.org/namespaces/inkscape"
   xmlns:sodipodi="http://sodipodi.sourceforge.net/DTD/sodipodi-0.dtd"
   xmlns="http://www.w3.org/2000/svg"
   xmlns:svg="http://www.w3.org/2000/svg">
  <sodipodi:namedview
     id="namedview1"
     pagecolor="#ffffff"
     bordercolor="#000000"
     borderopacity="0.25"
     inkscape:showpageshadow="2"
     inkscape:pageopacity="0.0"
     inkscape:pagecheckerboard="0"
     inkscape:deskcolor="#d1d1d1"
     inkscape:document-units="mm"
     inkscape:zoom="1.1313833"
     inkscape:cx="97.668051"
     inkscape:cy="495.85318"
     inkscape:window-width="2560"
     inkscape:window-height="1518"
     inkscape:window-x="0"
     inkscape:window-y="0"
     inkscape:window-maximized="1"
     inkscape:current-layer="layer1" />
  <defs
     id="defs1">
    <inkscape:path-effect
       effect="skeletal"
       id="path-effect70"
       is_visible="true"
       lpeversion="1"
       pattern="M 0,0 H 1"
       copytype="single_stretched"
       prop_scale="1"
       scale_y_rel="false"
       spacing="0"
       normal_offset="0"
       tang_offset="0"
       prop_units="false"
       vertical_pattern="false"
       hide_knot="false"
       fuse_tolerance="0" />
  </defs>
  <g
     inkscape:label="Layer 1"
     inkscape:groupmode="layer"
     id="layer1"
     transform="translate(-79.110416,-17.198017)">
    <path
       style="fill:#ffffff;fill-opacity:1;stroke:#000000;stroke-width:3.54542;stroke-linecap:round;stroke-linejoin:round;stroke-dasharray:none"
       d="m 36.649637,103.06515 -0.680598,-0.13138 -0.08084,-27.924265 c -0.01912,-6.603654 -0.0236,-13.207413 0.01449,-19.810985 0.01172,-2.032142 0.02516,-4.064326 0.06012,-6.096201 0,-5e-6 0,-1e-5 0,-1.4e-5 0.0097,-0.563599 0.01983,-1.127239 0.04094,-1.690525 0.0057,-0.151834 0.01162,-0.303702 0.0229,-0.455224 0.0031,-0.04134 0.0063,-0.0827 0.01202,-0.123769 0.0025,-0.01777 0.0012,-0.03812 0.01239,-0.05213 0.01006,-0.01257 0.02842,-0.01455 0.04405,-0.01841 0.0335,-0.0083 0.06775,-0.01313 0.101964,-0.01765 9e-6,-2e-6 1.9e-5,-3e-6 2.9e-5,-4e-6 0.125169,-0.01651 0.25126,-0.02496 0.377257,-0.03302 0.480663,-0.03073 0.962269,-0.04401 1.443743,-0.05685 4e-6,0 9e-6,0 1.4e-5,0 1.870794,-0.04991 3.742362,-0.06364 5.613775,-0.07678 7.295476,-0.0512 14.591268,-0.02851 21.886883,-0.0041 l 1.5e-5,0 c 7.449555,0.02492 14.899325,0.05626 22.348694,-0.002 1.736984,-0.01358 3.474245,-0.02602 5.210317,-0.0839 5e-6,0 1e-5,0 1.5e-5,-10e-7 4e-6,0 9e-6,0 1.4e-5,0 0.418829,-0.01396 0.837931,-0.02778 1.255442,-0.06379 0.103076,-0.0089 0.206399,-0.01788 0.30798,-0.0375 l 0,0 2.9e-5,-5e-6 c 0.02584,-0.005 0.05186,-0.01023 0.07623,-0.02016 0.01066,-0.0043 0.02528,-0.0096 0.02528,-0.02112 0,-0.206385 0.250479,-0.326184 0.456864,-0.326184 0.103075,0 0.176486,-0.09935 0.224381,-0.190619 2e-6,-4e-6 4e-6,-8e-6 7e-6,-1.3e-5 0.08219,-0.156633 0.123671,-0.331313 0.158306,-0.504778 0.101604,-0.508876 0.123318,-1.030768 0.120561,-1.549681 0,-1e-5 0,-2e-5 0,-3e-5 -0.0028,-0.535753 -0.03459,-1.073411 -0.137297,-1.599236 -0.03777,-0.193383 -0.0838,-0.386707 -0.164002,-0.566683 -2e-6,-4e-6 -4e-6,-9e-6 -6e-6,-1.3e-5 -0.04977,-0.111677 -0.112721,-0.233485 -0.22687,-0.277287 -0.01989,-0.0076 -0.04189,-0.0075 -0.0631,-0.0095 -0.04602,-0.0043 -0.09218,-0.0069 -0.138333,-0.0094 -5e-6,0 -1e-5,-10e-7 -1.4e-5,-10e-7 -0.164811,-0.0087 -0.329802,-0.01364 -0.494778,-0.0183 -0.602647,-0.01705 -1.205493,-0.02605 -1.808319,-0.03465 -2.154263,-0.03073 -4.308722,-0.04544 -6.463162,-0.05878 -6.961271,-0.04311 -13.92271,-0.05431 -20.884115,-0.05431 H 35.952887 l 0.07952,-12.563756 0.07952,-12.56374 0,-1.5e-5 1.675168,-0.198311 c 0.146006,-0.01728 0.293403,-0.01905 0.440337,-0.02425 0.292841,-0.01035 0.585806,-0.0168 0.87877,-0.02271 5e-6,0 10e-6,0 1.5e-5,0 0.984813,-0.01986 1.969785,-0.03075 2.954747,-0.04082 5e-6,0 1e-5,0 1.5e-5,0 3.290302,-0.03362 6.580761,-0.04928 9.871206,-0.06316 9.657435,-0.04076 19.314977,-0.05131 28.972498,-0.05197 l 1.4e-5,0 c 9.558728,-6.53e-4 19.117483,0.008 28.676123,0.04804 1e-5,0 1e-5,0 1e-5,0 3.16696,0.01327 6.33394,0.02785 9.50075,0.06184 0,0 1e-5,0 1e-5,0 0.90471,0.0097 1.80943,0.01986 2.71396,0.04044 0,0 10e-6,0 10e-6,0 0.24822,0.0056 0.49645,0.01156 0.74448,0.0226 l 0,0 c 10e-6,1e-6 10e-6,1e-6 2e-5,1e-6 0.0688,0.0031 0.13756,0.0063 0.20619,0.0119 l 0,0 c 0.02,0.0016 0.0401,0.0034 0.06,0.0061 0.0103,0.0014 0.0209,0.0024 0.0306,0.0062 0.0963,0.03815 0.13709,0.150651 0.16617,0.250062 0.0839,0.286871 0.1023,0.58854 0.12608,0.886484 0.14308,1.792683 0.13098,3.594026 0.14975,5.392311 0.12956,12.410209 0.0357,24.821651 0.0149,37.232518 l -0.073,43.551452 -13.62977,0.0672 -13.62975,0.0672 -2.9e-5,0 V 86.57976 c 0,-10e-6 0,-2e-5 0,-2.9e-5 0,-4.378007 0.01436,-8.75658 -0.07948,-13.133581 0,-9e-6 -10e-7,-1.9e-5 -10e-7,-2.9e-5 -0.02075,-0.967703 -0.04036,-1.936078 -0.112728,-2.901294 -10e-7,-1e-5 -2e-6,-2e-5 -3e-6,-2.9e-5 -0.01796,-0.239597 -0.03737,-0.479545 -0.07851,-0.716266 -2e-6,-10e-6 -3e-6,-2e-5 -5e-6,-2.9e-5 -0.01791,-0.103088 -0.02078,-0.222039 -0.09476,-0.296024 -0.07262,-0.07262 -0.188895,-0.07668 -0.290007,-0.09466 -0.230277,-0.04097 -0.463831,-0.0604 -0.697035,-0.07833 -0.936616,-0.07202 -1.876459,-0.0915 -2.815615,-0.112043 -4.239326,-0.09271 -8.480246,-0.07739 -12.720586,-0.0763 -3.87097,0.001 -7.741988,0.01378 -11.612717,0.05693 -1.229846,0.01371 -2.459714,0.02908 -3.689265,0.05926 -1e-5,0 -2e-5,0 -2.9e-5,10e-7 -0.357949,0.0088 -0.715913,0.01821 -1.073592,0.03465 -0.15608,0.0072 -0.316494,-0.0035 -0.467415,0.03697 -9e-6,3e-6 -1.9e-5,5e-6 -2.8e-5,8e-6 -0.262148,0.07025 -0.50537,0.238608 -0.579486,0.499686 -3e-6,9e-6 -5e-6,1.9e-5 -8e-6,2.8e-5 -0.174923,0.616296 -0.105804,1.274114 -0.105804,1.914754 0,0.567182 0.01342,1.136329 0.09612,1.69745 0.0398,0.270014 0.03345,0.613452 0.265616,0.756939 0.03105,0.01919 0.07059,0.01798 0.106802,0.02252 10e-6,10e-7 2e-5,2e-6 2.9e-5,3e-6 0.08003,0.01004 0.160532,0.01592 0.241007,0.02139 10e-6,10e-7 2e-5,2e-6 2.9e-5,2e-6 0.28515,0.0194 0.570848,0.02955 0.856498,0.03907 10e-6,0 2e-5,0 3e-5,10e-7 1.003613,0.03346 2.007763,0.04801 3.011854,0.06072 1e-5,0 2e-5,1e-6 2.9e-5,1e-6 3.209471,0.04064 6.419329,0.04308 9.629037,0.03159 3.236389,-0.01158 6.472935,-0.0079 9.709063,0.03483 9e-6,0 1.9e-5,0 2.9e-5,0 1.032973,0.01363 2.065997,0.02948 3.098476,0.06423 0.302668,0.01018 0.605366,0.02124 0.907551,0.04114 10e-6,0 2e-5,10e-7 2.9e-5,2e-6 0.134836,0.0089 0.275858,-7.43e-4 0.402592,0.04614 0.168813,0.06245 0.305747,0.193832 0.364647,0.363916 0.176717,0.510301 0.163066,1.065671 0.186784,1.605183 0.177336,4.033846 0.07203,8.074747 0.06763,12.112486 -0.0043,3.904147 0.05065,7.810196 -0.09391,11.71167 -0.02379,0.64206 -0.03483,1.28871 -0.156144,1.91965 -0.04234,0.22023 -0.09717,0.4626 -0.277142,0.5964 -0.116109,0.0863 -0.275752,0.083 -0.419236,0.10158 -1e-5,0 -2e-5,0 -3e-5,0 -0.341534,0.0443 -0.685789,0.0637 -1.029698,0.0819 -1.441267,0.0762 -2.885033,0.0918 -4.328195,0.11025 -6.930866,0.0885 -13.862684,0.0566 -20.794106,0.0455 -6.201444,-0.01 -12.402893,-0.0278 -18.604215,-0.0679 -10e-6,0 -2e-5,0 -3e-5,0 -1.938379,-0.0125 -3.876765,-0.0261 -5.815029,-0.0507 -0.550667,-0.007 -1.101342,-0.0143 -1.651905,-0.0271 -0.154716,-0.004 -0.309435,-0.007 -0.464064,-0.0136 -0.06828,-0.003 -0.13743,-6.5e-4 -0.204526,-0.0136 z"
       id="path1"
       inkscape:original-d="m 36.649637,103.06515 -0.680598,-0.13138 -0.08084,-27.924265 c -0.04446,-15.358348 0.02882,-28.06133 0.162861,-28.228846 0.160405,-0.200472 10.232585,-0.271163 29.467719,-0.206822 20.631205,0.06901 29.224015,0.0019 29.224015,-0.228433 0,-0.179401 0.205589,-0.326184 0.456864,-0.326184 0.686914,0 0.663405,-4.424209 -0.02492,-4.68834 -0.26498,-0.101682 -13.698299,-0.184875 -29.851823,-0.184875 H 35.952887 l 0.07952,-12.563756 0.07952,-12.563755 1.675168,-0.198311 c 2.253507,-0.266775 84.376815,-0.272389 85.049735,-0.0058 0.50053,0.198285 0.52586,2.624876 0.45686,43.761375 l -0.073,43.551452 -13.62977,0.0672 -13.629779,0.0672 V 86.57976 c 0,-12.568624 -0.09012,-16.771908 -0.36549,-17.047281 -0.275191,-0.275191 -4.357479,-0.364466 -16.523243,-0.361334 -8.886764,0.0024 -16.466134,0.0868 -16.843046,0.187815 -0.631587,0.169254 -0.685298,0.358494 -0.685298,2.414468 0,1.393682 0.135748,2.314721 0.361739,2.454389 0.198956,0.12296 6.429348,0.201853 13.845315,0.17531 7.415969,-0.02654 13.768951,0.05731 14.11774,0.186338 0.630066,0.233077 0.634064,0.323993 0.619056,14.081585 -0.01376,12.60746 -0.06094,13.88108 -0.527198,14.22772 -0.401354,0.29839 -6.147316,0.37175 -26.571265,0.33924 -14.332544,-0.0228 -26.36544,-0.1006 -26.739769,-0.17286 z"
       inkscape:path-effect="#path-effect70"
       transform="translate(45.009303,3.3534887)" />
  </g>
</svg>
