<?xml version="1.0" encoding="UTF-8" standalone="no"?>
<!-- Created with Inkscape (http://www.inkscape.org/) -->

<svg
   width="91.196716mm"
   height="90.960815mm"
   viewBox="0 0 91.196716 90.960815"
   version="1.1"
   id="svg1"
   inkscape:version="1.4.2 (ebf0e940d0, 2025-05-08)"
   sodipodi:docname="o.svg"
   xmlns:inkscape="http://www.inkscape.org/namespaces/inkscape"
   xmlns:sodipodi="http://sodipodi.sourceforge.net/DTD/sodipodi-0.dtd"
   xmlns="http://www.w3.org/2000/svg"
   xmlns:svg="http://www.w3.org/2000/svg">
  <sodipodi:namedview
     id="namedview1"
     pagecolor="#ffffff"
     bordercolor="#000000"
     borderopacity="0.25"
     inkscape:showpageshadow="2"
     inkscape:pageopacity="0.0"
     inkscape:pagecheckerboard="0"
     inkscape:deskcolor="#d1d1d1"
     inkscape:document-units="mm"
     inkscape:zoom="1.1313833"
     inkscape:cx="-68.500217"
     inkscape:cy="292.56222"
     inkscape:window-width="2560"
     inkscape:window-height="1518"
     inkscape:window-x="0"
     inkscape:window-y="0"
     inkscape:window-maximized="1"
     inkscape:current-layer="layer1" />
  <defs
     id="defs1" />
  <g
     inkscape:label="Layer 1"
     inkscape:groupmode="layer"
     id="layer1"
     transform="translate(-123.03125,-71.172917)">
    <path
       style="fill:#ffffff;fill-opacity:1;stroke:#000000;stroke-width:3.54542;stroke-linecap:round;stroke-linejoin:round;stroke-dasharray:none"
       d="m 124.99406,158.94684 c -0.24754,-1.80604 -0.25624,-84.875013 -0.009,-85.519443 0.16739,-0.43619 4.28475,-0.48177 43.51707,-0.48177 35.85421,0 43.39066,0.0705 43.67102,0.40828 0.246,0.2964 0.31881,12.25209 0.26573,43.630503 l -0.0731,43.22221 -43.58896,0.0772 -43.58895,0.0772 z m 45.94942,-25.50441 c 0.19917,-0.22433 0.25188,-6.14065 0.15229,-17.09474 l -0.15229,-16.751673 -2.0833,-0.0907 c -1.2737,-0.0554 -2.25019,0.0478 -2.51275,0.26573 -0.35996,0.298743 -0.42945,3.050863 -0.42945,17.009873 0,12.13179 0.095,16.74845 0.34981,17.00328 0.43483,0.43483 4.23268,0.15722 4.67569,-0.34178 z"
       id="path5" />
  </g>
</svg>
