<svg xmlns="http://www.w3.org/2000/svg" xmlns:xlink="http://www.w3.org/1999/xlink" width="203.916" height="173.474" viewBox="0 0 53.953 45.898"><defs><linearGradient id="b"><stop offset="0" style="stop-color:#f4f4f7;stop-opacity:1"/><stop offset="1" style="stop-color:#6e6e6e;stop-opacity:.69999999"/></linearGradient><linearGradient id="a"><stop offset=".225" style="stop-color:#f4f4f7;stop-opacity:1"/><stop offset="1" style="stop-color:#5d5d5d;stop-opacity:1"/></linearGradient><linearGradient xlink:href="#a" id="d" x1="89.107" x2="94.855" y1="134.696" y2="134.696" gradientUnits="userSpaceOnUse"/><linearGradient xlink:href="#b" id="c" x1="41.396" x2="87.883" y1="134.561" y2="134.561" gradientTransform="matrix(.96867 0 0 .97489 2.758 3.974)" gradientUnits="userSpaceOnUse" spreadMethod="reflect"/></defs><path d="M43.574 143.138v-14.01H72.71v-2.498H43.574v-13.468H87.17v43.986H74.005v-15.965H58.034v2.606h13.381v13.359H43.574Z" style="fill:url(#c);fill-opacity:1;stroke:#2f2f2f;stroke-width:1.92411;stroke-linecap:round;stroke-linejoin:bevel;stroke-dasharray:none;stroke-opacity:1;paint-order:stroke markers fill" transform="translate(-41.746 -111.611)"/><g style="fill:url(#d);fill-opacity:1" transform="translate(-41.746 -111.611)"><path d="M89.307 116.259v-1.671h1.838c1.764 0 1.838-.009 1.838-.223s-.074-.223-1.838-.223h-1.838v-1.671h5.347v5.46h-1.448v-1.895h-1.114c-.916 0-1.114.03-1.114.167 0 .134.167.167.836.167h.835v1.56h-3.342z" style="fill:url(#d);stroke:#3c3c3c;stroke-width:.401;stroke-linecap:round;stroke-linejoin:bevel;stroke-dasharray:none;stroke-opacity:1;paint-order:fill markers stroke;fill-opacity:1;stroke-dashoffset:0"/><path d="M89.307 121.773v-2.729h1.56v1.838c0 1.764.009 1.838.223 1.838.213 0 .222-.074.222-1.838v-1.838h1.337v3.676h.557v-3.676h1.448v5.459h-5.347z" style="fill:url(#d);stroke:#3c3c3c;stroke-width:.401;stroke-linecap:round;stroke-linejoin:bevel;stroke-dasharray:none;stroke-opacity:1;paint-order:fill markers stroke;fill-opacity:1;stroke-dashoffset:0"/><path d="M89.307 128.235v-2.73h5.347v1.56h-3.676v.557h3.676v1.337h-1.838c-1.764 0-1.838.009-1.838.223s.074.223 1.838.223h1.838v1.56h-5.347z" style="fill:url(#d);stroke:#3c3c3c;stroke-width:.401;stroke-linecap:round;stroke-linejoin:bevel;stroke-dasharray:none;stroke-opacity:1;paint-order:fill markers stroke;fill-opacity:1;stroke-dashoffset:0"/><path d="M89.307 136.757v-.78h3.676v-.557h-3.676v-3.342h5.347v1.56h-1.838c-1.764 0-1.838.009-1.838.223s.074.223 1.838.223h1.838v3.453h-5.347z" style="fill:url(#d);stroke:#3c3c3c;stroke-width:.401;stroke-linecap:round;stroke-linejoin:bevel;stroke-dasharray:none;stroke-opacity:1;paint-order:fill markers stroke;fill-opacity:1;stroke-dashoffset:0"/><path d="M89.307 141.27v-2.73h5.347v5.458h-5.347zm2.897.055c0-.929-.017-1.003-.223-1.003-.205 0-.223.074-.223.929 0 .947.036 1.076.297 1.076.113 0 .149-.241.149-1.002z" style="fill:url(#d);stroke:#3c3c3c;stroke-width:.401;stroke-linecap:round;stroke-linejoin:bevel;stroke-dasharray:none;stroke-opacity:1;paint-order:fill markers stroke;fill-opacity:1;stroke-dashoffset:0"/><path d="M89.307 147.842v-2.73h5.347v5.46h-1.448v-3.804l-.25.036c-.248.035-.252.062-.282 1.901l-.03 1.866h-1.332v-1.894c0-1.82-.008-1.893-.222-1.893-.215 0-.223.074-.223 1.893v1.894h-1.56z" style="fill:url(#d);stroke:#3c3c3c;stroke-width:.401;stroke-linecap:round;stroke-linejoin:bevel;stroke-dasharray:none;stroke-opacity:1;paint-order:fill markers stroke;fill-opacity:1;stroke-dashoffset:0"/><path d="M89.307 154.248v-2.674h5.347v1.56h-1.838c-1.764 0-1.838.009-1.838.222 0 .214.074.223 1.838.223h1.838v1.448h-1.838c-1.764 0-1.838.01-1.838.223 0 .214.074.223 1.838.223h1.838v1.448h-5.347z" style="fill:url(#d);stroke:#3c3c3c;stroke-width:.401;stroke-linecap:round;stroke-linejoin:bevel;stroke-dasharray:none;stroke-opacity:1;paint-order:fill markers stroke;fill-opacity:1;stroke-dashoffset:0"/></g></svg>