<?xml version="1.0" encoding="UTF-8" standalone="no"?>
<svg
   width="24"
   height="24"
   viewBox="0 0 24 24"
   version="1.1"
   id="svg2"
   sodipodi:docname="selection.svg"
   inkscape:version="1.4.2 (ebf0e940d0, 2025-05-08)"
   xmlns:inkscape="http://www.inkscape.org/namespaces/inkscape"
   xmlns:sodipodi="http://sodipodi.sourceforge.net/DTD/sodipodi-0.dtd"
   xmlns="http://www.w3.org/2000/svg"
   xmlns:svg="http://www.w3.org/2000/svg">
  <defs
     id="defs2" />
  <sodipodi:namedview
     id="namedview2"
     pagecolor="#ffffff"
     bordercolor="#000000"
     borderopacity="0.25"
     inkscape:showpageshadow="2"
     inkscape:pageopacity="0.0"
     inkscape:pagecheckerboard="0"
     inkscape:deskcolor="#d1d1d1"
     inkscape:zoom="14"
     inkscape:cx="-18.285714"
     inkscape:cy="41.785714"
     inkscape:window-width="2560"
     inkscape:window-height="1536"
     inkscape:window-x="0"
     inkscape:window-y="0"
     inkscape:window-maximized="1"
     inkscape:current-layer="g2" />
  <g
     fill="none"
     id="g2"
     style="stroke:none;stroke-opacity:1">
    <path
       d="M24 0v24H0V0h24ZM12.593 23.258l-.011.002l-.071.035l-.02.004l-.014-.004l-.071-.035c-.01-.004-.019-.001-.024.005l-.004.01l-.017.428l.005.02l.01.013l.104.074l.015.004l.012-.004l.104-.074l.012-.016l.004-.017l-.017-.427c-.002-.01-.009-.017-.017-.018Zm.265-.113l-.013.002l-.185.093l-.01.01l-.003.011l.018.43l.005.012l.008.007l.201.093c.012.004.023 0 .029-.008l.004-.014l-.034-.614c-.003-.012-.01-.02-.02-.022Zm-.715.002a.023.023 0 0 0-.027.006l-.006.014l-.034.614c0 .012.007.02.017.024l.015-.002l.201-.093l.01-.008l.004-.011l.017-.43l-.003-.012l-.01-.01l-.184-.092Z"
       id="path1"
       style="stroke:none;stroke-opacity:1" />
    <path
       fill="#FFFFFF"
       d="M17 4.5a2.5 2.5 0 0 1 2.495 2.336L19.5 7v9.5H21a1.5 1.5 0 0 1 .144 2.993L21 19.5h-1.5V21a1.5 1.5 0 0 1-2.993.144L16.5 21V7.5h-7v-3H17Zm-11-3A1.5 1.5 0 0 1 7.5 3v13.5h7v3H7A2.5 2.5 0 0 1 4.5 17V7.5H3a1.5 1.5 0 1 1 0-3h1.5V3A1.5 1.5 0 0 1 6 1.5Z"
       id="path2"
       style="stroke:#000000;stroke-opacity:1" />
  </g>
</svg>
