<svg xmlns="http://www.w3.org/2000/svg" width="1576.399" height="1508.872" viewBox="0 0 1576.399 1508.872"><path d="M259.75 1660.252c8.938-.166 23.563-.166 32.5 0s1.625.301-16.25.301-25.187-.136-16.25-.301m331 .016c2.338-.21 6.163-.21 8.5 0 2.338.21.425.383-4.25.383s-6.587-.173-4.25-.383m854.063.049c.721-.29 1.584-.254 1.916.079.332.332-.258.569-1.312.525-1.165-.048-1.402-.285-.604-.604m109.984-.062c4.564-.186 11.764-.185 16 0 4.237.187.503.339-8.297.338-8.8 0-12.266-.155-7.702-.34zM1223.491 1438.5c0-119.9.117-169.098.259-109.33s.142 157.869 0 218-.259 11.23-.259-108.67m282.667 209.5c0-1.375.227-1.937.504-1.25.278.688.278 1.813 0 2.5-.277.688-.504.125-.504-1.25m-46-1c0-1.375.227-1.937.504-1.25.278.688.278 1.813 0 2.5-.277.688-.504.125-.504-1.25m320.284-27c0-16.225.138-22.862.306-14.75.168 8.113.168 21.388 0 29.5-.168 8.113-.306 1.475-.306-14.75m-166.1 8.5c0-4.4.18-6.076.391-3.724s.209 5.952-.01 8c-.214 2.048-.387.124-.384-4.276zM242.37 1593c0-5.775.165-8.137.367-5.25s.202 7.613 0 10.5c-.202 2.888-.367.525-.367-5.25m1417.1-70.5c0-33.55.126-47.13.28-30.178.153 16.952.153 44.402 0 61-.154 16.598-.28 2.728-.28-30.822m-977.115 38c-.003-4.95.166-7.101.376-4.78s.212 6.37.006 9c-.207 2.629-.379.73-.382-4.22zm823.054-39c0-9.35.15-13.31.334-8.8.185 4.511.186 12.161 0 17-.183 4.84-.335 1.15-.336-8.2zm-1105.145 12.782c1.52-.23 3.77-.223 5 .014s-.014.426-2.764.418c-2.75-.01-3.756-.201-2.236-.431zM902.158 1501c0-1.375.227-1.937.504-1.25.278.688.278 1.813 0 2.5-.277.688-.504.125-.504-1.25m-520.345-11.683c.721-.289 1.584-.253 1.916.079s-.258.569-1.312.525c-1.165-.048-1.402-.285-.604-.604m118.955-1.042c1.797-.222 4.497-.218 6 .01s.032.41-3.268.405c-3.3-.01-4.53-.192-2.732-.415zm446.484-9.775c.011-2.2.216-2.982.455-1.738s.23 3.044-.02 4-.446-.062-.435-2.262m-336.002-98.242c3.713-.192 9.788-.192 13.5 0 3.713.193.675.35-6.75.35s-10.462-.157-6.75-.35m-198.981-.951c.973-.253 2.323-.237 3 .037s-.119.481-1.769.461-2.204-.244-1.231-.498M901.397 1359c0-7.975.156-11.237.346-7.25s.19 10.513 0 14.5-.346.725-.346-7.25m756.682 12.417c.048-1.165.285-1.402.604-.604.289.721.253 1.584-.079 1.916s-.569-.258-.525-1.312m-181.329-24.08c.688-.277 1.813-.277 2.5 0 .688.278.125.505-1.25.505s-1.937-.227-1.25-.504m-1085.988-13.044c1.244-.24 3.044-.23 4 .02s-.062.446-2.262.435-2.982-.216-1.738-.456zm140.988-1.043c21.038-.15 55.463-.15 76.5 0 21.038.151 3.825.274-38.25.274s-59.287-.123-38.25-.274M1780.428 1298c0-12.375.143-17.437.318-11.25s.176 16.313 0 22.5c-.175 6.188-.319 1.125-.319-11.25m-1097.063-54.5c.003-5.5.17-7.622.373-4.716s.2 7.405-.005 10-.37.216-.368-5.284zm-5.115-22.19c.963-.25 2.538-.25 3.5 0 .963.252.175.458-1.75.458s-2.712-.206-1.75-.457m-399.5-1.033c1.788-.222 4.713-.222 6.5 0 1.788.221.325.403-3.25.403s-5.037-.182-3.25-.403m302.53-.013c2.63-.207 6.68-.205 9 .01 2.321.21.17.378-4.78.375-4.95 0-6.849-.174-4.22-.381zm464.97.047c.963-.252 2.538-.252 3.5 0 .963.251.175.457-1.75.457s-2.712-.206-1.75-.457m143.478-.032c1.775-.221 4.925-.225 7-.01 2.074.216.622.397-3.228.401-3.85 0-5.547-.172-3.772-.393zM663.25 1140.31c.963-.252 2.538-.252 3.5 0 .963.251.175.457-1.75.457s-2.712-.206-1.75-.457m722.5-.053c3.988-.19 10.513-.19 14.5 0s.725.345-7.25.345-11.237-.156-7.25-.345m-401.947-1.004c5.667-.179 14.667-.178 20 0 5.333.18.697.325-10.303.324-11 0-15.364-.147-9.697-.326zm361.786-.11c-.29-.47.583-.642 1.941-.383 1.359.26 2.47.645 2.47.856 0 .774-3.899.356-4.41-.472m184.661.167c.963-.252 2.538-.252 3.5 0 .963.251.175.457-1.75.457s-2.712-.206-1.75-.457M1223.385 1127c0-6.875.16-9.687.355-6.25.196 3.438.196 9.063 0 12.5-.195 3.438-.355.625-.355-6.25m-548.19 1.5c.02-1.65.244-2.204.498-1.231s.237 2.323-.037 3-.481-.119-.461-1.769m941.105-8.5c0-3.025.187-4.262.416-2.75.23 1.513.23 3.988 0 5.5-.229 1.513-.416.275-.416-2.75m44.895 1.5c.02-1.65.244-2.204.498-1.231.253.973.237 2.323-.037 3s-.481-.119-.461-1.769m-152-6c.02-1.65.244-2.204.498-1.231.253.973.237 2.323-.037 3s-.481-.119-.461-1.769M1464.3 1104c0-3.025.187-4.262.416-2.75.23 1.513.23 3.988 0 5.5-.229 1.513-.416.275-.416-2.75m-1214.014-79.5c.008-2.75.202-3.756.432-2.236s.223 3.77-.014 5-.425-.014-.418-2.764m42.994-5.236c2.63-.207 6.68-.205 9 .01 2.321.21.17.378-4.78.375-4.95 0-6.849-.174-4.22-.38zm202-1c2.63-.207 6.68-.205 9 .01 2.321.21.17.378-4.78.375-4.95 0-6.849-.174-4.22-.38zM982.158 991c0-1.375.227-1.937.504-1.25.278.688.278 1.813 0 2.5-.277.688-.504.125-.504-1.25M463.75 973.255c5.088-.182 13.413-.182 18.5 0 5.088.181.925.33-9.25.33s-14.337-.149-9.25-.33M787.365 953.5c.003-5.5.17-7.622.373-4.716s.2 7.405-.005 10-.37.216-.368-5.284m721.046-36.5c0-9.625.15-13.562.334-8.75.183 4.813.183 12.688 0 17.5-.184 4.813-.334.875-.334-8.75M787.37 882c0-5.775.165-8.137.367-5.25s.202 7.613 0 10.5c-.202 2.888-.367.525-.367-5.25m239.93-11c0-3.025.187-4.262.416-2.75.23 1.513.23 3.988 0 5.5-.229 1.513-.416.275-.416-2.75m632.895-.5c.02-1.65.244-2.204.498-1.231s.237 2.323-.037 3-.481-.119-.461-1.769m-1041.887-.248c7.045-.172 18.295-.171 25 .001 6.706.173.942.314-12.808.313-13.75 0-19.236-.142-12.192-.314zM371.08 853.417c.048-1.165.285-1.402.604-.605.289.722.253 1.585-.079 1.917s-.568-.258-.525-1.312m611-2c.048-1.165.285-1.402.604-.605.289.722.253 1.585-.079 1.917s-.568-.258-.525-1.312m-596.329-27.08c.688-.277 1.813-.277 2.5 0 .688.278.125.505-1.25.505s-1.937-.227-1.25-.504m36.5-1.072c2.613-.206 6.888-.206 9.5 0s.475.374-4.75.374-7.362-.168-4.75-.374m581.512.028c1.244-.24 3.044-.23 4 .02s-.062.446-2.262.435-2.982-.216-1.738-.455m-361.012-1.025c2.338-.21 6.163-.21 8.5 0 2.338.21.425.383-4.25.383s-6.587-.173-4.25-.383M250.286 780.5c.008-2.75.202-3.756.432-2.236s.223 3.77-.014 5-.425-.014-.418-2.764m972.946-57.5c0-1.925.206-2.712.457-1.75.252.963.252 2.538 0 3.5-.251.963-.457.175-.457-1.75m-548.153-3.583c.048-1.165.285-1.402.604-.605.289.722.253 1.585-.079 1.917s-.568-.258-.525-1.312m-390.815-4.135c1.52-.23 3.77-.223 5 .014s-.014.425-2.764.418-3.756-.202-2.236-.432m352.986.001c1.513-.229 3.988-.229 5.5 0 1.513.23.275.417-2.75.417s-4.262-.187-2.75-.417m152.512-9.99c1.244-.24 3.044-.23 4 .02s-.062.446-2.262.435-2.982-.216-1.738-.456m425.988.001c1.238-.238 3.263-.238 4.5 0 1.238.239.225.434-2.25.434s-3.487-.195-2.25-.434m-214.974-1.027c2.353-.212 5.953-.209 8 .007 2.048.215.124.387-4.276.384s-6.076-.18-3.724-.391zm-721.026-74.01c3.988-.19 10.513-.19 14.5 0s.725.346-7.25.346-11.237-.156-7.25-.346m206 .02c1.788-.222 4.713-.222 6.5 0 1.788.221.325.403-3.25.403s-5.037-.182-3.25-.403m142-.026c10.038-.163 26.463-.163 36.5 0 10.038.163 1.825.297-18.25.297s-28.287-.134-18.25-.297m163.5.06c.963-.252 2.538-.252 3.5 0 .963.251.175.457-1.75.457s-2.712-.206-1.75-.457m656.534-.05c2.905-.202 7.405-.2 10 .005s.216.372-5.284.369-7.622-.17-4.716-.373zm194.966.006c2.338-.21 6.163-.21 8.5 0 2.338.211.425.383-4.25.383s-6.587-.172-4.25-.383m-302.671-7.85c.048-1.166.285-1.403.604-.605.289.722.253 1.585-.079 1.917s-.569-.258-.525-1.313M1779.349 603c0-4.675.173-6.587.383-4.25.21 2.338.21 6.163 0 8.5-.21 2.338-.383.425-.383-4.25M682.436 576.5c0-14.3.14-20.01.312-12.691.17 7.32.17 19.02-.001 26s-.312.991-.311-13.309m-172.05 5.5c0-6.875.16-9.687.354-6.25.196 3.438.196 9.063 0 12.5-.195 3.438-.355.625-.355-6.25m-.031-25.5c-.003-4.95.166-7.101.376-4.78s.212 6.37.006 9c-.207 2.629-.379.73-.382-4.22m-.123-40.5c0-1.925.206-2.712.457-1.75.252.963.252 2.538 0 3.5-.251.963-.457.175-.457-1.75m1004.53-11.707c1.244-.24 3.044-.23 4 .02s-.062.446-2.262.435-2.982-.216-1.738-.455m-1100.45-6.041c8.697-.167 22.647-.167 31 0s1.238.304-15.812.303c-17.05 0-23.884-.137-15.188-.303M1467.232 483c0-1.925.206-2.712.457-1.75.252.963.252 2.538 0 3.5-.251.963-.457.175-.457-1.75m-1109.153-4.583c.048-1.165.285-1.402.604-.604.289.721.253 1.584-.079 1.916s-.568-.258-.525-1.312m0-10c.048-1.165.285-1.402.604-.604.289.721.253 1.584-.079 1.916s-.568-.258-.525-1.312M898.232 460c0-1.925.206-2.712.457-1.75.252.963.252 2.538 0 3.5-.251.963-.457.175-.457-1.75m668.536-1.725c1.797-.222 4.497-.218 6 .01 1.503.229.032.41-3.268.405-3.3-.006-4.53-.192-2.732-.415M1779.438 431c0-15.125.14-21.312.31-13.75s.17 19.938 0 27.5-.31 1.375-.31-13.75m-681.095 15.5c0-4.4.18-6.076.39-3.724.212 2.352.209 5.952-.01 8-.214 2.048-.387.124-.384-4.276zm-154.015-26c.004-3.85.185-5.302.402-3.228.216 2.075.213 5.225-.008 7s-.398.078-.394-3.772M257.25 352.31c.963-.25 2.538-.25 3.5 0 .963.252.175.458-1.75.458s-2.712-.206-1.75-.457m173.5-.059c11.138-.16 29.363-.16 40.5 0 11.138.161 2.025.293-20.25.293s-31.387-.132-20.25-.293m1325.978-1.973c1.775-.22 4.925-.224 7-.008 2.074.217.622.397-3.228.402-3.85.004-5.547-.173-3.772-.394m-235.978-.94c.688-.278 1.813-.278 2.5 0 .688.277.125.504-1.25.504s-1.937-.227-1.25-.504m-980.481-44.031c.973-.254 2.323-.237 3 .037s-.119.481-1.769.461-2.204-.244-1.231-.498m996.481-2.03c1.788-.222 4.713-.222 6.5 0 1.788.221.325.403-3.25.403s-5.037-.182-3.25-.403m243.56-23.777c.01-3.3.192-4.53.415-2.732.222 1.797.218 4.497-.01 6s-.41.032-.405-3.268zm-1536.982-19c.004-3.85.185-5.302.402-3.228.216 2.075.213 5.225-.008 7s-.398.078-.394-3.772m654.08-25.5c0-9.075.15-12.787.336-8.25.185 4.538.185 11.963 0 16.5s-.337.825-.337-8.25m-215.25-34c0-1.375.227-1.937.504-1.25.278.688.278 1.813 0 2.5-.277.688-.504.125-.504-1.25m-429.39-10.725c1.797-.222 4.497-.218 6 .01 1.503.229.032.41-3.268.405-3.3-.006-4.53-.192-2.732-.415m558.91-.024c15.5-.155 41.15-.155 57 0 15.852.154 3.172.281-28.178.281s-44.32-.126-28.821-.281m403.09.024c1.797-.222 4.497-.218 6 .01 1.503.229.032.41-3.268.405-3.3-.006-4.53-.192-2.732-.415m146.501.032c.973-.254 2.323-.237 3 .037s-.119.481-1.769.461-2.204-.244-1.231-.498m352.981-.023c1.513-.23 3.988-.23 5.5 0 1.513.229.275.416-2.75.416s-4.262-.187-2.75-.416" style="fill:#d0d0d0;fill-opacity:1" transform="translate(-223.49 -171)"/><path d="M606.75 1660.268c2.338-.21 6.163-.21 8.5 0 2.338.21.425.383-4.25.383s-6.587-.173-4.25-.383m841.063.049c.721-.29 1.584-.254 1.916.079.332.332-.258.569-1.312.525-1.165-.048-1.402-.285-.604-.604m92.937-.023c1.238-.239 3.263-.239 4.5 0 1.238.238.225.433-2.25.433s-3.487-.195-2.25-.433m239.56-5.794c.01-3.3.192-4.53.415-2.733s.218 4.498-.01 6c-.228 1.503-.41.032-.405-3.267zm-274.152-2.5c0-1.375.227-1.938.504-1.25.278.687.278 1.812 0 2.5-.277.687-.504.125-.504-1.25m-46-1c0-1.375.227-1.938.504-1.25.278.687.278 1.812 0 2.5-.277.687-.504.125-.504-1.25m154.152-9.5c.01-3.3.192-4.53.415-2.733s.218 4.498-.01 6c-.228 1.503-.41.032-.405-3.267zM242.35 1611c0-4.675.172-6.587.382-4.25.21 2.338.21 6.163 0 8.5-.21 2.338-.383.425-.383-4.25m1417.055-12.5c0-8.8.154-12.266.34-7.702.186 4.563.184 11.763 0 16-.187 4.236-.34.502-.338-8.298zm-977.05-21c-.003-4.95.166-7.101.376-4.78s.212 6.37.006 9c-.207 2.629-.379.73-.382-4.22zm823.023-28.5c0-6.325.163-8.912.361-5.75s.198 8.338 0 11.5-.36.575-.36-5.75M408.27 1534.307c.973-.253 2.323-.237 3 .037s-.119.481-1.769.461-2.204-.244-1.231-.498m493.926-37.807c.02-1.65.244-2.204.498-1.231s.237 2.323-.037 3-.481-.119-.461-1.769m-515.427-7.225c1.797-.222 4.497-.218 6 .01s.032.41-3.268.405c-3.3-.01-4.53-.192-2.732-.415zm125-1c1.797-.222 4.497-.218 6 .01s.032.41-3.268.405c-3.3-.01-4.53-.192-2.732-.415zm435.518-17.775c.008-2.75.202-3.756.432-2.236s.223 3.77-.014 5-.425-.014-.418-2.764m-313.036-90.228c2.063-.216 5.438-.216 7.5 0 2.063.215.375.392-3.75.392s-5.812-.177-3.75-.392m-217.5-.934c.688-.278 1.813-.278 2.5 0 .688.277.125.504-1.25.504s-1.937-.227-1.25-.504m1241.329-4.921c.048-1.165.285-1.402.604-.604.289.721.253 1.584-.079 1.916s-.569-.258-.525-1.312M901.413 1327.5c.001-9.9.15-13.815.333-8.7.182 5.116.18 13.216-.002 18-.183 4.785-.332.6-.33-9.3m-254.144 5.807c.973-.253 2.323-.237 3 .037s-.119.481-1.769.461-2.204-.244-1.231-.498m1133.162-80.807c0-13.2.143-18.462.316-11.693s.173 17.57 0 24c-.173 6.431-.315.893-.315-12.307zM683.37 1263c0-5.775.165-8.137.367-5.25s.202 7.613 0 10.5c-.202 2.888-.367.525-.367-5.25m-.098-33c0-2.475.195-3.487.434-2.25.238 1.238.238 3.263 0 4.5-.239 1.238-.434.225-.434-2.25m264.807-5.583c.048-1.165.285-1.402.604-.604.289.721.253 1.584-.079 1.916s-.568-.258-.525-1.312m-675.81-4.11c.973-.253 2.323-.237 3 .037s-.119.481-1.769.461-2.204-.244-1.231-.498m324.499-.032c1.797-.223 4.497-.218 6 .01s.032.41-3.268.405c-3.3-.01-4.53-.193-2.732-.415zm605.982 0c1.788-.222 4.713-.222 6.5 0 1.788.222.325.403-3.25.403s-5.037-.181-3.25-.403m173-79.939c.688-.277 1.813-.277 2.5 0s.125.504-1.25.504-1.937-.226-1.25-.504m33.514-.055c1.52-.23 3.77-.224 5 .014 1.23.237-.014.425-2.764.418-2.75-.01-3.756-.202-2.236-.432zm-385.96-1.03c5.943-.176 15.393-.175 21 0 5.608.179.746.324-10.804.323-11.55 0-16.138-.147-10.196-.324zm502.446.085c.688-.277 1.813-.277 2.5 0s.125.504-1.25.504-1.937-.227-1.25-.504m-850.555-5.836c.02-1.65.244-2.204.498-1.231s.237 2.323-.037 3-.481-.119-.461-1.769m941.077-4.5c0-2.475.195-3.487.434-2.25.238 1.238.238 3.263 0 4.5-.239 1.238-.434.225-.434-2.25m44.923-2.5c.02-1.65.244-2.204.498-1.231.253.973.237 2.323-.037 3s-.481-.119-.461-1.769m-152-6c.02-1.65.244-2.204.498-1.231.253.973.237 2.323-.037 3s-.481-.119-.461-1.769m-44.943-8c.011-2.2.216-2.982.455-1.738s.23 3.044-.02 4-.446-.062-.435-2.262zM275.25 1019.265c2.613-.206 6.888-.206 9.5 0s.475.375-4.75.375-7.362-.169-4.75-.375m202-1c2.613-.206 6.888-.206 9.5 0s.475.375-4.75.375-7.362-.169-4.75-.375M982.232 986c0-1.925.206-2.712.457-1.75.252.963.252 2.538 0 3.5-.251.963-.457.175-.457-1.75m-305.813-21c0-10.725.147-15.112.327-9.75.18 5.363.18 14.138 0 19.5-.18 5.363-.327.975-.327-9.75m110.951 8c0-5.775.165-8.137.367-5.25s.202 7.613 0 10.5c-.202 2.888-.367.525-.367-5.25m721.043-21.5c.001-9.9.15-13.815.333-8.7.182 5.116.18 13.216 0 18-.183 4.785-.332.6-.33-9.3zM1027.3 881c0-3.025.187-4.262.416-2.75.23 1.513.23 3.988 0 5.5-.229 1.513-.416.275-.416-2.75m632.895-5.5c.02-1.65.244-2.204.498-1.231s.237 2.323-.037 3-.481-.119-.461-1.769M787.37 862c0-5.775.165-8.137.367-5.25s.202 7.613 0 10.5c-.202 2.888-.367.525-.367-5.25m-131.101 8.307c.973-.254 2.323-.237 3 .037s-.119.481-1.769.461-2.204-.244-1.231-.498M982.195 855.5c.02-1.65.244-2.204.498-1.231s.237 2.323-.037 3-.481-.119-.461-1.769m508.617-25.183c.722-.289 1.585-.253 1.917.079s-.258.568-1.312.525c-1.165-.048-1.402-.285-.604-.604M440.25 823.265c2.613-.206 6.888-.206 9.5 0s.475.374-4.75.374-7.362-.168-4.75-.374m216.019-.958c.973-.254 2.323-.237 3 .037s-.119.481-1.769.461-2.204-.244-1.231-.498M250.299 771c0-3.025.188-4.262.417-2.75.23 1.513.23 3.988 0 5.5-.229 1.513-.416.275-.416-2.75m972.896-53.5c.02-1.65.244-2.204.498-1.231s.237 2.323-.037 3-.481-.119-.461-1.769m-947.445-2.206c1.238-.238 3.263-.238 4.5 0 1.238.239.225.434-2.25.434s-3.487-.195-2.25-.434m371.012-.002c1.244-.239 3.044-.23 4 .02s-.062.446-2.262.435c-2.2-.01-2.982-.216-1.738-.455m313.546-11.04c7.045-.172 18.295-.172 25 0 6.706.174.942.314-12.808.314s-19.236-.142-12.192-.314zm62.942 0c6.463-.173 17.038-.173 23.5 0 6.463.175 1.175.317-11.75.317s-18.212-.142-11.75-.316m-756.986-73.97c1.52-.23 3.77-.223 5 .014s-.014.425-2.764.418-3.756-.202-2.236-.432m229.486.056c.688-.278 1.813-.278 2.5 0 .688.277.125.504-1.25.504s-1.937-.227-1.25-.504m931.537-.078c3.182-.2 8.132-.197 11 .004 2.867.201.263.364-5.787.362s-8.396-.167-5.213-.366m231.463.008c2.338-.21 6.163-.21 8.5 0 2.338.21.425.383-4.25.383s-6.587-.173-4.25-.383M682.397 616c0-7.975.156-11.237.346-7.25s.19 10.513 0 14.5-.346.725-.346-7.25m657.682 9.417c.048-1.165.285-1.402.604-.605.289.722.253 1.585-.079 1.917s-.569-.258-.525-1.312m439.27-6.417c0-4.675.173-6.587.383-4.25.21 2.338.21 6.163 0 8.5-.21 2.338-.383.425-.383-4.25M510.33 600.5c.003-3.85.184-5.302.4-3.228.217 2.075.214 5.225-.007 7s-.398.078-.394-3.772m-.134-33c.02-1.65.244-2.204.498-1.231s.237 2.323-.037 3-.481-.119-.461-1.769m-.037-56.5c0-1.375.227-1.937.504-1.25.278.688.278 1.813 0 2.5-.277.688-.504.125-.504-1.25m1016.092-6.742c3.713-.192 9.788-.192 13.5 0 3.713.193.675.35-6.75.35s-10.462-.157-6.75-.35m-1063.522-5.98c1.775-.22 4.925-.224 7-.008 2.074.217.622.397-3.228.402-3.85.004-5.548-.173-3.772-.394M358.252 473.5c.011-2.2.216-2.982.455-1.738s.23 3.044-.02 4-.446-.062-.435-2.262m1219.516-15.225c1.797-.222 4.497-.218 6 .01 1.503.229.032.41-3.268.405-3.3-.006-4.53-.192-2.732-.415M898.252 453.5c.011-2.2.216-2.982.455-1.738s.23 3.044-.02 4-.446-.062-.435-2.262m-517.002-1.19c.963-.25 2.538-.25 3.5 0 .963.252.175.458-1.75.458s-2.712-.206-1.75-.457m151.5.028c.688-.278 1.813-.278 2.5 0 .688.277.125.504-1.25.504s-1.937-.227-1.25-.504M1098.392 426c0-7.425.157-10.462.35-6.75.192 3.713.192 9.788 0 13.5-.193 3.713-.35.675-.35-6.75m-154.01-23.5c.002-6.6.164-9.17.36-5.71.195 3.458.194 8.858-.005 12-.197 3.14-.358.31-.356-6.29zm835.056-25c0-14.85.138-21.064.309-13.81.17 7.255.171 19.405.001 27-.17 7.596-.31 1.66-.31-13.19M252.75 352.338c.688-.278 1.813-.278 2.5 0 .688.277.125.504-1.25.504s-1.937-.227-1.25-.504m1515-2c.688-.278 1.813-.278 2.5 0 .688.277.125.504-1.25.504s-1.937-.227-1.25-.504m-242-1.044c1.238-.238 3.263-.238 4.5 0 1.238.239.225.434-2.25.434s-3.487-.195-2.25-.434m26.542-46.036c3.735-.193 9.585-.192 13 .003 3.414.194.358.352-6.792.35s-9.944-.16-6.208-.354zm227.994-13.758c.01-2.75.202-3.756.432-2.236s.223 3.77-.014 5-.426-.014-.418-2.764zm-1536.943-43c.004-4.4.18-6.076.39-3.724.212 2.352.209 5.952-.006 8s-.388.124-.385-4.276zM897.397 205c0-7.975.156-11.237.346-7.25s.19 10.513 0 14.5-.346.725-.346-7.25m-215.318-7.583c.048-1.165.285-1.402.604-.604.289.721.253 1.584-.079 1.916s-.568-.258-.525-1.312m674.19-7.11c.973-.254 2.323-.237 3 .037s-.119.481-1.769.461-2.204-.244-1.231-.498m367.981-.023c1.513-.23 3.988-.23 5.5 0 1.513.229.275.416-2.75.416s-4.262-.187-2.75-.416" style="fill:#b9b9b9;fill-opacity:1" transform="translate(-223.49 -171)"/><path d="M622.75 1660.268c2.338-.21 6.163-.21 8.5 0 2.338.21.425.383-4.25.383s-6.587-.173-4.25-.383m723.063.049c.721-.29 1.584-.254 1.916.079.332.332-.258.569-1.312.525-1.165-.048-1.402-.285-.604-.604m105 0c.721-.29 1.584-.254 1.916.079.332.332-.258.569-1.312.525-1.165-.048-1.402-.285-.604-.604m81.937-.023c1.238-.239 3.263-.239 4.5 0 1.238.238.225.433-2.25.433s-3.487-.195-2.25-.433m-72.671-5.878c.048-1.165.285-1.402.604-.604.289.722.253 1.584-.079 1.917s-.569-.259-.525-1.313m154.153-4.416c0-1.925.206-2.712.457-1.75.252.963.252 2.538 0 3.5-.251.963-.457.175-.457-1.75m45.104-29c0-4.125.177-5.812.392-3.75s.216 5.438 0 7.5c-.215 2.063-.392.375-.392-3.75m-1417.064 2c0-2.475.195-3.487.434-2.25.238 1.238.238 3.263 0 4.5-.239 1.238-.434.225-.434-2.25m440.088-28c0-5.225.169-7.362.375-4.75s.206 6.888 0 9.5-.374.475-.374-4.75m657.094-40.5c0-20.9.132-29.592.294-19.316.163 10.276.163 27.376 0 38-.161 10.624-.294 2.216-.294-18.684m165.895 13.5c0-4.675.173-6.587.383-4.25.21 2.338.21 6.163 0 8.5-.21 2.338-.383.425-.383-4.25M412.75 1534.338c.688-.278 1.813-.278 2.5 0 .688.277.125.504-1.25.504s-1.937-.227-1.25-.504m641.497-164.505c-.196-117.812-.506-148.771-1.497-149.17-.98-.396-.972-.522.031-.584.705-.043 1.495.484 1.757 1.171s.358 67.85.215 149.25l-.26 148zM902.157 1492c0-1.375.228-1.937.505-1.25.278.688.278 1.813 0 2.5-.277.688-.504.125-.504-1.25m-504.39-2.725c1.798-.222 4.498-.218 6 .01 1.504.228.033.41-3.267.405-3.3-.01-4.53-.192-2.732-.415zm124.483-.991c1.513-.23 3.988-.23 5.5 0 1.513.229.275.416-2.75.416s-4.262-.187-2.75-.416m425.06-27.784c.006-3.3.192-4.53.415-2.732.222 1.797.218 4.497-.01 6-.229 1.503-.41.032-.405-3.268m-299.06-80.228c2.063-.216 5.438-.216 7.5 0 2.063.215.375.392-3.75.392s-5.812-.177-3.75-.392m-227.437-.955c.721-.289 1.584-.253 1.916.079s-.258.569-1.312.525c-1.165-.048-1.402-.285-.604-.604M1658.158 1378c0-1.375.227-1.937.504-1.25.278.688.278 1.813 0 2.5-.277.688-.504.125-.504-1.25M652.25 1333.31c.963-.25 2.538-.25 3.5 0 .963.252.175.458-1.75.458s-2.712-.206-1.75-.457M901.411 1293c0-9.625.15-13.562.334-8.75.183 4.813.183 12.688 0 17.5-.184 4.813-.334.875-.334-8.75m-218.068-12.5c.004-4.4.18-6.076.39-3.724.212 2.352.209 5.952-.007 8-.214 2.048-.387.124-.384-4.276zm1096.943-56c.01-2.75.202-3.756.432-2.236s.223 3.77-.014 5-.426-.014-.418-2.764zm-1097.207-.083c.048-1.165.285-1.402.604-.604.289.722.253 1.584-.079 1.916-.332.333-.568-.258-.525-1.312m-415.329-4.08c.688-.277 1.813-.277 2.5 0 .688.278.125.505-1.25.505s-1.937-.227-1.25-.504m340.018-.061c1.797-.223 4.497-.218 6 .01s.032.41-3.268.404c-3.3-.01-4.53-.192-2.732-.414zm607 0c1.797-.223 4.497-.218 6 .01s.032.41-3.268.404c-3.3-.01-4.53-.192-2.732-.414zm158.045-79.959c.721-.289 1.584-.253 1.916.08.332.332-.258.568-1.312.525-1.165-.048-1.402-.285-.604-.605m44.937-.023c1.238-.238 3.263-.238 4.5 0 1.238.239.225.434-2.25.434s-3.487-.195-2.25-.434M675.158 1138c0-1.375.227-1.937.504-1.25.278.688.278 1.813 0 2.5-.277.688-.504.125-.504-1.25m388.645 1.254c5.667-.179 14.667-.178 20 0 5.333.179.697.325-10.303.324-11 0-15.364-.148-9.697-.326zm459.01.063c.721-.29 1.584-.254 1.916.079.332.332-.258.568-1.312.525-1.165-.048-1.402-.285-.605-.604m93.345-4.317c0-1.375.227-1.937.504-1.25.278.688.278 1.813 0 2.5-.277.688-.504.125-.504-1.25m44.92-4.583c.049-1.165.286-1.402.605-.604.289.721.253 1.584-.079 1.916s-.569-.258-.525-1.312m-151.92-5.417c0-1.375.227-1.937.504-1.25.278.688.278 1.813 0 2.5-.277.688-.504.125-.504-1.25m-44.926-6c0-1.925.206-2.712.457-1.75.252.963.252 2.538 0 3.5-.251.963-.457.175-.457-1.75m-119.762-92c0-33.275.125-46.887.28-30.25.153 16.638.153 43.863 0 60.5-.155 16.638-.28 3.025-.28-30.25m-668.047-19.5c.001-11.55.147-16.138.324-10.196s.176 15.393-.001 21c-.178 5.608-.323.746-.322-10.804zm-419.173 11.765c2.613-.206 6.888-.206 9.5 0s.475.375-4.75.375-7.362-.169-4.75-.375m202-1c2.613-.206 6.888-.206 9.5 0s.475.375-4.75.375-7.362-.169-4.75-.375M787.37 993c0-5.775.165-8.137.367-5.25s.202 7.613 0 10.5c-.202 2.888-.367.525-.367-5.25m721.03-9.5c0-8.25.156-11.492.344-7.204.188 4.287.187 11.037 0 15-.19 3.962-.343.454-.342-7.796zm-526.148-4c.011-2.2.216-2.982.455-1.738s.23 3.044-.02 4-.446-.062-.435-2.262m-305.847-49c0-8.8.154-12.266.34-7.703.185 4.564.184 11.764-.002 16-.187 4.237-.34.503-.338-8.297zm350.881-40c.01-2.75.202-3.756.432-2.236s.223 3.77-.014 5-.426-.014-.418-2.764zm632.966-9c.011-2.2.216-2.982.455-1.738s.23 3.044-.02 4-.446-.062-.435-2.262zM661.27 870.307c.973-.254 2.323-.237 3 .037s-.119.481-1.769.461-2.204-.244-1.231-.498m320.983-8.807c.011-2.2.216-2.982.455-1.738s.23 3.044-.02 4-.446-.062-.435-2.262m-194.878-20c.002-6.05.167-8.396.366-5.213.2 3.182.197 8.132-.004 11-.201 2.867-.364.263-.362-5.787M458.25 823.265c2.613-.206 6.888-.206 9.5 0s.475.374-4.75.374-7.362-.168-4.75-.374m203.019-.958c.973-.254 2.323-.237 3 .037s-.119.481-1.769.461-2.204-.244-1.231-.498M250.286 761.5c.008-2.75.202-3.756.432-2.236s.223 3.77-.014 5-.425-.014-.418-2.764m18.476-46.207c1.244-.24 3.044-.23 4 .02s-.062.446-2.262.435-2.982-.216-1.738-.455m384.988.002c1.238-.239 3.263-.239 4.5 0 1.238.238.225.433-2.25.433s-3.487-.195-2.25-.433m569.445-2.795c.02-1.65.244-2.204.498-1.231s.237 2.323-.037 3-.481-.119-.461-1.769m-309.945-8.247c6.463-.174 17.038-.174 23.5 0 6.463.174 1.175.317-11.75.317s-18.212-.143-11.75-.317m155.5 0c6.188-.175 16.313-.175 22.5 0 6.188.176 1.125.32-11.25.32s-17.437-.144-11.25-.32m-811.486-73.97c1.52-.23 3.77-.224 5 .013s-.014.425-2.764.418-3.756-.202-2.236-.432m242.486.055c.688-.278 1.813-.278 2.5 0 .688.277.125.504-1.25.504s-1.937-.227-1.25-.504m908.034-.076c2.905-.203 7.405-.2 10 .005s.216.37-5.284.368-7.622-.17-4.716-.373zm266.966.006c2.338-.21 6.163-.21 8.5 0 2.338.21.425.382-4.25.382s-6.587-.172-4.25-.382m-334.671-1.852c.048-1.164.285-1.401.604-.604.289.722.253 1.585-.079 1.917s-.569-.258-.525-1.313m439 0c.048-1.164.285-1.401.604-.604.289.722.253 1.585-.079 1.917s-.569-.258-.525-1.313M510.232 610c0-1.925.206-2.712.457-1.75.252.963.252 2.538 0 3.5-.251.963-.457.175-.457-1.75m-.153-102.583c.048-1.165.285-1.402.604-.604.289.721.253 1.584-.079 1.916s-.568-.258-.525-1.312M1339.488 350.5c0-87.45.118-123.077.262-79.171s.144 115.456 0 159-.262 7.621-.262-79.829m212.262 153.76c3.438-.196 9.063-.196 12.5 0 3.438.195.625.355-6.25.355s-9.687-.16-6.25-.355m-1076-5.983c1.788-.222 4.713-.222 6.5 0 1.788.221.325.403-3.25.403s-5.037-.182-3.25-.403m467.329-17.86c.048-1.165.285-1.402.604-.605.289.722.253 1.585-.079 1.917s-.568-.258-.525-1.312m645.689-22.142c1.797-.222 4.497-.218 6 .01 1.503.229.032.41-3.268.405-3.3-.006-4.53-.192-2.732-.415m-1201.499-5.968c.973-.254 2.323-.237 3 .037s-.119.481-1.769.461-2.204-.244-1.231-.498m142.543.01c.722-.289 1.585-.253 1.917.079s-.258.569-1.312.525c-1.165-.048-1.402-.285-.605-.604M898.273 446c0-2.475.195-3.487.434-2.25.238 1.238.238 3.263 0 4.5-.239 1.238-.434.225-.434-2.25m200.18-69.5c0-20.35.134-28.533.297-18.185s.162 26.999 0 37c-.164 10.002-.297 1.535-.296-18.815M944.473 325c0-36.575.125-51.537.278-33.25.152 18.288.152 48.213 0 66.5-.153 18.288-.278 3.325-.278-33.25M248.75 352.338c.688-.278 1.813-.278 2.5 0 .688.277.125.504-1.25.504s-1.937-.227-1.25-.504m1523-2c.688-.278 1.813-.278 2.5 0 .688.277.125.504-1.25.504s-1.937-.227-1.25-.504m-238-1.044c1.238-.238 3.263-.238 4.5 0 1.238.239.225.434-2.25.434s-3.487-.195-2.25-.434m43-46.034c3.438-.196 9.063-.196 12.5 0 3.438.195.625.355-6.25.355s-9.687-.16-6.25-.355m203.522-5.26c0-2.475.195-3.487.434-2.25.238 1.238.238 3.263 0 4.5-.239 1.238-.434.225-.434-2.25M243.328 232.5c.004-3.85.185-5.302.402-3.228.216 2.075.213 5.225-.008 7s-.398.078-.394-3.772m1108.422-42.162c.688-.278 1.813-.278 2.5 0 .688.277.125.504-1.25.504s-1.937-.227-1.25-.504m382.514-.056c1.52-.23 3.77-.223 5 .014s-.014.425-2.764.418-3.756-.202-2.236-.432" style="fill:#a3a3a3;fill-opacity:1" transform="translate(-223.49 -171)"/><path d="M459.768 1661.275c1.797-.222 4.497-.218 6 .01s.032.41-3.268.405c-3.3-.01-4.53-.192-2.732-.415zm921.482-.019c4.263-.187 11.238-.187 15.5 0 4.263.188.775.341-7.75.341s-12.012-.153-7.75-.34m-734.443-1.004c6.77-.173 17.57-.173 24 0 6.431.174.893.316-12.307.315-13.2 0-18.462-.143-11.693-.316zm694.943.085c.688-.277 1.813-.277 2.5 0s.125.504-1.25.504-1.937-.226-1.25-.504m112.063-.02c.721-.29 1.584-.254 1.916.078s-.258.569-1.312.525c-1.165-.048-1.402-.285-.604-.604m72.437-.01c.963-.253 2.538-.253 3.5 0 .963.25.175.456-1.75.456s-2.712-.205-1.75-.457m-66.171-2.895c.048-1.165.285-1.402.604-.604.289.722.253 1.584-.079 1.917s-.569-.259-.525-1.313m154.116-1.917c.02-1.65.244-2.203.498-1.23s.237 2.322-.037 3c-.274.676-.481-.12-.461-1.77m-750.945.75c28.463-.147 75.038-.147 103.5 0 28.463.148 5.175.269-51.75.269s-80.212-.12-51.75-.268m796.036-23.745c.01-2.75.202-3.756.432-2.236s.223 3.77-.014 5-.426-.014-.418-2.764zm-1417-1c.008-2.75.202-3.756.432-2.236s.223 3.77-.014 5-.425-.014-.418-2.764m1097.116-24.5c0-8.525.154-12.012.341-7.75s.188 11.238 0 15.5c-.187 4.263-.34.775-.34-7.75m-657.06 4.5c.005-4.4.18-6.076.391-3.724s.209 5.952-.007 8c-.214 2.048-.387.124-.384-4.276zm822.986-29c0-3.85.185-5.302.402-3.228.216 2.075.213 5.225-.01 7-.221 1.776-.398.078-.394-3.772zM418.25 1534.284c1.513-.23 3.988-.23 5.5 0 1.513.229.275.416-2.75.416s-4.262-.187-2.75-.416m921.193-46.784c0-16.5.137-23.39.304-15.312.168 8.079.169 21.579.001 30-.167 8.422-.305 1.812-.305-14.688m-240.364 16.917c.048-1.165.285-1.402.604-.604.289.721.253 1.584-.079 1.916s-.569-.258-.525-1.312m-690.829-15.133c1.513-.23 3.988-.23 5.5 0 1.513.229.275.416-2.75.416s-4.262-.187-2.75-.416M902.232 1487c0-1.925.206-2.712.457-1.75.252.963.252 2.538 0 3.5-.251.963-.457.175-.457-1.75m-334.482 1.25c21.038-.15 55.463-.15 76.5 0 21.038.151 3.825.274-38.25.274s-59.287-.123-38.25-.274M947.336 1448c0-4.125.177-5.812.392-3.75s.216 5.438 0 7.5c-.215 2.063-.392.375-.392-3.75m710.822-66c0-1.375.227-1.937.504-1.25.278.688.278 1.813 0 2.5-.277.688-.504.125-.504-1.25m-996.39-1.725c1.797-.222 4.497-.218 6 .01s.032.41-3.268.405c-3.3-.01-4.53-.192-2.732-.415zm-237.499-.968c.973-.253 2.323-.237 3 .037s-.119.481-1.769.461-2.204-.244-1.231-.498m1211.544-31.99c.721-.289 1.584-.253 1.916.079.333.332-.258.569-1.312.525-1.165-.048-1.402-.285-.604-.604m-1235-13c.721-.289 1.584-.253 1.916.079s-.258.569-1.312.525c-1.165-.048-1.402-.285-.604-.604m258.915-1.039c1.775-.22 4.925-.224 7-.01 2.074.217.622.397-3.228.402-3.85 0-5.548-.173-3.772-.394zm23.582-39.778c.006-3.3.192-4.53.415-2.732.222 1.797.218 4.497-.01 6-.229 1.503-.41.032-.405-3.268M901.41 1259c0-9.625.15-13.562.334-8.75.183 4.813.183 12.688 0 17.5-.184 4.813-.334.875-.334-8.75m-638.142-38.693c.973-.253 2.323-.237 3 .037s-.119.481-1.769.461-2.204-.244-1.231-.498m354.981-.023c1.513-.23 3.988-.23 5.5 0s.275.417-2.75.417-4.262-.188-2.75-.417m197.429-.033c15.498-.155 41.148-.155 57 0s3.171.281-28.179.281-44.32-.126-28.821-.281m-497.851-79c37.58-.146 98.78-.146 136 0 37.22.145 6.472.263-68.328.263s-105.252-.118-67.672-.264m354.985-.934c.721-.289 1.584-.253 1.916.08.332.331-.258.568-1.312.524-1.165-.048-1.402-.285-.605-.604m697 0c.721-.289 1.584-.253 1.916.08.332.331-.258.568-1.312.524-1.165-.048-1.402-.285-.604-.604m55.949-.024c1.244-.24 3.044-.23 4 .02s-.062.446-2.262.435-2.982-.216-1.738-.455zm-300.512-1.042c18.013-.153 47.488-.153 65.5 0 18.013.153 3.275.278-32.75.278s-50.762-.125-32.75-.278m394.563.066c.721-.289 1.584-.253 1.916.079s-.258.569-1.312.525c-1.165-.048-1.402-.285-.604-.604m96.266-.9c.048-1.165.285-1.402.604-.604.289.721.253 1.584-.079 1.916-.332.333-.569-.258-.525-1.312m73.6.834c15.498-.155 41.148-.155 57 0 15.851.154 3.171.281-28.179.281s-44.32-.126-28.821-.281M1509.158 1129c0-1.375.227-1.937.504-1.25.278.688.278 1.813 0 2.5-.277.688-.504.125-.504-1.25m-44.963-4.5c.02-1.65.244-2.204.498-1.231s.237 2.323-.037 3-.481-.119-.461-1.769m-119.82-27c0-6.05.166-8.396.365-5.213.2 3.182.197 8.132 0 11-.201 2.867-.364.263-.362-5.787zm-668-59c.001-6.05.166-8.396.365-5.213.2 3.182.197 8.132-.004 11-.201 2.867-.364.263-.362-5.787m832.025-26c0-8.25.156-11.492.344-7.204.188 4.287.187 11.037 0 15-.19 3.962-.343.454-.342-7.796zm-721.035 0c.003-5.5.17-7.622.373-4.716s.2 7.406-.005 10-.37.216-.368-5.284zm213.385 8.838c.687-.278 1.812-.278 2.5 0 .687.277.125.504-1.25.504s-1.938-.227-1.25-.504m-558.47-3.074c2.63-.207 6.68-.204 9 .01 2.321.21.17.379-4.78.375-4.95 0-6.849-.174-4.22-.38zM982.286 971.5c.008-2.75.202-3.756.432-2.236s.223 3.77-.014 5-.425-.014-.418-2.764m362.15-30c0-14.3.14-20.01.312-12.691.17 7.32.17 19.02 0 26-.172 6.98-.312.991-.311-13.309zm-668.093-34c.004-4.4.18-6.076.39-3.724.212 2.352.209 5.952-.007 8-.214 2.048-.387.124-.384-4.276zM1027.3 900c0-3.025.187-4.262.416-2.75.23 1.513.23 3.988 0 5.5-.229 1.513-.416.275-.416-2.75m632.972-11c0-2.475.195-3.487.434-2.25.238 1.238.238 3.263 0 4.5-.239 1.238-.434.225-.434-2.25M982.3 870c0-3.025.187-4.262.416-2.75.23 1.513.23 3.988 0 5.5-.229 1.513-.416.275-.416-2.75m-316.487.317c.721-.289 1.584-.253 1.916.079s-.258.568-1.312.525c-1.165-.048-1.402-.285-.605-.604m-269-1c.721-.289 1.584-.253 1.916.079s-.258.568-1.312.525c-1.165-.048-1.402-.285-.604-.604M787.37 821c0-5.775.165-8.137.367-5.25s.202 7.613 0 10.5c-.202 2.888-.367.525-.367-5.25m-311.12 2.265c2.613-.206 6.888-.206 9.5 0s.475.374-4.75.374-7.362-.168-4.75-.374m189.5-.927c.688-.278 1.813-.278 2.5 0 .688.277.125.504-1.25.504s-1.937-.227-1.25-.504M250.232 754c0-1.925.206-2.712.457-1.75.252.963.252 2.538 0 3.5-.251.963-.457.175-.457-1.75m12.018-38.69c.963-.25 2.538-.25 3.5 0 .963.252.175.458-1.75.458s-2.712-.206-1.75-.457m399 0c.963-.25 2.538-.25 3.5 0 .963.252.175.458-1.75.458s-2.712-.206-1.75-.457m212-11.055c5.363-.18 14.138-.18 19.5 0 5.363.18.975.326-9.75.326s-15.112-.147-9.75-.327m237.5 0c5.088-.182 13.413-.182 18.5 0 5.088.181.925.33-9.25.33s-14.337-.149-9.25-.33m-865-73.978c1.788-.222 4.713-.222 6.5 0 1.788.221.325.403-3.25.403s-5.037-.182-3.25-.403m258.063.04c.721-.289 1.584-.253 1.916.079s-.258.568-1.312.525c-1.165-.048-1.402-.285-.604-.604m280 0c.721-.289 1.584-.253 1.916.079s-.258.568-1.312.525c-1.165-.048-1.402-.285-.605-.604m572.437-.065c8.663-.167 22.838-.167 31.5 0 8.663.166 1.575.303-15.75.303s-24.412-.137-15.75-.303m334.526.015c2.352-.212 5.952-.209 8 .006s.124.388-4.276.385-6.076-.18-3.724-.391zM510.158 615c0-1.375.227-1.937.504-1.25.278.688.278 1.813 0 2.5-.277.688-.504.125-.504-1.25m829.25-90c0-9.075.15-12.787.336-8.25.185 4.538.185 11.963 0 16.5s-.337.825-.337-8.25m-829.329-20.583c.048-1.165.285-1.402.604-.604.289.721.253 1.584-.079 1.916s-.568-.258-.525-1.312m1112.171-.167c29.013-.147 76.488-.147 105.5 0 29.013.148 5.275.268-52.75.268s-81.762-.12-52.75-.268m-1135-5.966c1.513-.23 3.988-.23 5.5 0 1.513.229.275.416-2.75.416s-4.262-.187-2.75-.416m-117.437-.967c.721-.289 1.584-.253 1.916.079s-.258.568-1.312.525c-1.165-.048-1.402-.285-.604-.604M242.448 455.5c0-18.15.134-25.716.3-16.814s.166 23.753 0 33c-.165 9.248-.3 1.964-.3-16.186m700.71 21.5c0-1.375.227-1.937.504-1.25.278.688.278 1.813 0 2.5-.277.688-.504.125-.504-1.25m536.655-17.683c.721-.289 1.584-.253 1.916.079s-.258.568-1.312.525c-1.165-.048-1.402-.285-.604-.604m119.437-1.033c1.513-.23 3.988-.23 5.5 0 1.513.229.275.416-2.75.416s-4.262-.187-2.75-.416m-1205.986-6.002c1.52-.23 3.77-.223 5 .014s-.014.425-2.764.418-3.756-.202-2.236-.432m118.525-.023c3.46-.196 8.86-.195 12 .004 3.141.197.311.358-6.289.356s-9.17-.164-5.71-.36zM898.3 437c0-3.025.188-4.262.417-2.75.23 1.513.23 3.988 0 5.5-.229 1.513-.416.275-.416-2.75M244.75 352.338c.688-.278 1.813-.278 2.5 0 .688.277.125.504-1.25.504s-1.937-.227-1.25-.504m289.5-1.027c.963-.252 2.538-.252 3.5 0 .963.251.175.457-1.75.457s-2.712-.206-1.75-.457m1241.5-.973c.688-.278 1.813-.278 2.5 0 .688.277.125.504-1.25.504s-1.937-.227-1.25-.504m-233.022-1.06c1.775-.22 4.925-.224 7-.008 2.074.217.622.397-3.228.402-3.85.004-5.547-.173-3.772-.394M1098.475 265c0-41.525.124-58.512.275-37.75.15 20.763.15 54.738 0 75.5-.151 20.763-.275 3.775-.275-37.75m-569.707 40.275c1.797-.222 4.497-.218 6 .01 1.503.229.032.41-3.268.405-3.3-.006-4.53-.192-2.732-.415m959.482-.964c.963-.252 2.538-.252 3.5 0 .963.251.175.457-1.75.457s-2.712-.206-1.75-.457m144.074-1.06c20.803-.152 54.553-.152 75 0 20.447.15 3.426.274-37.824.274s-57.98-.124-37.176-.275M944.389 246.5c.002-7.15.16-9.944.354-6.208.192 3.735.191 9.585-.003 13-.195 3.414-.353.358-.351-6.792zM243.336 219c0-4.125.177-5.812.392-3.75s.216 5.438 0 7.5c-.215 2.063-.392.375-.392-3.75m1.477-28.683c.721-.289 1.584-.253 1.916.079s-.258.568-1.312.525c-1.165-.048-1.402-.285-.604-.604m1101.437-.006c.963-.252 2.538-.252 3.5 0 .963.251.175.457-1.75.457s-2.712-.206-1.75-.457m396.5-.017c1.238-.238 3.263-.238 4.5 0 1.238.239.225.434-2.25.434s-3.487-.195-2.25-.434m-1299.567-1.042c10.826-.162 28.826-.162 40 0 11.175.16 2.317.292-19.683.293-22 0-31.142-.132-20.317-.293m545.067.02c2.062-.216 5.437-.216 7.5 0s.375.392-3.75.392-5.813-.176-3.75-.392m526.068-.021c12.55-.159 32.8-.159 45 0 12.2.16 1.932.29-22.818.29-24.75-.001-34.732-.131-22.182-.29" style="fill:#8c8c8c;fill-opacity:1" transform="translate(-223.49 -171)"/><path d="M441.287 1661.26c3.182-.2 8.132-.197 11 0 2.867.201.263.364-5.787.362-6.05 0-8.396-.167-5.213-.366zm30.463.01c2.338-.21 6.163-.21 8.5 0 2.338.21.425.383-4.25.383s-6.587-.173-4.25-.383m899 .07c.688-.277 1.813-.277 2.5 0s.125.504-1.25.504-1.937-.227-1.25-.504m35.514-.055c1.52-.23 3.77-.224 5 .014 1.23.237-.014.425-2.764.418-2.75-.01-3.756-.202-2.236-.432zm116.549-.966c.721-.289 1.584-.253 1.916.08.332.332-.258.568-1.312.525-1.165-.048-1.402-.285-.604-.605m-716.051-4.024c1.244-.239 3.044-.23 4 .02s-.062.446-2.262.435c-2.2-.01-2.982-.216-1.738-.455zm221.542-.039c5.943-.177 15.393-.176 21 0 5.608.178.746.323-10.804.322-11.55 0-16.138-.146-10.196-.323zM1659.232 1640c0-1.925.206-2.712.457-1.75.252.963.252 2.538 0 3.5-.251.963-.457.175-.457-1.75m-1417-1c0-1.925.206-2.712.457-1.75.252.963.252 2.538 0 3.5-.251.963-.457.175-.457-1.75m440.123-11.5c-.003-4.95.166-7.101.376-4.78s.212 6.37.006 9c-.207 2.629-.379.73-.382-4.22zm656.955 0c.01-3.3.192-4.53.415-2.732.222 1.797.218 4.497-.01 6s-.41.032-.405-3.268zm166.018-32c0-3.85.185-5.302.402-3.228.216 2.075.213 5.225-.01 7-.221 1.776-.398.078-.394-3.772zM432.25 1534.258c3.713-.192 9.788-.192 13.5 0 3.713.193.675.35-6.75.35s-10.462-.157-6.75-.35m498.563-3.941c.721-.289 1.584-.253 1.916.079s-.258.569-1.312.525c-1.165-.048-1.402-.285-.605-.604m-560.734-14.9c.048-1.165.285-1.402.604-.604.289.721.253 1.584-.079 1.916s-.568-.258-.525-1.312M1099.158 1501c0-1.375.227-1.937.504-1.25.278.688.278 1.813 0 2.5-.277.688-.504.125-.504-1.25m-680.408-11.723c1.788-.222 4.713-.222 6.5 0 1.788.221.325.403-3.25.403s-5.037-.182-3.25-.403M682.411 1471c0-9.625.15-13.562.334-8.75.183 4.813.183 12.688 0 17.5-.184 4.813-.334.875-.334-8.75m219.841 9.5c.011-2.2.216-2.982.455-1.738s.23 3.044-.02 4-.446-.062-.435-2.262m437.188-50c0-15.4.139-21.56.308-13.69.17 7.871.169 20.471 0 28-.17 7.53-.309 1.09-.308-14.31m-392.062-.5c0-6.325.163-8.912.361-5.75s.198 8.338 0 11.5-.36.575-.36-5.75m710.817-43.5c.02-1.65.244-2.204.498-1.231s.237 2.323-.037 3-.481-.119-.461-1.769m-987.445-6.162c.688-.278 1.813-.278 2.5 0 .688.277.125.504-1.25.504s-1.937-.227-1.25-.504m-241-1.044c1.238-.238 3.263-.238 4.5 0 1.238.239.225.434-2.25.434s-3.487-.195-2.25-.434m-59.671-20.877c.048-1.165.285-1.402.604-.604.289.721.253 1.584-.079 1.916s-.568-.258-.525-1.312m34.171-24.106c.963-.252 2.538-.252 3.5 0 .963.251.175.457-1.75.457s-2.712-.206-1.75-.457m266.5-.973c.688-.278 1.813-.278 2.5 0 .688.277.125.504-1.25.504s-1.937-.227-1.25-.504m12.578-27.838c.004-3.85.185-5.302.402-3.228.216 2.075.213 5.225-.008 7s-.398.078-.394-3.772m218.046-74c.002-6.05.167-8.396.366-5.213.2 3.182.197 8.132-.004 11-.201 2.867-.364.263-.362-5.787m-643.105-11.193c.973-.253 2.323-.237 3 .037s-.119.481-1.769.461-2.204-.244-1.231-.498m369.981-.023c1.513-.23 3.988-.23 5.5 0s.275.417-2.75.417-4.262-.188-2.75-.417m-97.447-79.03c5.667-.179 14.667-.178 20 0 5.333.18.697.325-10.303.325-11-.001-15.364-.148-9.697-.327zm834.947-.916c.688-.277 1.813-.277 2.5 0s.125.504-1.25.504-1.937-.227-1.25-.504m66 0c.688-.277 1.813-.277 2.5 0s.125.504-1.25.504-1.937-.227-1.25-.504m229.329-4.921c.048-1.165.285-1.402.604-.604.289.722.253 1.584-.079 1.916-.332.333-.569-.258-.525-1.312m-152-3c.048-1.165.285-1.402.604-.604.289.722.253 1.584-.079 1.916-.332.333-.569-.258-.525-1.312m-44.921-3.417c0-1.375.227-1.937.504-1.25.278.688.278 1.813 0 2.5-.277.688-.504.125-.504-1.25m-119.886-17c0-2.475.195-3.487.434-2.25.238 1.238.238 3.263 0 4.5-.239 1.238-.434.225-.434-2.25m-667.917-54.5c-.003-4.95.166-7.101.376-4.78s.212 6.37.006 9c-.207 2.629-.379.73-.382-4.22zm832.015-20.5c0-5.775.165-8.137.367-5.25s.202 7.613 0 10.5c-.202 2.888-.367.525-.367-5.25m-720.996-4.5c.002-6.05.167-8.396.366-5.213.2 3.182.197 8.132-.004 11-.201 2.867-.364.263-.362-5.787m-363.124-14.235c2.613-.206 6.888-.206 9.5 0s.475.375-4.75.375-7.362-.169-4.75-.375m602.829-16.848c.048-1.165.285-1.402.604-.605.289.722.253 1.585-.079 1.917s-.569-.258-.525-1.312m-770.329-27.16c3.988-.19 10.513-.19 14.5 0s.725.346-7.25.346-11.237-.156-7.25-.346M982.365 957.5c.003-5.5.17-7.622.373-4.716s.2 7.405-.005 10-.37.216-.368-5.284zm-732.983-39c.002-6.6.164-9.17.36-5.71.195 3.458.194 8.858-.005 12-.197 3.14-.358.31-.356-6.29zm1531.954 3.5c0-4.125.177-5.812.392-3.75s.216 5.438 0 7.5c-.215 2.063-.392.375-.392-3.75m-436.901-31c0-14.025.14-19.762.312-12.75s.172 18.488 0 25.5-.312 1.275-.312-12.75M1027.3 910c0-3.025.187-4.262.416-2.75.23 1.513.23 3.988 0 5.5-.229 1.513-.416.275-.416-2.75m633.01-11.5c.01-3.3.192-4.53.415-2.732.222 1.797.218 4.497-.01 6s-.41.032-.405-3.268zM676.3 895c0-3.025.187-4.262.416-2.75.23 1.513.23 3.988 0 5.5-.229 1.513-.416.275-.416-2.75m306.065-10.5c.003-5.5.17-7.622.373-4.716s.2 7.405-.005 10-.37.216-.368-5.284zM400.27 869.307c.973-.254 2.323-.237 3 .037s-.119.481-1.769.461-2.204-.244-1.231-.498m94.011-46.043c2.63-.207 6.68-.204 9 .006s.17.379-4.78.375c-4.95-.003-6.849-.174-4.22-.38zM787.374 800.5c.002-6.05.167-8.396.366-5.213.2 3.182.197 8.132-.004 11-.201 2.867-.364.263-.362-5.787M250.272 747c0-2.475.195-3.487.434-2.25.238 1.238.238 3.263 0 4.5-.239 1.238-.434.225-.434-2.25m7.478-31.662c.688-.278 1.813-.278 2.5 0 .688.277.125.504-1.25.504s-1.937-.227-1.25-.504m409 0c.688-.278 1.813-.278 2.5 0 .688.277.125.504-1.25.504s-1.937-.227-1.25-.504m183.034-11.076c2.905-.203 7.405-.2 10 .005s.216.37-5.284.368-7.622-.17-4.716-.373zm292.966 0c2.888-.201 7.613-.201 10.5 0 2.888.203.525.368-5.25.368s-8.137-.165-5.25-.367M1223.491 411c0-121.275.117-170.887.259-110.25s.142 159.863 0 220.5-.259 11.025-.259-110.25m482.79 219.264c2.628-.207 6.678-.204 9 .006 2.32.21.169.379-4.781.375-4.95-.003-6.849-.174-4.22-.38zM510.157 619c0-1.375.227-1.937.504-1.25.278.688.278 1.813 0 2.5-.277.688-.504.125-.504-1.25m829.237-64.5c0-7.7.158-10.718.348-6.706s.19 10.311 0 14c-.191 3.688-.347.406-.346-7.294zM242.402 503c0-8.525.154-12.012.341-7.75s.188 11.238 0 15.5c-.187 4.263-.34.775-.34-7.75m253.41-4.683c.722-.289 1.585-.253 1.917.079s-.258.568-1.312.525c-1.165-.048-1.402-.285-.605-.604M1052.488 340.5c0-83.05.118-117.173.263-75.829.144 41.345.144 109.295 0 151-.145 41.706-.263 7.879-.263-75.171M557.157 480c0-1.375.228-1.937.505-1.25.278.688.278 1.813 0 2.5-.277.688-.504.125-.504-1.25m386-7c0-1.375.228-1.937.505-1.25.278.688.278 1.813 0 2.5-.277.688-.504.125-.504-1.25m541.593-13.723c1.788-.222 4.713-.222 6.5 0 1.788.221.325.403-3.25.403s-5.037-.182-3.25-.403m125-1c1.788-.222 4.713-.222 6.5 0 1.788.221.325.403-3.25.403s-5.037-.182-3.25-.403m-1209-5.94c.688-.277 1.813-.277 2.5 0 .688.278.125.505-1.25.505s-1.937-.227-1.25-.504m94.978-.059c1.775-.22 4.925-.224 7-.008 2.074.217.622.398-3.228.402s-5.548-.173-3.772-.394m402.6-26.778c.004-3.85.185-5.302.402-3.228.216 2.075.213 5.225-.008 7s-.398.078-.394-3.772M242.411 406c0-9.625.15-13.562.334-8.75.183 4.813.183 12.688 0 17.5-.184 4.813-.334.875-.334-8.75m1317.339-56.743c3.988-.19 10.513-.19 14.5 0s.725.346-7.25.346-11.237-.156-7.25-.346m-1037.481-43.95c.973-.254 2.323-.237 3 .037s-.119.481-1.769.461-2.204-.244-1.231-.498m971.543-.99c.722-.289 1.585-.253 1.917.079s-.258.568-1.312.525c-1.165-.048-1.402-.285-.604-.604m251.457-1.01c.973-.254 2.323-.237 3 .037s-.119.481-1.769.461-2.204-.244-1.231-.498M944.355 225.5c-.003-4.95.166-7.101.376-4.78s.212 6.37.006 9c-.207 2.629-.379.73-.382-4.22M243.336 205c0-4.125.177-5.812.392-3.75s.216 5.438 0 7.5c-.215 2.063-.392.375-.392-3.75m1506.414-14.662c.688-.278 1.813-.278 2.5 0 .688.277.125.504-1.25.504s-1.937-.227-1.25-.504m-1354.5-1.083c5.363-.18 14.138-.18 19.5 0 5.363.18.975.326-9.75.326s-15.112-.147-9.75-.326m117.5 0c5.638-.18 14.863-.18 20.5 0 5.638.177 1.025.323-10.25.323s-15.887-.146-10.25-.324m461.026.012c2.352-.212 5.952-.209 8 .007 2.048.214.124.387-4.276.384s-6.076-.18-3.724-.391zm27.974.01c1.788-.222 4.713-.222 6.5 0 1.788.221.325.403-3.25.403s-5.037-.182-3.25-.403m466-.021c4.538-.185 11.963-.185 16.5 0s.825.337-8.25.337-12.787-.152-8.25-.337m118.5.005c3.163-.198 8.338-.198 11.5 0s.575.36-5.75.36-8.912-.162-5.75-.36" style="fill:#767676;fill-opacity:1" transform="translate(-223.49 -171)"/><path d="M255.318 1679.25c12-.159 31.35-.159 43 .001s1.832.29-21.818.29-33.182-.13-21.182-.29m365.932 0c8.113-.167 21.388-.167 29.5 0 8.113.169 1.475.307-14.75.307s-22.862-.138-14.75-.306m731.512.042c1.244-.24 3.044-.23 4 .02s-.062.446-2.262.435-2.982-.216-1.738-.455zm97.988.045c.688-.277 1.813-.277 2.5 0s.125.504-1.25.504-1.937-.227-1.25-.504m96-.084c5.638-.178 14.863-.178 20.5 0s1.025.324-10.25.324-15.887-.146-10.25-.324m-208.937-.937c.721-.29 1.584-.254 1.916.079.332.332-.258.568-1.312.525-1.165-.048-1.402-.285-.604-.604m127 0c.721-.29 1.584-.254 1.916.079.332.332-.258.568-1.312.525-1.165-.048-1.402-.285-.604-.604m36.437-.01c.963-.252 2.538-.252 3.5 0 .963.251.175.457-1.75.457s-2.712-.206-1.75-.457m166.014-.028c1.52-.23 3.77-.224 5 .014 1.23.237-.014.425-2.764.418-2.75-.01-3.756-.202-2.236-.432zm115.486.055c.688-.278 1.813-.278 2.5 0 .688.277.125.504-1.25.504s-1.937-.227-1.25-.504m-290.878-3.088c-1.243-1.586-1.208-1.621.378-.378 1.666 1.307 2.196 2.128 1.372 2.128-.207 0-.995-.787-1.75-1.75m-707.622-.961c1.513-.23 3.988-.23 5.5 0 1.513.229.275.416-2.75.416s-4.262-.187-2.75-.416M224.158 1666c0-1.375.227-1.937.504-1.25.278.688.278 1.813 0 2.5-.277.688-.504.125-.504-1.25m1575.31-54.5c0-31.35.127-44.03.281-28.179s.155 41.502 0 57c-.155 15.499-.281 2.529-.281-28.821M1242.49 1438c0-125.125.117-176.312.259-113.75s.142 164.938 0 227.5-.259 11.375-.259-113.75m398.588 225.417c.048-1.165.285-1.402.604-.604.289.721.253 1.584-.079 1.916s-.569-.258-.525-1.312M1321.158 1661c0-1.375.227-1.937.504-1.25.278.688.278 1.813 0 2.5-.277.688-.504.125-.504-1.25m-920.408.263c2.887-.202 7.612-.202 10.5 0s.525.367-5.25.367-8.138-.165-5.25-.367m104 .01c2.337-.21 6.162-.21 8.5 0s.425.383-4.25.383-6.588-.173-4.25-.383m859 .07c.688-.278 1.813-.278 2.5 0 .688.277.125.504-1.25.504s-1.937-.227-1.25-.504m59.5-.027c.963-.252 2.538-.252 3.5 0 .963.251.175.457-1.75.457s-2.712-.206-1.75-.457m330.5-1.053c3.988-.19 10.513-.19 14.5 0s.725.345-7.25.345-11.237-.156-7.25-.345M682.272 1656c0-2.475.195-3.487.434-2.25.238 1.238.238 3.263 0 4.5-.239 1.238-.434.225-.434-2.25m797.028-3c0-3.025.187-4.262.416-2.75.23 1.513.23 3.988 0 5.5-.229 1.513-.416.275-.416-2.75m7.986.5c.01-2.75.202-3.756.432-2.236s.223 3.77-.014 5-.426-.014-.418-2.764zm-691.536 2.838c.688-.278 1.813-.278 2.5 0 .688.277.125.504-1.25.504s-1.937-.227-1.25-.504m335.072-.087c17.227-.154 45.127-.154 62 0s2.778.28-31.322.28c-34.1-.001-47.905-.127-30.678-.28M242.158 1649c0-1.375.227-1.937.504-1.25.278.688.278 1.813 0 2.5-.277.688-.504.125-.504-1.25m1416.92.417c.049-1.165.286-1.402.605-.604.289.721.253 1.584-.079 1.916s-.569-.258-.525-1.312M1633.403 1632c0-8.525.154-12.012.341-7.75s.188 11.238 0 15.5c-.187 4.263-.34.775-.34-7.75m-294.17 10c0-1.925.206-2.712.457-1.75.252.963.252 2.538 0 3.5-.251.963-.457.175-.457-1.75m301.23-56c0-26.675.13-37.587.287-24.25.158 13.338.158 35.163 0 48.5-.157 13.338-.286 2.425-.286-24.25M223.492 1416c0-113.025.116-159.262.259-102.75s.143 148.988 0 205.5-.26 10.275-.26-102.75m1281.781 201c0-2.475.195-3.487.434-2.25.238 1.238.238 3.263 0 4.5-.239 1.238-.434.225-.434-2.25m-803.836-33.5c0-14.3.14-20.01.312-12.691.17 7.32.17 19.02-.001 26s-.312.991-.311-13.309m759.93 14c0-5.5.17-7.622.372-4.716.203 2.905.2 7.405 0 10-.205 2.594-.37.216-.368-5.284zm25.077-44c0-16.5.137-23.39.305-15.312s.168 21.579 0 30c-.167 8.422-.304 1.812-.305-14.688m-958.193-19.25c28.463-.147 75.038-.147 103.5 0 28.463.148 5.175.268-51.75.268s-80.212-.12-51.75-.268m396.563-3.933c.721-.289 1.584-.253 1.916.079s-.258.569-1.312.525c-1.165-.048-1.402-.285-.605-.604m145.437-.045c2.063-.216 5.438-.216 7.5 0s.375.392-3.75.392-5.812-.176-3.75-.392M787.439 1503c0-15.125.139-21.312.309-13.75s.17 19.938 0 27.5-.31 1.375-.31-13.75m852.995-4.5c-.001-13.75.14-19.514.312-12.808.173 6.705.174 17.955 0 25-.172 7.044-.313 1.558-.314-12.192zm-1237.706 16.778c1.775-.22 4.925-.224 7-.01 2.074.217.622.397-3.228.402-3.85 0-5.548-.173-3.772-.394zm525.646-13.778c.002-6.05.167-8.396.366-5.213.2 3.182.197 8.132-.004 11-.201 2.867-.364.263-.362-5.787m151.784 8.5c0-1.375.227-1.937.504-1.25.278.688.278 1.813 0 2.5-.277.688-.504.125-.504-1.25m-688.894-1.718c1.52-.23 3.77-.223 5 .014s-.014.426-2.764.418c-2.75-.01-3.756-.201-2.236-.431zm107.035-1.027c4.84-.184 12.49-.183 17 0 4.51.185.551.335-8.799.334-9.35 0-13.04-.153-8.2-.336zm423.01-6.755c.007-3.3.193-4.53.416-2.732.222 1.797.218 4.497-.01 6-.229 1.503-.41.032-.405-3.268m24.77 3.917c.048-1.165.285-1.402.604-.604.289.721.253 1.584-.079 1.916s-.568-.258-.525-1.312m153.173-13.917c.011-2.2.216-2.982.455-1.738s.23 3.044-.02 4-.446-.062-.435-2.262zm-657.484-1.225c1.797-.222 4.497-.218 6 .01s.032.41-3.268.405c-3.3-.01-4.53-.192-2.732-.415zM902.31 1463.5c.006-3.3.192-4.53.415-2.732.222 1.797.218 4.497-.01 6-.229 1.503-.41.032-.405-3.268m-114.879-83c0-13.2.143-18.462.316-11.693s.173 17.57 0 24c-.174 6.431-.316.893-.316-12.307zm133.031-23.5c0-26.125.13-36.812.287-23.75.158 13.063.158 34.438 0 47.5-.158 13.063-.287 2.375-.287-23.75m161.019-51c0-53.625.12-75.562.269-48.75.148 26.813.148 70.688 0 97.5-.148 26.813-.27 4.875-.27-48.75m576.751 92c0-1.925.206-2.712.457-1.75.252.963.252 2.538 0 3.5-.251.963-.457.175-.457-1.75m-976.052-11.18c-.16-5.027-.439-5.73-2.43-6.114l-2.25-.434 2.281-.136c2.85-.17 3.44 1.323 2.96 7.491l-.38 4.873zm-233.9-7.556c2.63-.207 6.68-.204 9 .01 2.321.21.17.379-4.78.375-4.95 0-6.849-.174-4.22-.38zm1186.97-12.953c.963-.252 2.538-.252 3.5 0 .963.251.175.457-1.75.457s-2.712-.206-1.75-.457m-987.958-5.053c3.735-.193 9.585-.192 13 0 3.414.194.358.352-6.792.35-7.15 0-9.944-.16-6.208-.354zm-255.542-.981c1.788-.222 4.713-.222 6.5 0 1.788.221.325.403-3.25.403s-5.037-.182-3.25-.403m-2.498-5.277c.284-1.055 1.864-1.532 5.326-1.608l4.922-.107-4.484.426c-2.466.235-4.862.958-5.326 1.608-.582.817-.717.718-.438-.319m950.18-23.5c0-13.2.142-18.462.315-11.693s.173 17.57 0 24c-.173 6.431-.315.893-.315-12.307zm-684.704 20.778c1.775-.22 4.925-.224 7-.01 2.074.217.622.397-3.228.402-3.85 0-5.548-.173-3.772-.394zm33.084-.961c.722-.289 1.585-.253 1.917.079s-.258.569-1.312.525c-1.165-.048-1.402-.285-.605-.604M1799.474 1281c0-39.325.124-55.412.276-35.75.151 19.663.151 51.838 0 71.5-.152 19.663-.276 3.575-.276-35.75m-1098.242 55c0-1.925.206-2.712.457-1.75.252.963.252 2.538 0 3.5-.251.963-.457.175-.457-1.75m-284.47-1.707c1.244-.24 3.044-.23 4 .02s-.062.446-2.262.435-2.982-.216-1.738-.456zm262.507-.986c.973-.253 2.323-.237 3 .037s-.119.481-1.769.461-2.204-.244-1.231-.498m4.003-7.307c0-2.475.195-3.487.434-2.25.238 1.238.238 3.263 0 4.5-.239 1.238-.434.225-.434-2.25m264.125-51c0-7.975.156-11.237.346-7.25s.19 10.513 0 14.5-.346.725-.346-7.25m-245-30c0-7.975.156-11.237.346-7.25s.19 10.513 0 14.5-.346.725-.346-7.25m226.903-17c0-3.025.187-4.262.416-2.75.23 1.513.23 3.988 0 5.5-.229 1.513-.416.275-.416-2.75m-681.05-7.69c.963-.25 2.538-.25 3.5 0 .963.252.175.458-1.75.458s-2.712-.206-1.75-.457m399 0c.963-.25 2.538-.25 3.5 0 .963.252.175.458-1.75.458s-2.712-.206-1.75-.457m-233.43-1.06c13.925-.156 36.425-.156 50 .001 13.574.157 2.18.285-25.32.285s-38.606-.129-24.68-.285m575.43.015c2.613-.206 6.888-.206 9.5 0s.475.374-4.75.374-7.362-.168-4.75-.374m118.5-.01c4.538-.186 11.963-.186 16.5 0 4.538.185.825.336-8.25.336s-12.787-.151-8.25-.336m342-.01c60.638-.143 159.863-.143 220.5 0 60.638.142 11.025.259-110.25.259s-170.887-.117-110.25-.26m-757.937-15.933c.721-.29 1.584-.254 1.916.079.332.332-.258.568-1.312.525-1.165-.048-1.402-.285-.605-.604m-454.063-.974c.688-.278 1.813-.278 2.5 0 .688.277.125.504-1.25.504s-1.937-.227-1.25-.504m430.514-.055c1.52-.23 3.77-.224 5 .014 1.23.237-.014.425-2.764.418-2.75-.01-3.756-.202-2.236-.432zm-391.968-1.027c4.287-.188 11.037-.187 15 0 3.962.19.454.343-7.796.342-8.25 0-11.492-.156-7.204-.344zm301.507 0c5.667-.178 14.667-.178 20 0 5.333.18.697.326-10.303.325s-15.364-.148-9.697-.326zm372.965.022c1.797-.222 4.497-.218 6 .01s.032.41-3.268.405c-3.3-.01-4.53-.192-2.732-.415zm91 0c1.797-.222 4.497-.218 6 .01s.032.41-3.268.405c-3.3-.01-4.53-.192-2.732-.415zm146.534-.02c5.391-.181 13.941-.18 19 0s.648.328-9.802.327-14.59-.15-9.198-.33zM335.25 1159.25c52.113-.143 137.388-.143 189.5 0 52.113.143 9.475.26-94.75.26s-146.862-.117-94.75-.26m342.019-.943c.973-.253 2.323-.237 3 .037s-.119.481-1.769.461-2.204-.244-1.231-.498m253.981-.057c24.613-.149 64.888-.149 89.5 0 24.613.149 4.475.27-44.75.27s-69.362-.121-44.75-.27m420.019.057c.973-.253 2.323-.237 3 .037s-.119.481-1.769.461-2.204-.244-1.231-.498m105.493-.014c1.244-.24 3.044-.23 4 .02s-.062.446-2.262.435-2.982-.216-1.738-.455zm86.488-.028c2.613-.206 6.888-.206 9.5 0s.475.375-4.75.375-7.362-.169-4.75-.375m-1308.378-2.015c-1.243-1.586-1.208-1.621.378-.378.963.755 1.75 1.543 1.75 1.75 0 .823-.821.294-2.128-1.372M1629 1157.622c0-.207.788-.995 1.75-1.75 1.586-1.243 1.621-1.208.378.378-1.307 1.666-2.128 2.196-2.128 1.372m39.728-.344c1.775-.22 4.925-.224 7-.01 2.074.217.622.397-3.228.402-3.85 0-5.547-.173-3.772-.394zm-21.856-3.028c-1.243-1.586-1.208-1.621.378-.378.963.755 1.75 1.543 1.75 1.75 0 .823-.821.294-2.128-1.372m148.128.372c0-.207.788-.995 1.75-1.75 1.586-1.243 1.621-1.208.378.378-1.307 1.666-2.128 2.196-2.128 1.372m-312.921-11.205c.048-1.165.285-1.402.604-.604.289.721.253 1.584-.079 1.916s-.569-.258-.525-1.312m-712.793-3.917c.008-2.75.202-3.756.432-2.236s.223 3.77-.014 5-.425-.014-.418-2.764m-164.036 1.761c3.163-.198 8.338-.198 11.5 0 3.163.199.575.36-5.75.36s-8.912-.162-5.75-.36m185.518-.986c1.797-.222 4.497-.218 6 .01s.032.41-3.268.405c-3.3-.01-4.53-.192-2.732-.415zm535.464-2.275c0-1.925.206-2.712.457-1.75.252.963.252 2.538 0 3.5-.251.963-.457.175-.457-1.75m113.518 2.338c.688-.278 1.813-.278 2.5 0 .688.277.125.504-1.25.504s-1.937-.227-1.25-.504m69.917-1.005c-.367-.366-.66-1.154-.652-1.75.01-.733.253-.716.75.051.404.624 1.635 1.36 2.735 1.634 1.935.484 1.932.504-.083.616-1.146.064-2.383-.184-2.75-.55zM249.286 1134.5c.008-2.75.202-3.756.432-2.236s.223 3.77-.014 5-.425-.014-.418-2.764m993.198-115c0-64.9.12-91.303.266-58.673s.146 85.73 0 118-.266 5.573-.266-59.327m221.595 115.917c.048-1.165.285-1.402.604-.604.289.721.253 1.584-.079 1.916s-.569-.258-.525-1.312M693.272 1132c0-2.475.195-3.487.434-2.25.238 1.238.238 3.263 0 4.5-.239 1.238-.434.225-.434-2.25m650.923-7.5c.02-1.65.244-2.204.498-1.231s.237 2.323-.037 3-.481-.119-.461-1.769m298.183-9.5c0-6.325.162-8.912.361-5.75s.198 8.338 0 11.5c-.199 3.163-.36.575-.36-5.75m-152.018-4c0-5.225.169-7.362.375-4.75s.206 6.888 0 9.5-.375.475-.375-4.75m145.067-16c0-12.375.144-17.437.32-11.25.175 6.188.175 16.313 0 22.5-.176 6.188-.32 1.125-.32-11.25m-152.005-3c0-11.275.146-15.887.324-10.25s.178 14.863 0 20.5-.324 1.025-.324-10.25m-1234.048 8.5c.002-6.05.167-8.396.366-5.213.2 3.182.197 8.132-.004 11-.201 2.867-.364.263-.362-5.787zM676.32 1086c0-3.575.182-5.037.403-3.25.222 1.788.222 4.713 0 6.5-.221 1.788-.403.325-.403-3.25m18.125-33.5c0-17.05.136-24.166.303-15.812.167 8.353.167 22.303 0 31-.166 8.696-.303 1.862-.303-15.188m92.92 20c.003-5.5.17-7.622.373-4.716s.2 7.405-.005 10-.37.216-.368-5.284zm720.963-4c0-3.85.185-5.302.402-3.228.216 2.075.213 5.225-.01 7-.221 1.776-.398.078-.394-3.772zm273.114-45.5c0-16.225.138-22.862.306-14.75.168 8.113.168 21.388 0 29.5-.168 8.113-.306 1.475-.306-14.75m-1393.192-4.735c2.613-.206 6.888-.206 9.5 0s.475.375-4.75.375-7.362-.169-4.75-.375m-7.94-18.013c7.595-.17 19.745-.17 27 0s1.04.31-13.81.31c-14.85-.001-20.786-.14-13.19-.311zm621-7.752c.01-3.3.192-4.53.415-2.732.222 1.797.218 4.497-.01 6s-.41.032-.405-3.268zm25.848 1.5c0-1.375.227-1.937.504-1.25.278.688.278 1.813 0 2.5-.277.688-.504.125-.504-1.25m-729.975-1.749c10.826-.16 28.826-.161 40 0 11.175.161 2.317.293-19.683.293s-31.142-.131-20.317-.293m232.579.042c1.244-.24 3.044-.23 4 .02s-.062.446-2.262.435-2.982-.216-1.738-.455m-294.89-3.043c-1.243-1.586-1.208-1.621.378-.378.962.755 1.75 1.543 1.75 1.75 0 .823-.821.294-2.128-1.372m76.378-14.992c3.713-.192 9.788-.192 13.5 0 3.713.193.675.35-6.75.35s-10.462-.157-6.75-.35M249.272 958c0-2.475.195-3.487.434-2.25.238 1.238.238 3.263 0 4.5-.239 1.238-.434.225-.434-2.25m1240.19-61c0-26.675.13-37.587.287-24.25.158 13.338.158 35.163 0 48.5-.157 13.338-.286 2.425-.286-24.25m-795.034 22c0-12.375.143-17.437.319-11.25.175 6.188.175 16.313 0 22.5-.176 6.188-.32 1.125-.32-11.25m965.946 10.5c0-6.05.167-8.396.366-5.213.2 3.182.197 8.132 0 11-.201 2.867-.364.263-.362-5.787zm-633.054.5c0-3.575.182-5.037.403-3.25.222 1.788.222 4.713 0 6.5-.221 1.788-.403.325-.403-3.25m-351.088-51c0-1.925.206-2.712.457-1.75.252.963.252 2.538 0 3.5-.251.963-.457.175-.457-1.75m332.17-15c0-8.525.154-12.012.341-7.75s.188 11.238 0 15.5c-.187 4.263-.34.775-.34-7.75m216.05-25c0-20.075.133-28.287.297-18.25.163 10.038.163 26.463 0 36.5-.164 10.038-.297 1.825-.297-18.25m-814.183 30.307c.973-.254 2.323-.237 3 .037s-.119.481-1.769.461-2.204-.244-1.231-.498M249.361 860c0-5.225.168-7.362.374-4.75s.206 6.888 0 9.5-.375.475-.375-4.75m443.797 6c0-1.375.227-1.937.504-1.25.278.688.278 1.813 0 2.5-.277.688-.504.125-.504-1.25m1088.273-21.5c0-13.2.143-18.462.316-11.693s.173 17.57 0 24c-.173 6.431-.315.893-.315-12.307zm-780.145 6c.01-2.75.202-3.756.432-2.236s.223 3.77-.014 5-.426-.014-.418-2.764zm-329.017 1.807c.973-.254 2.323-.237 3 .037s-.119.481-1.769.461-2.204-.244-1.231-.498m-262.519-1.03c1.788-.222 4.713-.222 6.5 0 1.788.221.325.403-3.25.403s-5.037-.182-3.25-.403m-18.85-8.581c.445-.443 3.462-.662 6.704-.488l5.896.317-6.704.488c-3.688.268-6.34.125-5.896-.317m612.35-.385c.963-.252 2.538-.252 3.5 0 .963.251.175.457-1.75.457s-2.712-.206-1.75-.457m-471.57-1.06c13.3-.157 35.35-.158 49 0 13.651.157 2.77.286-24.18.286s-38.119-.129-24.82-.286m141.589-.944c.973-.254 2.323-.237 3 .037s-.119.481-1.769.461-2.204-.244-1.231-.498m19.81-12.89c.048-1.165.285-1.402.604-.605.289.722.253 1.585-.079 1.917s-.568-.258-.525-1.312m-151.829-4.165c9.213-.165 24.288-.165 33.5 0s1.675.3-16.75.3-25.962-.135-16.75-.3m132.563-.935c.721-.289 1.584-.253 1.916.079s-.258.568-1.312.525c-1.165-.048-1.402-.285-.605-.604M1344.433 792c0-13.475.141-18.987.314-12.25.173 6.738.173 17.763 0 24.5-.173 6.738-.315 1.225-.315-12.25M676.3 802c0-3.025.187-4.262.416-2.75.23 1.513.23 3.988 0 5.5-.229 1.513-.416.275-.416-2.75m18.139-29c0-15.125.139-21.312.309-13.75s.17 19.938 0 27.5-.31 1.375-.31-13.75m548.008-18c0-17.875.136-25.187.301-16.25.166 8.938.166 23.563 0 32.5s-.301 1.625-.301-16.25m-455.077 4c0-5.775.165-8.137.367-5.25s.202 7.613 0 10.5c-.202 2.888-.367.525-.367-5.25m-111.042-6.5c.004-3.85.185-5.302.402-3.228.216 2.075.213 5.225-.008 7s-.398.078-.394-3.772M232.361 735c0-5.225.168-7.362.374-4.75s.206 6.888 0 9.5-.375.475-.375-4.75m17.871-1c0-1.925.206-2.712.457-1.75.252.963.252 2.538 0 3.5-.251.963-.457.175-.457-1.75m203.072-19.747c5.943-.177 15.393-.176 21 .001 5.608.178.746.323-10.804.322-11.55 0-16.138-.146-10.196-.323zM1799.35 701c0-4.675.173-6.587.383-4.25.21 2.338.21 6.163 0 8.5-.21 2.338-.383.425-.383-4.25m-982.581 3.275c1.797-.222 4.497-.218 6 .01 1.503.229.032.41-3.268.405-3.3-.006-4.53-.192-2.732-.415m363.96.003c1.775-.22 4.925-.224 7-.008 2.074.217.622.397-3.228.402-3.85.004-5.547-.173-3.772-.394m273.022-1.028c60.088-.142 158.413-.142 218.5 0 60.088.142 10.925.259-109.25.259s-169.337-.117-109.25-.259m-763.878-3c-1.243-1.586-1.208-1.621.378-.378.963.755 1.75 1.543 1.75 1.75 0 .823-.821.294-2.128-1.372m-445.122-2.956c1.238-.238 3.263-.238 4.5 0 1.238.239.225.434-2.25.434s-3.487-.195-2.25-.434m433 0c1.238-.238 3.263-.238 4.5 0 1.238.239.225.434-2.25.434s-3.487-.195-2.25-.434m-215.988-1.001c1.244-.24 3.044-.23 4 .02s-.062.446-2.262.435-2.982-.216-1.738-.455M771 691.623c0-.208.788-.996 1.75-1.75 1.586-1.244 1.621-1.21.378.377-1.307 1.666-2.128 2.195-2.128 1.372m19.25-5.34c1.513-.228 3.988-.228 5.5 0 1.513.23.275.417-2.75.417s-4.262-.187-2.75-.416m421-.018c2.613-.206 6.888-.206 9.5 0s.475.374-4.75.374-7.362-.168-4.75-.374m-230.431-1.014c12.825-.159 33.525-.158 46 0 12.474.159 1.981.288-23.319.288s-35.507-.13-22.681-.288m-701.51-35.999c7.596-.17 19.746-.17 27 .001 7.255.17 1.041.31-13.809.31-14.85-.001-20.786-.14-13.19-.311m211.978.008c3.182-.199 8.132-.197 11 .004 2.867.201.263.364-5.787.362s-8.396-.167-5.213-.366m144.463-.009c10.588-.162 27.913-.162 38.5 0s1.925.295-19.25.295-29.837-.133-19.25-.295m157.537.009c3.182-.199 8.132-.197 11 .004 2.867.201.263.364-5.787.362s-8.396-.167-5.213-.366m350.035-.009c16.952-.154 44.402-.154 61 0s2.728.28-30.822.28-47.13-.126-30.178-.28m302.861.001c10.826-.161 28.826-.162 40 0 11.174.16 2.317.293-19.683.293s-31.142-.132-20.317-.293m188 0c10.826-.161 28.826-.162 40 0 11.174.16 2.317.293-19.683.293s-31.142-.132-20.317-.293M523.5 645c.995-1.1 2.035-2 2.31-2s-.315.9-1.31 2-2.035 2-2.31 2 .315-.9 1.31-2m177.947-36c0-17.875.135-25.187.301-16.25s.166 23.563 0 32.5-.301 1.625-.301-16.25m1096.975 11c0-11.275.146-15.887.324-10.25s.178 14.863 0 20.5-.324 1.025-.324-10.25M420.25 631.272c2.063-.216 5.438-.216 7.5 0 2.063.215.375.392-3.75.392s-5.812-.177-3.75-.392m446.565-.02c10.073-.164 26.273-.164 36 0 9.727.163 1.485.297-18.315.297s-27.758-.135-17.685-.298m688.465.012c2.63-.207 6.68-.204 9 .006s.17.379-4.78.375c-4.95-.003-6.849-.174-4.22-.38zM1321.272 627c0-2.475.195-3.487.434-2.25.238 1.238.238 3.263 0 4.5-.239 1.238-.434.225-.434-2.25m424.478 3.253c6.188-.175 16.313-.175 22.5 0 6.188.176 1.125.32-11.25.32s-17.437-.144-11.25-.32M529.445 584c0-17.325.137-24.412.303-15.75.167 8.663.167 22.838 0 31.5-.166 8.663-.303 1.575-.303-15.75m809.865 4.5c.01-3.3.192-4.53.415-2.732.222 1.797.218 4.497-.01 6s-.41.032-.405-3.268zM242.402 564c0-8.525.154-12.012.341-7.75s.188 11.238 0 15.5c-.187 4.263-.34.775-.34-7.75m1537.947-51c0-4.675.173-6.587.383-4.25.21 2.338.21 6.163 0 8.5-.21 2.338-.383.425-.383-4.25m-1251.04-3.5c.007-3.3.193-4.53.416-2.732.222 1.797.218 4.497-.01 6-.229 1.503-.41.032-.405-3.268m-26.045-11.218c1.52-.23 3.77-.223 5 .014s-.014.425-2.764.418-3.756-.202-2.236-.432m53.93-9.782c.021-1.65.245-2.204.499-1.231s.237 2.323-.037 3-.481-.119-.461-1.769m1022.556-3.25c38.638-.145 101.863-.145 140.5 0s7.025.264-70.25.264-108.887-.119-70.25-.264m-93.592-2.25c0-1.375.227-1.937.504-1.25.278.688.278 1.813 0 2.5-.277.688-.504.125-.504-1.25m-389.08-3.583c.049-1.165.286-1.402.605-.604.289.721.253 1.584-.079 1.916s-.569-.258-.525-1.312m-673.328-.162c5.088-.182 13.413-.182 18.5 0 5.088.181.925.33-9.25.33s-14.337-.149-9.25-.33m57.04.004c3.458-.196 8.858-.194 12 .004 3.14.198.31.358-6.29.356s-9.17-.164-5.71-.36zM377.251 475.5c.011-2.2.216-2.982.455-1.738s.23 3.044-.02 4-.446-.062-.435-2.262m1187.047 1.755c4.84-.184 12.49-.183 17 .002s.551.335-8.799.334-13.04-.153-8.2-.336M538.195 474.5c.02-1.65.244-2.204.498-1.231s.237 2.323-.037 3-.481-.119-.461-1.769M782.442 448c0-16.225.138-22.862.306-14.75.168 8.113.168 21.388 0 29.5-.168 8.113-.306 1.475-.306-14.75M384.75 471.294c1.238-.238 3.263-.238 4.5 0 1.238.239.225.434-2.25.434s-3.487-.195-2.25-.434m135.978-.016c1.775-.22 4.925-.224 7-.008 2.074.217.622.397-3.228.402-3.85.004-5.548-.173-3.772-.394m422.467-6.778c.02-1.65.244-2.204.498-1.231s.237 2.323-.037 3-.481-.119-.461-1.769m564.573-5.225c1.797-.222 4.497-.218 6 .01 1.503.229.032.41-3.268.405-3.3-.006-4.53-.192-2.732-.415m159.556-1.025c20.803-.15 54.553-.15 75 0 20.447.151 3.426.275-37.824.275s-57.98-.124-37.176-.275M917.392 443c0-7.425.157-10.462.35-6.75.192 3.713.192 9.788 0 13.5-.193 3.713-.35.675-.35-6.75m-491.577 9.251c10.073-.163 26.273-.163 36 0 9.727.164 1.485.298-18.315.298s-27.758-.135-17.685-.298M1798.465 394c0-28.875.128-40.687.284-26.25.156 14.438.156 38.063 0 52.5-.156 14.438-.284 2.625-.284-26.25m-718.98-86.5c0-70.95.12-100.122.265-64.828.146 35.295.146 93.345 0 129s-.265 6.778-.265-64.172M925.481 330c0-55.275.121-77.887.269-50.25.148 27.638.148 72.863 0 100.5-.148 27.638-.269 5.025-.269-50.25m-27.126 65.5c-.003-4.95.166-7.101.376-4.78s.212 6.37.006 9c-.207 2.629-.379.73-.382-4.22zm-115.924-22c0-13.2.143-18.462.316-11.693s.173 17.57 0 24c-.174 6.431-.316.893-.316-12.307zm-540.145-2c.008-2.75.202-3.756.432-2.236s.223 3.77-.014 5-.425-.014-.418-2.764m441.154-45c0-15.4.139-21.56.308-13.69.17 7.871.169 20.471 0 28-.17 7.53-.309 1.09-.308-14.31m-157.171 24.807c.973-.254 2.323-.237 3 .037s-.119.481-1.769.461-2.204-.244-1.231-.498m1095.04-2.055c7.044-.172 18.294-.171 25 .001s.941.314-12.809.313c-13.75 0-19.236-.142-12.192-.314zm-125.559-.914c.688-.278 1.813-.278 2.5 0 .688.277.125.504-1.25.504s-1.937-.227-1.25-.504m-1242-15.07c2.338-.21 6.163-.21 8.5 0 2.338.21.425.383-4.25.383s-6.587-.173-4.25-.383m1512.5-1.996c2.063-.216 5.438-.216 7.5 0 2.063.215.375.392-3.75.392s-5.812-.177-3.75-.392m-256.5-1.019c6.738-.173 17.763-.173 24.5 0 6.738.173 1.225.315-12.25.315s-18.987-.142-12.25-.315m-978.486-5.97c1.52-.23 3.77-.224 5 .013s-.014.425-2.764.418-3.756-.202-2.236-.432m1087.561-2.033c24.38-.149 63.98-.149 88 0 24.021.15 4.075.272-44.325.271-48.4 0-68.054-.122-43.675-.27m161.925-.912c.688-.278 1.813-.278 2.5 0 .688.277.125.504-1.25.504s-1.937-.227-1.25-.504m17.329-9.921c.048-1.165.285-1.402.604-.604.289.721.253 1.584-.079 1.916s-.569-.258-.525-1.312M482.75 305.253c6.188-.175 16.313-.175 22.5 0 6.188.176 1.125.32-11.25.32s-17.437-.144-11.25-.32m1016-.915c.688-.278 1.813-.278 2.5 0 .688.277.125.504-1.25.504s-1.937-.227-1.25-.504m258.978-1.06c1.775-.22 4.925-.224 7-.008 2.074.217.622.397-3.228.402-3.85.004-5.547-.173-3.772-.394M683.428 272c0-12.375.143-17.437.319-11.25.175 6.188.175 16.313 0 22.5-.176 6.188-.32 1.125-.32-11.25m1115.967 1.5c0-7.7.158-10.718.348-6.706s.19 10.311 0 14c-.191 3.688-.347.406-.346-7.294zm-1574.972-34c.001-11.55.147-16.138.324-10.196s.176 15.393-.001 21c-.178 5.608-.323.746-.322-10.804zm691.986-43c0-9.35.15-13.31.334-8.8.185 4.511.186 12.161.002 17s-.335 1.15-.336-8.2m27.786 10c.02-1.65.244-2.204.498-1.231s.237 2.323-.037 3-.481-.119-.461-1.769M701.272 197c0-2.475.195-3.487.434-2.25.238 1.238.238 3.263 0 4.5-.239 1.238-.434.225-.434-2.25m1058.456-6.722c1.775-.22 4.925-.224 7-.008 2.074.217.622.397-3.228.402-3.85.004-5.547-.173-3.772-.394m39.43-1.278c0-1.375.227-1.937.504-1.25.278.688.278 1.813 0 2.5-.277.688-.504.125-.504-1.25m-1488.908.253c7.013-.172 18.488-.172 25.5 0s1.275.312-12.75.312-19.762-.14-12.75-.312m287 0c8.113-.169 21.388-.169 29.5 0 8.113.167 1.475.305-14.75.305s-22.862-.138-14.75-.306m351.5.041c1.238-.238 3.263-.238 4.5 0 1.238.239.225.434-2.25.434s-3.487-.195-2.25-.434m76.514-.012c1.52-.23 3.77-.223 5 .014s-.014.425-2.764.418-3.756-.202-2.236-.432m81.486-.026c4.538-.185 11.963-.185 16.5 0s.825.337-8.25.337-12.787-.152-8.25-.337m305.5.005c3.163-.199 8.338-.199 11.5 0 3.163.198.575.36-5.75.36s-8.912-.162-5.75-.36m217.5.002c2.888-.202 7.613-.202 10.5 0 2.888.202.525.367-5.25.367s-8.137-.165-5.25-.367M926.158 187c0-1.375.227-1.937.504-1.25.278.688.278 1.813 0 2.5-.277.688-.504.125-.504-1.25m-691.345-14.683c.721-.289 1.584-.253 1.916.079s-.258.568-1.312.525c-1.165-.048-1.402-.285-.604-.604m1096.937.02c.688-.277 1.813-.277 2.5 0 .688.278.125.505-1.25.505s-1.937-.227-1.25-.504m442-.043c1.238-.238 3.263-.238 4.5 0 1.238.239.225.434-2.25.434s-3.487-.195-2.25-.434m-1528.486-1.012c1.52-.23 3.77-.223 5 .014s-.014.425-2.764.418-3.756-.202-2.236-.432m435.464-.004c1.775-.22 4.925-.224 7-.008 2.074.217.622.398-3.228.402s-5.548-.173-3.772-.394m126.095-.027c18.878-.153 49.478-.153 68 0 18.522.152 3.077.277-34.323.276-37.4 0-52.555-.124-33.677-.276m136.427.06c.963-.252 2.538-.252 3.5 0 .963.251.175.457-1.75.457s-2.712-.206-1.75-.457m106 0c.963-.252 2.538-.252 3.5 0 .963.251.175.457-1.75.457s-2.712-.206-1.75-.457m169.534-.05c2.905-.202 7.405-.2 10 .006 2.594.205.216.37-5.284.368s-7.622-.17-4.716-.373zm138.966.016c1.788-.222 4.713-.222 6.5 0 1.788.222.325.403-3.25.403s-5.037-.181-3.25-.403m351.542-.02c3.735-.192 9.585-.19 13 .004s.358.352-6.792.35-9.944-.16-6.208-.354z" style="fill:#494949;fill-opacity:1" transform="translate(-223.49 -171)"/><path d="M275 1679.095c-24.475-.327-45.066-.961-45.757-1.408-.692-.448-2.042-2.248-3-4-1.64-3-1.759-16.728-2.01-234.247l-.266-231.06 2.578-2.423c1.942-1.824 4.23-2.606 9.267-3.166 3.678-.41 69.013-1.024 145.188-1.366 157.882-.71 305.975.595 312.5 2.752 3.172 1.05 4.476 2.254 6.3 5.823l2.3 4.5-.3 64.5c-.28 60.308-.418 64.673-2.11 67.166-4.23 6.23-.936 6.094-162.69 6.742l-147.5.592-.31 3.75-.31 3.75 121.81.086c66.995.047 135.31.399 151.81.78 26.842.623 30.333.894 33.165 2.58 1.74 1.037 3.653 2.957 4.25 4.267.745 1.635 1.078 22.647 1.063 67.084-.02 59.795-.154 64.865-1.75 66.836-.95 1.173-2.71 2.636-3.912 3.25-1.553.794-24.264 1.117-78.5 1.118-41.974 0-110.404.3-152.066.664l-75.75.664v6.375l8.25.642c4.538.353 73.141.645 152.453.648 105.693 0 144.87.31 146.702 1.145 5.53 2.52 5.44 1.045 4.924 80.361-.314 48.214-.838 73.95-1.543 75.797-2.429 6.362 11.461 5.92-193.718 6.168-102.612.124-206.593-.043-231.068-.37m406.75-18.64c.983-.308 1.25-13.869 1.25-63.399v-63.006l-150.25-.275c-147.967-.27-150.31-.305-154.25-2.275-6.396-3.198-7.67-6.794-7.265-20.5.369-12.485 1.686-16.592 6.29-19.608 2.257-1.48 16.3-1.676 153.988-2.16l151.504-.533-.258-54.1-.259-54.099-136.5-.606c-75.075-.333-143.681-.955-152.458-1.38-15.544-.756-16.028-.846-18.664-3.482-3.338-3.338-4.327-9.017-3.648-20.936.545-9.55 2.284-14.076 6.459-16.812 3.975-2.604 32.498-3.117 178.436-3.206L682.75 1334l.625-3.125c.344-1.719.625-27.087.625-56.373v-53.248l-31.25-.754c-39.991-.965-398.53-.996-405.5-.035l-5.25.723v212.255c0 116.74.29 215.696.646 219.9l.646 7.645 76.604.301c90.188.355 360.045-.267 361.854-.834zm663.25 18.408c-16.516-1.037-18.614-1.801-21.384-7.79l-2.116-4.573-.3-227.5c-.217-164.934.01-228.553.814-231.327 2.1-7.22-17.436-6.673 238.389-6.673 144.046 0 231.41.358 232.98.955 1.382.526 3.291 2.144 4.243 3.597 1.628 2.484 1.735 16.364 1.802 233.339.07 221.834 0 230.804-1.756 233.487-4.108 6.27-2.298 6.127-77.172 6.07-75.053-.056-73.635.06-76.906-6.267-.9-1.74-1.758-6.859-2.067-12.328-.433-7.662-1.426-186.995-1.506-272.103L1640 1366h-5.751l-.537 150.25c-.4 111.625-.844 151.322-1.727 154.421-.653 2.294-2.303 5.22-3.666 6.5-3.272 3.076-6.04 3.152-75.464 2.067-60.732-.95-58.495-.706-62.486-6.798-2.771-4.23-3.162-20.768-3.935-166.69L1485.7 1367h-5.586l-.354 149.25c-.389 164.083-.081 156.282-6.306 159.917-2.054 1.2-6.983 2.066-15.862 2.787-14.96 1.215-92.791 1.152-112.591-.091zm115.39-18.853c.667-.667 1.144-52.463 1.405-152.76.344-131.903.59-152.055 1.878-154.084 2.45-3.855 7.228-5.172 18.545-5.108 14.055.079 17.61.83 20.174 4.265l2.108 2.822.5 151.844c.275 83.514.875 152.22 1.333 152.678s25.095.98 54.75 1.16l53.917.325v-151.427c0-104.943.328-152.368 1.07-154.495 1.832-5.257 6.413-6.73 20.93-6.73 10.803 0 12.975.279 16 2.052 2.99 1.753 3.615 2.775 4.287 7 .433 2.722.999 67.723 1.256 144.448.258 76.725.728 143.595 1.045 148.6l.576 9.1 56.668.508c31.167.28 58.356.298 60.42.04l3.752-.468-.252-220.14-.252-220.14-220.086-.253-220.086-.252-.663 66.752c-.854 85.948-.864 347.247-.013 363.065l.652 12.127 11.598.395c22.306.76 107.442-.279 108.488-1.324zm-676.073 14.07c-8.963-.635-13.205-2.741-14.444-7.17-1.166-4.169-.99-453.948.18-458.158 1.952-7.034-1.19-6.752 75.342-6.752h68.493l2.806 2.413 2.806 2.413.706 146.337c.388 80.485.987 149.15 1.33 152.587l.623 6.25h6.727l.382-148.25c.408-158.569.256-154.075 5.364-158.874 2.214-2.08 3.813-2.36 18.148-3.166 22.113-1.244 105.354-.263 111.496 1.314 2.877.739 5.56 2.224 6.75 3.736 1.946 2.474 1.974 4.687 1.974 153.875V1512h7.671l.664-81.75c.365-44.962.664-113.772.664-152.911l.001-71.161 3.077-2.59 3.076-2.588h31.174c17.145 0 50.464.3 74.042.665l42.869.663 2.881 2.424 2.881 2.424v230.477c0 163.185-.315 231.067-1.08 232.496-2.726 5.093 8.511 4.862-228.138 4.68-121.155-.093-223.964-.43-228.465-.75zm439.435-235.83.253-218.25h-37.84c-20.813 0-48.714-.297-62.003-.66l-24.162-.66-.065 130.91c-.036 72-.4 139.946-.808 150.99-1.072 28.949-1.416 29.382-23.362 29.405l-13.734.015-3.266-2.918-3.265-2.918-.26-152.082-.26-152.082-26.24-.229c-30.095-.262-80.023.29-80.691.892-.248.223-.708 68.003-1.023 150.622-.636 167.365-.05 155.106-7.526 157.357-5.178 1.56-23.994 1.593-28.45.052-2.142-.74-4.203-2.485-5.433-4.598-1.837-3.155-2.036-6.108-2.732-40.5-.413-20.402-.78-88.058-.818-150.346L902 1220H788.245l-.762 137.75c-.419 75.763-.476 150.125-.126 165.25s.638 51.21.64 80.19l.003 52.69 3.75.393c2.062.216 100.05.356 217.75.31l214-.083zM236.15 1156.66c-1.209-1.287-2.637-3.871-3.174-5.743-1.352-4.713-1.312-139.654.042-143.538 2.162-6.202-4.2-5.821 108.482-6.496 56.65-.34 123.615-.677 148.81-.75l45.81-.133-.31-3.75-.31-3.75-148.264-.037-148.264-.037-2.476-2.476c-1.654-1.653-2.846-4.465-3.588-8.463-1.58-8.502-.645-271.455.983-276.634.63-2.006 2.375-4.481 3.878-5.5 2.638-1.79 10.294-1.853 226.063-1.853h223.332l2.83 3.167c2.223 2.488 2.971 4.523 3.492 9.5.365 3.483.517 32.453.339 64.378-.302 53.92-.453 58.241-2.127 60.795-.992 1.512-3.017 3.25-4.5 3.863-1.894.782-39.372 1.361-125.698 1.943-67.65.456-133.8.947-147 1.092l-24 .262-.3 4.093-.3 4.093 12.8.653c7.04.36 69.5.677 138.8.705 69.3.03 130.408.408 135.795.843 12.982 1.046 14.904 2.394 15.998 11.216 1.116 8.997.998 252.875-.132 272.754-1.125 19.788-1.2 19.917-12.291 21.202-4.054.47-105.28.873-224.946.897L238.35 1159Zm439.474-15.95c.435-.436.81-61.089.833-134.786.038-118.048-.136-134.107-1.457-134.944-.925-.585-49.983-.974-128-1.014-131.247-.068-162.51-.641-167.478-3.074-5.831-2.856-7.031-5.923-6.935-17.725.101-12.352 1.378-17.846 4.918-21.171 2.297-2.159 3.731-2.44 15.761-3.089 7.279-.393 73.712-.973 147.63-1.29s134.668-.848 135-1.181c1.096-1.098.538-105.402-.57-106.51-1.11-1.11-423.055-1.53-424.163-.422-.934.933-2.518 230.37-1.697 245.698l.727 13.585 146.154-.144c134.455-.132 146.447-.01 149.825 1.523 6.488 2.945 7.336 5.384 7.272 20.929-.061 14.928-1.003 18.026-6.061 19.95-1.467.557-21.98.955-49.283.955-25.723 0-91.999.299-147.28.664l-100.51.664-.71 58.695c-.39 32.283-.399 59.93-.02 61.438l.688 2.742 212.283-.351c116.755-.194 212.638-.708 213.073-1.143m100.53 16.712c-2.11-.887-3.822-2.667-4.941-5.14-1.598-3.529-1.73-18.875-1.979-229.282-.252-213.837-.174-225.681 1.5-229 1.088-2.156 3.302-4.268 5.766-5.5 3.956-1.978 6.295-2.003 211.5-2.289 114.125-.158 216.173.099 226.772.572 16.977.757 19.598 1.1 22 2.884 5.909 4.384 5.572-10.35 5.384 235.664-.115 151.489-.508 226.46-1.194 227.74-2.616 4.887 8.927 4.631-234.021 5.188-190.263.435-228.089.298-230.788-.837m447.526-17.769c.691-.69.608-433.698-.084-434.39-1.043-1.043-434.219-.974-435.263.07-1.103 1.103-1.766 300.848-.832 376.167l.732 59 217.576-.276c119.667-.152 217.709-.409 217.87-.57zM991 1019.763c-2.478-.895-4.084-2.43-5.5-5.263-1.954-3.909-2-6-2-91.5 0-79.626.15-87.831 1.671-91.184 2.812-6.197 6.185-7.316 22.056-7.316 13.668 0 13.74.012 16.5 2.772l2.773 2.772.76 76.728c.42 42.2.393 83.143-.057 90.983-.932 16.211-1.903 18.541-8.747 20.99-5.508 1.97-23.014 2.619-27.456 1.017zm17.8-90.263c.165-40.15.014-76.262-.335-80.25-.624-7.116-.687-7.25-3.425-7.25-2.325 0-2.894.521-3.415 3.125-.817 4.087-.793 149.222.025 154.178.586 3.544.84 3.782 3.739 3.5l3.111-.303zm336.7 228.374c-5.5-.468-11.039-1.308-12.308-1.868-1.27-.559-3.295-3.152-4.5-5.761l-2.192-4.745V691.046l2.773-2.773 2.773-2.773h462.127l2.302 2.676c2.159 2.51 2.344 3.82 2.973 21 .369 10.078.531 113.129.361 229l-.309 210.677-2.09 2.824c-4.36 5.889-3.505 5.797-56.91 6.112-26.95.158-58.355-.094-69.79-.563-20.484-.838-20.827-.889-23.363-3.425-1.416-1.415-3.013-4.537-3.549-6.937-.595-2.666-1.177-61.474-1.493-151.114l-.518-146.75h-5.48l-.578 147.25c-.415 105.578-.904 148.73-1.731 152.477-.842 3.814-2.01 5.947-4.326 7.896l-3.172 2.67-61.423-.73c-42.351-.502-62.505-1.09-64.905-1.896-4.105-1.376-6.907-4.817-8.342-10.244-.683-2.581-1.21-54.123-1.544-150.673l-.507-146.75H1484l-.091 105.25c-.109 125.451-1.064 191.846-2.827 196.42-1.769 4.59-6.54 6.45-19.014 7.412-13.707 1.058-103.571.898-116.568-.208zm118.25-18.291c.413-.412.975-68.593 1.25-151.513.55-166.009-.014-152.91 6.718-155.725 4.43-1.852 26.188-1.83 30.642.032 2.004.837 3.727 2.503 4.398 4.25.778 2.029 1.228 46.757 1.529 152.18.253 88.725.799 149.678 1.344 150.224.533.533 23.166.95 53.894.995l52.975.077.5-150.801c.275-82.941.875-151.562 1.334-152.492 1.458-2.955 5.33-4.74 12.796-5.898 11.81-1.832 24.386.447 26.74 4.846 1.803 3.368 2.348 34.44 2.997 170.742l.633 133 59.586.258 59.586.258.664-66.173c.842-83.92.842-169.775 0-282.178L1780.67 703h-435.343l-.663 48.75c-.849 62.528-.858 365.668-.01 378.46l.642 9.711 7.602.405c13.057.697 110.063.046 110.852-.743M275.455 649.087c-49.357-.658-48.332-.499-50.461-7.833-1.742-6-.93-298.988.837-302.089.732-1.284 2.982-3.07 5-3.968 3.331-1.483 17.681-1.668 155.42-2.005l151.75-.37v-8.797l-153.977-.263-153.978-.262-2.772-2.778-2.773-2.778.369-69.222c.208-39.204.766-69.98 1.285-70.972 1.91-3.648 5.404-4.765 17.94-5.74 13.944-1.084 418.116-1.412 437.77-.355 10.7.575 12.47.926 14.589 2.889 5.28 4.893 5.047-6.08 5.047 238.456 0 243.343.226 232.307-4.816 234.822-1.5.748-25.584 1.181-76.906 1.383l-74.721.295-2.779-2.772-2.778-2.773-.272-85.837-.271-85.838-6.125-.64c-7.964-.832-145.123-.836-151.192-.004-4.474.613-4.64.756-4.64 4V479l12.75.106c7.012.059 38.06.266 68.994.46 35.471.223 57.704.747 60.197 1.418 4.574 1.232 7.547 4.566 9.269 10.397 1.51 5.116 1.275 136.79-.26 144.882-1.144 6.032-4.637 10.22-9.893 11.86-4.09 1.276-169.772 1.935-242.603.964M510 630.31c.275-.26.5-30.025.5-66.142V498.5l-71.045-.5c-65.691-.462-71.248-.633-73.736-2.264-5.49-3.599-6.219-5.97-6.219-20.233 0-14.265.73-16.642 6.22-20.24 2.521-1.651 8.349-1.763 91.736-1.763 96.266 0 93.58-.148 97.17 5.334 2.538 3.873 3.234 25.928 3.31 104.916L558 631h124.696l.54-181.25c.296-99.687.299-198.841.005-220.342l-.533-39.091-31.517-.659c-40.935-.855-313.512-.85-366.94.006l-41.25.662v114.368l150.78.548c166.67.606 156.205.153 159.903 6.93 1.484 2.72 1.816 5.644 1.816 16.005 0 14.545-.76 16.387-8.588 20.823l-4.412 2.5-149.6.307-149.6.306-.646 11.194c-.846 14.679-.84 178.38.008 228.524l.663 39.159 87.087.255c93.78.275 178.78-.168 179.588-.936m281 18.781c-10.175-.381-19.716-1.213-21.202-1.849C763.56 644.574 764 662.548 764 410c0-248.533-.3-234.164 4.945-236.97 1.267-.678 25.803-1.03 71.853-1.03h69.93l2.474 2.475 2.475 2.475.662 27.188c.363 14.953.662 74.476.663 132.274s.298 114.876.66 126.838l.656 21.75H925l.128-10.75c.071-5.912.412-73.975.757-151.25.693-154.815.27-145.435 6.737-149.672 2.626-1.72 6.407-1.828 64.334-1.828 66.303 0 68.03.124 71.99 5.159 2.052 2.608 2.054 2.795 2.054 155.476V485h7.676l.66-36.75c.364-20.212.662-89.676.662-154.364V176.273l2.637-2.637 2.636-2.636h58.704c32.287 0 66.253.298 75.48.662 15.81.623 16.94.8 19.659 3.088l2.886 2.428v466.448l-2.855 2.735-2.855 2.735-213.395.344c-117.367.19-221.72.032-231.895-.35m298.75-18.089L1224 631V190.309l-62.244-.563c-34.234-.31-62.584-.352-63-.095s-.776 64.453-.8 142.658-.422 146.76-.885 152.342c-.948 11.44-2.695 15.522-7.512 17.557-4.285 1.81-25.998 1.74-30.356-.099-6.639-2.8-6.203 8.404-6.203-159.403V190.313l-15.75-.653c-24.068-.998-89.528-.77-91.25.319-1.318.832-1.579 19.208-2.148 151.234-.357 82.658-1.042 151.82-1.523 153.696-.48 1.875-1.989 4.223-3.351 5.218-5.345 3.902-24.535 4.658-32.764 1.29-6.519-2.668-6.443-1.927-7.298-70.917-.423-34.1-.803-102.163-.843-151.25L898 190H783.325l-.614 112.31c-.337 61.772-.337 160.99 0 220.488l.613 108.175 33.088.358c18.198.196 56.938.203 86.088.014s113.413-.343 187.25-.344m327.653 18.032c-98.334-.588-91.126-.05-94.308-7.033-1.443-3.165-1.622-25.448-1.88-233.154l-.284-229.654 2.369-2.754c1.733-2.015 3.823-3.004 7.784-3.686 7.941-1.367 325.081-2.086 397.635-.901 68.236 1.114 65.412.782 68.971 8.105 1.473 3.03 1.773 7.537 2.07 31.044.513 40.473-1.032 101.923-2.635 104.835-3.36 6.1 6.048 5.864-281.375 7.047L1487 323v3.5c0 1.925.113 3.581.25 3.68.138.1 67.3.487 149.25.861 102.103.466 150.259 1.023 153 1.768 2.2.597 4.958 2.197 6.13 3.554 2.112 2.45 2.132 2.939 2.584 66.302.316 44.28.123 64.907-.63 67.335-2.225 7.18 9.561 6.644-158.58 7.226-83.098.288-151.288.725-151.535.972-.246.246-.72 1.805-1.051 3.464l-.603 3.016 18.253.66c10.039.364 79.19.662 153.67.662h135.416l3.083 3.083 3.083 3.083-.601 74.873c-.41 50.95-.95 75.523-1.69 76.907-2.652 4.956 3.161 4.752-148.529 5.2-78.1.23-182.093.18-231.097-.113m361.762-18.845c.365-.379.808-28.813.982-63.188l.318-62.5-149.983-.5c-143.82-.48-150.158-.577-154.27-2.374-6.543-2.859-7.719-5.864-7.678-19.626.038-12.93 1.417-17.611 6.088-20.672 2.662-1.745 9.69-1.85 153.834-2.328l151.044-.5.259-54.085.258-54.085-91.674-.665c-50.42-.366-112.637-.694-138.258-.729-52.811-.072-74.119-.89-76.585-2.936-3.993-3.314-5.004-7.138-4.889-18.5.125-12.272 1.62-17.295 6.005-20.168 4.275-2.801 23.178-3.189 159.384-3.268 70.125-.041 131.888-.365 137.25-.72l9.75-.646v-111.5l-11.75-.757c-15.794-1.017-421.738-1.156-426.5-.146l-3.75.796v192.204c0 105.713.298 204.69.66 219.95l.66 27.746 105.089.254c146.644.356 332.959-.235 333.754-1.057z" style="fill:#333;fill-opacity:1" transform="translate(-223.49 -171)"/></svg>