<svg xmlns="http://www.w3.org/2000/svg" width="1073.842" height="1073.996" viewBox="0 0 284.121 284.161"><defs><filter id="a" width="1.054" height="1.054" x="-.027" y="-.027" style="color-interpolation-filters:sRGB"><feColorMatrix in="SourceGraphic" result="color" values="1 0 0 0 0 0 1 0 0 0 0 0 1 0 0 0 0 0 0.85 0"/><feGaussianBlur in="SourceAlpha" result="blur" stdDeviation="2.883"/><feSpecularLighting in="blur" lighting-color="#8a8a8a" result="specular" specularConstant=".626" specularExponent="25" surfaceScale="5"><feDistantLight azimuth="131" elevation="69"/></feSpecularLighting><feComposite in="specular" in2="SourceGraphic" k2="1" k3="1" operator="arithmetic" result="composite1"/><feComposite in="composite1" in2="color" operator="atop" result="composite2"/></filter></defs><g style="filter:url(#a)" transform="translate(-34.925 -14.817)"><path d="m36.65 103.065-.681-.131-.08-27.924c-.02-6.604-.024-13.208.014-19.811.011-2.033.025-4.065.06-6.097q0 0 0 0c.01-.563.02-1.127.04-1.69q.007-.228.024-.455.004-.063.012-.124c.002-.018 0-.038.012-.052.01-.013.028-.015.044-.019a1 1 0 0 1 .102-.017q0 0 0 0c.125-.017.251-.025.377-.033.481-.031.963-.044 1.444-.057q0 0 0 0c1.87-.05 3.742-.064 5.614-.077 7.295-.051 14.591-.029 21.887-.004h0c7.45.025 14.9.056 22.348-.002 1.737-.014 3.475-.026 5.21-.084q0 0 0 0t0 0c.42-.014.839-.028 1.256-.064.103-.009.207-.018.308-.037h0a.4.4 0 0 0 .077-.02c.01-.005.025-.01.025-.022 0-.206.25-.326.457-.326.103 0 .176-.1.224-.19q0 0 0 0a1.9 1.9 0 0 0 .158-.505c.102-.51.124-1.031.12-1.55q0 0 0 0a8.6 8.6 0 0 0-.136-1.6 2.6 2.6 0 0 0-.164-.566q0 0 0 0c-.05-.112-.113-.233-.227-.277-.02-.008-.042-.008-.063-.01l-.139-.01q0 0 0 0a20 20 0 0 0-.494-.017c-.603-.017-1.206-.026-1.809-.035-2.154-.03-4.309-.045-6.463-.059-6.961-.043-13.923-.054-20.884-.054h-29.37l.08-12.564.079-12.564h0l1.675-.198c.146-.017.293-.019.44-.024q.44-.014.88-.023 0 0 0 0c.984-.02 1.969-.03 2.954-.04q0 0 0 0c3.29-.034 6.58-.05 9.871-.064 9.658-.04 19.315-.051 28.973-.052h0c9.558 0 19.117.008 28.676.048q0 0 0 0c3.167.013 6.334.028 9.5.062q0 0 0 0c.905.01 1.81.02 2.715.04q0 0 0 0 .372.008.744.023h0q0 0 0 0 .104.004.206.012h0l.06.006q.016 0 .03.006c.097.038.138.15.167.25.084.287.102.589.126.887.143 1.793.131 3.594.15 5.392.13 12.41.036 24.822.015 37.233l-.073 43.551-13.63.067-13.63.068h0V86.58q0 0 0 0c0-4.378.015-8.757-.08-13.134q0 0 0 0c-.02-.968-.04-1.936-.112-2.901q0 0 0 0a7 7 0 0 0-.079-.716q0 0 0 0c-.017-.104-.02-.223-.094-.297-.073-.072-.19-.076-.29-.094a7 7 0 0 0-.697-.079c-.937-.072-1.877-.091-2.816-.112-4.24-.092-8.48-.077-12.72-.076-3.871.001-7.743.014-11.613.057-1.23.014-2.46.03-3.69.06q0 0 0 0a50 50 0 0 0-1.073.034c-.156.007-.317-.004-.468.037q0 0 0 0c-.262.07-.505.239-.58.5q0 0 0 0c-.174.616-.105 1.274-.105 1.914 0 .568.014 1.137.096 1.698.04.27.034.613.266.757.03.019.07.018.107.022q0 0 0 0a4 4 0 0 0 .24.022 25 25 0 0 0 .857.039c1.004.033 2.008.048 3.012.06q0 0 0 0c3.21.041 6.42.044 9.63.032 3.236-.011 6.472-.008 9.708.035q0 0 0 0c1.033.014 2.066.03 3.099.064a28 28 0 0 1 .907.041c.135.01.276 0 .403.046a.6.6 0 0 1 .365.364c.176.51.163 1.066.186 1.606.178 4.033.072 8.074.068 12.112-.004 3.904.05 7.81-.094 11.712-.024.642-.035 1.288-.156 1.92-.042.22-.097.462-.277.596-.116.086-.276.083-.42.101q0 0 0 0c-.341.045-.685.064-1.03.082-1.44.076-2.884.092-4.327.11-6.931.089-13.863.057-20.794.046-6.202-.01-12.403-.028-18.605-.068q0 0 0 0a932 932 0 0 1-5.815-.05q-.825-.01-1.652-.028-.232-.005-.464-.013c-.068-.003-.137-.001-.204-.014z" style="fill:gray;fill-opacity:1;stroke:#000;stroke-width:1.26841;stroke-linecap:round;stroke-linejoin:round;stroke-dasharray:none"/><path d="M133.439 102.721q-.003-.012-.004-.024l-.004-.052-.007-.187h0q-.01-.348-.013-.696h0v-.04q-.008-.5-.012-1l-.008-1-.003-.562-.003-.438a333 333 0 0 1-.009-2q-.001-.5-.004-1l-.003-1-.003-1-.002-1q0-.5-.002-1 0-.5-.002-1 0-.487-.002-.975v-.025l-.002-2-.003-3a5556 5556 0 0 1 0-10l.003-5 .001-1 .001-1 .001-1 .001-1 .001-1 .001-1 .002-1 .002-1 .002-1 .002-1 .001-.632v-.368l.003-1 .002-1 .002-1 .002-1 .002-1 .002-1 .002-1 .002-1 .002-1 .002-1 .002-1 .002-1 .002-1 .002-1 .002-1 .002-1 .002-1 .002-1 .002-1 .002-1 .002-1 .002-1 .002-1 .002-1 .002-1 .002-1 .002-1 .002-1 .002-1 .002-1 .002-1 .002-1 .002-1 .002-1 .002-1 .002-1 .002-1 .002-1 .002-1 .002-1 .002-1 .002-1 .002-.882h25.28l.002.838.003 1 .003 1 .003 1 .003 1 .003 1 .003 1 .003 1 .003 1 .003 1 .003 1 .003 1 .003 1 .003 1 .003 1 .003 1 .003 1 .003 1 .003 1 .003 1 .003 1 .003 1 .003 1 .003 1 .003 1 .003 1 .003 1 .003 1 .003 1 .002.689v.31l.002 1 .002 1 .002 1 .002 1 .002 1 .002 1 .003 1 .003 1 .003 1 .004 1 .004 1 .004 1 .005 1 .012 2 .007 1 .008 1 .02 2q.004.5.01 1l.012 1 .014 1 .014 1 .003.187.013.813a222 222 0 0 0 .04 2 90 90 0 0 0 .076 1.983v.015a15 15 0 0 0 .086 1.076h0c.012.091.025.183.049.272.01.04.018.089.053.111h0c.146.093.315.132.49.153.143.018.29.023.433.035q.285.026.57.037a18 18 0 0 0 1 .014q.5-.004 1-.04.203-.015.404-.04h0c.169-.02.337-.042.501-.086h0l.085-.022c.062-.018.122-.042.154-.095.01-.015.007-.036.01-.054l.008-.128q.013-.239.018-.477h0l.004-.153q.014-.5.02-1l.01-.62.004-.38.022-2a333 333 0 0 0 .015-2l.006-1 .006-1v-.023l.005-.976.005-1 .005-1 .004-1 .004-1 .003-1 .003-1 .003-1 .002-1 .002-1 .002-1 .002-2a4167 4167 0 0 0 .001-7.85v-1.15l-.002-1q0-.5-.002-1 0-.5-.002-1 0-.5-.002-1 0-.5-.002-1 0-.5-.002-1 0-.5-.002-1 0-.5-.002-1l-.002-2a1587 1587 0 0 1 .003-4q0-.5.003-1a333 333 0 0 1 .009-2l.014-2 .009-1 .01-1 .013-1 .014-1 .015-1q.007-.5.015-1t.028-1a29 29 0 0 1 .095-1.463c.016-.177.002-.398.03-.584.026-.164.086-.301.232-.357.037-.014.077-.018.116-.022h0q.113-.014.225-.021.092-.008.185-.012.28-.015.56-.025a66 66 0 0 1 1.439-.04l1-.016h.041a333 333 0 0 1 3.958-.038 556 556 0 0 1 4-.005 744 744 0 0 1 4 .016 476 476 0 0 1 2.873.032q.063 0 .127.002a233 233 0 0 1 2 .04 92 92 0 0 1 1 .032q.212.009.425.022h0c.164.01.328.016.49.043h0l.08.013.987.163.07.012V30l-.001 1v13l-.001 1v22l.002 5.147V73q-.002.5-.001 1 0 .35.005.7c0 .1.016.204.049.297.047.132.132.243.268.287.18.058.367.09.556.106.331.028.67.007 1.007-.002l.234-.003q.382 0 .766-.011a21 21 0 0 0 1-.052c.279-.015.563-.023.823-.122.051-.02.084-.066.107-.118a1 1 0 0 0 .038-.115h0c.07-.239.09-.49.113-.737h0l.012-.136q.043-.498.066-.997.024-.5.036-1t.019-1l.012-.846.002-.154.015-1 .014-1 .011-1 .01-1 .016-2 .006-1 .005-1 .004-1 .003-1 .002-1 .002-2-.002-3v-1l-.002-1q0-.5-.002-1 0-.5-.002-1l-.002-2-.001-2.749V15.682l.584.003 1 .006 1 .006 1 .005 1 .006 1 .006 1 .006 1 .006 1 .005 1 .006 1 .006 1 .006 1 .006 1 .005h.045l.955.006 1 .006 1 .006 1 .006 1 .005 1 .006 1 .006 1 .006 1 .006 1 .005 1 .006 1 .006 1 .006.675.004v87.108h-.216l-1 .003-1 .002-1 .002-1 .002-1 .002-1 .002-1 .002-1 .002-1 .002-1 .002-1 .002-1 .002-1 .002-1 .002-1 .002-1 .002-1 .002-1 .002-1 .002-1 .002-1 .002-1 .002-1 .002-1 .002-1 .002-1 .002-1 .002-1 .002-1 .002-1 .002-1 .002-1 .002-1 .002-1 .002-1 .002-1 .002-1 .002-1 .002-1 .002-1 .002-1 .002-1 .002-1 .002h-.271l-.728.001-1 .002-1 .002-1 .002-1 .002-1 .002-1 .002-1 .002-1 .002-1 .002-1 .002-1 .002-1 .002-2 .002-3 .003-5-.001-1-.001-1-.002-1-.002-1-.002q-.5 0-1-.003l-1-.003-1-.004-1-.004-1-.005-1-.005-2-.013h-.031l-.97-.007-1-.007-1-.01-1-.012a196 196 0 0 1-1.999-.04q-.454-.013-.908-.029l-.091-.003a32 32 0 0 1-1-.045q-.21-.013-.418-.033h0a3 3 0 0 1-.36-.049h0c-.046-.01-.11-.01-.128-.054h0M35.93 297.543c-.013-.024-.012-.054-.015-.08a4 4 0 0 1-.015-.185v0a23 23 0 0 1-.028-.672v0c-.026-.833-.04-1.667-.053-2.5v0q0 0 0 0a1004 1004 0 0 1-.086-9.154q0 0 0 0h0a4976 4976 0 0 1-.078-31.193h0v0-43.27h0l43.783.076h0l43.783.078v27.716l-29.458.078h0c-6.291.016-12.582.002-18.873.046q0 0 0 0c-2.918.02-5.846-.03-8.749.272q0 0 0 0c-.598.062-1.206.127-1.767.343-.276.107-.553.275-.665.549-.102.25-.071.534-.038.803.045.368.104.736.112 1.107l.045 1.98 29.6.077c8.486.023 16.974-.035 25.458.145 1.196.026 2.397.017 3.582.176q0 0 0 0c.195.026.395.05.572.136a.3.3 0 0 1 .165.177c.133.422.117.876.14 1.317q0 0 0 0c.053.983.07 1.968.084 2.952.054 3.747.027 7.494 0 11.242h0l-.056 7.998-29.392-.08q0 0 0 0c-6.919-.018-13.838-.022-20.758.017q0 0 0 0c-2.104.012-4.21.025-6.314.061-.573.01-1.147.02-1.72.042q-.224.007-.447.023 0 0 0 0-.057.004-.114.012 0 0 0 0-.015.002-.029.006 0 0 0 0c-.003.001-.01.002-.01.006 0 .128-.187.13-.295.064-.108-.067-.25 0-.316.11q0 0 0 0c-.124.2-.162.441-.193.674q0 0 0 0c-.108.787-.048 1.589.076 2.373l.272 1.71 29.62.078c7.86.02 15.721.018 23.58.14q0 0 0 0c1.568.024 3.137.042 4.702.128q0 0 0 0c.343.019.687.037 1.027.086.08.012.161.024.238.05q0 0 0 0c.031.01.076.02.077.053.046 4.704.018 9.408.002 14.111q-.01 3.61-.038 7.22 0 0 0 0-.008 1.139-.023 2.276-.004.317-.013.633l-.006.168q0 0 0 0l-.003.045q.002.01-.003.017l-.016.002q0 0 0 0l-.045.002-.174.005q-.335.007-.671.01-1.281.016-2.562.024-4.687.031-9.375.05-15.375.061-30.748.09h0c-12.329.026-24.658.12-36.986 0q0 0 0 0c-1.847-.017-3.696-.01-5.537-.142q0 0 0 0c-.321-.023-.645-.043-.957-.12-.11-.028-.238-.06-.292-.16zM35.93 202.933c-.031-.132-.025-.27-.031-.405a39 39 0 0 1-.026-.895q-.03-1.514-.035-3.032c-.019-3.15-.01-6.3.01-9.45l.085-13.097 29.849-.152h0l29.848-.153.093-1.97q0 0 0 0a22 22 0 0 0 .02-1.573q0 0 0 0c-.009-.34 0-.686-.083-1.016a.36.36 0 0 0-.112-.204c-.126-.099-.294-.124-.452-.152q0 0 0 0c-1.089-.19-2.204-.155-3.31-.174-8.655-.156-17.314-.03-25.971-.006l-29.69.081-.19-1.3c-.016-.106-.02-.214-.025-.322q-.015-.296-.022-.591 0 0 0 0a120 120 0 0 1-.036-1.916q0 0 0 0a616 616 0 0 1-.039-6.25q0 0 0 0c-.015-6.035.002-12.07.031-18.104.028-5.931.066-11.862.14-17.793.024-1.955.05-3.91.096-5.865q0 0 0 0c.013-.555.027-1.11.053-1.664q.009-.225.027-.45 0 0 0 0 .004-.063.013-.123c.003-.017.002-.038.014-.05.006-.007.015-.007.024-.009q0 0 0 0l.054-.008q.1-.01.2-.014.375-.02.75-.029c.929-.025 1.858-.038 2.788-.05 3.285-.043 6.571-.061 9.857-.078 9.926-.05 19.853-.062 29.78-.062s19.854.012 29.78.062q0 0 0 0c3.286.017 6.572.035 9.857.078.93.012 1.86.025 2.789.05q.375.01.75.029a5 5 0 0 1 .253.023c.008.002.018.002.024.008.023.023.021.061.026.094q.017.11.025.221 0 0 0 0c.023.264.035.53.046.794.04.915.058 1.831.075 2.747q0 0 0 0c.052 2.746.07 5.492.077 8.238q0 0 0 0c.008 2.757.005 5.514-.031 8.27-.012.93-.026 1.86-.06 2.79q0 0 0 0c-.01.273-.02.547-.042.82q-.008.119-.023.236h0c-.005.038-.006.078-.026.11-.008.013-.027.015-.042.018a1 1 0 0 1-.1.018q0 0 0 0a6 6 0 0 1-.382.034c-.488.033-.977.048-1.466.064-1.898.058-3.796.081-5.693.104q0 0 0 0c-7.307.087-14.615.102-21.922.114-7.322.012-14.644.027-21.965.114a303 303 0 0 0-5.711.105q0 0 0 0c-.494.015-.988.031-1.481.064q-.195.012-.39.034 0 0 0 0-.054.007-.107.018c-.016.004-.035.006-.047.019-.195.21-.193.54-.245.822-.095.513-.154 1.031-.193 1.55-.064.858-.327 1.897.28 2.505q0 0 0 0c.312.31.85.194 1.29.224 1.449.099 2.903.11 4.356.13 8.07.114 16.142.07 24.213.067 7.874-.004 15.75-.035 23.623.065 1.55.02 3.1.034 4.648.118.345.018.69.037 1.032.086.126.018.294-.002.36.107.012.018.012.042.015.064q.008.07.014.14v.001q.018.252.026.506 0 0 0 0c.023.61.034 1.221.045 1.832q0 0 0 0c.036 2.13.05 4.26.061 6.39q0 0 0 0c.035 6.397.033 12.793.02 19.19q0 0 0 0c-.014 6.395-.039 12.79-.1 19.185-.021 2.129-.044 4.258-.089 6.386-.013.61-.026 1.22-.052 1.83q-.01.252-.029.504-.006.07-.014.14c-.003.021-.003.045-.015.063-.028.044-.093.044-.144.054q0 0 0 0c-.124.025-.25.037-.377.049-.513.048-1.03.066-1.545.084-2.31.081-4.62.096-6.931.116q0 0 0 0c-11.542.101-23.085.078-34.628.078H36.097zM132.646 202.694c-.018-.133-.017-.268-.022-.402q-.014-.425-.021-.849c-.019-.972-.029-1.944-.038-2.916q0 0 0 0c-.032-3.289-.046-6.578-.06-9.867q0 0 0 0a7600 7600 0 0 1-.049-29.161h0c0-9.648.007-19.296.044-28.944q0 0 0 0c.012-3.198.025-6.397.057-9.595q0 0 0 0c.009-.913.018-1.826.037-2.739q0 0 0 0 .006-.375.021-.75 0 0 0 0 .004-.104.011-.206 0 0 0 0t0 0l.006-.06q0-.015.006-.03c.042-.11.194-.122.309-.146.343-.072.695-.091 1.044-.114 1.916-.123 3.837-.124 5.756-.145 12.136-.134 24.272-.077 36.408-.077h0c11.725 0 23.451-.032 35.176.077q0 0 0 0c2.199.02 4.398.034 6.595.125q0 0 0 0c.472.02.945.039 1.414.092.167.019.379-.015.486.114q0 0 0 0c.043.051.036.128.044.194.02.16.03.32.04.479.038.618.054 1.238.069 1.857.062 2.543.077 5.086.092 7.63h0c.068 11.156.04 22.314.021 33.47h0l-.073 43.223h0l-43.59.077-43.588.077zm45.95-25.504c.025-.03.028-.071.035-.109q.022-.12.033-.241c.029-.291.042-.583.054-.876.045-1.098.056-2.198.066-3.298.037-4.19.002-8.38-.036-12.571h0l-.152-16.752-2.083-.09h0a11 11 0 0 0-1.636.03c-.304.032-.642.04-.877.235-.221.184-.188.535-.22.821-.093.85-.108 1.707-.13 2.562-.115 4.54-.08 9.084-.08 13.627v0c0 4.319-.009 8.638.08 12.956.02.997.04 1.994.108 2.99q0 0 0 0c.017.25.036.502.074.751.017.106.013.23.088.306.21.21.557.182.852.2.494.032.99.016 1.483-.02.498-.037.996-.094 1.485-.196.302-.064.651-.095.856-.325zM229.304 203.823c-.361-.266-.25-.845-.283-1.291-.134-1.84-.127-3.689-.145-5.534-.124-12.319-.033-24.639-.011-36.958h0l.078-43.402h87.414l.083 43.097c.02 10.206.03 20.411.016 30.617-.005 3.15-.01 6.302-.029 9.453q-.006 1.317-.022 2.635-.004.358-.013.716l-.007.198q0 0 0 0c-.001.03 0 .06-.007.088a.49.49 0 0 1-.317.346c-.476.168-.996.154-1.5.176-3.719.158-7.444.048-11.165.032q0 0 0 0a741 741 0 0 1-9.192-.088q0 0 0 0c-.966-.016-1.93-.033-2.896-.064q0 0 0 0a34 34 0 0 1-.832-.035q-.118-.006-.238-.017 0 0 0 0c-.037-.004-.076-.004-.11-.017-.098-.038-.104-.177-.125-.28-.058-.283-.078-.573-.098-.861-.1-1.413-.11-2.831-.129-4.248-.113-8.01-.068-16.022-.063-24.034.004-6.916-.002-13.832-.041-20.749q0 0 0 0a780 780 0 0 0-.054-6.379q-.01-.883-.034-1.767a16 16 0 0 0-.017-.474h0v0l-.01-.129c-.001-.018 0-.038-.008-.053-.057-.092-.18-.118-.284-.147q0 0 0 0a3.7 3.7 0 0 0-.572-.098 13 13 0 0 0-1.608-.058q0 0 0 0c-.521.01-1.043.035-1.557.116q0 0 0 0a2.6 2.6 0 0 0-.509.117q0 0 0 0c-.082.03-.192.069-.194.156-.005.22-.001.439-.002.658l-.001 1.738v6.243q.001 10.117.007 20.235c.003 6.802-.005 13.603-.047 20.405q0 0 0 0a782 782 0 0 1-.058 6.426 142 142 0 0 1-.035 1.847q-.006.264-.019.528 0 0 0 0c-.004.082-.003.165-.02.246q0 0 0 0l-.191.959h0l-11.814-.06q0 0 0 0a423 423 0 0 1-8.303-.11q0 0 0 0a91 91 0 0 1-2.493-.086 13 13 0 0 1-.665-.046q0 0 0 0-.083-.007-.166-.024 0 0 0 0-.02-.004-.038-.012 0 0 0 0c-.006-.002-.012-.007-.009-.011.066-.107-.054-.229-.18-.229h0c-.011 0-.016-.016-.02-.027q-.014-.038-.02-.08c-.02-.106-.029-.214-.038-.322-.037-.435-.054-.87-.07-1.306-.066-1.782-.09-3.566-.114-5.349-.1-7.46-.116-14.922-.136-22.384l-.078-29.467-2.36-.09c-.616-.022-1.235-.061-1.846.018-.212.027-.517.073-.52.287q0 0 0 0c-.004.224-.001.448-.002.672v8.139l.008 20.632c.003 7.54.017 15.08-.07 22.62q0 0 0 0c-.019 1.705-.037 3.41-.105 5.114-.016.418-.034.837-.073 1.254q-.014.167-.042.332 0 0 0 0c-.01.05-.013.107-.046.147-.028.033-.074.042-.115.054a2 2 0 0 1-.248.05c-.285.044-.572.068-.86.09q0 0 0 0c-.974.076-1.95.11-2.926.142-2.903.093-5.808.118-8.713.123q0 0 0 0c-2.924.004-5.848-.014-8.77-.097q0 0 0 0c-1-.029-2-.062-2.999-.133a13 13 0 0 1-.906-.088 3 3 0 0 1-.274-.05c-.05-.012-.102-.022-.143-.052zM230.964 103.078c-.045-.018-.044-.084-.054-.131a3 3 0 0 1-.049-.364c-.048-.506-.066-1.015-.084-1.523q0 0 0 0c-.081-2.302-.096-4.605-.116-6.908q0 0 0 0c-.101-11.57-.077-23.14-.077-34.711h0V15.957l2.788-.197c.587-.042 1.177-.049 1.766-.062q0 0 0 0a315 315 0 0 1 3.27-.05q0 0 0 0c3.388-.039 6.777-.056 10.165-.07q0 0 0 0c9.536-.038 19.071-.038 28.607-.023 9.264.014 18.53.041 27.794.111 3.05.024 6.1.048 9.15.1.87.015 1.74.03 2.61.06q0 0 0 0 .358.01.717.031.1.007.199.017 0 0 0 0l.058.008q0 0 0 0 .016.002.03.009a.73.73 0 0 1 .35.407q0 0 0 0c.157.464.153.967.174 1.457.152 3.462.038 6.93.016 10.395a777 777 0 0 1-.095 8.54q0 0 0 0a194 194 0 0 1-.06 2.686q-.01.386-.03.77a6 6 0 0 1-.015.22q0 0 0 0c-.003.034-.003.07-.014.102q0 0 0 0c-.012.034-.056.044-.09.055-.08.026-.162.038-.243.05q0 0 0 0c-.335.05-.673.067-1.01.085-1.533.083-3.069.097-4.604.116-7.807.097-15.614.066-23.422.06h0c-7.642-.006-15.284-.025-22.926.06-1.682.02-3.365.037-5.045.107-.408.017-.816.035-1.221.076q0 0 0 0-.163.014-.323.044c-.05.01-.106.015-.146.048-.24.199-.252.564-.303.871a11 11 0 0 0-.131 1.526 10 10 0 0 0 .058 1.504c.023.18.05.36.105.532.033.102.068.216.159.273.015.01.035.008.053.01l.126.01q.23.012.46.019c.571.018 1.141.027 1.712.036q0 0 0 0c2.056.032 4.111.047 6.167.06 6.679.043 13.357.052 20.036.05 6.76-.003 13.52.008 20.28.055h0c2.145.015 4.29.031 6.434.065q.933.013 1.867.04.273.007.544.02 0 0 0 0c.089.005.177.006.264.023l1.153.213h0l.017 11.879h0l.017 11.878-29.324.066h0c-6.943.015-13.886.04-20.828.091-2.143.016-4.285.033-6.427.063q0 0 0 0-.896.01-1.79.033-.243.005-.486.016 0 0 0 0-.068.003-.134.008 0 0 0 0t0 0c-.02.001-.04 0-.06.008-.078.03-.112.123-.143.203a2.5 2.5 0 0 0-.117.443c-.083.442-.118.89-.14 1.339-.023.495-.024.992.007 1.487q0 0 0 0c.024.369.047.746.18 1.091.033.088.141.12.232.146.238.07.488.09.735.113 1.319.121 2.645.124 3.97.145 8.277.134 16.556.078 24.835.078h29.587l-.069 13.63h0l-.068 12.694q0 0 0 0l-.005.84q0 0 0 0 0 .162-.003.324l-.015.006-.047.006q0 0 0 0-.093.008-.186.011 0 0 0 0-.361.015-.723.022 0 0 0 0c-.915.02-1.83.03-2.745.039-3.267.033-6.533.048-9.8.061-9.925.042-19.85.053-29.774.056h0c-9.963.003-19.926-.003-29.89-.037h0q0 0 0 0c-3.314-.012-6.628-.025-9.942-.056h0c-.946-.009-1.892-.018-2.838-.037q-.387-.006-.775-.021h0q-.107-.004-.213-.011h0l-.061-.006q-.015 0-.03-.006zM133.92 297.337c-.042-.051-.036-.127-.045-.192h0a7 7 0 0 1-.04-.47h0q-.012-.165-.02-.33a44 44 0 0 1-.038-.999l-.013-.498-.012-.502a175 175 0 0 1-.037-2q-.007-.5-.012-1l-.01-1q-.006-.498-.009-1l-.007-1-.006-1v-.067l-.005-.932-.005-1-.005-1-.004-1q-.001-.5-.004-1l-.003-1-.003-1-.003-1-.002-1q0-.5-.002-1 0-.5-.002-1a1010 1010 0 0 1-.002-3 3704 3704 0 0 1 .001-6l.001-1 .001-1 .001-1 .001-1 .002-1 .002-1 .002-1 .002-1 .002-1 .002-1 .002-1 .002-1 .002-1 .001-.794v-.206l.003-1 .002-1 .002-1 .002-1 .002-1 .002-1 .002-1 .002-1 .002-1 .002-1 .002-1 .002-1 .002-1 .002-1 .002-1 .002-1 .002-1 .002-1 .002-1 .002-1 .002-1 .002-1 .002-1 .002-1 .002-1 .002-1 .002-1 .002-1 .002-1 .002-1 .002-1 .002-1 .002-1 .002-1 .002-1 .002-1 .002-1 .002-1 .002-1 .002-1 .002-1 .002-1 .002-1v-.164h26.498l.002.338.005 1 .005 1 .005 1 .005 1 .005 1 .005 1 .005 1 .005 1 .005 1 .005 1 .005 1 .005 1 .005 1 .005 1 .005 1 .005 1 .005 1 .005 1 .005 1 .005 1 .005 1 .005 1 .005 1 .005 1 .005 1 .005 1 .005 1 .005 1 .005 1 .002.333.003.667.005 1 .005 1 .005 1 .005 1 .005 1 .005 1 .005 1 .005 1 .005 1 .005 1 .005 1 .005 1 .005 1 .005 1 .005 1 .005 1 .005 1 .005 1 .005 1 .005 1 .005 1 .005 1 .005 1 .005 1 .005 1 .005 1 .005 1 .005 1 .005 1v.004l.994-.03 1-.032.29-.01q.355-.01.71-.032c.31-.02.62-.046.928-.086l.066-.009c.152-.02.303-.043.452-.08h0c.077-.019.185-.02.212-.095h0c.006-.016.004-.033.004-.05h0l.004-.126h0l.003-.127q.004-.17.006-.343l.01-.657.01-1v-.104l.008-.896.008-1 .007-1 .006-1 .006-1 .005-1 .003-.487.003-.512.005-1 .005-1 .005-1 .004-1 .004-1 .004-1 .004-1 .004-1 .004-1 .003-1 .003-1 .003-1 .003-1 .003-1 .003-1 .003-1 .003-1 .003-1 .002-1 .002-1 .001-.297.002-.703.002-1 .002-1 .002-1 .002-1 .002-1 .002-1 .002-1 .002-1 .002-1 .002-1 .002-1 .002-1 .002-1 .002-1 .002-1 .002-1 .002-1 .002-1 .002-1 .002-1 .002-1 .002-1 .002-1 .002-1 .002-1 .002-1 .002-1 .002-1 .002-.666h24.061l.001.272.002 1 .002 1 .002 1 .002 1 .002 1 .002 1 .002 1 .002 1 .002 1 .002 1 .002 1 .002 1 .002 1 .002 1 .002 1 .002 1 .002 1 .002 1 .002 1 .002 1 .002 1 .002 1 .002 1 .002 1 .002 1 .002 1 .002 1 .002 1 .002 1v.272l.003.728.002 1 .002 1 .002 1 .002 1 .002 1 .002 1 .002 1 .002 1 .002 1 .002 1 .002 1 .002 1 .002 1 .002 1 .002 1 .002 1 .002 1 .002 1 .002 1 .002 1 .002 1 .002 1 .002 1 .002 1 .002 1 .002 1 .002 1 .002 1 .002.815h5.034v-.15l.003-1 .002-1 .002-1 .002-1 .002-1 .002-1 .002-1 .002-1 .002-1 .002-1 .002-1 .002-1 .002-1 .002-1 .002-1 .002-1 .002-1 .002-1 .002-1 .002-1 .002-1 .002-1 .002-1 .002-1 .002-1 .002-1 .002-1 .002-1 .002-.784v-.216l.002-1 .002-1 .002-1 .002-1 .002-1 .002-1 .002-1 .002-1 .002-1 .002-1 .002-1 .002-1 .002-1 .002-1 .002-1 .002-1 .002-1 .002-1 .003-1 .003-1 .001-.42.001-.58.003-1 .003-1 .003-1 .003-1 .003-1 .003-.855v-.144l.004-1 .002-.677v-.323q0-.202.003-.405l.01-.595.003-.09h12.91l1-.001 1-.001a1075 1075 0 0 1 3 0 333 333 0 0 1 2 .014q.5.005 1 .013a159 159 0 0 1 2 .042l.454.014q.272.008.545.017c.334.012.667.027.999.054q.27.022.537.055c.152.019.325.02.472.061.094.027.178.07.24.145h0c.043.051.037.127.046.192.02.157.03.315.04.472h0l.002.035q.03.5.046.999.012.4.022.8l.005.2.022 1 .017 1a256 256 0 0 1 .025 1.999l.016 2 .006 1 .002.383q0 .309.004.617l.005 1 .005 1 .005 1q.001.5.004 1 0 .5.004 1l.003 1 .003 1 .002 1q0 .5.002 1 0 .5.002 1l.002 2a3334 3334 0 0 1-.002 8l-.001 1-.001 1-.001 1-.002 1-.002 1-.002 1-.002 1-.002 1-.002 1-.002 1-.002 1-.002 1-.002 1v.086l-.002.914-.002 1-.002 1-.002 1-.002 1-.002 1-.002 1-.002 1-.002 1-.002 1-.002 1-.002 1-.002 1-.002 1-.002 1-.002 1-.002 1-.002 1-.002 1-.002 1-.002 1-.002 1-.002 1-.002 1-.002 1-.002 1-.002 1-.002 1-.002 1-.002 1-.002 1-.002 1-.002 1-.002 1-.002 1-.002 1-.002 1-.002 1-.002 1-.002 1-.002 1-.002 1-.002 1-.001.456h-.544l-1 .002-1 .002-1 .002-1 .002-1 .002-1 .002-1 .002-1 .002-1 .002-1 .002-1 .002-1 .002-1 .002-1 .002-1 .002-1 .002-1 .002-1 .002-1 .002-1 .002-1 .002-1 .002-1 .002-1 .002-1 .002-1 .002-1 .002-1 .002-1 .002-1 .002-1 .002-1 .002-1 .002-1 .002-1 .002-1 .002-1 .002-1 .002-1 .002-1 .002-1 .002-1 .002-.896.002h-.104l-1 .003q-.5 0-1 .002-.5 0-1 .002-.5 0-1 .002l-1 .002-1 .002-1 .002-1 .002-1 .002-1 .002q-.5 0-1 .002-.5 0-1 .002-.5 0-1 .002-.5 0-1 .002-.5 0-1 .002l-2 .002a3704 3704 0 0 1-6 0h-1l-1-.003q-.5 0-1-.002l-1-.002q-.5 0-1-.003-.5 0-1-.004-.5-.001-1-.004-.5-.001-1-.005l-1-.005-1-.006-1-.006-1-.007-.302-.002-.698-.005-1-.008-1-.01a175 175 0 0 1-2-.033 119 119 0 0 1-1.825-.059l-.174-.007c-.333-.014-.666-.03-.998-.062M229.964 297.684c-.008-.003-.01-.014-.012-.022q-.009-.025-.013-.052a2 2 0 0 1-.024-.196v0a16 16 0 0 1-.047-.742c-.043-.926-.063-1.852-.083-2.779v0q0 0 0 0c-.071-3.283-.102-6.567-.13-9.85q0 0 0 0v0a3561 3561 0 0 1-.107-29.824h0v0c-.002-9.96.016-19.92.097-29.88.027-3.309.056-6.617.126-9.925q0 0 0 0c.02-.942.04-1.884.082-2.826q0 0 0 0c.012-.256.024-.513.047-.768v0h0q.008-.105.024-.21 0 0 0 0l.012-.06q.003-.016.013-.028.012-.01.029-.012.029-.009.059-.013.104-.016.209-.024 0 0 0 0c.254-.023.51-.035.766-.046h0c.938-.043 1.877-.063 2.815-.083q0 0 0 0c3.296-.07 6.593-.099 9.889-.126 9.927-.081 19.855-.099 29.782-.097v0c9.916.002 19.831.023 29.746.107h0c3.282.029 6.563.06 9.844.13.929.02 1.858.04 2.786.083q0 0 0 0c.25.012.5.024.75.047q.1.008.2.024l.055.013q.016.003.024.012 0 0 0 0 .006.011.006.024 0 0 0 0l.006.053q0 0 0 0 .008.093.013.187 0 0 0 0 .017.348.025.696 0 0 0 0c.025.868.038 1.736.051 2.604.048 3.14.073 6.28.097 9.42.077 10.227.111 20.454.13 30.68h0v0l.084 43.284-1.42.195c-.562.077-1.131.08-1.698.098-1.021.034-2.043.05-3.064.063-2.765.035-5.53.037-8.294.026q0 0 0 0a430 430 0 0 1-7.963-.094q0 0 0 0a97 97 0 0 1-2.65-.087q0 0 0 0c-.26-.013-.521-.027-.78-.052h-.001a3 3 0 0 1-.228-.028q0 0 0 0c-.037-.006-.077-.01-.11-.03-.092-.058-.11-.184-.134-.29-.063-.271-.084-.55-.106-.827-.11-1.378-.117-2.761-.138-4.143v0c-.126-8.135-.078-16.27-.078-24.406 0-6.94-.015-13.88-.073-20.82q0 0 0 0a582 582 0 0 0-.078-6.39 90 90 0 0 0-.046-1.764 13 13 0 0 0-.025-.471h0l-.012-.127c-.002-.017 0-.038-.013-.05-.068-.069-.174-.077-.269-.094q0 0 0 0a5 5 0 0 0-.524-.054 16 16 0 0 0-1.477-.005c-.495.018-.99.049-1.482.113q0 0 0 0a5 5 0 0 0-.531.093q0 0 0 0c-.099.024-.207.042-.28.113q0 0 0 0c-.012.012-.01.033-.012.05q0 0 0 0-.008.063-.012.126a13 13 0 0 0-.023.469c-.023.585-.034 1.17-.044 1.756a587 587 0 0 0-.073 6.364c-.052 6.915-.062 13.83-.058 20.744.005 8.486.102 16.972-.063 25.456q0 0 0 0c-.023 1.143-.003 2.293-.175 3.423-.042.272-.097.585-.34.714-.04.022-.087.029-.133.037a3 3 0 0 1-.251.035q0 0 0 0c-.275.03-.55.048-.826.064q0 0 0 0a83 83 0 0 1-2.719.1c-2.639.064-5.279.083-7.919.087q0 0 0 0c-2.608.004-5.216-.007-7.823-.065q0 0 0 0c-.867-.019-1.733-.04-2.599-.091q0 0 0 0c-.25-.015-.5-.03-.748-.06q0 0 0 0c-.07-.01-.14-.019-.208-.035q0 0 0 0h0c-.03-.007-.07-.01-.086-.037-.01-.015-.007-.035-.01-.053l-.008-.128q-.013-.238-.019-.476c-.018-.59-.027-1.181-.037-1.772-.034-2.135-.053-4.27-.07-6.404-.059-6.946-.086-13.892-.103-20.838-.016-6.939-.046-13.878-.112-20.817-.02-2.127-.042-4.254-.082-6.38q0 0 0 0c-.012-.587-.023-1.173-.044-1.759q0 0 0 0-.008-.234-.022-.468-.004-.063-.011-.125 0 0 0 0t0 0c-.002-.017 0-.037-.011-.05-.067-.066-.175-.066-.268-.08a6 6 0 0 0-.55-.056c-.525-.035-1.05-.04-1.575-.037s-1.051.017-1.575.059q0 0 0 0a6 6 0 0 0-.552.063c-.093.016-.201.018-.269.085q-.005.007-.005.014l-.005.034q0 0 0 0-.006.06-.009.122h0v0q-.013.233-.018.464a121 121 0 0 0-.039 1.746 791 791 0 0 0-.074 6.35c-.06 6.912-.09 13.825-.11 20.738a5217 5217 0 0 1-.093 20.784q-.02 3.2-.055 6.399-.009.888-.027 1.776-.004.24-.013.479-.002.065-.006.13 0 0 0 0c-.001.019 0 .038-.006.056-.003.009-.015.012-.024.016a.4.4 0 0 1-.06.016q0 0 0 0a2 2 0 0 1-.22.03q0 0 0 0c-.271.03-.544.046-.816.06q0 0 0 0c-.96.054-1.921.082-2.883.108-2.914.079-5.829.117-8.744.144q0 0 0 0c-2.956.027-5.912.04-8.868.016-1.012-.008-2.024-.019-3.036-.053q0 0 0 0a23 23 0 0 1-.917-.044 5 5 0 0 1-.276-.026c-.049-.006-.098-.011-.143-.03z" style="fill:gray;fill-opacity:1;stroke:#000;stroke-width:1.46014;stroke-linecap:round;stroke-linejoin:round;stroke-dasharray:none"/></g></svg>