<svg xmlns="http://www.w3.org/2000/svg" width="24" height="24" viewBox="0 0 24 24">
  <path fill="#fff" d="M11.83 9L15 12.16V12a3 3 0 0 0-3-3h-.17zm-4.3.8l1.55 1.55c-.05.21-.08.43-.08.65a3 3 0 0 0 3 3c.22 0 .44-.03.65-.08l1.55 1.55c-.67.33-1.41.53-2.2.53a5 5 0 0 1-5-5c0-.79.2-1.53.53-2.2zM12 4.5c-5 0-9.27 3.11-11 7.5 1.06 2.69 3.12 4.92 5.7 6.29L4.3 19.59l1.41 1.41 17.3-17.3-1.41-1.41-3.78 3.78A11.79 11.79 0 0 0 12 4.5zm5.13 7.47c0 .36-.04.7-.12 1.04l-3.31-3.31c.34-.08.68-.12 1.04-.12a3 3 0 0 1 2.39 2.39z"/>
</svg>
