<?xml version="1.0" encoding="UTF-8" standalone="no"?>
<svg enable-background="new 0 0 24 24" viewBox="0 0 24 24" version="1.1" id="svg4" sodipodi:docname="apps.svg"
   inkscape:version="1.2 (dc2aedaf03, 2022-05-15)" xmlns:inkscape="http://www.inkscape.org/namespaces/inkscape"
   xmlns:sodipodi="http://sodipodi.sourceforge.net/DTD/sodipodi-0.dtd" xmlns="http://www.w3.org/2000/svg"
   xmlns:svg="http://www.w3.org/2000/svg">
   <defs id="defs8" />
   <sodipodi:namedview id="namedview6" pagecolor="#ffffff" bordercolor="#000000" borderopacity="0.25"
      inkscape:showpageshadow="2" inkscape:pageopacity="0.0" inkscape:pagecheckerboard="0" inkscape:deskcolor="#d1d1d1"
      showgrid="false" inkscape:zoom="36" inkscape:cx="14.791667" inkscape:cy="12.013889" inkscape:window-width="946"
      inkscape:window-height="1041" inkscape:window-x="964" inkscape:window-y="8" inkscape:window-maximized="0"
      inkscape:current-layer="svg4" />
   <path
      d="M10,2H3C2.4,2,2,2.4,2,3v7c0,0.6,0.4,1,1,1h7c0.6,0,1-0.4,1-1V3C11,2.4,10.6,2,10,2z M10,13H3c-0.6,0-1,0.4-1,1v7c0,0.6,0.4,1,1,1h7c0.6,0,1-0.4,1-1v-7C11,13.4,10.6,13,10,13z M21,2h-7c-0.6,0-1,0.4-1,1v7c0,0.6,0.4,1,1,1h7c0.6,0,1-0.4,1-1V3C22,2.4,21.6,2,21,2z M21,13h-7c-0.6,0-1,0.4-1,1v7c0,0.6,0.4,1,1,1h7c0.6,0,1-0.4,1-1v-7C22,13.4,21.6,13,21,13z"
      id="path2" />
   <path style="fill:#f4f4f7;stroke-width:0.0277778;fill-opacity:1"
      d="M 2.6746122,21.946015 C 2.3792112,21.853183 2.1620506,21.646927 2.0641029,21.36616 2.0166353,21.230095 2.0138889,21.018636 2.0138889,17.5 c 0,-3.540609 0.00249,-3.729365 0.051032,-3.868624 0.07965,-0.228502 0.2347019,-0.402966 0.4541329,-0.510992 l 0.1881108,-0.09261 H 6.5 10.292835 l 0.188111,0.09261 c 0.219431,0.108026 0.374482,0.28249 0.454133,0.510992 0.04854,0.139259 0.05103,0.328015 0.05103,3.868624 0,3.540609 -0.0025,3.729366 -0.05103,3.868624 -0.07965,0.228493 -0.234703,0.402965 -0.454123,0.510992 l -0.188101,0.09261 -3.7505942,0.0053 c -3.0466429,0.0043 -3.7725642,-0.0016 -3.8676486,-0.0315 z"
      id="path916" />
   <path style="fill:#f4f4f7;fill-opacity:1;stroke-width:0.0277778"
      d="M 2.6746122,10.946015 C 2.3792112,10.853183 2.1620506,10.646927 2.0641029,10.36616 2.0166353,10.230095 2.0138889,10.018636 2.0138889,6.5 c 0,-3.5406088 0.00249,-3.7293654 0.051032,-3.8686244 C 2.1445717,2.4028743 2.2996233,2.22841 2.5190543,2.1203844 L 2.7071651,2.0277778 H 6.5 10.292835 l 0.188111,0.092607 c 0.219431,0.1080256 0.374482,0.2824899 0.454133,0.5109912 0.04854,0.139259 0.05103,0.3280156 0.05103,3.8686244 0,3.5406086 -0.0025,3.7293656 -0.05103,3.8686236 -0.07965,0.228494 -0.234703,0.402965 -0.454123,0.510992 l -0.188101,0.09261 -3.7505942,0.0053 c -3.0466429,0.0043 -3.7725642,-0.0016 -3.8676486,-0.0315 z"
      id="path1332" />
   <path style="fill:#f4f4f7;fill-opacity:1;stroke-width:0.0277778"
      d="m 13.674612,10.946015 c -0.295401,-0.09283 -0.512561,-0.299088 -0.610509,-0.579855 -0.04747,-0.136065 -0.05021,-0.347524 -0.05021,-3.86616 0,-3.5406088 0.0025,-3.7293654 0.05103,-3.8686244 0.07965,-0.2285013 0.234702,-0.4029656 0.454133,-0.5109912 l 0.188111,-0.092607 H 17.5 21.292835 l 0.188111,0.092607 c 0.219431,0.1080256 0.374482,0.2824899 0.454133,0.5109912 0.04854,0.139259 0.05103,0.3280156 0.05103,3.8686244 0,3.540609 -0.0025,3.729366 -0.05103,3.868624 -0.07965,0.228494 -0.234703,0.402965 -0.454123,0.510992 l -0.188101,0.09261 -3.750594,0.0053 c -3.046643,0.0043 -3.772564,-0.0016 -3.867649,-0.0315 z"
      id="path1334" />
   <path style="fill:#f4f4f7;fill-opacity:1;stroke-width:0.0277778"
      d="m 13.674612,21.946015 c -0.295401,-0.09283 -0.512561,-0.299088 -0.610509,-0.579855 -0.04747,-0.136065 -0.05021,-0.347524 -0.05021,-3.86616 0,-3.540609 0.0025,-3.729365 0.05103,-3.868624 0.07965,-0.228502 0.234702,-0.402966 0.454133,-0.510992 l 0.188111,-0.09261 H 17.5 21.292835 l 0.188111,0.09261 c 0.219431,0.108026 0.374482,0.28249 0.454133,0.510992 0.04854,0.139259 0.05103,0.328015 0.05103,3.868624 0,3.540609 -0.0025,3.729366 -0.05103,3.868624 -0.07965,0.228493 -0.234703,0.402965 -0.454123,0.510992 l -0.188101,0.09261 -3.750594,0.0053 c -3.046643,0.0043 -3.772564,-0.0016 -3.867649,-0.0315 z"
      id="path1336" />
</svg>