<svg xmlns="http://www.w3.org/2000/svg" viewBox="0 0 24 24">
    <path d="M10 2H3c-.6 0-1 .4-1 1v7c0 .6.4 1 1 1h7c.6 0 1-.4 1-1V3c0-.6-.4-1-1-1zm0 11H3c-.6 0-1 .4-1 1v7c0 .6.4 1 1 1h7c.6 0 1-.4 1-1v-7c0-.6-.4-1-1-1zM21 2h-7c-.6 0-1 .4-1 1v7c0 .6.4 1 1 1h7c.6 0 1-.4 1-1V3c0-.6-.4-1-1-1zm0 11h-7c-.6 0-1 .4-1 1v7c0 .6.4 1 1 1h7c.6 0 1-.4 1-1v-7c0-.6-.4-1-1-1z"/>
    <path d="M2.675 21.946a.919.919 0 0 1-.61-.58c-.048-.136-.051-.347-.051-3.866 0-3.54.002-3.73.05-3.869a.879.879 0 0 1 .455-.51l.188-.093h7.586l.188.092a.88.88 0 0 1 .454.511c.049.14.051.328.051 3.869 0 3.54-.002 3.73-.05 3.869a.879.879 0 0 1-.455.51l-.188.093-3.75.006c-3.047.004-3.773-.002-3.868-.032z" style="fill:#f4f4f7;stroke-width:.0277778;fill-opacity:1"/>
    <path d="M2.675 10.946a.919.919 0 0 1-.61-.58c-.048-.136-.051-.347-.051-3.866 0-3.54.002-3.73.05-3.869a.879.879 0 0 1 .455-.51l.188-.093h7.586l.188.092a.88.88 0 0 1 .454.511c.049.14.051.328.051 3.869 0 3.54-.002 3.73-.05 3.869a.879.879 0 0 1-.455.51l-.188.093-3.75.006c-3.047.004-3.773-.002-3.868-.032zm11 0a.919.919 0 0 1-.61-.58c-.048-.136-.051-.347-.051-3.866 0-3.54.002-3.73.05-3.869a.879.879 0 0 1 .455-.51l.188-.093h7.586l.188.092a.88.88 0 0 1 .454.511c.049.14.051.328.051 3.869 0 3.54-.002 3.73-.05 3.869a.879.879 0 0 1-.455.51l-.188.093-3.75.006c-3.047.004-3.773-.002-3.868-.032zm0 11a.919.919 0 0 1-.61-.58c-.048-.136-.051-.347-.051-3.866 0-3.54.002-3.73.05-3.869a.879.879 0 0 1 .455-.51l.188-.093h7.586l.188.092a.88.88 0 0 1 .454.511c.049.14.051.328.051 3.869 0 3.54-.002 3.73-.05 3.869a.879.879 0 0 1-.455.51l-.188.093-3.75.006c-3.047.004-3.773-.002-3.868-.032z" style="fill:#f4f4f7;fill-opacity:1;stroke-width:.0277778"/>
</svg>
