<?xml version="1.0" encoding="UTF-8" standalone="no"?>
<!-- Created with Inkscape (http://www.inkscape.org/) -->

<svg
   width="1655.2064mm"
   height="1659.0925mm"
   viewBox="0 0 1655.2064 1659.0925"
   version="1.1"
   id="svg17902"
   sodipodi:docname="awesome3.svg"
   inkscape:version="1.2.2 (b0a8486541, 2022-12-01)"
   xmlns:inkscape="http://www.inkscape.org/namespaces/inkscape"
   xmlns:sodipodi="http://sodipodi.sourceforge.net/DTD/sodipodi-0.dtd"
   xmlns:xlink="http://www.w3.org/1999/xlink"
   xmlns="http://www.w3.org/2000/svg"
   xmlns:svg="http://www.w3.org/2000/svg">
  <sodipodi:namedview
     id="namedview17904"
     pagecolor="#ffffff"
     bordercolor="#f4f4f4"
     borderopacity="0.25"
     inkscape:showpageshadow="2"
     inkscape:pageopacity="0.0"
     inkscape:pagecheckerboard="0"
     inkscape:deskcolor="#d1d1d1"
     inkscape:document-units="mm"
     showgrid="false"
     inkscape:zoom="0.024331422"
     inkscape:cx="4315.4075"
     inkscape:cy="5486.7324"
     inkscape:window-width="830"
     inkscape:window-height="819"
     inkscape:window-x="8"
     inkscape:window-y="8"
     inkscape:window-maximized="0"
     inkscape:current-layer="svg17902" />
  <defs
     id="defs17899">
    <linearGradient
       inkscape:collect="always"
       id="linearGradient19476">
      <stop
         style="stop-color:#f4f4f7;stop-opacity:1;"
         offset="0"
         id="stop19472" />
      <stop
         style="stop-color:#6e6e96;stop-opacity:0.69999999;"
         offset="1"
         id="stop19474" />
    </linearGradient>
    <linearGradient
       id="linearGradient19464"
       inkscape:swatch="solid">
      <stop
         style="stop-color:#f4f4f7;stop-opacity:1;"
         offset="0"
         id="stop19462" />
    </linearGradient>
    <linearGradient
       id="linearGradient18997"
       inkscape:swatch="solid">
      <stop
         style="stop-color:#555e70;stop-opacity:1;"
         offset="0"
         id="stop18995" />
    </linearGradient>
    <linearGradient
       inkscape:collect="always"
       xlink:href="#linearGradient19476"
       id="linearGradient19478"
       x1="41.39571"
       y1="134.56064"
       x2="87.882729"
       y2="134.56064"
       gradientUnits="userSpaceOnUse"
       spreadMethod="reflect"
       gradientTransform="matrix(0.96866687,0,0,0.97488578,2.7584009,3.9738889)" />
    <filter
       inkscape:menu-tooltip="Transparent plastic with deep colors"
       inkscape:menu="Bevels"
       inkscape:label="Deep Colors Plastic"
       style="color-interpolation-filters:sRGB"
       id="filter1544"
       x="-1.4017412"
       y="-1.389263"
       width="3.8034824"
       height="3.778526">
      <feGaussianBlur
         in="SourceGraphic"
         result="result6"
         stdDeviation="10"
         id="feGaussianBlur1524" />
      <feComposite
         in2="SourceGraphic"
         in="result6"
         operator="xor"
         id="feComposite1526" />
      <feGaussianBlur
         result="result2"
         stdDeviation="10"
         id="feGaussianBlur1528" />
      <feComposite
         in2="SourceGraphic"
         operator="atop"
         result="result91"
         id="feComposite1530" />
      <feComposite
         result="result4"
         in="result2"
         operator="xor"
         in2="result91"
         id="feComposite1532" />
      <feGaussianBlur
         in="result4"
         result="result3"
         stdDeviation="5"
         id="feGaussianBlur1534" />
      <feSpecularLighting
         lighting-color="#ffffff"
         in="result3"
         result="result5"
         specularExponent="35"
         specularConstant="3"
         surfaceScale="12"
         id="feSpecularLighting1538">
        <feDistantLight
           elevation="45"
           azimuth="235"
           id="feDistantLight1536" />
      </feSpecularLighting>
      <feComposite
         in2="result5"
         in="SourceGraphic"
         k3="0.7"
         k2="0.8"
         operator="arithmetic"
         result="result7"
         id="feComposite1540"
         k1="0"
         k4="0" />
      <feComposite
         in="result7"
         operator="in"
         in2="SourceGraphic"
         id="feComposite1542" />
    </filter>
    <filter
       inkscape:menu-tooltip="Transparent plastic with deep colors"
       inkscape:menu="Bevels"
       inkscape:label="Deep Colors Plastic"
       style="color-interpolation-filters:sRGB"
       id="filter1566"
       x="-11.257964"
       y="-1.354342"
       width="23.515928"
       height="3.708684">
      <feGaussianBlur
         in="SourceGraphic"
         result="result6"
         stdDeviation="10"
         id="feGaussianBlur1546" />
      <feComposite
         in2="SourceGraphic"
         in="result6"
         operator="xor"
         id="feComposite1548" />
      <feGaussianBlur
         result="result2"
         stdDeviation="10"
         id="feGaussianBlur1550" />
      <feComposite
         in2="SourceGraphic"
         operator="atop"
         result="result91"
         id="feComposite1552" />
      <feComposite
         result="result4"
         in="result2"
         operator="xor"
         in2="result91"
         id="feComposite1554" />
      <feGaussianBlur
         in="result4"
         result="result3"
         stdDeviation="5"
         id="feGaussianBlur1556" />
      <feSpecularLighting
         lighting-color="#ffffff"
         in="result3"
         result="result5"
         specularExponent="35"
         specularConstant="3"
         surfaceScale="12"
         id="feSpecularLighting1560">
        <feDistantLight
           elevation="45"
           azimuth="235"
           id="feDistantLight1558" />
      </feSpecularLighting>
      <feComposite
         in2="result5"
         in="SourceGraphic"
         k3="0.7"
         k2="0.8"
         operator="arithmetic"
         result="result7"
         id="feComposite1562"
         k1="0"
         k4="0" />
      <feComposite
         in="result7"
         operator="in"
         in2="SourceGraphic"
         id="feComposite1564" />
    </filter>
    <clipPath
       clipPathUnits="userSpaceOnUse"
       id="clipPath568">
      <path
         id="path570"
         style="fill:#ff0000;fill-opacity:1;fill-rule:nonzero;stroke:none;stroke-width:0.264583"
         d="m 89.159873,113.49865 c 0.05739,0.11205 0.110405,0.22331 0.173635,0.32091 -0.02,-0.0448 -0.04003,-0.0896 -0.0615,-0.13384 -0.02429,-0.0398 -0.04856,-0.0795 -0.07286,-0.11937 -0.0131,-0.0225 -0.02627,-0.0451 -0.03927,-0.0677 z m -0.05323,4.42041 v 0.21135 h 0.114204 c -0.03782,-0.0613 -0.07527,-0.12284 -0.104386,-0.18862 -0.0044,-0.01 -0.0056,-0.0133 -0.0098,-0.0227 z" />
    </clipPath>
    <clipPath
       clipPathUnits="userSpaceOnUse"
       id="clipPath578">
      <path
         id="path580"
         style="fill:#ff0000;fill-opacity:1;fill-rule:nonzero;stroke:none;stroke-width:0.264583"
         d="m 89.106647,118.84355 v 2.14302 c 0.0232,-0.17629 0.04772,-0.35227 0.07803,-0.52762 0.06567,-0.37085 0.127741,-0.7454 0.210323,-1.11207 -0.0028,-0.16785 -0.007,-0.33558 -0.01394,-0.50333 z" />
    </clipPath>
    <clipPath
       clipPathUnits="userSpaceOnUse"
       id="clipPath709">
      <path
         id="path711"
         style="fill:#ff0000;fill-opacity:1;fill-rule:nonzero;stroke:none;stroke-width:0.264583"
         d="m 91.657913,152.67817 c -0.01373,0.0111 -0.0276,0.022 -0.04134,0.0331 0.006,0.0135 0.01212,0.0268 0.0181,0.0403 0.0081,-0.0245 0.01561,-0.0488 0.02326,-0.0734 z m -0.85266,0.50798 c -0.0052,0.002 -0.01029,0.004 -0.0155,0.006 0.0057,5.3e-4 0.01273,0.001 0.01913,0.002 -0.0013,-0.003 -0.0024,-0.006 -0.0036,-0.008 z m 1.680517,0.21653 c -0.07563,0.044 -0.151736,0.0877 -0.228409,0.12971 0.05171,-0.01 0.103647,-0.018 0.155545,-0.0263 0.01804,-0.0273 0.04489,-0.065 0.07286,-0.10336 z m -2.018482,0.67954 c -0.01281,0.0856 -0.0285,0.17091 -0.04547,0.2558 0.05177,-0.032 0.103544,-0.0638 0.155027,-0.0956 0.0633,-0.0376 0.126759,-0.0753 0.190169,-0.11317 -0.06086,-0.005 -0.13017,-0.0144 -0.16433,-0.0186 -0.04562,-0.008 -0.09068,-0.0179 -0.135392,-0.0284 z m 2.359546,3.02256 c -0.0061,0.002 -0.01196,0.005 -0.0181,0.007 -0.0094,0.003 -0.01897,0.007 -0.02842,0.01 h 0.364318 c -0.0092,-0.004 -0.01876,-0.008 -0.02791,-0.0119 -0.09667,-0.002 -0.19323,-0.004 -0.289904,-0.005 z m -1.738913,0.004 c -0.0063,0.004 -0.01273,0.009 -0.01913,0.0129 h 0.07855 c -0.01984,-0.004 -0.03965,-0.008 -0.05943,-0.0129 z" />
    </clipPath>
    <clipPath
       clipPathUnits="userSpaceOnUse"
       id="clipPath731">
      <path
         id="path733"
         style="fill:#ff0000;fill-opacity:1;fill-rule:nonzero;stroke:none;stroke-width:0.264583"
         d="m 92.745702,145.18612 c 0.07881,0.0301 0.156932,0.0617 0.234611,0.0946 5.29e-4,-0.0148 1.43e-4,-0.0296 5.29e-4,-0.0444 -0.07763,-0.0194 -0.156165,-0.0354 -0.235127,-0.0501 z m -3.639055,0.30231 v 0.0667 c 0.0021,-0.0189 0.0042,-0.0379 0.0062,-0.0568 -0.0024,-0.003 -0.004,-0.007 -0.0062,-0.01 z m 0,1.48312 v 0.31677 c 0.0083,-0.0407 0.01556,-0.0816 0.02273,-0.12247 -0.009,-0.0646 -0.01617,-0.1294 -0.02273,-0.1943 z m 3.937746,3.67212 c -0.0072,0.0428 -0.01492,0.0854 -0.02223,0.12816 h 0.232026 c -0.0706,-0.0418 -0.144166,-0.0799 -0.209804,-0.12816 z m -3.670062,0.0538 v 5.3e-4 c -0.0038,0.006 -0.0078,0.0122 -0.01138,0.0186 5.29e-4,0.005 -0.0011,0.0171 0.0016,0.0134 0.0063,-0.009 0.01175,-0.0184 0.01603,-0.0284 -0.0021,-0.001 -0.0042,-0.002 -0.0062,-0.004 z" />
    </clipPath>
    <clipPath
       clipPathUnits="userSpaceOnUse"
       id="clipPath780">
      <path
         id="path782"
         style="fill:#ff0000;fill-opacity:1;fill-rule:nonzero;stroke:none;stroke-width:0.264583"
         d="m 90.364452,139.25987 c 0.0021,0.0312 0.0038,0.0623 0.0057,0.0935 0.0056,-0.0305 0.01106,-0.061 0.01654,-0.0915 -0.0074,-7.9e-4 -0.01482,-10e-4 -0.02223,-0.002 z m 4.490683,0.50695 c -0.06139,0.0279 -0.121531,0.0584 -0.179835,0.092 0.06047,-0.005 0.120433,-0.008 0.179835,-0.009 z m 0,1.01957 c -0.01363,5.3e-4 -0.0272,8e-4 -0.04082,0.002 -0.006,0.0325 -0.0127,0.0659 -0.02016,0.0997 0.01894,0.0455 0.03499,0.0893 0.04702,0.13022 0.0052,0.0177 0.0097,0.0358 0.01394,0.0537 z m 0,1.1033 c -0.02471,0.0759 -0.05126,0.15093 -0.08785,0.22169 -0.0024,0.005 -0.0048,0.009 -0.0072,0.0139 0.0041,0.0327 0.0083,0.0651 0.01447,0.0971 -0.0051,0.0602 -0.0081,0.12067 -0.01291,0.18087 0.03127,0.003 0.06236,0.007 0.09354,0.009 z m -4.344437,2.29908 c -0.03226,0.001 -0.06402,0.005 -0.0956,0.0103 h 0.298172 c -0.06734,-0.006 -0.134863,-0.0102 -0.20257,-0.0103 z" />
    </clipPath>
    <clipPath
       clipPathUnits="userSpaceOnUse"
       id="clipPath807">
      <path
         id="path809"
         style="fill:#ff0000;fill-opacity:1;fill-rule:nonzero;stroke:none;stroke-width:0.264583"
         d="m 91.100324,134.95471 c -0.02363,0.005 -0.04686,0.0105 -0.07028,0.016 0.02664,0.0106 0.05332,0.0208 0.0801,0.031 -0.0032,-0.0152 -0.0069,-0.0331 -0.0098,-0.047 z m 0.6134,1.55494 c 2.64e-4,0.007 5.29e-4,0.0111 0.0016,0.009 7.94e-4,-0.002 0.0013,-0.004 0.0021,-0.006 -0.0013,-8.5e-4 -0.0024,-0.002 -0.0036,-0.003 z" />
    </clipPath>
    <clipPath
       clipPathUnits="userSpaceOnUse"
       id="clipPath819">
      <path
         id="path821"
         style="fill:#ff0000;fill-opacity:1;fill-rule:nonzero;stroke:none;stroke-width:0.264583"
         d="M -17.388145,52.200587 V 218.10984 H 148.1325 V 52.200587 Z M 93.314143,106.06138 c 1.845162,-0.007 3.622183,1.8173 3.276801,5.35626 -0.02228,0.22867 -0.01328,0.0903 -0.01447,0.41548 0.02405,0.86408 0.05588,1.72834 0.12609,2.59002 0.09891,1.23194 0.183187,2.46543 0.303858,3.69539 0.17068,1.34687 0.439621,2.67635 0.836123,3.9765 0.08382,0.32267 0.178178,0.64259 0.251147,0.9679 0.368359,1.64218 0.437132,3.34034 0.422715,5.01675 -0.06051,2.22363 -0.196588,4.44626 -0.601515,6.63783 -0.122605,0.74406 -0.113453,0.78151 -0.276984,1.46141 -0.07499,0.31174 -0.190267,0.61353 -0.264067,0.92449 -0.02561,0.10791 -0.0428,0.21775 -0.06408,0.3266 -0.133001,1.22504 -0.21649,2.4557 -0.247531,3.68763 0.179793,0.22821 0.338378,0.40974 0.463021,0.68264 0.131638,0.28834 0.214871,0.58924 0.130741,0.90951 -0.09786,0.37252 -0.257037,0.42878 -0.530198,0.64027 -0.02204,0.009 -0.04381,0.0188 -0.06563,0.0284 0.0296,1.72049 0.04761,3.44346 -0.07235,5.15886 0.300366,0.0332 0.60134,0.0634 0.900721,0.10439 0.048,0.007 0.13072,-0.0245 0.143661,0.0222 0.08007,0.28894 0.07345,0.59483 0.110072,0.89245 -0.08452,0.008 -0.168757,0.019 -0.253217,0.0279 4.2e-5,0.001 -4e-5,0.002 0,0.003 7.94e-4,0.0229 -0.02582,0.014 -0.05581,0.002 -0.04521,0.004 -0.09053,0.008 -0.135912,0.008 -0.158168,0.002 -0.315888,-0.0191 -0.473871,-0.0274 -0.107582,-0.006 -0.214916,-0.0113 -0.322461,-0.0165 -0.04269,0.41075 -0.09143,0.8211 -0.153995,1.23043 -0.206846,1.33676 -0.432851,2.6743 -0.736391,3.99355 v 5.2e-4 c 0.0052,0.0293 0.01042,0.0582 0.01394,0.0879 0.02342,0.19442 0.0047,0.39156 0.0181,0.58652 0.0031,0.0854 0.0069,0.17101 0.01188,0.25632 0.196586,0.11824 0.285049,0.28103 0.28112,0.43098 0.0168,0.002 0.03386,0.003 0.05064,0.006 0.02498,-0.002 0.0472,-0.002 0.05581,0.009 0.03387,0.006 0.0676,0.0118 0.101288,0.0186 0.06509,0.0314 0.207936,0.0224 0.195336,0.0935 -0.05285,0.2984 -0.184317,0.58794 -0.359669,0.83509 -0.04111,0.058 -0.14061,-0.0198 -0.210839,-0.0305 -0.07677,-0.0117 -0.153746,-0.0229 -0.230478,-0.0341 -0.153353,-0.0128 -0.306917,-0.0205 -0.460955,-0.016 -0.02564,10e-4 -0.05135,0.002 -0.077,0.004 -0.01027,0.0294 -0.02209,0.0557 -0.03256,0.0847 0.0021,0.0674 0.0066,0.13487 0.01035,0.20206 7.94e-4,0.0142 7.94e-4,0.0154 0.0016,0.0274 v 5.2e-4 c 0.0031,0.0476 0.056,0.13303 0.0093,0.14264 -0.06452,0.0132 -0.1235,0.0255 -0.179317,0.0377 -2.280705,5.51624 -8.023494,4.10007 -6.502963,-2.25156 -0.0648,-0.15549 -0.104442,-0.31583 -0.141592,-0.48006 -0.05908,-0.19214 -0.127892,-0.38436 -0.119891,-0.5886 0.0209,-0.2213 0.06873,-0.4387 0.12454,-0.6537 0.01175,-0.0424 0.02389,-0.0846 0.03669,-0.12662 -0.08589,-0.12909 -0.170188,-0.26018 -0.240297,-0.40668 -0.06153,-0.19935 -0.135099,-0.39524 -0.184483,-0.5979 -0.11829,-0.48537 -0.06649,-1.00271 -0.04806,-1.49501 0.04307,-0.60294 0.104026,-1.20437 0.192754,-1.80246 0.09973,-0.71922 0.182687,-1.44072 0.296106,-2.15801 0.06852,-0.48105 0.163449,-0.95597 0.249597,-1.43403 0.03493,-0.27814 0.06299,-0.55309 0.06356,-0.83354 -0.03371,-0.0414 -0.06329,-0.0852 -0.08062,-0.13177 -0.07053,-0.18972 -0.07589,-0.33382 -0.01085,-0.48989 -0.04636,-0.072 -0.07629,-0.15455 -0.08888,-0.25528 -0.0087,-0.0699 -2.49e-4,-0.15562 0.01601,-0.24496 -0.0037,-0.007 -0.0071,-0.0133 -0.01085,-0.0202 -0.0086,-0.0463 -0.01873,-0.0922 -0.02739,-0.13848 -0.09659,-0.0976 -0.176241,-0.24215 -0.213423,-0.44649 -0.02093,-0.11502 -0.0118,-0.053 -0.02532,-0.18655 -0.0029,-0.29006 0.05555,-0.57295 0.131257,-0.85215 0.02045,-0.0728 0.04783,-0.14299 0.07028,-0.21497 -0.0028,-0.004 -0.006,-0.008 -0.0088,-0.0124 -0.137907,-0.24266 -0.23358,-0.50717 -0.278019,-0.78342 -0.02762,-0.29521 -0.01093,-0.59026 0.02223,-0.8847 0.01818,-0.19169 0.02959,-0.38457 0.05426,-0.57567 -0.02313,-0.0563 -0.04524,-0.11324 -0.06511,-0.17105 -0.0554,-0.1851 -0.08685,-0.38353 -0.04496,-0.57516 0.0083,-0.0381 0.0213,-0.0747 0.03204,-0.11214 0.04669,-0.0972 0.07326,-0.17004 0.153479,-0.23874 -0.07752,-0.45499 -0.133151,-0.91247 -0.108003,-1.37821 0.02749,-0.48065 0.06943,-0.96056 0.135393,-1.43764 0.01341,-0.0795 0.01175,-0.16165 0.0181,-0.24236 -0.01016,-0.018 -0.02024,-0.036 -0.02894,-0.0548 -0.108513,-0.23435 -0.09069,-0.27513 -0.103354,-0.51211 0.01217,-0.0729 0.01656,-0.14747 0.03669,-0.2186 0.04322,-0.15267 0.11259,-0.27024 0.202054,-0.36638 0.0066,-0.044 0.0136,-0.0879 0.02066,-0.13178 -0.0396,-0.10288 -0.06374,-0.21208 -0.07545,-0.32349 -0.01638,-0.20757 -0.0092,-0.41311 5.29e-4,-0.62063 -0.0085,-0.24993 0.01707,-0.49622 0.140044,-0.71986 0.111183,-0.2196 0.237128,-0.43148 0.341064,-0.65474 0.01482,-0.0671 0.03014,-0.13405 0.04548,-0.20102 -0.0295,2.9e-4 -0.05881,3.9e-4 -0.08837,-5.3e-4 -0.160827,-0.0176 -0.226629,-0.0111 -0.385506,-0.11627 -0.169724,-0.11234 -0.239709,-0.31138 -0.240813,-0.50488 -2.46e-4,-0.0462 0.01304,-0.0912 0.01963,-0.13694 0.05777,-0.19268 0.146455,-0.37002 0.28112,-0.52141 0.07023,-0.0961 0.152781,-0.21496 0.250632,-0.30334 -0.178115,-0.45301 -0.339683,-0.91262 -0.419613,-1.39423 -0.03667,-0.26113 -0.05318,-0.52137 -0.05581,-0.78135 -0.256326,-0.003 -0.15756,-0.14647 -0.189135,-0.89917 -7.94e-4,-0.0214 0.234579,-0.0606 0.239778,-0.0615 0.0072,-10e-4 0.01447,-0.002 0.0217,-0.004 0.0042,-0.0252 0.0058,-0.0503 0.01035,-0.0755 0.07074,-0.57889 0.08297,-1.16147 0.13126,-1.74253 0.0368,-0.50435 0.04317,-1.00885 0.06098,-1.51412 0.02482,-0.43028 0.05929,-0.86002 0.132289,-1.28519 0.08806,-0.56427 0.134186,-1.13401 0.231513,-1.69706 0.06567,-0.37085 0.127741,-0.74546 0.210322,-1.11207 -0.0042,-0.25781 -0.0088,-0.51586 -0.02791,-0.77308 -0.0024,-0.0298 -0.05276,-0.24945 0.0021,-0.15142 0.0037,0.007 0.0098,-0.0671 -0.0021,-0.0227 -0.06347,-0.1625 -0.180049,-0.29842 -0.250632,-0.45786 -0.21952,-0.49584 -0.184695,-0.43451 -0.272333,-0.89142 -0.04633,-0.49481 -0.02695,-0.98765 0.01241,-1.48259 0.02704,-0.39883 0.07368,-0.79865 0.07028,-1.19786 -0.0108,-0.24669 -0.02641,-0.4938 -0.07234,-0.73691 -0.102606,-0.51201 -0.308878,-0.99665 -0.291457,-1.53117 0.397383,-0.4257 0.691602,-1.006 1.099158,-1.41645 0.25622,-3.10215 1.979901,-4.61757 3.651975,-4.62401 z m -4.15427,7.43727 c 0.05739,0.11205 0.110405,0.22331 0.173635,0.32091 -0.02,-0.0448 -0.04003,-0.0896 -0.0615,-0.13384 -0.02429,-0.0398 -0.04856,-0.0795 -0.07286,-0.11937 -0.0131,-0.0225 -0.02627,-0.0451 -0.03927,-0.0677 z" />
    </clipPath>
    <clipPath
       clipPathUnits="userSpaceOnUse"
       id="clipPath829">
      <path
         id="path831"
         style="fill:#ff0000;fill-opacity:1;fill-rule:nonzero;stroke:none;stroke-width:0.264583"
         d="m 89.106649,125.30517 v 1.39991 c 0.270952,-0.0338 0.542423,-0.0648 0.813904,-0.094 0.11984,-0.0275 0.23926,-0.0555 0.35915,-0.0827 0.223436,-0.0412 0.442735,-0.10038 0.663009,-0.15503 0.161478,-0.0278 0.08268,-0.0174 0.236678,-0.0341 0.03081,-0.003 0.06045,-0.005 0.0894,-0.006 -0.01527,-0.0221 -0.03037,-0.0443 -0.04599,-0.0661 -0.19192,-0.30057 -0.317182,-0.60636 -0.297656,-0.9617 z m 2.755387,0 c -0.0057,0.0191 -0.01122,0.0384 -0.01188,0.0444 -0.01532,0.13986 0.07375,0.26399 0.136941,0.3793 0.04673,0.0678 0.08911,0.13835 0.140044,0.20309 0.129653,0.16482 0.273774,0.31526 0.426331,0.45682 0.198085,-0.0133 0.39352,-0.0256 0.664559,-0.0382 0.54543,-0.0254 1.092007,-0.0291 1.637109,-0.062 v -0.0568 c -0.760521,-0.34443 -1.529098,-0.67538 -2.325439,-0.92656 h -0.611849 c -0.01288,0.006 -0.02771,0.014 -0.03462,0.004 -0.0011,-10e-4 -0.0016,-0.003 -0.0021,-0.004 z m 2.993099,1.91978 c -0.316254,0.018 -0.770432,0.0293 -1.026811,0.0382 -0.06448,0.002 -0.128844,0.005 -0.19327,0.008 0.04803,0.0393 0.09611,0.0787 0.143145,0.11886 0.410527,0.35463 0.48941,0.41332 0.87953,0.79013 0.06575,0.0635 0.132176,0.12658 0.197406,0.19068 z m -2.621547,0.12299 c -0.03772,0.003 -0.07544,0.005 -0.113171,0.007 -0.68068,0.0478 -1.360635,0.10568 -2.039151,0.17777 -0.156173,0.0356 -0.312299,0.0696 -0.469739,0.0992 -0.167521,0.0273 -0.336039,0.0482 -0.504878,0.0651 v 2.03553 c 0.01701,-0.0698 0.03538,-0.14497 0.05581,-0.23254 0.01672,-0.0717 0.142864,-0.036 0.214974,-0.0506 0.220038,-0.0448 0.447233,-0.0701 0.66921,-0.0992 0.438357,-0.0465 0.877877,-0.081 1.317234,-0.11627 0.135638,-0.36657 0.614227,-0.36091 1.021641,-0.38964 0.525214,-0.0199 1.050634,-0.0316 1.576131,-0.0377 -0.340466,-0.32627 -0.412951,-0.38091 -0.794266,-0.70952 -0.306123,-0.25393 -0.627224,-0.49355 -0.933794,-0.7493 z m 2.621547,2.68045 c -0.01066,0.003 -0.02135,0.006 -0.03204,0.009 0.01164,0.03 0.0223,0.0607 0.03204,0.0915 z m -5.748486,0.33383 v 0.0377 c 0.02551,-0.005 0.05171,-0.009 0.07958,-0.0109 -0.03098,-0.009 -0.05717,-0.0177 -0.07958,-0.0269 z" />
    </clipPath>
  </defs>
  <path
     id="path917"
     style="fill:url(#linearGradient19478);fill-opacity:1;stroke:#2f303d;stroke-width:1.92411;stroke-linecap:round;stroke-linejoin:bevel;stroke-dasharray:none;stroke-opacity:1;paint-order:stroke markers fill;filter:url(#filter1544)"
     d="m 43.626953,119.89648 c 0,2.22657 0,4.45313 0,6.67969 9.694662,0 19.389323,0 29.083985,0 0.122806,0.80668 0.01723,1.70795 0.05273,2.55078 -1.607219,0.12306 -3.309109,0.0176 -4.952734,0.0527 -8.061329,0 -16.122657,0 -24.183985,0 0,9.30534 0,18.61067 0,27.91601 9.245443,0 18.490886,0 27.736328,0 0,-4.41797 0,-8.83593 0,-13.2539 -4.442708,0 -8.885416,0 -13.328125,0 -0.122667,-0.84254 -0.01694,-1.77968 -0.05273,-2.65821 1.607219,-0.12306 3.309108,-0.0176 4.952734,-0.0527 3.690235,0 7.380469,0 11.070703,0 0.123062,1.60722 0.01757,3.30911 0.05273,4.95273 0,3.67071 0,7.34141 0,11.01211 4.352864,0 8.705729,0 13.058594,0 0,-14.62695 -10e-7,-29.2539 0,-43.88086 -14.496745,0 -28.99349,0 -43.490235,0 0,2.22722 0,4.45443 0,6.68164 z"
     transform="matrix(33.81176,0,0,30.724552,-1375.9857,-3316.6617)" />
  <g
     inkscape:groupmode="layer"
     id="layer2"
     inkscape:label="Layer 2" />
</svg>
