<?xml version="1.0" encoding="UTF-8" standalone="no"?>
<svg
   width="40.009998"
   height="20.01"
   version="1.1"
   id="svg4"
   sodipodi:docname="battery-fully-charged.svg"
   inkscape:version="1.2.2 (b0a8486541, 2022-12-01)"
   xmlns:inkscape="http://www.inkscape.org/namespaces/inkscape"
   xmlns:sodipodi="http://sodipodi.sourceforge.net/DTD/sodipodi-0.dtd"
   xmlns="http://www.w3.org/2000/svg"
   xmlns:svg="http://www.w3.org/2000/svg">
  <defs
     id="defs8" />
  <sodipodi:namedview
     id="namedview6"
     pagecolor="#000"
     bordercolor="#000000"
     borderopacity="0.25"
     inkscape:showpageshadow="2"
     inkscape:pageopacity="0.0"
     inkscape:pagecheckerboard="0"
     inkscape:deskcolor="#d1d1d1"
     showgrid="false"
     inkscape:zoom="14.541667"
     inkscape:cx="20.080229"
     inkscape:cy="9.9713465"
     inkscape:window-width="1600"
     inkscape:window-height="860"
     inkscape:window-x="0"
     inkscape:window-y="-12"
     inkscape:window-maximized="1"
     inkscape:current-layer="svg4" />
  <path
     d="M 4,2.68 V 6.01 H 0 v 8 h 4 v 3.33 c 0,1.48 1.19,2.67 2.67,2.67 h 30.67 a 2.67,2.67 0 0 0 2.67,-2.67 V 2.67 A 2.67,2.67 0 0 0 37.34,0 H 6.67 A 2.678,2.678 0 0 0 4,2.68 Z"
     style="fill:#ffffff;fill-opacity:1"
     id="path2" />
  <path
     d="m 20.085633,19.88079 c -0.497985,0 -0.882144,-0.341611 -0.811002,-0.7273 l 1.28053,-6.986491 H 15.57532 c -1.252073,0 -0.469528,-0.826477 -0.441071,-0.859536 1.792742,-2.4573933 4.481857,-6.0938946 8.038885,-10.94256282 a 0.82096221,0.63583673 0 0 1 1.522408,0.4077289 l -1.28053,6.98649012 h 4.994068 c 0.569124,0 0.882143,0.2093744 0.569124,0.7273003 -4.681049,6.3253075 -7.398619,10.0169075 -8.181166,11.0747985 -0.14228,0.198355 -0.412615,0.319572 -0.711405,0.319572 z"
     id="path2409"
     style="fill:#555555;fill-opacity:1;stroke-width:1.25216" />
</svg>
