<svg xmlns="http://www.w3.org/2000/svg" width="29.92" height="29.921" style="enable-background:new 0 0 29.92 29.921" xml:space="preserve"><path fill="#fff" d="M1.676 13.21a5.737 5.737 0 0 1 0-8.104l3.429-3.431a5.74 5.74 0 0 1 8.104 0l5.571 5.574-2.827 2.828-5.572-5.574a1.733 1.733 0 0 0-2.447 0l-3.43 3.431a1.73 1.73 0 0 0 0 2.446l5.573 5.574L7.25 18.78l-5.574-5.57zm26.568 3.504L22.67 11.14l-2.828 2.828 5.573 5.574a1.73 1.73 0 0 1 0 2.446l-3.43 3.429a1.733 1.733 0 0 1-2.447 0l-5.573-5.572-2.828 2.828 5.574 5.572a5.715 5.715 0 0 0 4.053 1.676c1.467 0 2.935-.56 4.052-1.676l3.43-3.429a5.737 5.737 0 0 0-.002-8.102zm-.793-12.947-1.414-1.414-3.772 3.771 1.414 1.414 3.772-3.771zm-3.542 5.928 5.149 1.383.52-1.934-5.151-1.381-.518 1.932zm-1.873-4.32L20.654.223l-1.932.52 1.381 5.151 1.933-.519zM2.585 25.804 4 27.218l3.771-3.771-1.414-1.413-3.772 3.77zm5.414-1.613 1.382 5.152 1.932-.518-1.381-5.152-1.933.518zm-1.874-4.32L.974 18.488l-.518 1.934 5.15 1.381.519-1.932z"/></svg>