<svg xmlns="http://www.w3.org/2000/svg" width="430.763" height="355.678" viewBox="0 0 113.973 94.106">
    <path d="M64.486 182.03c-1.505-.335-2.743-1.07-3.562-2.114-.997-1.273-.923 1.056-.88-27.738l.038-25.766.474-.82c.845-1.459 2.462-2.492 4.344-2.776 1.088-.163 61.148-.164 62.24 0 1.843.277 3.452 1.306 4.328 2.768l.49.817v52.082l-.485.837c-.801 1.384-2.18 2.329-3.955 2.71-.68.146-4.298.164-31.558.158-26.066-.006-30.896-.03-31.474-.159zm7.01-68.143c0-3.798.023-4.246.246-4.837.508-1.347 1.568-2.35 3.114-2.947 1.58-.61 3.698-.523 5.227.216 1.464.708 2.535 2.063 2.76 3.49.068.433.126 2.47.128 4.526l.004 3.739h-11.48Zm18.784.157c0-2.55.053-4.238.145-4.599.366-1.435 1.532-2.654 3.179-3.321.877-.355.965-.369 2.413-.369 1.445 0 1.538.014 2.412.367 1.076.433 2.118 1.248 2.6 2.034.689 1.12.73 1.453.73 5.852v4.066H90.28zm18.815-.247c.056-4.81.063-4.854 1.035-6.054.669-.826 1.765-1.512 2.926-1.83.708-.195 1.076-.229 2.072-.193 1.076.039 1.32.088 2.184.44 1.521.62 2.612 1.713 3.029 3.033.166.526.202 1.385.202 4.761v4.12h-11.497zm4.758 85.393c-2.323-.323-4.266-1.984-4.652-3.977-.074-.386-.135-2.4-.136-4.492v-3.792h11.492l-.04 4.39-.039 4.39-.48.802c-.86 1.435-2.376 2.398-4.207 2.674-.86.13-1.036.13-1.938.005zm-18.747.002c-2.225-.316-4.058-1.7-4.624-3.49-.165-.525-.202-1.38-.202-4.707v-4.066h11.48v3.975c0 2.51-.054 4.186-.146 4.546-.488 1.914-2.412 3.432-4.747 3.745-.868.116-.925.116-1.76-.003zm-19.142-.054c-1.688-.302-3.093-1.243-3.922-2.627l-.481-.802-.04-4.39-.039-4.39h11.493l-.001 3.792c0 2.092-.062 4.106-.136 4.492-.396 2.044-2.322 3.653-4.77 3.983-.946.128-1.088.124-2.104-.058zm-32.676-57.712c-3.388-.893-4.984-4.052-3.367-6.666.47-.758 1.526-1.594 2.53-2.001 1.283-.52 2.084-.584 7.358-.588l4.468-.003v9.467l-5.12-.006c-4.595-.005-5.197-.026-5.869-.203zm.926 15.703c-1.67-.177-3.53-1.261-4.276-2.494-1.538-2.537-.188-5.503 2.99-6.572.697-.235.871-.243 6.033-.273l5.316-.032v9.477l-4.663-.014c-2.565-.008-4.995-.05-5.4-.092zm-.634 15.403c-3.477-.75-5.264-3.878-3.734-6.536a5.28 5.28 0 0 1 2.441-2.15c1.319-.55 1.75-.586 7.06-.586h4.93v9.467l-4.924-.006c-4.197-.005-5.05-.033-5.773-.189zm94.182-4.538v-4.734h4.93c5.368 0 5.813.039 7.119.622 2.005.896 3.242 2.973 2.861 4.805a5.52 5.52 0 0 1-.477 1.294c-.407.733-1.557 1.752-2.41 2.135-1.234.554-1.874.608-7.164.61l-4.859.002zm0-15.493v-4.734h5.074c4.685 0 5.137.017 5.902.213 2.062.528 3.544 1.951 3.921 3.764.532 2.56-1.706 5.008-4.918 5.38-.502.06-2.953.108-5.446.109l-4.533.002zm0-15.6v-4.734l4.468.003c2.457.002 4.908.05 5.446.107 3.252.343 5.521 2.794 4.983 5.382-.269 1.294-1.026 2.312-2.289 3.08-1.413.859-1.723.896-7.534.896h-5.074z" style="fill:#fefeff;fill-opacity:.996078;stroke:#f4f4f4;stroke-width:.519118;stroke-linecap:round;stroke-linejoin:round;paint-order:stroke markers fill" transform="matrix(.73453 0 0 .76616 -12.473 -68.305)"/>
</svg>
