<?xml version="1.0" encoding="UTF-8" standalone="no"?>
<svg
   viewBox="0 0 24 24"
   version="1.1"
   id="svg1329"
   sodipodi:docname="desktop.svg"
   inkscape:version="1.2.2 (b0a8486541, 2022-12-01)"
   xmlns:inkscape="http://www.inkscape.org/namespaces/inkscape"
   xmlns:sodipodi="http://sodipodi.sourceforge.net/DTD/sodipodi-0.dtd"
   xmlns="http://www.w3.org/2000/svg"
   xmlns:svg="http://www.w3.org/2000/svg">
  <defs
     id="defs1333" />
  <sodipodi:namedview
     id="namedview1331"
     pagecolor="#ffffff"
     bordercolor="#000000"
     borderopacity="0.25"
     inkscape:showpageshadow="2"
     inkscape:pageopacity="0.0"
     inkscape:pagecheckerboard="0"
     inkscape:deskcolor="#d1d1d1"
     showgrid="false"
     inkscape:zoom="29"
     inkscape:cx="12"
     inkscape:cy="12.017241"
     inkscape:window-width="1600"
     inkscape:window-height="899"
     inkscape:window-x="0"
     inkscape:window-y="-12"
     inkscape:window-maximized="1"
     inkscape:current-layer="svg1329" />
  <path
     d="M21,16H3V4H21M21,2H3C1.89,2 1,2.89 1,4V16C1,17.1 1.9,18 3,18H10V20H8V22H16V20H14V18H21C22.1,18 23,17.1 23,16V4C23,2.89 22.1,2 21,2Z"
     id="path1327" />
  <path
     style="fill:#ffffff;stroke-width:0.000137931;paint-order:stroke markers fill"
     d="m 8.0172414,21 v -0.982759 h 1 0.9999996 V 19 17.982759 l -3.5948272,-6e-4 C 2.4696475,17.981501 2.5748878,17.986694 2.1280393,17.770255 1.8042069,17.613401 1.3778925,17.187409 1.2274436,16.870341 1.0043217,16.400117 1.0154193,16.783648 1.0254061,9.8879503 l 0.00908,-6.2672606 0.078503,-0.2312401 C 1.2780243,2.9033058 1.6652535,2.4604769 2.1307537,2.2255466 2.5770429,2.0003117 1.8748974,2.0144352 12.103448,2.0249486 l 9.275862,0.00953 0.226626,0.077077 c 0.587196,0.1997108 1.082793,0.6953082 1.282504,1.2825044 l 0.07708,0.2266252 0.0091,6.2672606 c 0.01,6.9043332 0.02129,6.5181952 -0.204243,6.9838172 -0.156904,0.32393 -0.582855,0.750298 -0.899809,0.900693 -0.451391,0.214184 -0.346122,0.209042 -4.292956,0.2097 l -3.594827,5.99e-4 V 19 20.017241 h 1 1 V 21 21.982759 H 12 8.0172414 Z M 21.017241,10 V 3.9827586 H 12 2.9827586 V 10 16.017241 H 12 21.017241 Z"
     id="path1335" />
</svg>
