<?xml version="1.0" encoding="UTF-8" standalone="no"?>
<svg
   width="27.632082"
   height="28.711149"
   viewBox="0 0 60.374615 62.732313"
   version="1.1"
   id="svg8"
   sodipodi:docname="disk.svg"
   inkscape:version="1.2.2 (b0a8486541, 2022-12-01)"
   xmlns:inkscape="http://www.inkscape.org/namespaces/inkscape"
   xmlns:sodipodi="http://sodipodi.sourceforge.net/DTD/sodipodi-0.dtd"
   xmlns="http://www.w3.org/2000/svg"
   xmlns:svg="http://www.w3.org/2000/svg"
   xmlns:rdf="http://www.w3.org/1999/02/22-rdf-syntax-ns#"
   xmlns:cc="http://creativecommons.org/ns#"
   xmlns:dc="http://purl.org/dc/elements/1.1/">
  <sodipodi:namedview
     id="namedview8"
     pagecolor="#ffffff"
     bordercolor="#000000"
     borderopacity="0.25"
     inkscape:showpageshadow="2"
     inkscape:pageopacity="0.0"
     inkscape:pagecheckerboard="0"
     inkscape:deskcolor="#d1d1d1"
     showgrid="false"
     inkscape:zoom="5.6290323"
     inkscape:cx="33.131805"
     inkscape:cy="49.74212"
     inkscape:window-width="1600"
     inkscape:window-height="860"
     inkscape:window-x="0"
     inkscape:window-y="-12"
     inkscape:window-maximized="1"
     inkscape:current-layer="svg8" />
  <defs
     id="defs2" />
  <metadata
     id="metadata5">
    <rdf:RDF>
      <cc:Work
         rdf:about="">
        <dc:format>image/svg+xml</dc:format>
        <dc:type
           rdf:resource="http://purl.org/dc/dcmitype/StillImage" />
        <dc:title />
      </cc:Work>
    </rdf:RDF>
  </metadata>
  <g
     id="layer1"
     transform="matrix(0.55974402,0,0,0.46309011,-62.126716,-48.786392)">
    <path
       id="path28985"
       style="color:#f4f4f4;font-style:normal;font-variant:normal;font-weight:normal;font-stretch:normal;font-size:medium;line-height:normal;font-family:sans-serif;font-variant-ligatures:normal;font-variant-position:normal;font-variant-caps:normal;font-variant-numeric:normal;font-variant-alternates:normal;font-variant-east-asian:normal;font-feature-settings:normal;font-variation-settings:normal;text-indent:0;text-align:start;text-decoration:none;text-decoration-line:none;text-decoration-style:solid;text-decoration-color:#f4f4f4;letter-spacing:normal;word-spacing:normal;text-transform:none;writing-mode:lr-tb;direction:ltr;text-orientation:mixed;dominant-baseline:auto;baseline-shift:baseline;text-anchor:start;white-space:normal;shape-padding:0;shape-margin:0;inline-size:0;clip-rule:nonzero;display:inline;overflow:visible;visibility:visible;isolation:auto;mix-blend-mode:normal;color-interpolation:sRGB;color-interpolation-filters:linearRGB;solid-color:#f4f4f4;solid-opacity:1;vector-effect:none;fill:#f4f4f4;fill-opacity:1;fill-rule:nonzero;stroke:none;stroke-width:14.7584;stroke-linecap:butt;stroke-linejoin:round;stroke-miterlimit:4;stroke-dasharray:none;stroke-dashoffset:0;stroke-opacity:1;color-rendering:auto;image-rendering:auto;shape-rendering:auto;text-rendering:auto;enable-background:accumulate;stop-color:#f4f4f4"
       d="m 94.982422,0.00390625 c -23.593134,0 -42.814453,19.22124375 -42.814453,42.81445275 V 469.18164 c 0,23.59321 19.221319,42.81445 42.814453,42.81445 H 417.00977 c 23.59317,0 42.82226,-19.22124 42.82226,-42.81445 V 42.818359 c 0,-23.593209 -19.22909,-42.81445275 -42.82226,-42.81445275 z M 103.41992,26.378906 h 0.0156 0.043 a 7.3799441,7.3799441 0 0 0 0.0156,0 c 10.95492,1.89e-4 19.67368,8.716952 19.67383,19.671875 -1.5e-4,10.954961 -8.71891,19.68149 -19.67383,19.681641 C 92.539198,65.732308 83.814584,57.005742 83.814433,46.050781 83.814547,35.125528 92.496765,26.420972 103.4199,26.378906 Z m 309.92969,0 h 0.006 0.0527 a 7.3799441,7.3799441 0 0 0 0.0156,0 c 10.95492,1.89e-4 19.67172,8.716952 19.67187,19.671875 -1.5e-4,10.954961 -8.71691,19.68149 -19.67187,19.681641 -10.95492,-1.51e-4 -19.68149,-8.72668 -19.68164,-19.681641 1.1e-4,-10.927748 8.68077,-19.633815 19.60742,-19.671875 z M 255.41406,46.908203 h 0.0293 c 0.17915,-3.4e-4 0.35965,-3.4e-4 0.53906,0 a 7.3799441,7.3799441 0 0 0 0.0156,0 c 83.84186,-3.02e-4 151.65456,67.804657 151.65429,151.646487 -0.002,74.19205 -53.41458,135.63527 -124.37109,148.59765 l 48.11133,-46.67382 c 0.85616,-0.73253 1.66705,-1.51938 2.40234,-2.37305 a 7.3799441,7.3799441 0 0 0 0.0664,-0.0801 7.3799441,7.3799441 0 0 0 1.48437,-2.76758 7.3799441,7.3799441 0 0 0 0.008,-0.0156 c 2.79405,-4.4439 4.34477,-9.5717 3.56445,-14.83008 a 7.3799441,7.3799441 0 0 0 0,-0.008 c -1.16149,-7.80968 -6.42242,-14.43155 -13.76563,-17.33203 h -0.008 c -1.8748,-0.7397 -3.84288,-1.22622 -5.84765,-1.4336 a 7.3799441,7.3799441 0 0 0 -2.8418,0.26563 c -4.52995,0.1251 -8.92225,1.38156 -12.58594,4.10547 l 0.008,-0.0742 -0.55273,0.36133 c -0.0189,0.0151 -0.0471,0.0161 -0.0664,0.0312 a 7.3799441,7.3799441 0 0 0 -0.0391,0.0371 L 193.99023,336.69922 C 139.611,312.28434 104.34488,258.39655 104.34375,198.55469 104.34292,114.94016 171.804,47.230143 255.41406,46.908203 Z M 195.58398,353.21875 c 15.79416,6.1663 32.40531,9.49892 49.29493,10.63867 l -94.66407,91.8457 a 7.3799441,7.3799441 0 0 0 -0.66406,0.73633 c -1.53721,1.95508 -3.29501,3.7243 -5.24219,5.27149 -13.89732,11.03833 -33.88763,8.74513 -44.925778,-5.15235 -11.038337,-13.89728 -8.74513,-33.88763 5.152348,-44.92578 1.93485,-1.53672 4.03949,-2.84678 6.27539,-3.89843 a 7.3799441,7.3799441 0 0 0 0.85547,-0.47266 z m 217.76563,96.23047 h 0.008 0.0508 a 7.3799441,7.3799441 0 0 0 0.0156,0 c 10.95496,1.9e-4 19.67172,8.72668 19.67187,19.68164 -1.5e-4,10.95492 -8.71695,19.67172 -19.67187,19.67187 -10.95492,-1.5e-4 -19.6795,-8.71695 -19.67969,-19.67187 1.1e-4,-10.92779 8.67878,-19.64358 19.60547,-19.68164 z"
       transform="matrix(0.26458333,0,0,0.26458333,97.188524,105.34864)" />
    <path
       id="path3541"
       style="fill:#f4f4f4;fill-opacity:1;stroke:none;stroke-width:5.14248;stroke-linecap:butt;stroke-linejoin:miter;stroke-miterlimit:4;stroke-dasharray:none;stroke-opacity:0.996354"
       d="m 178.30981,157.88318 a 13.388833,13.388833 0 0 1 -13.38884,13.38883 13.388833,13.388833 0 0 1 -13.38883,-13.38883 13.388833,13.388833 0 0 1 13.38883,-13.38883 13.388833,13.388833 0 0 1 13.38884,13.38883 z" />
  </g>
</svg>
