<svg xmlns="http://www.w3.org/2000/svg" width="27.632" height="28.711" viewBox="0 0 60.375 62.732">
    <path d="M94.982.004c-23.593 0-42.814 19.221-42.814 42.814v426.364c0 23.593 19.221 42.814 42.814 42.814H417.01c23.593 0 42.822-19.221 42.822-42.814V42.818c0-23.593-19.23-42.814-42.822-42.814zm8.438 26.375h.059a7.38 7.38 0 0 0 .015 0c10.955 0 19.674 8.717 19.674 19.672s-8.719 19.681-19.674 19.681-19.68-8.726-19.68-19.681c0-10.925 8.683-19.63 19.606-19.672Zm309.93 0h.058a7.38 7.38 0 0 0 .016 0c10.955 0 19.672 8.717 19.672 19.672s-8.717 19.681-19.672 19.681-19.682-8.726-19.682-19.681c0-10.928 8.681-19.634 19.608-19.672zm-157.936 20.53h.568a7.38 7.38 0 0 0 .016 0c83.842-.001 151.655 67.804 151.654 151.646-.002 74.192-53.414 135.635-124.37 148.597l48.11-46.673a22.243 22.243 0 0 0 2.403-2.374 7.38 7.38 0 0 0 .066-.08 7.38 7.38 0 0 0 1.485-2.767 7.38 7.38 0 0 0 .008-.016c2.794-4.444 4.344-9.572 3.564-14.83a7.38 7.38 0 0 0 0-.008 22.167 22.167 0 0 0-13.766-17.332h-.008a22.154 22.154 0 0 0-5.847-1.434 7.38 7.38 0 0 0-2.842.266c-4.53.125-8.922 1.382-12.586 4.106l.008-.075-.553.362c-.019.015-.047.016-.066.03a7.38 7.38 0 0 0-.04.038L193.99 336.699c-54.379-24.415-89.645-78.302-89.646-138.144-.001-83.615 67.46-151.325 151.07-151.647Zm-59.83 306.31c15.794 6.166 32.405 9.499 49.295 10.638l-94.664 91.846a7.38 7.38 0 0 0-.664.736 31.965 31.965 0 0 1-5.242 5.272 31.863 31.863 0 0 1-44.926-5.152 31.863 31.863 0 0 1 5.152-44.926 31.974 31.974 0 0 1 6.276-3.899 7.38 7.38 0 0 0 .855-.472zm217.766 96.23h.058a7.38 7.38 0 0 0 .016 0c10.955 0 19.672 8.727 19.672 19.682 0 10.955-8.717 19.672-19.672 19.672s-19.68-8.717-19.68-19.672c0-10.928 8.68-19.644 19.606-19.682z" style="color:#f4f4f4;font-style:normal;font-variant:normal;font-weight:400;font-stretch:normal;font-size:medium;line-height:normal;font-family:sans-serif;font-variant-ligatures:normal;font-variant-position:normal;font-variant-caps:normal;font-variant-numeric:normal;font-variant-alternates:normal;font-variant-east-asian:normal;font-feature-settings:normal;font-variation-settings:normal;text-indent:0;text-align:start;text-decoration:none;text-decoration-line:none;text-decoration-style:solid;text-decoration-color:#f4f4f4;letter-spacing:normal;word-spacing:normal;text-transform:none;writing-mode:lr-tb;direction:ltr;text-orientation:mixed;dominant-baseline:auto;baseline-shift:baseline;text-anchor:start;white-space:normal;shape-padding:0;shape-margin:0;inline-size:0;clip-rule:nonzero;display:inline;overflow:visible;visibility:visible;isolation:auto;mix-blend-mode:normal;color-interpolation:sRGB;color-interpolation-filters:linearRGB;solid-color:#f4f4f4;solid-opacity:1;vector-effect:none;fill:#f4f4f4;fill-opacity:1;fill-rule:nonzero;stroke:none;stroke-width:14.7584;stroke-linecap:butt;stroke-linejoin:round;stroke-miterlimit:4;stroke-dasharray:none;stroke-dashoffset:0;stroke-opacity:1;color-rendering:auto;image-rendering:auto;shape-rendering:auto;text-rendering:auto;enable-background:accumulate;stop-color:#f4f4f4" transform="matrix(.10926 0 0 .09444 3.507 6.67)"/>
    <path d="M178.31 157.883a13.389 13.389 0 0 1-13.389 13.389 13.389 13.389 0 0 1-13.389-13.389 13.389 13.389 0 0 1 13.389-13.389 13.389 13.389 0 0 1 13.389 13.39z" style="fill:#f4f4f4;fill-opacity:1;stroke:none;stroke-width:5.14248;stroke-linecap:butt;stroke-linejoin:miter;stroke-miterlimit:4;stroke-dasharray:none;stroke-opacity:.996354" transform="matrix(.41296 0 0 .35694 -36.628 -30.934)"/>
</svg>
