<svg width="256" height="218" preserveAspectRatio="xMidYMid" xmlns="http://www.w3.org/2000/svg"><path d="M63.995 0 0 40.771l63.995 40.772L128 40.77zM192 0l-64 40.775 64 40.775 64-40.775zM0 122.321l63.995 40.772L128 122.32 63.995 81.55zM192 81.55l-64 40.775 64 40.774 64-40.774zM64 176.771l64.005 40.772L192 176.77 128.005 136z" fill="#f4f4f7"/><path style="fill:#f4f4f7;fill-opacity:1;stroke:#1b1d24;stroke-width:2.209;stroke-linecap:round;stroke-linejoin:bevel;stroke-miterlimit:10.2;paint-order:stroke markers fill" d="M230.315 176.771a38.315 31.99 0 0 1-38.286 31.99 38.315 31.99 0 0 1-38.344-31.942 38.315 31.99 0 0 1 38.23-32.038 38.315 31.99 0 0 1 38.4 31.895L192 176.77Z"/><path style="fill:none;stroke:#000;stroke-width:5.11692;stroke-linecap:round;stroke-linejoin:miter;stroke-miterlimit:4;stroke-dasharray:none;stroke-opacity:1" d="m177.022 191.983 34.256-27.567"/><path style="fill:none;stroke:#000;stroke-width:4.90792;stroke-linecap:round;stroke-linejoin:miter;stroke-miterlimit:4;stroke-dasharray:none;stroke-opacity:1" d="m177.149 165.903 34.309 25.323"/></svg>