<?xml version="1.0" encoding="UTF-8" standalone="no"?>
<svg
   viewBox="0 0 24 24"
   version="1.1"
   id="svg1299"
   sodipodi:docname="file.svg"
   inkscape:version="1.2.2 (b0a8486541, 2022-12-01)"
   xmlns:inkscape="http://www.inkscape.org/namespaces/inkscape"
   xmlns:sodipodi="http://sodipodi.sourceforge.net/DTD/sodipodi-0.dtd"
   xmlns="http://www.w3.org/2000/svg"
   xmlns:svg="http://www.w3.org/2000/svg">
  <defs
     id="defs1303" />
  <sodipodi:namedview
     id="namedview1301"
     pagecolor="#ffffff"
     bordercolor="#000000"
     borderopacity="0.25"
     inkscape:showpageshadow="2"
     inkscape:pageopacity="0.0"
     inkscape:pagecheckerboard="0"
     inkscape:deskcolor="#d1d1d1"
     showgrid="false"
     inkscape:zoom="29"
     inkscape:cx="12"
     inkscape:cy="12.017241"
     inkscape:window-width="1600"
     inkscape:window-height="899"
     inkscape:window-x="0"
     inkscape:window-y="-12"
     inkscape:window-maximized="1"
     inkscape:current-layer="svg1299" />
  <path
     d="M14,2H6C4.9,2 4,2.9 4,4V20C4,21.1 4.9,22 6,22H18C19.1,22 20,21.1 20,20V8L14,2M18,20H6V4H13V9H18V20Z"
     id="path1297" />
  <path
     style="fill:#ffffff;stroke-width:0.000137931;paint-order:stroke markers fill"
     d="M 5.5776033,21.930462 C 5.2100981,21.850628 4.9275088,21.688875 4.6173024,21.380789 4.3034369,21.069069 4.1511564,20.798694 4.0677324,20.405025 3.9913217,20.044451 3.9938582,3.8966293 4.0703765,3.5720069 4.1524725,3.2237218 4.3094807,2.9342786 4.5608622,2.667801 4.8409337,2.3709105 5.1573899,2.1782414 5.5153117,2.0867004 5.7800724,2.0189861 5.8900404,2.0172414 9.8933731,2.0172414 h 4.1064789 l 2.991454,2.991305 2.991453,2.991305 -6e-4,6.0862806 c -6.59e-4,6.689039 0.01067,6.326316 -0.211905,6.785829 -0.156804,0.323728 -0.582854,0.75015 -0.899713,0.900499 -0.464704,0.220501 -0.09227,0.209311 -6.887784,0.206959 -5.0784269,-0.0018 -6.2283437,-0.01055 -6.4051551,-0.04896 z M 18.017241,14.5 V 8.9827586 h -2.5 -2.5 v -2.5 -2.5 H 9.5 5.9827586 V 12 20.017241 H 12 18.017241 Z"
     id="path1305" />
</svg>
