<?xml version="1.0" encoding="UTF-8" standalone="no"?>
<svg
   viewBox="0 0 24 24"
   version="1.1"
   id="svg1314"
   sodipodi:docname="folder.svg"
   inkscape:version="1.2.2 (b0a8486541, 2022-12-01)"
   xmlns:inkscape="http://www.inkscape.org/namespaces/inkscape"
   xmlns:sodipodi="http://sodipodi.sourceforge.net/DTD/sodipodi-0.dtd"
   xmlns="http://www.w3.org/2000/svg"
   xmlns:svg="http://www.w3.org/2000/svg">
  <defs
     id="defs1318" />
  <sodipodi:namedview
     id="namedview1316"
     pagecolor="#ffffff"
     bordercolor="#000000"
     borderopacity="0.25"
     inkscape:showpageshadow="2"
     inkscape:pageopacity="0.0"
     inkscape:pagecheckerboard="0"
     inkscape:deskcolor="#d1d1d1"
     showgrid="false"
     inkscape:zoom="29"
     inkscape:cx="12"
     inkscape:cy="12.017241"
     inkscape:window-width="1600"
     inkscape:window-height="899"
     inkscape:window-x="0"
     inkscape:window-y="-12"
     inkscape:window-maximized="1"
     inkscape:current-layer="svg1314" />
  <path
     d="M20,18H4V8H20M20,6H12L10,4H4C2.89,4 2,4.89 2,6V18C2,19.1 2.9,20 4,20H20C21.1,20 22,19.1 22,18V8C22,6.89 21.1,6 20,6Z"
     id="path1312" />
  <path
     style="fill:#ffffff;stroke-width:0.000137931;paint-order:stroke markers fill"
     d="M 3.5776033,19.930462 C 3.2100981,19.850628 2.9275088,19.688875 2.6173024,19.380789 2.4128896,19.177773 2.3084107,19.040978 2.2274436,18.870341 2.0043217,18.400117 2.0154193,18.783648 2.0254061,11.88795 l 0.00908,-6.2672603 0.078503,-0.2312401 C 2.2199485,5.0743759 2.4934133,4.6760988 2.7336322,4.4855331 3.0083295,4.2676157 3.2109902,4.1645327 3.5201876,4.0854534 3.7762221,4.0199708 3.9112064,4.0172414 6.89367,4.0172414 h 3.106776 l 0.99889,0.9993359 0.998891,0.9993359 4.190541,0.00928 4.190542,0.00928 0.226626,0.077077 c 0.587196,0.1997108 1.082793,0.6953082 1.282504,1.2825044 l 0.07708,0.2266252 0.0092,5.2668652 c 0.01009,5.804001 0.01974,5.521636 -0.204325,5.984212 -0.156904,0.32393 -0.582855,0.750299 -0.899809,0.900693 -0.469242,0.222655 0.103818,0.209311 -8.887783,0.206959 -6.7630169,-0.0018 -8.2271957,-0.0103 -8.4051557,-0.04896 z M 20.017241,13 V 7.9827586 H 12 3.9827586 V 13 18.017241 H 12 20.017241 Z"
     id="path1320" />
</svg>
