<svg xmlns="http://www.w3.org/2000/svg" viewBox="0 0 330 330" style="enable-background:new 0 0 330 330" xml:space="preserve"><path fill="#fff" d="M300 175.799v-21.557c0-74.44-60.561-135-135-135s-135 60.56-135 135v21.557c-18.204 13.697-30 35.476-30 59.959 0 41.355 33.644 75 75 75 8.284 0 15-6.716 15-15v-120c0-8.284-6.716-15-15-15a74.98 74.98 0 0 0-15 1.51v-8.025c0-57.897 47.103-105 105-105s105 47.103 105 105v8.025a74.98 74.98 0 0 0-15-1.51c-8.284 0-15 6.716-15 15v120c0 8.284 6.716 15 15 15 41.355 0 75-33.645 75-75 0-24.484-11.796-46.262-30-59.959z"/></svg>