<?xml version="1.0" encoding="UTF-8" standalone="no"?>
<svg
   viewBox="0 0 24 24"
   version="1.1"
   id="svg1251"
   sodipodi:docname="launch.svg"
   inkscape:version="1.2.2 (b0a8486541, 2022-12-01)"
   xmlns:inkscape="http://www.inkscape.org/namespaces/inkscape"
   xmlns:sodipodi="http://sodipodi.sourceforge.net/DTD/sodipodi-0.dtd"
   xmlns="http://www.w3.org/2000/svg"
   xmlns:svg="http://www.w3.org/2000/svg">
  <defs
     id="defs1255" />
  <sodipodi:namedview
     id="namedview1253"
     pagecolor="#ffffff"
     bordercolor="#000000"
     borderopacity="0.25"
     inkscape:showpageshadow="2"
     inkscape:pageopacity="0.0"
     inkscape:pagecheckerboard="0"
     inkscape:deskcolor="#d1d1d1"
     showgrid="false"
     inkscape:zoom="29"
     inkscape:cx="12"
     inkscape:cy="12.017241"
     inkscape:window-width="1600"
     inkscape:window-height="899"
     inkscape:window-x="0"
     inkscape:window-y="-12"
     inkscape:window-maximized="1"
     inkscape:current-layer="svg1251" />
  <path
     d="M14,3V5H17.59L7.76,14.83L9.17,16.24L19,6.41V10H21V3M19,19H5V5H12V3H5C3.89,3 3,3.89 3,5V19C3,20.1 3.9,21 5,21H19C20.1,21 21,20.1 21,19V12H19V19Z"
     id="path1249" />
  <path
     style="fill:#ffffff;stroke-width:0.000137931;paint-order:stroke markers fill"
     d="M 4.5776033,20.930462 C 4.2100981,20.850628 3.9275088,20.688875 3.6173024,20.380789 3.4128896,20.177773 3.3084107,20.040978 3.2274436,19.870341 3.0032654,19.39789 3.015548,19.883297 3.0254667,11.888241 l 0.00902,-7.2675513 0.078503,-0.2312401 C 3.2199485,4.0743759 3.4934133,3.6760988 3.7336322,3.4855331 4.0083295,3.2676157 4.2109902,3.1645327 4.5201876,3.0854534 4.7775449,3.0196325 4.913015,3.0172414 8.3848262,3.0172414 H 11.982759 V 4 4.9827586 h -3.5000004 -3.5 V 12 19.017241 H 12 19.017241 v -3.5 -3.5 H 20 20.982759 l -6e-4,3.577587 c -6.59e-4,3.933848 0.0045,3.830427 -0.211905,4.277133 -0.156804,0.323728 -0.582854,0.75015 -0.899713,0.900499 -0.467272,0.22172 0.0057,0.209311 -7.887784,0.206959 -5.9207252,-0.0018 -7.2276894,-0.01041 -7.4051551,-0.04896 z"
     id="path1257" />
  <path
     style="fill:#ffffff;stroke-width:0.000137931;paint-order:stroke markers fill"
     d="M 8.482422,15.534359 7.7925816,14.844519 12.697992,9.9395007 c 2.697976,-2.69776 4.905421,-4.9166559 4.905434,-4.93088 1.2e-5,-0.014224 -0.806874,-0.025862 -1.793081,-0.025862 H 14.017241 V 4 3.0172414 H 17.5 20.982759 V 6.5 9.9827586 H 20 19.017241 V 8.1810797 6.3794008 L 14.094752,11.3018 9.1722623,16.224199 Z"
     id="path1259" />
</svg>
