<?xml version="1.0" encoding="UTF-8" standalone="no"?>
<svg
   fill="none"
   viewBox="0 0 16 20"
   version="1.1"
   id="svg3335"
   sodipodi:docname="lock.svg"
   inkscape:version="1.2.2 (b0a8486541, 2022-12-01)"
   xmlns:inkscape="http://www.inkscape.org/namespaces/inkscape"
   xmlns:sodipodi="http://sodipodi.sourceforge.net/DTD/sodipodi-0.dtd"
   xmlns="http://www.w3.org/2000/svg"
   xmlns:svg="http://www.w3.org/2000/svg">
  <defs
     id="defs3339" />
  <sodipodi:namedview
     id="namedview3337"
     pagecolor="#ffffff"
     bordercolor="#000000"
     borderopacity="0.25"
     inkscape:showpageshadow="2"
     inkscape:pageopacity="0.0"
     inkscape:pagecheckerboard="0"
     inkscape:deskcolor="#d1d1d1"
     showgrid="false"
     inkscape:lockguides="true"
     inkscape:zoom="34.2"
     inkscape:cx="2.6461988"
     inkscape:cy="10"
     inkscape:window-width="1600"
     inkscape:window-height="899"
     inkscape:window-x="0"
     inkscape:window-y="-13"
     inkscape:window-maximized="1"
     inkscape:current-layer="svg3335" />
  <path
     fill="#2F3039"
     d="M14 7h-1.5V4.5a4.5 4.5 0 1 0-9 0V7H2a2 2 0 0 0-2 2v9a2 2 0 0 0 2 2h12a2 2 0 0 0 2-2V9a2 2 0 0 0-2-2Zm-5 8a1 1 0 1 1-2 0v-3a1 1 0 1 1 2 0v3Zm1.5-8h-5V4.5a2.5 2.5 0 1 1 5 0V7Z"
     id="path3333" />
  <path
     style="fill:#ffffff;stroke:#fafafa;stroke-width:0.0701754;stroke-linecap:round;stroke-linejoin:round"
     d="M 1.7067113,19.968683 C 1.0503585,19.872259 0.49671947,19.460016 0.2016473,18.848003 0.00140137,18.43267 0.01193722,18.75009 0.02103015,13.406433 L 0.02923977,8.5818713 0.09742914,8.3918129 C 0.28163994,7.8783778 0.65055316,7.4492307 1.0964912,7.2296301 1.4951892,7.0332927 1.6009405,7.0184693 2.6064381,7.017976 l 0.881292,-4.321e-4 0.014243,-1.4839182 C 3.5132713,4.3564558 3.5258339,3.9951287 3.5627456,3.7856778 3.9043158,1.8474712 5.3379877,0.40877585 7.2660819,0.06936523 7.6139047,0.00813648 8.300048,0.00113347 8.6549708,0.05518975 10.335753,0.31118006 11.741625,1.4945146 12.263953,3.0929006 12.468488,3.7188032 12.5,4.0674909 12.5,5.7048523 v 1.3126916 h 0.887136 c 1.006136,0 1.157784,0.02197 1.548551,0.2243438 0.310142,0.1606196 0.675096,0.5329696 0.832272,0.8491392 0.228259,0.4591564 0.214269,0.083665 0.20512,5.5054641 l -0.0082,4.839182 -0.09147,0.237064 c -0.214993,0.557218 -0.631706,0.988188 -1.142344,1.181427 -0.392688,0.148604 -0.172124,0.143977 -6.734025,0.14125 -3.369152,-0.0014 -6.1998161,-0.01343 -6.2903647,-0.02673 z M 8.360062,15.934101 c 0.3236319,-0.121086 0.5713129,-0.431551 0.6292713,-0.788784 0.039009,-0.240438 0.04133,-3.048832 0.00271,-3.284629 -0.057,-0.34805 -0.2440553,-0.605202 -0.5496772,-0.755659 -0.1747339,-0.08602 -0.2220211,-0.09626 -0.444679,-0.09626 -0.2084046,0 -0.2761619,0.01266 -0.4142979,0.07743 C 7.382181,11.180529 7.2075576,11.349886 7.098948,11.55602 L 7.01754,11.710527 7.00935,13.454166 c -0.00814,1.733009 -0.0078,1.744682 0.055924,1.914989 0.085161,0.227612 0.3283802,0.47451 0.551996,0.560344 0.2173181,0.08342 0.5270049,0.08534 0.7427833,0.0046 z M 10.504787,5.5628655 C 10.494829,4.1673275 10.49177,4.0986772 10.429538,3.874269 9.9711906,2.2214715 8.1072129,1.4842387 6.6628365,2.3844789 6.2392094,2.648514 5.8560877,3.1074099 5.6753664,3.5672515 5.506048,3.9980795 5.5034868,4.0253135 5.4902339,5.5359254 c -0.00675,0.769174 -0.00509,1.4172003 0.00368,1.4400585 0.013612,0.035472 0.3825403,0.04156 2.5186009,0.04156 h 2.5026522 z"
     id="path3953" />
</svg>
