<?xml version="1.0" encoding="UTF-8" standalone="no"?>
<svg
   width="24"
   height="24"
   viewBox="0 0 24 24"
   fill="none"
   stroke="currentColor"
   stroke-width="2"
   stroke-linecap="round"
   stroke-linejoin="round"
   version="1.1"
   id="svg10"
   sodipodi:docname="maximize.svg"
   inkscape:version="1.2.2 (b0a8486541, 2022-12-01)"
   xmlns:inkscape="http://www.inkscape.org/namespaces/inkscape"
   xmlns:sodipodi="http://sodipodi.sourceforge.net/DTD/sodipodi-0.dtd"
   xmlns="http://www.w3.org/2000/svg"
   xmlns:svg="http://www.w3.org/2000/svg">
  <defs
     id="defs14" />
  <sodipodi:namedview
     id="namedview12"
     pagecolor="#ffffff"
     bordercolor="#000000"
     borderopacity="0.25"
     inkscape:showpageshadow="2"
     inkscape:pageopacity="0.0"
     inkscape:pagecheckerboard="0"
     inkscape:deskcolor="#d1d1d1"
     showgrid="false"
     inkscape:zoom="29.083333"
     inkscape:cx="12"
     inkscape:cy="12.017192"
     inkscape:window-width="1600"
     inkscape:window-height="899"
     inkscape:window-x="0"
     inkscape:window-y="-13"
     inkscape:window-maximized="1"
     inkscape:current-layer="svg10" />
  <path
     d="m21 21-6-6m6 6v-4.8m0 4.8h-4.8"
     id="path2" />
  <path
     d="M3 16.2V21m0 0h4.8M3 21l6-6"
     id="path4" />
  <path
     d="M21 7.8V3m0 0h-4.8M21 3l-6 6"
     id="path6" />
  <path
     d="M3 7.8V3m0 0h4.8M3 3l6 6"
     id="path8" />
  <path
     style="fill:#ffffff;stroke:#030303;stroke-width:0.259;stroke-linecap:round;stroke-linejoin:round;stroke-dasharray:none"
     d="M 8.7507163,9.9584472 C 8.493066,9.8736093 8.2689239,9.6659426 6.2064052,7.6011548 5.0056015,6.3990296 4.0114754,5.4154728 3.9972362,5.4154728 c -0.014239,0 -0.02589,0.5926642 -0.02589,1.3170313 V 8.049535 L 3.8825021,8.227823 C 3.511664,8.9719981 2.4503614,8.9575901 2.101641,8.2036466 2.0292449,8.0471244 2.0286533,8.0243859 2.0286533,5.3982808 c 0,-2.6261052 5.916e-4,-2.6488435 0.072988,-2.8053659 C 2.1947813,2.3915428 2.3915431,2.1947813 2.5929152,2.101641 2.7494376,2.029245 2.7721759,2.028653 5.3982811,2.028653 H 8.0458456 L 8.2421061,2.12503 C 8.6690527,2.3346888 8.8752667,2.8183722 8.7384117,3.2891365 8.6688395,3.5284564 8.4665526,3.7635381 8.227823,3.8825021 L 8.049535,3.9713467 H 6.7325041 c -0.7243671,0 -1.3170313,0.01165 -1.3170313,0.02589 0,0.014239 0.9835829,1.0083653 2.1857395,2.209169 C 9.1996088,7.8030028 9.811494,8.4358824 9.8782831,8.5616046 9.9989244,8.7886979 10.00759,9.1670472 9.8976478,9.407085 9.8050157,9.6093291 9.6071357,9.8066826 9.4091897,9.8942434 9.2396768,9.9692269 8.8876852,10.003548 8.7507163,9.9584472 Z"
     id="path867" />
  <path
     style="fill:#ffffff;stroke:#030303;stroke-width:0.259;stroke-linecap:round;stroke-linejoin:round;stroke-dasharray:none"
     d="M 14.7051,9.93959 C 14.123552,9.749979 13.84993,9.0943833 14.127509,8.5556888 14.19011,8.434201 14.799183,7.80421 16.398788,6.2064052 c 1.202156,-1.2008037 2.185739,-2.1949298 2.185739,-2.209169 0,-0.014239 -0.592664,-0.02589 -1.317031,-0.02589 H 15.950465 L 15.772177,3.8825021 C 15.028002,3.511664 15.04241,2.4503614 15.796353,2.101641 c 0.156523,-0.072396 0.179261,-0.072988 2.805366,-0.072988 2.626105,0 2.648844,5.916e-4 2.805366,0.072988 0.201372,0.09314 0.398134,0.2899018 0.491274,0.4912739 0.07206,0.1557869 0.07311,0.1906821 0.08244,2.7334679 0.0081,2.2091458 0.0021,2.6009523 -0.04221,2.7533592 -0.247854,0.8525856 -1.422422,0.9480949 -1.821086,0.148081 L 20.028653,8.049535 V 6.7325041 c 0,-0.7243671 -0.01165,-1.3170313 -0.02589,-1.3170313 -0.01424,0 -1.008366,0.9835829 -2.209169,2.1857395 C 16.157053,9.2395967 15.56743,9.8090383 15.439064,9.875149 15.230807,9.982406 14.92009,10.009687 14.7051,9.93959 Z"
     id="path869" />
  <path
     style="fill:#ffffff;stroke:#030303;stroke-width:0.259;stroke-linecap:round;stroke-linejoin:round;stroke-dasharray:none"
     d="M 15.908538,21.937942 C 15.061794,21.671245 14.97516,20.514668 15.772177,20.117498 l 0.178288,-0.08885 h 1.317031 c 0.724367,0 1.317031,-0.01165 1.317031,-0.02589 0,-0.01424 -0.983583,-1.008366 -2.185739,-2.209169 -1.598397,-1.596598 -2.210282,-2.229477 -2.277071,-2.3552 -0.120642,-0.227093 -0.129307,-0.605442 -0.01937,-0.84548 0.09224,-0.201384 0.289179,-0.398325 0.490563,-0.490563 0.240038,-0.109942 0.618387,-0.101277 0.84548,0.01937 0.125723,0.06679 0.758602,0.678674 2.3552,2.277071 1.200803,1.202156 2.194929,2.185739 2.209169,2.185739 0.01424,0 0.02589,-0.592664 0.02589,-1.317031 v -1.317031 l 0.08885,-0.178288 c 0.398664,-0.800014 1.573232,-0.704504 1.821086,0.148081 0.04431,0.152407 0.05031,0.544214 0.04221,2.753359 -0.0093,2.542786 -0.01038,2.577681 -0.08244,2.733468 -0.09314,0.201372 -0.289902,0.398134 -0.491274,0.491274 -0.156003,0.07216 -0.18738,0.07306 -2.75379,0.07971 -2.110068,0.0055 -2.623835,-0.002 -2.744757,-0.04013 z"
     id="path871" />
  <path
     style="fill:#ffffff;stroke:#030303;stroke-width:0.259;stroke-linecap:round;stroke-linejoin:round;stroke-dasharray:none"
     d="M 2.7050997,21.937942 C 2.3728024,21.833279 2.1179459,21.556004 2.0454035,21.220215 c -0.026761,-0.123872 -0.035047,-0.943319 -0.02752,-2.721648 0.010622,-2.509502 0.011771,-2.546577 0.083757,-2.702214 0.3487204,-0.753943 1.410023,-0.768351 1.7808611,-0.02418 l 0.088845,0.178288 v 1.317031 c 0,0.724367 0.01165,1.317031 0.02589,1.317031 0.014239,0 1.0083653,-0.983583 2.209169,-2.185739 1.5965976,-1.598397 2.2294772,-2.210282 2.3551994,-2.277071 0.1419046,-0.07539 0.2169424,-0.09136 0.4297994,-0.09149 0.5869358,-3.53e-4 0.9787179,0.391429 0.9783652,0.978365 -1.376e-4,0.212857 -0.0161,0.287895 -0.091486,0.429799 -0.066789,0.125723 -0.6786743,0.758602 -2.2770708,2.3552 -1.2021566,1.200803 -2.1857395,2.194929 -2.1857395,2.209169 0,0.01424 0.5926642,0.02589 1.3170313,0.02589 H 8.049535 l 0.178288,0.08885 c 0.7285317,0.363043 0.7369802,1.40258 0.014283,1.757472 l -0.1962605,0.09638 -2.5959886,0.0067 c -2.1100676,0.0055 -2.6238352,-0.002 -2.744757,-0.04013 z"
     id="path873" />
</svg>
