<?xml version="1.0" encoding="UTF-8" standalone="no"?>
<svg
   width="48"
   height="48"
   version="1.1"
   id="svg1269"
   sodipodi:docname="music_note.svg"
   inkscape:version="1.2.2 (b0a8486541, 2022-12-01)"
   xmlns:inkscape="http://www.inkscape.org/namespaces/inkscape"
   xmlns:sodipodi="http://sodipodi.sourceforge.net/DTD/sodipodi-0.dtd"
   xmlns="http://www.w3.org/2000/svg"
   xmlns:svg="http://www.w3.org/2000/svg">
  <defs
     id="defs1273" />
  <sodipodi:namedview
     id="namedview1271"
     pagecolor="#ffffff"
     bordercolor="#000000"
     borderopacity="0.25"
     inkscape:showpageshadow="2"
     inkscape:pageopacity="0.0"
     inkscape:pagecheckerboard="0"
     inkscape:deskcolor="#d1d1d1"
     showgrid="false"
     inkscape:zoom="14.5"
     inkscape:cx="24"
     inkscape:cy="24.034483"
     inkscape:window-width="1600"
     inkscape:window-height="899"
     inkscape:window-x="0"
     inkscape:window-y="-12"
     inkscape:window-maximized="1"
     inkscape:current-layer="svg1269" />
  <path
     d="M19.65 42q-3.15 0-5.325-2.175Q12.15 37.65 12.15 34.5q0-3.15 2.175-5.325Q16.5 27 19.65 27q1.4 0 2.525.4t1.975 1.1V6h11.7v6.75h-8.7V34.5q0 3.15-2.175 5.325Q22.8 42 19.65 42Z"
     id="path1267" />
  <path
     style="fill:#ffffff;stroke-width:0.000275862;paint-order:stroke markers fill"
     d="M 18.37386,41.86332 C 16.8537,41.607223 15.640467,40.99573 14.510376,39.916047 13.868047,39.30237 13.512583,38.85207 13.102687,38.132795 c -1.287014,-2.258416 -1.202564,-5.442889 0.201917,-7.613994 1.151119,-1.779449 2.87947,-2.961871 4.894699,-3.348627 0.65158,-0.125049 2.075486,-0.144036 2.742801,-0.03657 0.974554,0.156939 1.978358,0.552056 2.720472,1.07083 0.246114,0.172047 0.461511,0.312811 0.478659,0.312811 0.01715,0 0.03118,-5.05862 0.03118,-11.241379 V 6.0344828 H 30 35.827586 v 3.3448275 3.3448277 h -4.342695 -4.342694 l -0.0227,11.431034 c -0.02256,11.359528 -0.02361,11.434702 -0.168193,12.017242 -0.291321,1.17379 -0.716254,2.060533 -1.407544,2.93724 -0.663666,0.841672 -1.651914,1.651147 -2.591537,2.122729 -1.248298,0.626501 -3.094482,0.880921 -4.578359,0.630937 z"
     id="path1275" />
</svg>
