<?xml version="1.0" encoding="UTF-8" standalone="no"?>
<!-- Generator: Adobe Illustrator 19.0.0, SVG Export Plug-In . SVG Version: 6.00 Build 0)  -->

<svg
   version="1.1"
   id="Layer_1"
   x="0px"
   y="0px"
   viewBox="0 0 512 512"
   style="enable-background:new 0 0 512 512;"
   xml:space="preserve"
   sodipodi:docname="ontop.svg"
   inkscape:version="1.1.2 (0a00cf5339, 2022-02-04)"
   xmlns:inkscape="http://www.inkscape.org/namespaces/inkscape"
   xmlns:sodipodi="http://sodipodi.sourceforge.net/DTD/sodipodi-0.dtd"
   xmlns="http://www.w3.org/2000/svg"
   xmlns:svg="http://www.w3.org/2000/svg"><defs
   id="defs45" /><sodipodi:namedview
   id="namedview43"
   pagecolor="#505050"
   bordercolor="#eeeeee"
   borderopacity="1"
   inkscape:pageshadow="0"
   inkscape:pageopacity="0"
   inkscape:pagecheckerboard="0"
   showgrid="false"
   inkscape:zoom="1.7050781"
   inkscape:cx="255.70676"
   inkscape:cy="256"
   inkscape:window-width="2560"
   inkscape:window-height="1390"
   inkscape:window-x="0"
   inkscape:window-y="50"
   inkscape:window-maximized="1"
   inkscape:current-layer="Layer_1" />
<g
   id="g10"
   style="stroke:#000000;stroke-width:15;stroke-miterlimit:4;stroke-dasharray:none;stroke-opacity:1"
   transform="matrix(0.99616024,0,0,0.97158875,0.27965907,7.1106672)">
	<g
   id="g8"
   style="stroke:#000000;stroke-width:15;stroke-miterlimit:4;stroke-dasharray:none;stroke-opacity:1">
		<g
   id="g6"
   style="stroke:#000000;stroke-width:15;stroke-miterlimit:4;stroke-dasharray:none;stroke-opacity:1">
			<path
   d="m 234.667,85.333 c -11.776,0 -21.333,9.557 -21.333,21.333 0,11.776 9.557,21.334 21.333,21.334 11.776,0 21.333,-9.557 21.333,-21.333 0,-11.776 -9.557,-21.334 -21.333,-21.334 z"
   id="path2"
   style="stroke:#000000;stroke-width:15;stroke-miterlimit:4;stroke-dasharray:none;stroke-opacity:1" />
			<path
   d="M 384,128 C 384,57.317 326.683,0 256,0 185.317,0 128,57.317 128,128 c 0,63.414 46.136,116.06 106.667,126.22 v 236.447 c 0,11.782 9.551,21.333 21.333,21.333 11.782,0 21.333,-9.551 21.333,-21.333 V 254.22 C 337.864,244.06 384,191.414 384,128 Z m -128,85.333 c -47.119,0 -85.333,-38.214 -85.333,-85.333 0,-47.119 38.214,-85.333 85.333,-85.333 47.119,0 85.333,38.214 85.333,85.333 0,47.119 -38.214,85.333 -85.333,85.333 z"
   id="path4"
   style="stroke:#000000;stroke-width:15;stroke-miterlimit:4;stroke-dasharray:none;stroke-opacity:1" />
		</g>
	</g>
</g>
<g
   id="g12">
</g>
<g
   id="g14">
</g>
<g
   id="g16">
</g>
<g
   id="g18">
</g>
<g
   id="g20">
</g>
<g
   id="g22">
</g>
<g
   id="g24">
</g>
<g
   id="g26">
</g>
<g
   id="g28">
</g>
<g
   id="g30">
</g>
<g
   id="g32">
</g>
<g
   id="g34">
</g>
<g
   id="g36">
</g>
<g
   id="g38">
</g>
<g
   id="g40">
</g>
</svg>
