<svg xmlns="http://www.w3.org/2000/svg" xml:space="preserve" style="enable-background:new 0 0 512 512" viewBox="0 0 512 512">
    <g style="stroke:#f4f4f4;stroke-width:15;stroke-miterlimit:4;stroke-dasharray:none;stroke-opacity:1">
        <path d="M234.667 85.333c-11.776 0-21.333 9.557-21.333 21.333 0 11.776 9.557 21.334 21.333 21.334 11.776 0 21.333-9.557 21.333-21.333 0-11.776-9.557-21.334-21.333-21.334z" style="stroke:#f4f4f4;stroke-width:15;stroke-miterlimit:4;stroke-dasharray:none;stroke-opacity:1" transform="matrix(.99616 0 0 .97159 .28 7.11)"/>
        <path d="M384 128C384 57.317 326.683 0 256 0c-70.683 0-128 57.317-128 128 0 63.414 46.136 116.06 106.667 126.22v236.447c0 11.782 9.551 21.333 21.333 21.333 11.782 0 21.333-9.551 21.333-21.333V254.22C337.864 244.06 384 191.414 384 128Zm-128 85.333c-47.119 0-85.333-38.214-85.333-85.333S208.881 42.667 256 42.667 341.333 80.881 341.333 128 303.119 213.333 256 213.333z" style="stroke:#f4f4f4;stroke-width:15;stroke-miterlimit:4;stroke-dasharray:none;stroke-opacity:1" transform="matrix(.99616 0 0 .97159 .28 7.11)"/>
    </g>
    <path d="M251.882 14.619c-19.022.083-37.874 5.521-54.645 14.344-31.187 16.541-54.134 47.71-60.211 82.535-2.3 13.453-1.82 27.314.005 40.795 6.944 37.192 33.03 70.133 67.736 85.24 11.648 5.476 24.201 8.544 36.857 10.587v231.917c8.844.7 18.227.1 27.279.3.7-9.822.1-20.182.3-30.211V248.119c17.754-2.756 35.315-8.106 50.529-17.886 30.118-18.591 51.516-51.186 54.9-86.597 3.48-30.44-6.073-61.97-25.75-85.443-23.058-28.191-59.491-44.94-95.943-43.581l-.586.004zm3.134 26.894c28.072-.25 56.076 12.682 73.363 34.989 19.799 24.764 25.169 60.486 12.123 89.574-13.601 32.102-46.941 54.87-81.869 55.237-33.243 1.849-66.736-16.31-83.438-45.125-10.323-16.742-13.6-37.136-11.459-56.492 4.169-31.588 26.558-59.762 56.2-71.407 11.124-4.535 23.088-6.828 35.08-6.776z" style="fill:#f4f4f4;stroke:#f4f4f4;stroke-width:2.76292;stroke-linecap:round;stroke-linejoin:round"/>
    <path d="M233.641 97.354c-8.089.017-14.855 8.138-13.04 16.113 1.362 8.608 12.454 13.471 19.926 9.158 8.31-3.847 9.785-16.586 2.448-22.138-2.585-2.155-5.974-3.282-9.334-3.133zm7.983 384.443c-1.2 8.51 6.822 17.01 15.484 15.295 5.838-.49 10.483-5.093 11.702-10.714.365-1.842 1.458-5.732-1.667-4.882-8.46.2-17.269-.4-25.519.301z" style="fill:#f4f4f4;stroke:#f4f4f4;stroke-width:2.76292;stroke-linecap:round;stroke-linejoin:round"/>
</svg>
