<svg xmlns="http://www.w3.org/2000/svg" width="192" height="192" fill="#f4f4f4" style="--darkreader-inline-fill:#f4f4f4" viewBox="0 0 256 256">
    <path d="M55.333 40.005a7.333 7.333 0 0 1 7.334 7.334v67.558L172.39 47.889a14.667 14.667 0 0 1 22.275 12.558v135.116a14.575 14.575 0 0 1-7.516 12.834 14.117 14.117 0 0 1-7.15 1.833 14.85 14.85 0 0 1-7.609-2.108L62.667 141.114v67.558a7.333 7.333 0 0 1-14.667 0V47.339a7.333 7.333 0 0 1 7.333-7.334z" style="stroke-width:.916665"/>
    <path fill="none" d="M0 0h256v256H0z"/>
</svg>
