<?xml version="1.0" encoding="UTF-8" standalone="no"?>
<svg
   width="192"
   height="192"
   fill="#000000"
   viewBox="0 0 256 256"
   style="--darkreader-inline-fill: #000000;"
   data-darkreader-inline-fill=""
   version="1.1"
   id="svg296"
   sodipodi:docname="previous.svg"
   inkscape:version="1.2.1 (9c6d41e410, 2022-07-14)"
   xmlns:inkscape="http://www.inkscape.org/namespaces/inkscape"
   xmlns:sodipodi="http://sodipodi.sourceforge.net/DTD/sodipodi-0.dtd"
   xmlns="http://www.w3.org/2000/svg"
   xmlns:svg="http://www.w3.org/2000/svg">
  <defs
     id="defs300" />
  <sodipodi:namedview
     id="namedview298"
     pagecolor="#505050"
     bordercolor="#eeeeee"
     borderopacity="1"
     inkscape:showpageshadow="0"
     inkscape:pageopacity="0"
     inkscape:pagecheckerboard="0"
     inkscape:deskcolor="#505050"
     showgrid="false"
     inkscape:zoom="5.3489583"
     inkscape:cx="96.093476"
     inkscape:cy="96.093476"
     inkscape:window-width="1266"
     inkscape:window-height="1380"
     inkscape:window-x="1285"
     inkscape:window-y="50"
     inkscape:window-maximized="0"
     inkscape:current-layer="svg296" />
  <path
     d="m 55.333322,40.005333 a 7.333322,7.333322 0 0 1 7.333322,7.333322 V 114.89688 L 172.39147,47.888654 a 14.666644,14.666644 0 0 1 22.27497,12.558314 V 195.56342 a 14.574977,14.574977 0 0 1 -7.51666,12.83332 14.116645,14.116645 0 0 1 -7.14998,1.83333 14.849977,14.849977 0 0 1 -7.60833,-2.10833 L 62.666644,141.11351 v 67.55823 A 7.333322,7.333322 0 0 1 48,208.67174 V 47.338655 a 7.333322,7.333322 0 0 1 7.333322,-7.333322 z"
     id="path294"
     style="stroke-width:0.916665" />
  <rect
     width="256"
     height="256"
     fill="none"
     id="rect292" />
</svg>
