<?xml version="1.0" encoding="UTF-8" standalone="no"?>
<svg
   version="1.1"
   width="24"
   height="24"
   viewBox="0 0 24 24"
   id="svg1233"
   sodipodi:docname="quit.svg"
   inkscape:version="1.2.2 (b0a8486541, 2022-12-01)"
   xmlns:inkscape="http://www.inkscape.org/namespaces/inkscape"
   xmlns:sodipodi="http://sodipodi.sourceforge.net/DTD/sodipodi-0.dtd"
   xmlns="http://www.w3.org/2000/svg"
   xmlns:svg="http://www.w3.org/2000/svg">
  <defs
     id="defs1237" />
  <sodipodi:namedview
     id="namedview1235"
     pagecolor="#ffffff"
     bordercolor="#000000"
     borderopacity="0.25"
     inkscape:showpageshadow="2"
     inkscape:pageopacity="0.0"
     inkscape:pagecheckerboard="0"
     inkscape:deskcolor="#d1d1d1"
     showgrid="false"
     inkscape:zoom="29"
     inkscape:cx="12"
     inkscape:cy="12.017241"
     inkscape:window-width="1600"
     inkscape:window-height="899"
     inkscape:window-x="0"
     inkscape:window-y="-12"
     inkscape:window-maximized="1"
     inkscape:current-layer="svg1233" />
  <path
     d="M16.56,5.44L15.11,6.89C16.84,7.94 18,9.83 18,12A6,6 0 0,1 12,18A6,6 0 0,1 6,12C6,9.83 7.16,7.94 8.88,6.88L7.44,5.44C5.36,6.88 4,9.28 4,12A8,8 0 0,0 12,20A8,8 0 0,0 20,12C20,9.28 18.64,6.88 16.56,5.44M13,3H11V13H13"
     id="path1231" />
  <path
     style="fill:#ffffff;stroke-width:0.000137931;paint-order:stroke markers fill"
     d="M 11.017241,8 V 3.0172414 H 12 12.982759 V 8 12.982759 H 12 11.017241 Z"
     id="path1239" />
  <path
     style="fill:#ffffff;stroke-width:0.000137931;paint-order:stroke markers fill"
     d="M 11.109149,19.932483 C 9.2569886,19.696586 7.6457683,18.916491 6.3646387,17.635361 4.8009038,16.071626 3.9546377,13.942682 4.0286051,11.758621 4.0999636,9.6515966 4.939134,7.7582887 6.4523978,6.2901419 6.7702708,5.9817461 7.2540586,5.57626 7.392593,5.5021186 7.4427421,5.4752798 7.5730907,5.589812 8.1531541,6.1703938 L 8.8531941,6.871059 8.6334934,7.0189013 C 6.917191,8.1738465 5.903071,10.174101 5.9944623,12.224138 c 0.072195,1.619443 0.6899311,2.998186 1.8385208,4.103448 0.4798217,0.461722 0.913081,0.769137 1.4773617,1.04825 0.9465942,0.468219 1.9171352,0.676644 2.9310342,0.629443 0.939636,-0.04374 1.651746,-0.228669 2.482759,-0.644741 0.581743,-0.291268 0.996245,-0.59666 1.517992,-1.118408 0.533465,-0.533464 0.832242,-0.942737 1.133337,-1.552475 0.303028,-0.613655 0.471613,-1.136852 0.577774,-1.793103 0.06503,-0.402021 0.05703,-1.473254 -0.01405,-1.879721 C 17.718771,9.7563452 17.132476,8.6353083 16.226149,7.7413793 15.92455,7.4439061 15.443457,7.0590584 15.189655,6.9122419 15.149363,6.8889339 15.294794,6.7251478 15.847679,6.1711713 l 0.709749,-0.7111498 0.290102,0.2182651 c 0.159557,0.1200458 0.459428,0.3811962 0.666381,0.5803341 1.282256,1.2338322 2.068903,2.7267427 2.371151,4.5000003 0.10198,0.598309 0.110649,1.761757 0.0176,2.362069 -0.412407,2.660674 -2.019733,4.872088 -4.385421,6.033611 -0.740793,0.363721 -1.439266,0.587342 -2.275862,0.728636 -0.542898,0.09169 -1.607162,0.116421 -2.13223,0.04955 z"
     id="path1241" />
</svg>
