<svg xmlns="http://www.w3.org/2000/svg" width="512" height="512" viewBox="0 0 135.467 135.467">
    <g style="fill:#f4f4f7;fill-opacity:1;stroke:#3c3f4c;stroke-width:1.00012;stroke-linecap:round;stroke-dasharray:none;stroke-opacity:1;paint-order:stroke markers fill">
        <path d="M44.981 124.184a3.015 3.015 0 0 0-3.022 3.022v25.769h11.127v15.212H41.96v25.769a3.015 3.015 0 0 0 3.022 3.022h129.424a3.015 3.015 0 0 0 3.021-3.022v-25.769H166.3v-15.212h11.127v-25.769a3.015 3.015 0 0 0-3.022-3.022zm54.614 16.536h20.195v39.232H99.595Zm33.343.245h20.194v39.232h-20.194Zm-66.685.245h20.194v39.232H66.253Zm-24.294 65.738v13.4h38.148v-13.4zm46.012 0v13.4h89.455v-13.4z" style="fill:#f4f4f7;fill-opacity:1;stroke:#3c3f4c;stroke-width:1.00012;stroke-linecap:round;stroke-linejoin:round;stroke-miterlimit:4;stroke-dasharray:none;stroke-opacity:1;paint-order:stroke markers fill" transform="matrix(.75651 0 0 .61941 -11.338 -39.117)"/>
    </g>
    <path d="M82.5 143.183c-6.171 2.384-5.439 8.197-5.134 13.715.2 17.8-.4 35.933.3 53.527h31.147v35.613c-10.438.208-21.215-.405-31.447.3.427 20.81-.883 41.734.774 62.481 2.323 5.96 10.21 3.456 15.082 4.023 121.898.589 243.835.467 365.713.43 6.064-2.807 6.008-8.52 5.536-14.352-.048-17.585.72-35.503.167-52.882h-32.175v-35.613c10.758-.201 21.848.4 32.4-.3-.519-20.486 1.123-41.13-1.145-61.524-.224-4.487-4.759-5.44-8.423-4.807-124.197-1.21-248.406-.458-372.608-.675zm188.138 38.654h28.765v91.837h-57.53v-91.837h28.765zm95.295 0h28.765v91.837h-57.53v-91.837h28.765zm-190.59.953h28.765v91.836h-57.53V182.79h28.765zM77.366 336.868c.2 10.223-.4 20.778.3 30.794 36.27-.2 72.872.4 108.935-.3-.2-10.223.4-20.778-.3-30.794-36.269.2-72.873-.399-108.935.3zm131.507 0c.2 10.223-.4 20.778.3 30.794h255.39c.5-10.074.5-21.02 0-31.094h-255.39z" style="fill:#f4f4f4;stroke:#f4f4f4;stroke-width:4.71100001;stroke-linecap:round;stroke-linejoin:round;stroke-dasharray:none;stroke-opacity:1" transform="scale(.26458)"/>
</svg>
