<?xml version="1.0" encoding="UTF-8" standalone="no"?>
<svg
   viewBox="0 0 24 24"
   version="1.1"
   id="svg1284"
   sodipodi:docname="refresh.svg"
   inkscape:version="1.2.2 (b0a8486541, 2022-12-01)"
   xmlns:inkscape="http://www.inkscape.org/namespaces/inkscape"
   xmlns:sodipodi="http://sodipodi.sourceforge.net/DTD/sodipodi-0.dtd"
   xmlns="http://www.w3.org/2000/svg"
   xmlns:svg="http://www.w3.org/2000/svg">
  <defs
     id="defs1288" />
  <sodipodi:namedview
     id="namedview1286"
     pagecolor="#ffffff"
     bordercolor="#000000"
     borderopacity="0.25"
     inkscape:showpageshadow="2"
     inkscape:pageopacity="0.0"
     inkscape:pagecheckerboard="0"
     inkscape:deskcolor="#d1d1d1"
     showgrid="false"
     inkscape:zoom="29"
     inkscape:cx="12"
     inkscape:cy="12.017241"
     inkscape:window-width="1600"
     inkscape:window-height="899"
     inkscape:window-x="0"
     inkscape:window-y="-12"
     inkscape:window-maximized="1"
     inkscape:current-layer="svg1284" />
  <path
     d="M17.65,6.35C16.2,4.9 14.21,4 12,4A8,8 0 0,0 4,12A8,8 0 0,0 12,20C15.73,20 18.84,17.45 19.73,14H17.65C16.83,16.33 14.61,18 12,18A6,6 0 0,1 6,12A6,6 0 0,1 12,6C13.66,6 15.14,6.69 16.22,7.78L13,11H20V4L17.65,6.35Z"
     id="path1282" />
  <path
     style="fill:#ffffff;stroke-width:0.000137931;paint-order:stroke markers fill"
     d="M 11.109149,19.932503 C 9.256759,19.696479 7.6457631,18.916486 6.3646387,17.635361 5.2770581,16.547781 4.49304,15.108257 4.1927438,13.647579 3.6444816,10.980762 4.4478466,8.2857397 6.3637136,6.3646963 7.9192552,4.8049516 10.058561,3.9546798 12.241379,4.0286051 c 1.953784,0.066169 3.818028,0.8359247 5.182548,2.1399002 l 0.21703,0.2074003 1.170901,-1.1705213 1.170901,-1.1705212 V 7.508811 10.982759 H 16.50876 13.034761 L 14.63807,9.3768186 16.241379,7.7708783 16.000803,7.5485052 C 15.17441,6.7846421 14.133065,6.2703498 13,6.0664896 12.566485,5.9884919 11.555182,5.9783626 11.103448,6.0474936 10.389878,6.1566948 9.5659183,6.4475684 8.9544814,6.8061205 8.1256393,7.2921609 7.2907735,8.1281266 6.8021391,8.9612983 6.4476272,9.5657776 6.1561387,10.393238 6.0475261,11.103448 c -0.059319,0.387882 -0.059865,1.421632 -9.479e-4,1.793104 0.2108923,1.329668 0.8216334,2.502672 1.7864156,3.431034 0.9175224,0.882886 2.0066641,1.42442 3.2704542,1.626107 0.357333,0.05703 1.438701,0.05671 1.793104,-5.27e-4 2.113457,-0.341321 3.826709,-1.685639 4.65342,-3.651348 l 0.112432,-0.267336 1.024734,-0.0091 c 0.965599,-0.0086 1.02367,-0.0056 1.006292,0.05172 -0.265431,0.875963 -0.518308,1.457517 -0.907012,2.085904 -0.625076,1.01051 -1.467011,1.878791 -2.44159,2.517993 -0.95048,0.623396 -2.078654,1.053899 -3.189656,1.217151 -0.513761,0.07549 -1.582446,0.09345 -2.046023,0.03439 z"
     id="path1290" />
</svg>
