<?xml version="1.0" encoding="UTF-8" standalone="no"?>
<svg
   width="48"
   height="48"
   version="1.1"
   id="svg1152"
   sodipodi:docname="search.svg"
   inkscape:version="1.2.2 (b0a8486541, 2022-12-01)"
   xmlns:inkscape="http://www.inkscape.org/namespaces/inkscape"
   xmlns:sodipodi="http://sodipodi.sourceforge.net/DTD/sodipodi-0.dtd"
   xmlns="http://www.w3.org/2000/svg"
   xmlns:svg="http://www.w3.org/2000/svg">
  <defs
     id="defs1156" />
  <sodipodi:namedview
     id="namedview1154"
     pagecolor="#ffffff"
     bordercolor="#000000"
     borderopacity="0.25"
     inkscape:showpageshadow="2"
     inkscape:pageopacity="0.0"
     inkscape:pagecheckerboard="0"
     inkscape:deskcolor="#d1d1d1"
     showgrid="false"
     inkscape:zoom="14.5"
     inkscape:cx="24"
     inkscape:cy="24.034483"
     inkscape:window-width="1600"
     inkscape:window-height="899"
     inkscape:window-x="0"
     inkscape:window-y="-12"
     inkscape:window-maximized="1"
     inkscape:current-layer="svg1152" />
  <path
     d="M39.8 41.95 26.65 28.8q-1.5 1.3-3.5 2.025-2 .725-4.25.725-5.4 0-9.15-3.75T6 18.75q0-5.3 3.75-9.05 3.75-3.75 9.1-3.75 5.3 0 9.025 3.75 3.725 3.75 3.725 9.05 0 2.15-.7 4.15-.7 2-2.1 3.75L42 39.75Zm-20.95-13.4q4.05 0 6.9-2.875Q28.6 22.8 28.6 18.75t-2.85-6.925Q22.9 8.95 18.85 8.95q-4.1 0-6.975 2.875T9 18.75q0 4.05 2.875 6.925t6.975 2.875Z"
     id="path1150" />
  <path
     style="fill:#ffffff;stroke-width:0.000275862;paint-order:stroke markers fill"
     d="m 33.24131,35.344759 c -3.60326,-3.603411 -6.585427,-6.551656 -6.627037,-6.551656 -0.04161,0 -0.134661,0.0652 -0.206779,0.144892 -0.218308,0.241228 -1.324706,0.950363 -2.052909,1.315792 -0.801726,0.402325 -2.0014,0.815512 -2.975275,1.024731 C 20.390051,31.491043 18.113498,31.545508 17,31.38329 14.037823,30.951752 11.708387,29.745292 9.5840488,27.542424 7.5457626,25.42879 6.3965991,22.973609 6.1068369,20.113383 5.7104307,16.200479 6.9789719,12.568787 9.6958959,9.8383066 10.856219,8.6721943 11.930359,7.8860777 13.241379,7.243521 17.130916,5.3371831 22.12301,5.6198439 25.655172,7.9464112 c 2.509369,1.6528721 4.390357,4.0639318 5.273265,6.7592928 0.731122,2.231986 0.821583,4.884399 0.243615,7.143037 -0.384723,1.503459 -1.163521,3.125265 -2.082011,4.335676 -0.163315,0.215222 -0.298073,0.416946 -0.299462,0.448275 -0.0014,0.03133 2.954647,2.995357 6.568966,6.586727 l 6.571489,6.529765 -1.06917,1.073615 -1.06917,1.073615 z M 20.036292,28.515837 c 1.90382,-0.229247 3.428449,-0.869138 4.909365,-2.060474 2.86754,-2.306816 4.146711,-5.761932 3.526149,-9.524329 C 28.151437,14.988672 27.262311,13.32155 25.729001,11.78824 23.765966,9.825205 21.600972,8.9301668 18.818735,8.931441 c -2.77474,0.00127 -5.081063,0.9642128 -7.025632,2.93336 -1.373794,1.391158 -2.2985077,3.11424 -2.6633417,4.962785 -0.1486709,0.753288 -0.1298558,3.217868 0.030273,3.965517 0.3946268,1.842526 1.1903137,3.325596 2.5289967,4.713759 1.463199,1.517281 3.015031,2.41403 4.904677,2.834237 1.059344,0.23557 2.380494,0.302629 3.442584,0.174738 z"
     id="path1158" />
</svg>
