<?xml version="1.0" encoding="UTF-8" standalone="no"?>
<svg
   viewBox="0 0 24 24"
   version="1.1"
   id="svg4"
   sodipodi:docname="settings.svg"
   inkscape:version="1.2.2 (b0a8486541, 2022-12-01)"
   xmlns:inkscape="http://www.inkscape.org/namespaces/inkscape"
   xmlns:sodipodi="http://sodipodi.sourceforge.net/DTD/sodipodi-0.dtd"
   xmlns="http://www.w3.org/2000/svg"
   xmlns:svg="http://www.w3.org/2000/svg">
  <defs
     id="defs8" />
  <sodipodi:namedview
     id="namedview6"
     pagecolor="#ffffff"
     bordercolor="#000000"
     borderopacity="0.25"
     inkscape:showpageshadow="2"
     inkscape:pageopacity="0.0"
     inkscape:pagecheckerboard="0"
     inkscape:deskcolor="#d1d1d1"
     showgrid="false"
     inkscape:zoom="29"
     inkscape:cx="5.0862069"
     inkscape:cy="12.034483"
     inkscape:window-width="1600"
     inkscape:window-height="874"
     inkscape:window-x="0"
     inkscape:window-y="0"
     inkscape:window-maximized="1"
     inkscape:current-layer="svg4" />
  <path
     d="M12,8C14.21,8 16,9.79 16,12C16,14.21 14.21,16 12,16C9.79,16 8,14.21 8,12C8,9.79 9.79,8 12,8M12,10C10.9,10 10,10.9 10,12C10,13.1 10.9,14 12,14C13.1,14 14,13.1 14,12C14,10.9 13.1,10 12,10M10,22C9.75,22 9.54,21.82 9.5,21.58L9.13,18.93C8.5,18.68 7.96,18.34 7.44,17.94L4.95,18.95C4.73,19.03 4.46,18.95 4.34,18.73L2.34,15.27C2.21,15.05 2.27,14.78 2.46,14.63L4.57,12.97L4.5,12L4.57,11L2.46,9.37C2.27,9.22 2.21,8.95 2.34,8.73L4.34,5.27C4.46,5.05 4.73,4.96 4.95,5.05L7.44,6.05C7.96,5.66 8.5,5.32 9.13,5.07L9.5,2.42C9.54,2.18 9.75,2 10,2H14C14.25,2 14.46,2.18 14.5,2.42L14.87,5.07C15.5,5.32 16.04,5.66 16.56,6.05L19.05,5.05C19.27,4.96 19.54,5.05 19.66,5.27L21.66,8.73C21.79,8.95 21.73,9.22 21.54,9.37L19.43,11L19.5,12L19.43,13L21.54,14.63C21.73,14.78 21.79,15.05 21.66,15.27L19.66,18.73C19.54,18.95 19.27,19.04 19.05,18.95L16.56,17.95C16.04,18.34 15.5,18.68 14.87,18.93L14.5,21.58C14.46,21.82 14.25,22 14,22H10M11.25,4L10.88,6.61C9.68,6.86 8.62,7.5 7.85,8.39L5.44,7.35L4.69,8.65L6.8,10.2C6.4,11.37 6.4,12.64 6.8,13.8L4.68,15.36L5.43,16.66L7.86,15.62C8.63,16.5 9.68,17.14 10.87,17.38L11.24,20H12.76L13.13,17.39C14.32,17.14 15.37,16.5 16.14,15.62L18.57,16.66L19.32,15.36L17.2,13.81C17.6,12.64 17.6,11.37 17.2,10.2L19.31,8.65L18.56,7.35L16.15,8.39C15.38,7.5 14.32,6.86 13.12,6.62L12.75,4H11.25Z"
     id="path2" />
  <path
     style="fill:#ffffff;stroke:none;stroke-width:0.000137931;stroke-dasharray:none;stroke-opacity:1;paint-order:stroke markers fill"
     d="M 9.9130717,21.968604 C 9.7566907,21.930131 9.6328059,21.83656 9.5739014,21.712428 9.5447086,21.650909 9.4374386,21.002092 9.3335859,20.258896 9.1973193,19.283735 9.1331045,18.912187 9.0988624,18.900781 8.9077938,18.837137 8.220551,18.456203 7.8679728,18.218508 7.6334438,18.060398 7.4339555,17.931034 7.4246662,17.931034 c -0.00929,0 -0.5903683,0.232759 -1.2912855,0.517242 -0.7009171,0.284483 -1.3119678,0.517241 -1.3578903,0.517241 -0.1511472,0 -0.3252767,-0.111539 -0.4277142,-0.273974 -0.054476,-0.08638 -0.5377707,-0.916915 -1.073987,-1.845627 -0.854425,-1.47984 -0.9749386,-1.706481 -0.9749386,-1.833488 0,-0.07971 0.025301,-0.183537 0.056225,-0.230733 0.030924,-0.0472 0.5458427,-0.470883 1.1442638,-0.941527 l 1.0880384,-0.855717 -0.026448,-0.362915 c -0.033398,-0.45829 -0.03341,-0.780122 -4.71e-5,-1.259467 l 0.0264,-0.37931 L 3.499302,10.143451 C 2.900912,9.6818324 2.3860145,9.2655228 2.3550854,9.218319 2.3241562,9.1711152 2.2988506,9.0674176 2.2988506,8.9878797 c 0,-0.1269231 0.1295999,-0.3688194 1.0593875,-1.97733 0.6825291,-1.180759 1.0910697,-1.8534743 1.1484495,-1.891071 0.2100958,-0.13766 0.2537929,-0.1261395 1.6328093,0.4304844 L 7.4335531,6.0722938 7.9150524,5.7516341 C 8.1798769,5.5752714 8.5635752,5.3534017 8.7677152,5.2585907 9.0291076,5.137189 9.1434286,5.0658105 9.1542638,5.0172414 9.1627259,4.9793103 9.2488893,4.3743086 9.3457383,3.6727931 9.4442648,2.9591268 9.5452176,2.3480193 9.5749297,2.2854056 9.6041359,2.223858 9.6845697,2.1383425 9.753671,2.0953711 l 0.1256393,-0.07813 H 12 14.12069 l 0.125639,0.07813 c 0.0691,0.042971 0.149535,0.1284869 0.178741,0.1900345 0.02971,0.062614 0.130665,0.6737212 0.229192,1.3873875 0.09685,0.7015155 0.182668,1.3065172 0.19071,1.3444483 0.01,0.047044 0.09742,0.1060124 0.275124,0.1855172 0.3551,0.1588754 0.804681,0.4187838 1.151818,0.6658811 l 0.289155,0.2058248 1.288259,-0.5199907 c 0.708543,-0.2859951 1.328664,-0.519991 1.378048,-0.519991 0.156113,0 0.316868,0.1028784 0.422579,0.270438 0.05572,0.088328 0.540039,0.9204516 1.076256,1.8491633 0.86588,1.4996807 0.974938,1.7052297 0.974938,1.8375269 0,0.095652 -0.02494,0.1824238 -0.0697,0.242468 -0.03833,0.051429 -0.54911,0.4637365 -1.135058,0.916239 l -1.06536,0.822732 0.0064,0.177268 c 0.0083,0.22981 0.0083,1.469554 0,1.699364 l -0.0064,0.177268 1.06536,0.822732 c 0.585948,0.452502 1.096724,0.86481 1.135058,0.916239 0.04476,0.06004 0.0697,0.146816 0.0697,0.242468 0,0.132297 -0.109058,0.337846 -0.974938,1.837527 -0.536217,0.928712 -1.020532,1.760835 -1.076256,1.849163 -0.105711,0.16756 -0.266466,0.270438 -0.422579,0.270438 -0.04938,0 -0.67021,-0.23428 -1.379615,-0.520623 l -1.289826,-0.520623 -0.198876,0.146918 c -0.304118,0.224665 -0.859595,0.552067 -1.196202,0.70505 -0.209792,0.09535 -0.307239,0.158715 -0.317584,0.20652 -0.0082,0.03793 -0.09416,0.642932 -0.191011,1.344448 -0.09853,0.713666 -0.19948,1.324774 -0.229192,1.387387 -0.02921,0.06155 -0.10964,0.147064 -0.178741,0.190035 l -0.125639,0.07813 -2.051724,0.0057 c -1.128449,0.0032 -2.0986008,-0.0058 -2.1558943,-0.01989 z m 3.0464263,-3.251011 c 0.100349,-0.705323 0.190223,-1.294979 0.199719,-1.310345 0.0095,-0.01537 0.04693,-0.02794 0.08318,-0.02794 0.123029,0 0.878805,-0.266686 1.172353,-0.413681 0.566496,-0.283673 1.023188,-0.611022 1.500754,-1.075712 l 0.243093,-0.23654 0.981045,0.417544 c 0.539574,0.229648 1.08455,0.461594 1.211058,0.515434 l 0.230015,0.09789 0.30059,-0.523158 c 0.165324,-0.287737 0.337659,-0.58729 0.382966,-0.665674 l 0.08238,-0.142516 -1.026774,-0.749506 c -0.564725,-0.412229 -1.03966,-0.761328 -1.055411,-0.775777 -0.01575,-0.01445 0.01756,-0.210453 0.07403,-0.435564 0.24177,-0.963873 0.231232,-1.940293 -0.03145,-2.913799 -0.04766,-0.176626 -0.06262,-0.286778 -0.04087,-0.300862 0.259688,-0.168156 2.044018,-1.51039 2.04359,-1.5372582 -8.8e-4,-0.055161 -0.711445,-1.2740276 -0.750269,-1.2869687 -0.0185,-0.00617 -0.567035,0.2185121 -1.218975,0.4992838 L 16.155172,8.3629421 16,8.1934234 C 15.370147,7.5053383 14.404441,6.9324134 13.463988,6.6888821 13.294139,6.6448997 13.151262,6.6063597 13.146482,6.6032379 13.141703,6.6001172 13.059944,6.0480245 12.964798,5.3763673 12.86965,4.7047101 12.784041,4.1202586 12.774555,4.0775862 12.757308,4.0000052 12.757256,4 12,4 c -0.757253,0 -0.757308,5.6e-6 -0.774566,0.077586 -0.0095,0.042672 -0.09342,0.6155161 -0.1865,1.272986 -0.09308,0.6574699 -0.178543,1.2104523 -0.189913,1.2288495 -0.01137,0.018398 -0.07866,0.044329 -0.149539,0.057625 C 9.8487886,6.7966379 8.6453693,7.4906614 8,8.1938641 L 7.8448276,8.3629421 6.662809,7.8538848 C 6.0126986,7.5739034 5.4670149,7.3448276 5.4501783,7.3448276 c -0.040364,0 -0.7700547,1.2648572 -0.7549495,1.3086417 0.00642,0.018602 0.4694264,0.3699273 1.0289091,0.7807238 0.5594828,0.4107966 1.0228038,0.7518049 1.0296024,0.7577969 0.0068,0.006 -0.026904,0.163089 -0.074894,0.349107 C 6.531869,11.110798 6.5006321,11.366511 6.5006321,12 c 0,0.634028 0.03121,0.889129 0.1787279,1.460853 0.05282,0.204709 0.074682,0.348886 0.054901,0.362069 -0.018078,0.01205 -0.4937259,0.36114 -1.0569962,0.77576 l -1.024128,0.753855 0.082482,0.142697 c 0.045365,0.07848 0.2177475,0.378118 0.3830721,0.665855 l 0.3005901,0.523158 0.2472559,-0.104805 c 0.135991,-0.05764 0.6795521,-0.2891 1.2079141,-0.514351 l 0.9606576,-0.409546 0.3218155,0.304565 c 0.7086949,0.670707 1.5961566,1.171364 2.4335509,1.372875 l 0.262889,0.06326 0.184582,1.301876 L 11.222528,20 h 0.777258 0.777258 z"
     id="path1135" />
  <path
     style="fill:#ffffff;stroke:none;stroke-width:0.000137931;stroke-dasharray:none;stroke-opacity:1;paint-order:stroke markers fill"
     d="M 11.810345,15.974654 C 10.194008,15.898674 8.7420467,14.800346 8.2293821,13.265856 8.0688698,12.785415 8.0250737,12.454807 8.0434203,11.862069 c 0.01348,-0.435506 0.033677,-0.598114 0.109064,-0.878098 0.2976989,-1.1056334 1.0719823,-2.0456751 2.1139237,-2.5664717 0.87828,-0.438993 2.032495,-0.5111583 3.000909,-0.1876264 1.159092,0.3872347 2.103028,1.3294038 2.496102,2.4914281 0.146388,0.43276 0.202098,0.785246 0.202098,1.278699 0,0.493453 -0.05571,0.845939 -0.202098,1.278699 -0.333965,0.987282 -1.071325,1.825854 -2.02204,2.299591 -0.538921,0.268541 -1.305021,0.425791 -1.931034,0.396364 z m 0.705333,-2.025528 c 0.347071,-0.09236 0.622445,-0.255484 0.900205,-0.533243 0.414171,-0.414171 0.583298,-0.824707 0.583298,-1.415883 0,-0.590018 -0.167417,-0.996955 -0.582172,-1.415067 C 13.005774,10.170369 12.59446,10.000819 12,10.000819 c -0.591176,0 -1.001712,0.169127 -1.415883,0.583298 -0.277759,0.27776 -0.44088,0.553134 -0.533243,0.900205 -0.064338,0.24176 -0.064338,0.789596 0,1.031356 0.178376,0.670277 0.751353,1.248696 1.418369,1.431839 0.229165,0.06292 0.812671,0.06382 1.046435,0.0016 z"
     id="path1142" />
</svg>
