<svg xmlns="http://www.w3.org/2000/svg" width="192" height="192" fill="#f4f4f4" style="--darkreader-inline-fill:#f4f4f4" viewBox="0 0 256 256">
    <path fill="none" d="M0 0h256v256H0z"/>
    <path d="M237.7 180.967a8.1 8.1 0 0 1 0 11.4l-24 24a8.3 8.3 0 0 1-5.7 2.3 8.5 8.5 0 0 1-3.1-.6 8 8 0 0 1-4.9-7.4v-16a72.2 72.2 0 0 1-57.7-30.2l-41.7-58.3a56.1 56.1 0 0 0-45.5-23.5H32a8 8 0 0 1 0-16h23.1a72.2 72.2 0 0 1 58.6 30.2l41.7 58.3a55.9 55.9 0 0 0 44.6 23.5v-16a8 8 0 0 1 4.9-7.4 8.4 8.4 0 0 1 8.8 1.7zm-94.7-71.3a8 8 0 0 0 11.2-1.9l1.2-1.6a55.9 55.9 0 0 1 44.6-23.5v16a8 8 0 0 0 4.9 7.4 8.5 8.5 0 0 0 3.1.6 8.3 8.3 0 0 0 5.7-2.3l24-24a8.1 8.1 0 0 0 0-11.4l-24-24a8.4 8.4 0 0 0-8.8-1.7 8 8 0 0 0-4.9 7.4v16a72.2 72.2 0 0 0-57.7 30.2l-1.1 1.6a8 8 0 0 0 1.8 11.2zm-30 42a8 8 0 0 0-11.2 1.9l-1.2 1.6a56.1 56.1 0 0 1-45.5 23.5H32a8 8 0 0 0 0 16h23.1a72.2 72.2 0 0 0 58.6-30.2l1.1-1.6a8 8 0 0 0-1.8-11.2z"/>
</svg>
