<svg xmlns="http://www.w3.org/2000/svg" width="512" height="512" viewBox="0 0 135.467 135.467">
    <path d="M208.092 511.383c-40.271-2.637-77.9-25.923-98.586-61.006-11.554-19.597-17.217-40.512-17.217-63.595 0-22.419 5.887-43.563 17.505-62.87 5.82-9.674 16.297-22.239 24.82-29.765l2.644-2.337V181.322c0-122.087-.272-112.69 3.62-125.11 6.345-20.254 21.717-38.12 41.249-47.939 17.003-8.549 39.66-10.26 58.375-4.408 27.38 8.561 47.875 31.414 54.785 61.09 1.224 5.253 1.233 6.045 1.406 112.276.096 58.842-.028 108.564-.274 110.494l-.447 3.51 7.265 7.069c15.485 15.07 25.807 31.292 32.124 50.49 4.822 14.651 6.499 26.42 6.002 42.113-.843 26.596-9.09 49.903-25.29 71.481-24.973 33.259-65.749 51.76-107.981 48.995zm22.925-31.994c19.585-3.02 36.71-11.492 50.994-25.228 15.486-14.893 25.086-33.366 28.442-54.73 1.079-6.867.897-21.703-.353-28.804-4.573-25.973-19.342-48.945-40.433-62.887l-3.38-2.235v-51.528c0-32.213-.212-51.74-.565-52.094-.353-.353-.634-24.644-.748-64.632l-.181-64.066-1.307-4.703c-3.891-14.002-12.823-25.091-25.12-31.189-7.411-3.674-12.983-4.962-21.457-4.962-8.471 0-14.042 1.288-21.455 4.96-12.245 6.067-20.392 15.936-24.8 30.045l-1.645 5.261-.17 64.514c-.109 41.011-.378 64.515-.74 64.515-.36 0-.567 18.928-.567 52.008v52.007l-1.648.853c-3.574 1.848-12.444 9.275-17.66 14.786-26.89 28.414-33.386 69.966-16.488 105.468 13.283 27.91 39.373 47.398 70.478 52.645 6.197 1.045 22.013 1.043 28.803-.004z" style="fill:#f4f4f4;fill-opacity:.997521;stroke:#f4f4f4;stroke-width:4.38200027;stroke-linecap:round;stroke-linejoin:round;stroke-dasharray:none;stroke-opacity:1;paint-order:stroke markers fill" transform="scale(.26458)"/>
    <path d="M325.07 103.458V84.06h94.64v38.796h-94.64zm0 72.891v-19.398h94.64v38.796h-94.64zm0 73.185v-19.105h94.64v38.209h-94.64z" style="fill:#f4f4f4;fill-opacity:.997521;stroke:#f4f4f4;stroke-width:2.57587;stroke-linecap:round;stroke-linejoin:round;stroke-dasharray:none;stroke-opacity:1;paint-order:stroke markers fill" transform="scale(.26458)"/>
</svg>
