<?xml version="1.0" encoding="UTF-8" standalone="no"?>
<svg
   viewBox="0 0 24 24"
   version="1.1"
   id="svg1197"
   sodipodi:docname="terminal.svg"
   inkscape:version="1.2.2 (b0a8486541, 2022-12-01)"
   xmlns:inkscape="http://www.inkscape.org/namespaces/inkscape"
   xmlns:sodipodi="http://sodipodi.sourceforge.net/DTD/sodipodi-0.dtd"
   xmlns="http://www.w3.org/2000/svg"
   xmlns:svg="http://www.w3.org/2000/svg">
  <defs
     id="defs1201" />
  <sodipodi:namedview
     id="namedview1199"
     pagecolor="#ffffff"
     bordercolor="#000000"
     borderopacity="0.25"
     inkscape:showpageshadow="2"
     inkscape:pageopacity="0.0"
     inkscape:pagecheckerboard="0"
     inkscape:deskcolor="#d1d1d1"
     showgrid="false"
     inkscape:zoom="29"
     inkscape:cx="12"
     inkscape:cy="12.017241"
     inkscape:window-width="1600"
     inkscape:window-height="899"
     inkscape:window-x="0"
     inkscape:window-y="-12"
     inkscape:window-maximized="1"
     inkscape:current-layer="svg1197" />
  <path
     d="M20,19V7H4V19H20M20,3C21.1,3 22,3.9 22,5V19C22,20.1 21.1,21 20,21H4C2.9,21 2,20.1 2,19V5C2,3.89 2.9,3 4,3H20M13,17V15H18V17H13M9.58,13L5.57,9H8.4L11.7,12.3C12.09,12.69 12.09,13.33 11.7,13.72L8.42,17H5.59L9.58,13Z"
     id="path1195" />
  <path
     style="fill:#ffffff;stroke-width:0.000137931;paint-order:stroke markers fill"
     d="M 3.5776033,20.930462 C 3.2100981,20.850628 2.9275088,20.688875 2.6173024,20.380789 2.4128896,20.177773 2.3084107,20.040978 2.2274436,19.870341 2.0032654,19.39789 2.015548,19.883297 2.0254667,11.888241 l 0.00902,-7.2675513 0.077077,-0.2266252 C 2.312594,3.802978 2.8277275,3.2948201 3.4123612,3.110878 L 3.6551724,3.0344828 H 12 20.344828 l 0.249663,0.081802 c 0.598606,0.1961327 1.105567,0.7057143 1.307991,1.3147495 0.06014,0.1809453 0.06345,0.5233975 0.07213,7.4568357 0.01002,8.005358 0.02255,7.515653 -0.20426,7.983897 -0.156904,0.32393 -0.582855,0.750299 -0.899809,0.900693 -0.469242,0.222655 0.103818,0.209311 -8.887783,0.206959 -6.7630169,-0.0018 -8.2271957,-0.0103 -8.4051557,-0.04896 z M 20.017241,13 V 6.9827586 H 12 3.9827586 V 13 19.017241 H 12 20.017241 Z"
     id="path1203" />
  <path
     style="fill:#ffffff;stroke-width:0.000137931;paint-order:stroke markers fill"
     d="m 5.8391944,16.784483 c 0.095483,-0.109052 0.9815037,-1.00512 1.968936,-1.991262 L 9.6034621,13.000235 7.6121873,11.008738 5.6209126,9.0172414 H 7.0005732 8.3802338 L 10.108335,10.75 c 1.895584,1.900692 1.858443,1.855301 1.856101,2.268389 -0.0024,0.415098 0.03531,0.369038 -1.838774,2.248852 L 8.4153785,16.982759 H 7.0404843 5.66559 Z"
     id="path1205" />
  <path
     style="fill:#ffffff;stroke-width:0.000137931;paint-order:stroke markers fill"
     d="M 13.017241,16 V 15.017241 H 15.5 17.982759 V 16 16.982759 H 15.5 13.017241 Z"
     id="path1207" />
</svg>
