<?xml version="1.0" encoding="UTF-8" standalone="no"?>
<svg
   viewBox="0 0 24 24"
   version="1.1"
   id="svg1167"
   sodipodi:docname="text.svg"
   inkscape:version="1.2.2 (b0a8486541, 2022-12-01)"
   xmlns:inkscape="http://www.inkscape.org/namespaces/inkscape"
   xmlns:sodipodi="http://sodipodi.sourceforge.net/DTD/sodipodi-0.dtd"
   xmlns="http://www.w3.org/2000/svg"
   xmlns:svg="http://www.w3.org/2000/svg">
  <defs
     id="defs1171" />
  <sodipodi:namedview
     id="namedview1169"
     pagecolor="#ffffff"
     bordercolor="#000000"
     borderopacity="0.25"
     inkscape:showpageshadow="2"
     inkscape:pageopacity="0.0"
     inkscape:pagecheckerboard="0"
     inkscape:deskcolor="#d1d1d1"
     showgrid="false"
     inkscape:zoom="29"
     inkscape:cx="12"
     inkscape:cy="12.017241"
     inkscape:window-width="1600"
     inkscape:window-height="899"
     inkscape:window-x="0"
     inkscape:window-y="-12"
     inkscape:window-maximized="1"
     inkscape:current-layer="svg1167" />
  <path
     d="M10,21H5C3.89,21 3,20.11 3,19V5C3,3.89 3.89,3 5,3H19C20.11,3 21,3.89 21,5V10.33C20.7,10.21 20.37,10.14 20.04,10.14C19.67,10.14 19.32,10.22 19,10.37V5H5V19H10.11L10,19.11V21M7,9H17V7H7V9M7,17H12.11L14,15.12V15H7V17M7,13H16.12L17,12.12V11H7V13M21.7,13.58L20.42,12.3C20.21,12.09 19.86,12.09 19.65,12.3L18.65,13.3L20.7,15.35L21.7,14.35C21.91,14.14 21.91,13.79 21.7,13.58M12,22H14.06L20.11,15.93L18.06,13.88L12,19.94V22Z"
     id="path1165" />
  <path
     style="fill:#ffffff;stroke-width:0.000137931;paint-order:stroke markers fill"
     d="M 4.5119643,20.914301 C 3.7799393,20.722403 3.2315337,20.15229 3.068588,19.413793 3.0213233,19.199582 3.0164067,18.353496 3.0249058,11.896552 l 0.00958,-7.2758623 0.078503,-0.2312401 C 3.2199485,4.0743759 3.4934133,3.6760988 3.7336322,3.4855331 4.0083295,3.2676157 4.2109902,3.1645327 4.5201876,3.0854534 4.7817384,3.01856 4.9263268,3.0172414 12,3.0172414 c 7.105384,0 7.217142,0.00103 7.483338,0.069114 0.491022,0.1255825 0.872453,0.3949806 1.152888,0.8142664 0.09476,0.1416735 0.207612,0.3616462 0.250788,0.4888282 l 0.0785,0.2312401 0.0096,2.8388369 0.0096,2.838836 -0.07855,-0.0251 c -0.59299,-0.189492 -1.162183,-0.194195 -1.675318,-0.01384 -0.10667,0.03749 -0.198363,0.06817 -0.203762,0.06817 -0.0054,0 -0.0098,-1.2025856 -0.0098,-2.6724132 V 4.9827586 H 12 4.9827586 V 12 19.017241 h 2.5413793 c 1.9766283,0 2.5321841,0.0092 2.5000001,0.04138 -0.030163,0.03016 -0.041379,0.296551 -0.041379,0.982758 v 0.94138 l -2.6120689,-0.0019 c -2.439847,-0.0018 -2.6283318,-0.0062 -2.8587254,-0.06656 z"
     id="path1173" />
  <path
     style="fill:#ffffff;stroke-width:0.000137931;paint-order:stroke markers fill"
     d="M 7.0172414,8 V 7.0172414 H 12 16.982759 V 8 8.9827586 H 12 7.0172414 Z"
     id="path1175" />
  <path
     style="fill:#ffffff;stroke-width:0.000137931;paint-order:stroke markers fill"
     d="M 7.0172414,12 V 11.017241 H 12 16.982759 v 0.543601 0.543601 l -0.440135,0.439158 -0.440135,0.439158 H 11.559866 7.0172414 Z"
     id="path1177" />
  <path
     style="fill:#ffffff;stroke-width:0.000137931;paint-order:stroke markers fill"
     d="M 7.0172414,16 V 15.017241 H 10.5 c 2.773296,0 3.482759,0.0088 3.482759,0.04334 0,0.02384 -0.422949,0.466078 -0.939887,0.982759 l -0.939886,0.93942 H 9.5601139 7.0172414 Z"
     id="path1179" />
  <path
     style="fill:#ffffff;stroke-width:0.000137931;paint-order:stroke markers fill"
     d="M 12.017241,20.974064 V 19.96537 l 3.026009,-3.025861 3.026008,-3.025862 1.008403,1.008838 1.008404,1.008838 -3.025864,3.025718 -3.025864,3.025718 h -1.008548 -1.008548 z"
     id="path1181" />
  <path
     style="fill:#ffffff;stroke-width:0.000137931;paint-order:stroke markers fill"
     d="m 19.689752,14.293201 -0.999457,-0.999903 0.534163,-0.535504 c 0.8288,-0.83088 0.776572,-0.836194 1.801149,0.183274 0.79853,0.794548 0.844481,0.858842 0.800455,1.119992 -0.02189,0.129852 -0.08338,0.205363 -0.560959,0.68894 -0.295005,0.298707 -0.545265,0.543103 -0.556133,0.543103 -0.01087,0 -0.469516,-0.449956 -1.019218,-0.999902 z"
     id="path1183" />
</svg>
