<?xml version="1.0" encoding="UTF-8" standalone="no"?>
<!-- Created with Inkscape (http://www.inkscape.org/) -->

<svg
   width="4.2415028mm"
   height="4.6979828mm"
   viewBox="0 0 4.2415028 4.6979828"
   version="1.1"
   id="svg2260"
   inkscape:version="1.2.2 (b0a8486541, 2022-12-01)"
   sodipodi:docname="volume-2.svg"
   xmlns:inkscape="http://www.inkscape.org/namespaces/inkscape"
   xmlns:sodipodi="http://sodipodi.sourceforge.net/DTD/sodipodi-0.dtd"
   xmlns="http://www.w3.org/2000/svg"
   xmlns:svg="http://www.w3.org/2000/svg">
  <sodipodi:namedview
     id="namedview2262"
     pagecolor="#ffffff"
     bordercolor="#000000"
     borderopacity="0.25"
     inkscape:showpageshadow="2"
     inkscape:pageopacity="0.0"
     inkscape:pagecheckerboard="0"
     inkscape:deskcolor="#d1d1d1"
     inkscape:document-units="mm"
     showgrid="false"
     inkscape:zoom="0.60934343"
     inkscape:cx="-283.09159"
     inkscape:cy="-168.21384"
     inkscape:window-width="1600"
     inkscape:window-height="899"
     inkscape:window-x="0"
     inkscape:window-y="-13"
     inkscape:window-maximized="1"
     inkscape:current-layer="layer1" />
  <defs
     id="defs2257" />
  <g
     inkscape:label="Layer 1"
     inkscape:groupmode="layer"
     id="layer1"
     transform="translate(-100.35292,-193.04568)">
    <path
       style="fill:#ffffff;stroke:#ffffff;stroke-width:0.0303175;stroke-linecap:round;stroke-linejoin:round"
       d="m 102.90086,197.71703 c -0.12601,-0.0242 -0.20009,-0.0802 -0.89638,-0.67794 l -0.68062,-0.58424 -0.20629,-4.1e-4 c -0.27695,-5.6e-4 -0.35964,-0.0125 -0.47262,-0.0684 -0.10922,-0.054 -0.18081,-0.12841 -0.23757,-0.24703 l -0.0393,-0.0821 v -0.6632 -0.66319 l 0.0393,-0.0821 c 0.0568,-0.11862 0.12835,-0.19306 0.23757,-0.24704 0.11298,-0.0558 0.19567,-0.0678 0.47262,-0.0684 l 0.20629,-4.2e-4 0.68062,-0.58424 c 0.71468,-0.61349 0.7691,-0.65402 0.91319,-0.68 0.27848,-0.0502 0.56136,0.15925 0.60289,0.44641 0.015,0.10339 0.015,3.6545 0,3.75789 -0.032,0.22102 -0.20832,0.40418 -0.42878,0.44532 -0.0778,0.0145 -0.11109,0.0144 -0.19092,-9.8e-4 z"
       id="path2243" />
    <path
       style="fill:#ffffff;stroke:#ffffff;stroke-width:0.0303175;stroke-linecap:round;stroke-linejoin:round"
       d="m 104.00619,196.46488 c -0.10453,-0.0365 -0.17344,-0.13318 -0.17506,-0.24551 -8.2e-4,-0.0559 0.0103,-0.0876 0.0778,-0.22121 0.11524,-0.22831 0.14541,-0.35374 0.14541,-0.60442 0,-0.25068 -0.0302,-0.37611 -0.14541,-0.60441 -0.0674,-0.13363 -0.0786,-0.16532 -0.0778,-0.22122 0.002,-0.12289 0.0766,-0.2177 0.19739,-0.25 0.0748,-0.02 0.15906,-8.8e-4 0.22316,0.0506 0.0848,0.0681 0.22102,0.34857 0.27771,0.57184 0.0443,0.17449 0.0551,0.29165 0.0478,0.52032 -0.01,0.30601 -0.05,0.46946 -0.18272,0.74081 -0.0445,0.0911 -0.0898,0.16377 -0.12218,0.19606 -0.074,0.0739 -0.17441,0.0992 -0.26613,0.0671 z"
       id="path2245" />
  </g>
</svg>
