<?xml version="1.0" encoding="UTF-8" standalone="no"?>
<svg
   viewBox="0 0 24 24"
   version="1.1"
   id="svg1218"
   sodipodi:docname="web.svg"
   inkscape:version="1.2.2 (b0a8486541, 2022-12-01)"
   xmlns:inkscape="http://www.inkscape.org/namespaces/inkscape"
   xmlns:sodipodi="http://sodipodi.sourceforge.net/DTD/sodipodi-0.dtd"
   xmlns="http://www.w3.org/2000/svg"
   xmlns:svg="http://www.w3.org/2000/svg">
  <defs
     id="defs1222" />
  <sodipodi:namedview
     id="namedview1220"
     pagecolor="#ffffff"
     bordercolor="#000000"
     borderopacity="0.25"
     inkscape:showpageshadow="2"
     inkscape:pageopacity="0.0"
     inkscape:pagecheckerboard="0"
     inkscape:deskcolor="#d1d1d1"
     showgrid="false"
     inkscape:zoom="29"
     inkscape:cx="12"
     inkscape:cy="12.017241"
     inkscape:window-width="1600"
     inkscape:window-height="899"
     inkscape:window-x="0"
     inkscape:window-y="-12"
     inkscape:window-maximized="1"
     inkscape:current-layer="svg1218" />
  <path
     d="M16.36,14C16.44,13.34 16.5,12.68 16.5,12C16.5,11.32 16.44,10.66 16.36,10H19.74C19.9,10.64 20,11.31 20,12C20,12.69 19.9,13.36 19.74,14M14.59,19.56C15.19,18.45 15.65,17.25 15.97,16H18.92C17.96,17.65 16.43,18.93 14.59,19.56M14.34,14H9.66C9.56,13.34 9.5,12.68 9.5,12C9.5,11.32 9.56,10.65 9.66,10H14.34C14.43,10.65 14.5,11.32 14.5,12C14.5,12.68 14.43,13.34 14.34,14M12,19.96C11.17,18.76 10.5,17.43 10.09,16H13.91C13.5,17.43 12.83,18.76 12,19.96M8,8H5.08C6.03,6.34 7.57,5.06 9.4,4.44C8.8,5.55 8.35,6.75 8,8M5.08,16H8C8.35,17.25 8.8,18.45 9.4,19.56C7.57,18.93 6.03,17.65 5.08,16M4.26,14C4.1,13.36 4,12.69 4,12C4,11.31 4.1,10.64 4.26,10H7.64C7.56,10.66 7.5,11.32 7.5,12C7.5,12.68 7.56,13.34 7.64,14M12,4.03C12.83,5.23 13.5,6.57 13.91,8H10.09C10.5,6.57 11.17,5.23 12,4.03M18.92,8H15.97C15.65,6.75 15.19,5.55 14.59,4.44C16.43,5.07 17.96,6.34 18.92,8M12,2C6.47,2 2,6.5 2,12C2,17.52 6.48,22 12,22C17.52,22 22,17.52 22,12C22,6.48 17.52,2 12,2Z"
     id="path1216" />
  <path
     style="fill:#ffffff;stroke-width:0.000137931;paint-order:stroke markers fill"
     d="M 11.145907,21.948793 C 9.8311,21.821157 8.6278362,21.476039 7.4989769,20.902788 4.8645033,19.564964 2.9550714,17.134665 2.2788034,14.258621 2.0917848,13.463265 2.0391263,12.967033 2.0391263,12 c 0,-0.756929 0.012034,-0.974418 0.07727,-1.396552 C 2.2917785,9.4685907 2.5768957,8.5555852 3.0575392,7.5897124 3.3126251,7.0771069 3.3852712,6.950661 3.6836051,6.5 6.2888266,2.5645721 11.271214,0.98849245 15.65243,2.7138988 18.694418,3.9118911 20.970091,6.5470645 21.721197,9.7413793 21.908215,10.536735 21.960874,11.032967 21.960874,12 c 0,0.967033 -0.05266,1.463265 -0.239677,2.258621 -0.751987,3.198061 -3.035961,5.838526 -6.082631,7.032029 -0.74335,0.2912 -1.394905,0.463459 -2.224773,0.588189 -0.545199,0.08194 -1.758777,0.119377 -2.267886,0.06995 z m 1.247052,-2.556906 c 0.331014,-0.520075 0.753823,-1.32312 1.005172,-1.909128 0.179169,-0.417725 0.515662,-1.365797 0.515662,-1.452882 0,-0.03927 -0.318771,-0.04712 -1.913793,-0.04712 -1.540952,0 -1.913793,0.0087 -1.913793,0.04454 0,0.0245 0.06764,0.245617 0.15032,0.491379 0.363099,1.079346 0.834718,2.048837 1.481375,3.045214 0.322314,0.496623 0.235399,0.518768 0.675057,-0.172003 z M 9.191181,19.094828 C 8.7867234,18.281022 8.4842707,17.515721 8.1875014,16.5552 8.0942541,16.253397 8.0124583,16.000964 8.0057324,15.994238 c -0.00673,-0.0067 -0.6756914,-0.0082 -1.4865907,-0.0032 L 5.044779,16 5.3360964,16.436216 c 0.9071177,1.35831 2.1706867,2.387719 3.681145,2.998971 0.1801724,0.07291 0.3460358,0.13284 0.3685852,0.133173 0.022549,3.44e-4 -0.065041,-0.212757 -0.1946456,-0.473532 z m 5.799505,0.3338 c 1.582202,-0.62699 2.978358,-1.818883 3.88494,-3.316559 l 0.07827,-0.12931 h -1.499035 -1.499035 l -0.07638,0.284482 c -0.230372,0.857987 -0.692775,2.068416 -1.102114,2.884996 -0.114894,0.229201 -0.193574,0.416729 -0.174844,0.416729 0.01873,0 0.19342,-0.06315 0.388198,-0.140338 z M 7.6128445,13.612069 C 7.5071262,12.668644 7.5072183,11.337181 7.6130514,10.387931 l 0.04518,-0.4051724 H 5.9481179 4.2380044 L 4.1636801,10.353448 C 4.0235404,11.052389 4.0022284,11.269738 4.0022284,12 c 0,0.730262 0.021312,0.947611 0.1614517,1.646552 l 0.074324,0.370689 h 1.7101135 1.7101138 l -0.045403,-0.405172 z m 6.7630505,0.258621 c 0.160563,-1.086536 0.160563,-2.654844 0,-3.74138 L 14.354238,9.9827586 H 12.000052 9.6458648 L 9.6078662,10.25 c -0.1480793,1.041426 -0.1484383,2.381992 -9.345e-4,3.482759 l 0.038121,0.284482 h 2.3545923 2.354592 l 0.02166,-0.146551 z m 5.460409,-0.224138 c 0.14014,-0.698941 0.161452,-0.91629 0.161452,-1.646552 0,-0.730262 -0.02131,-0.947611 -0.161452,-1.646552 L 19.76198,9.9827586 h -1.710114 -1.710114 l 0.0454,0.4051724 c 0.105718,0.943425 0.105626,2.274888 -2.07e-4,3.224138 l -0.04518,0.405172 h 1.710114 1.710114 l 0.07432,-0.370689 z M 8.1032652,7.7155172 C 8.4310317,6.6190848 8.7539303,5.7849607 9.191181,4.9051724 9.3207855,4.6443966 9.4116703,4.4310345 9.3931472,4.4310345 c -0.071607,0 -0.6512231,0.2404514 -0.99262,0.4117849 C 7.0395369,5.5258462 5.9315552,6.5557117 5.124441,7.887931 L 5.046099,8.0172414 h 1.4834845 1.4834841 z m 5.8105278,0.2571849 c 0,-0.075044 -0.291444,-0.9158338 -0.457966,-1.3211931 C 13.145126,5.8951803 12.632938,4.9359608 12.180696,4.2634568 12.037714,4.050836 12.002592,4.0172775 11.96416,4.0565603 11.93893,4.0823483 11.785087,4.312931 11.622285,4.5689655 11.284226,5.1006227 10.789061,6.0554414 10.549329,6.637931 c -0.173018,0.4203918 -0.463122,1.2554445 -0.463122,1.3330783 0,0.038099 0.336673,0.046232 1.913793,0.046232 1.540952,0 1.913793,-0.00868 1.913793,-0.044539 z M 18.875984,7.887931 C 17.971557,6.3869372 16.590399,5.2094471 14.983107,4.5691044 14.792498,4.493166 14.62122,4.4310345 14.602489,4.4310345 c -0.01873,0 0.05995,0.1875277 0.174844,0.4167283 0.409339,0.81658 0.871742,2.0270093 1.102114,2.8849958 l 0.07638,0.2844828 h 1.499035 1.499035 z"
     id="path1224" />
</svg>
