<?xml version="1.0" encoding="UTF-8" standalone="no"?>
<!-- Created with Inkscape (http://www.inkscape.org/) -->

<svg
   width="141.34134mm"
   height="123.36251mm"
   viewBox="0 0 141.34134 123.36251"
   version="1.1"
   id="svg1"
   inkscape:version="1.4.2 (ebf0e940d0, 2025-05-08)"
   sodipodi:docname="nix.svg"
   xmlns:inkscape="http://www.inkscape.org/namespaces/inkscape"
   xmlns:sodipodi="http://sodipodi.sourceforge.net/DTD/sodipodi-0.dtd"
   xmlns="http://www.w3.org/2000/svg"
   xmlns:svg="http://www.w3.org/2000/svg">
  <sodipodi:namedview
     id="namedview1"
     pagecolor="#ffffff"
     bordercolor="#000000"
     borderopacity="0.25"
     inkscape:showpageshadow="2"
     inkscape:pageopacity="0.0"
     inkscape:pagecheckerboard="0"
     inkscape:deskcolor="#d1d1d1"
     inkscape:document-units="mm"
     inkscape:zoom="1.1313833"
     inkscape:cx="338.08172"
     inkscape:cy="205.05871"
     inkscape:window-width="2560"
     inkscape:window-height="1518"
     inkscape:window-x="0"
     inkscape:window-y="0"
     inkscape:window-maximized="1"
     inkscape:current-layer="layer1" />
  <defs
     id="defs1">
    <filter
       inkscape:label="Raised Border"
       inkscape:menu="Bevels"
       inkscape:menu-tooltip="Strongly raised border around a flat surface"
       height="1.5290005"
       width="1.5676872"
       y="-0.26449942"
       x="-0.28384444"
       style="color-interpolation-filters:sRGB"
       id="filter112">
      <feGaussianBlur
         stdDeviation="4"
         result="result1"
         id="feGaussianBlur107" />
      <feComposite
         in="result1"
         in2="result1"
         result="result4"
         operator="in"
         id="feComposite107" />
      <feGaussianBlur
         stdDeviation="2"
         result="result6"
         in="result4"
         id="feGaussianBlur108" />
      <feComposite
         operator="xor"
         in="result6"
         in2="result4"
         result="result8"
         id="feComposite108" />
      <feComposite
         operator="atop"
         result="fbSourceGraphic"
         in="result4"
         in2="result8"
         id="feComposite109" />
      <feSpecularLighting
         specularExponent="10"
         specularConstant="1.29999995"
         surfaceScale="3"
         lighting-color="#ffffff"
         result="result1"
         in="fbSourceGraphic"
         id="feSpecularLighting109">
        <feDistantLight
           azimuth="235"
           elevation="55"
           id="feDistantLight109" />
      </feSpecularLighting>
      <feComposite
         operator="atop"
         result="result2"
         in="result1"
         in2="fbSourceGraphic"
         id="feComposite110" />
      <feComposite
         k3="1"
         k2="1"
         operator="arithmetic"
         result="result4"
         in="fbSourceGraphic"
         in2="result2"
         id="feComposite111"
         k1="0"
         k4="0" />
      <feComposite
         operator="over"
         in="result4"
         in2="SourceGraphic"
         id="feComposite112" />
      <feBlend
         mode="multiply"
         in2="result2"
         id="feBlend112" />
    </filter>
    <filter
       inkscape:label="Raised Border"
       inkscape:menu="Bevels"
       inkscape:menu-tooltip="Strongly raised border around a flat surface"
       height="1.5255779"
       width="1.6849965"
       y="-0.26278803"
       x="-0.34249907"
       style="color-interpolation-filters:sRGB"
       id="filter118">
      <feGaussianBlur
         stdDeviation="4"
         result="result1"
         id="feGaussianBlur112" />
      <feComposite
         in="result1"
         in2="result1"
         result="result4"
         operator="in"
         id="feComposite113" />
      <feGaussianBlur
         stdDeviation="2"
         result="result6"
         in="result4"
         id="feGaussianBlur113" />
      <feComposite
         operator="xor"
         in="result6"
         in2="result4"
         result="result8"
         id="feComposite114" />
      <feComposite
         operator="atop"
         result="fbSourceGraphic"
         in="result4"
         in2="result8"
         id="feComposite115" />
      <feSpecularLighting
         specularExponent="10"
         specularConstant="1.29999995"
         surfaceScale="3"
         lighting-color="#ffffff"
         result="result1"
         in="fbSourceGraphic"
         id="feSpecularLighting115">
        <feDistantLight
           azimuth="235"
           elevation="55"
           id="feDistantLight115" />
      </feSpecularLighting>
      <feComposite
         operator="atop"
         result="result2"
         in="result1"
         in2="fbSourceGraphic"
         id="feComposite116" />
      <feComposite
         k3="1"
         k2="1"
         operator="arithmetic"
         result="result4"
         in="fbSourceGraphic"
         in2="result2"
         id="feComposite117"
         k1="0"
         k4="0" />
      <feComposite
         operator="over"
         in="result4"
         in2="SourceGraphic"
         id="feComposite118" />
      <feBlend
         mode="multiply"
         in2="result2"
         id="feBlend118" />
    </filter>
    <filter
       inkscape:label="Raised Border"
       inkscape:menu="Bevels"
       inkscape:menu-tooltip="Strongly raised border around a flat surface"
       height="1.8645382"
       width="1.4603184"
       y="-0.43225696"
       x="-0.23015978"
       style="color-interpolation-filters:sRGB"
       id="filter124">
      <feGaussianBlur
         stdDeviation="4"
         result="result1"
         id="feGaussianBlur118" />
      <feComposite
         in="result1"
         in2="result1"
         result="result4"
         operator="in"
         id="feComposite119" />
      <feGaussianBlur
         stdDeviation="2"
         result="result6"
         in="result4"
         id="feGaussianBlur119" />
      <feComposite
         operator="xor"
         in="result6"
         in2="result4"
         result="result8"
         id="feComposite120" />
      <feComposite
         operator="atop"
         result="fbSourceGraphic"
         in="result4"
         in2="result8"
         id="feComposite121" />
      <feSpecularLighting
         specularExponent="10"
         specularConstant="1.29999995"
         surfaceScale="3"
         lighting-color="#ffffff"
         result="result1"
         in="fbSourceGraphic"
         id="feSpecularLighting121">
        <feDistantLight
           azimuth="235"
           elevation="55"
           id="feDistantLight121" />
      </feSpecularLighting>
      <feComposite
         operator="atop"
         result="result2"
         in="result1"
         in2="fbSourceGraphic"
         id="feComposite122" />
      <feComposite
         k3="1"
         k2="1"
         operator="arithmetic"
         result="result4"
         in="fbSourceGraphic"
         in2="result2"
         id="feComposite123"
         k1="0"
         k4="0" />
      <feComposite
         operator="over"
         in="result4"
         in2="SourceGraphic"
         id="feComposite124" />
      <feBlend
         mode="multiply"
         in2="result2"
         id="feBlend124" />
    </filter>
    <filter
       inkscape:label="Raised Border"
       inkscape:menu="Bevels"
       inkscape:menu-tooltip="Strongly raised border around a flat surface"
       height="1.5324113"
       width="1.571819"
       y="-0.26614582"
       x="-0.2859155"
       style="color-interpolation-filters:sRGB"
       id="filter130">
      <feGaussianBlur
         stdDeviation="4"
         result="result1"
         id="feGaussianBlur124" />
      <feComposite
         in="result1"
         in2="result1"
         result="result4"
         operator="in"
         id="feComposite125" />
      <feGaussianBlur
         stdDeviation="2"
         result="result6"
         in="result4"
         id="feGaussianBlur125" />
      <feComposite
         operator="xor"
         in="result6"
         in2="result4"
         result="result8"
         id="feComposite126" />
      <feComposite
         operator="atop"
         result="fbSourceGraphic"
         in="result4"
         in2="result8"
         id="feComposite127" />
      <feSpecularLighting
         specularExponent="10"
         specularConstant="1.29999995"
         surfaceScale="3"
         lighting-color="#ffffff"
         result="result1"
         in="fbSourceGraphic"
         id="feSpecularLighting127">
        <feDistantLight
           azimuth="235"
           elevation="55"
           id="feDistantLight127" />
      </feSpecularLighting>
      <feComposite
         operator="atop"
         result="result2"
         in="result1"
         in2="fbSourceGraphic"
         id="feComposite128" />
      <feComposite
         k3="1"
         k2="1"
         operator="arithmetic"
         result="result4"
         in="fbSourceGraphic"
         in2="result2"
         id="feComposite129"
         k1="0"
         k4="0" />
      <feComposite
         operator="over"
         in="result4"
         in2="SourceGraphic"
         id="feComposite130" />
      <feBlend
         mode="multiply"
         in2="result2"
         id="feBlend130" />
    </filter>
    <filter
       inkscape:label="Raised Border"
       inkscape:menu="Bevels"
       inkscape:menu-tooltip="Strongly raised border around a flat surface"
       height="1.5310259"
       width="1.6960949"
       y="-0.26561974"
       x="-0.34811537"
       style="color-interpolation-filters:sRGB"
       id="filter136">
      <feGaussianBlur
         stdDeviation="4"
         result="result1"
         id="feGaussianBlur130" />
      <feComposite
         in="result1"
         in2="result1"
         result="result4"
         operator="in"
         id="feComposite131" />
      <feGaussianBlur
         stdDeviation="2"
         result="result6"
         in="result4"
         id="feGaussianBlur131" />
      <feComposite
         operator="xor"
         in="result6"
         in2="result4"
         result="result8"
         id="feComposite132" />
      <feComposite
         operator="atop"
         result="fbSourceGraphic"
         in="result4"
         in2="result8"
         id="feComposite133" />
      <feSpecularLighting
         specularExponent="10"
         specularConstant="1.29999995"
         surfaceScale="3"
         lighting-color="#ffffff"
         result="result1"
         in="fbSourceGraphic"
         id="feSpecularLighting133">
        <feDistantLight
           azimuth="235"
           elevation="55"
           id="feDistantLight133" />
      </feSpecularLighting>
      <feComposite
         operator="atop"
         result="result2"
         in="result1"
         in2="fbSourceGraphic"
         id="feComposite134" />
      <feComposite
         k3="1"
         k2="1"
         operator="arithmetic"
         result="result4"
         in="fbSourceGraphic"
         in2="result2"
         id="feComposite135"
         k1="0"
         k4="0" />
      <feComposite
         operator="over"
         in="result4"
         in2="SourceGraphic"
         id="feComposite136" />
      <feBlend
         mode="multiply"
         in2="result2"
         id="feBlend136" />
    </filter>
    <filter
       inkscape:label="Raised Border"
       inkscape:menu="Bevels"
       inkscape:menu-tooltip="Strongly raised border around a flat surface"
       height="1.8573114"
       width="1.4579813"
       y="-0.42865732"
       x="-0.22899088"
       style="color-interpolation-filters:sRGB"
       id="filter142">
      <feGaussianBlur
         stdDeviation="4"
         result="result1"
         id="feGaussianBlur136" />
      <feComposite
         in="result1"
         in2="result1"
         result="result4"
         operator="in"
         id="feComposite137" />
      <feGaussianBlur
         stdDeviation="2"
         result="result6"
         in="result4"
         id="feGaussianBlur137" />
      <feComposite
         operator="xor"
         in="result6"
         in2="result4"
         result="result8"
         id="feComposite138" />
      <feComposite
         operator="atop"
         result="fbSourceGraphic"
         in="result4"
         in2="result8"
         id="feComposite139" />
      <feSpecularLighting
         specularExponent="10"
         specularConstant="1.29999995"
         surfaceScale="3"
         lighting-color="#ffffff"
         result="result1"
         in="fbSourceGraphic"
         id="feSpecularLighting139">
        <feDistantLight
           azimuth="235"
           elevation="55"
           id="feDistantLight139" />
      </feSpecularLighting>
      <feComposite
         operator="atop"
         result="result2"
         in="result1"
         in2="fbSourceGraphic"
         id="feComposite140" />
      <feComposite
         k3="1"
         k2="1"
         operator="arithmetic"
         result="result4"
         in="fbSourceGraphic"
         in2="result2"
         id="feComposite141"
         k1="0"
         k4="0" />
      <feComposite
         operator="over"
         in="result4"
         in2="SourceGraphic"
         id="feComposite142" />
      <feBlend
         mode="multiply"
         in2="result2"
         id="feBlend142" />
    </filter>
    <filter
       inkscape:menu-tooltip="Glowing metal texture"
       inkscape:menu="Bevels"
       inkscape:label="Glowing Metal"
       style="color-interpolation-filters:sRGB;"
       id="filter145"
       x="-0.46992693"
       y="-0.87966557"
       width="1.9398536"
       height="2.7593311">
      <feBlend
         in2="SourceGraphic"
         result="result5"
         mode="multiply"
         in="result10"
         id="feBlend143" />
      <feComposite
         in2="SourceGraphic"
         in="result5"
         result="fbSourceGraphic"
         operator="over"
         id="feComposite143" />
      <feGaussianBlur
         stdDeviation="3"
         result="result10"
         id="feGaussianBlur143" />
      <feGaussianBlur
         result="result9"
         stdDeviation="9"
         id="feGaussianBlur144" />
      <feSpecularLighting
         in="result9"
         result="result1"
         lighting-color="rgb(255,255,255)"
         surfaceScale="1"
         specularConstant="2"
         specularExponent="60"
         id="feSpecularLighting144">
        <fePointLight
           x="-5000"
           y="-10000"
           z="20000"
           id="fePointLight144" />
      </feSpecularLighting>
      <feComposite
         in2="fbSourceGraphic"
         in="result1"
         result="result2"
         operator="in"
         id="feComposite144" />
      <feGaussianBlur
         result="result9"
         stdDeviation="1"
         id="feGaussianBlur145" />
      <feComposite
         in="result9"
         result="result4"
         operator="arithmetic"
         k2="2"
         k3="0.8"
         in2="fbSourceGraphic"
         id="feComposite145" />
      <feBlend
         in="result4"
         mode="multiply"
         id="feBlend145" />
    </filter>
    <filter
       inkscape:menu-tooltip="Glowing metal texture"
       inkscape:menu="Bevels"
       inkscape:label="Glowing Metal"
       style="color-interpolation-filters:sRGB;"
       id="filter148"
       x="-0.58249387"
       y="-0.54279445"
       width="2.1649867"
       height="2.0855899">
      <feBlend
         in2="SourceGraphic"
         result="result5"
         mode="multiply"
         in="result10"
         id="feBlend146" />
      <feComposite
         in2="SourceGraphic"
         in="result5"
         result="fbSourceGraphic"
         operator="over"
         id="feComposite146" />
      <feGaussianBlur
         stdDeviation="3"
         result="result10"
         id="feGaussianBlur146" />
      <feGaussianBlur
         result="result9"
         stdDeviation="9"
         id="feGaussianBlur147" />
      <feSpecularLighting
         in="result9"
         result="result1"
         lighting-color="rgb(255,255,255)"
         surfaceScale="1"
         specularConstant="2"
         specularExponent="60"
         id="feSpecularLighting147">
        <fePointLight
           x="-5000"
           y="-10000"
           z="20000"
           id="fePointLight147" />
      </feSpecularLighting>
      <feComposite
         in2="fbSourceGraphic"
         in="result1"
         result="result2"
         operator="in"
         id="feComposite147" />
      <feGaussianBlur
         result="result9"
         stdDeviation="1"
         id="feGaussianBlur148" />
      <feComposite
         in="result9"
         result="result4"
         operator="arithmetic"
         k2="2"
         k3="0.8"
         in2="fbSourceGraphic"
         id="feComposite148" />
      <feBlend
         in="result4"
         mode="multiply"
         id="feBlend148" />
    </filter>
    <filter
       inkscape:menu-tooltip="Glowing metal texture"
       inkscape:menu="Bevels"
       inkscape:label="Glowing Metal"
       style="color-interpolation-filters:sRGB;"
       id="filter151"
       x="-0.70286258"
       y="-0.53928517"
       width="2.4057242"
       height="2.0785715">
      <feBlend
         in2="SourceGraphic"
         result="result5"
         mode="multiply"
         in="result10"
         id="feBlend149" />
      <feComposite
         in2="SourceGraphic"
         in="result5"
         result="fbSourceGraphic"
         operator="over"
         id="feComposite149" />
      <feGaussianBlur
         stdDeviation="3"
         result="result10"
         id="feGaussianBlur149" />
      <feGaussianBlur
         result="result9"
         stdDeviation="9"
         id="feGaussianBlur150" />
      <feSpecularLighting
         in="result9"
         result="result1"
         lighting-color="rgb(255,255,255)"
         surfaceScale="1"
         specularConstant="2"
         specularExponent="60"
         id="feSpecularLighting150">
        <fePointLight
           x="-5000"
           y="-10000"
           z="20000"
           id="fePointLight150" />
      </feSpecularLighting>
      <feComposite
         in2="fbSourceGraphic"
         in="result1"
         result="result2"
         operator="in"
         id="feComposite150" />
      <feGaussianBlur
         result="result9"
         stdDeviation="1"
         id="feGaussianBlur151" />
      <feComposite
         in="result9"
         result="result4"
         operator="arithmetic"
         k2="2"
         k3="0.8"
         in2="fbSourceGraphic"
         id="feComposite151" />
      <feBlend
         in="result4"
         mode="multiply"
         id="feBlend151" />
    </filter>
    <filter
       inkscape:menu-tooltip="Glowing metal texture"
       inkscape:menu="Bevels"
       inkscape:label="Glowing Metal"
       style="color-interpolation-filters:sRGB;"
       id="filter154"
       x="-0.47232408"
       y="-0.88705933"
       width="1.9446474"
       height="2.7741333">
      <feBlend
         in2="SourceGraphic"
         result="result5"
         mode="multiply"
         in="result10"
         id="feBlend152" />
      <feComposite
         in2="SourceGraphic"
         in="result5"
         result="fbSourceGraphic"
         operator="over"
         id="feComposite152" />
      <feGaussianBlur
         stdDeviation="3"
         result="result10"
         id="feGaussianBlur152" />
      <feGaussianBlur
         result="result9"
         stdDeviation="9"
         id="feGaussianBlur153" />
      <feSpecularLighting
         in="result9"
         result="result1"
         lighting-color="rgb(255,255,255)"
         surfaceScale="1"
         specularConstant="2"
         specularExponent="60"
         id="feSpecularLighting153">
        <fePointLight
           x="-5000"
           y="-10000"
           z="20000"
           id="fePointLight153" />
      </feSpecularLighting>
      <feComposite
         in2="fbSourceGraphic"
         in="result1"
         result="result2"
         operator="in"
         id="feComposite153" />
      <feGaussianBlur
         result="result9"
         stdDeviation="1"
         id="feGaussianBlur154" />
      <feComposite
         in="result9"
         result="result4"
         operator="arithmetic"
         k2="2"
         k3="0.8"
         in2="fbSourceGraphic"
         id="feComposite154" />
      <feBlend
         in="result4"
         mode="multiply"
         id="feBlend154" />
    </filter>
    <filter
       inkscape:menu-tooltip="Glowing metal texture"
       inkscape:menu="Bevels"
       inkscape:label="Glowing Metal"
       style="color-interpolation-filters:sRGB;"
       id="filter157"
       x="-0.58674549"
       y="-0.54634623"
       width="2.1734837"
       height="2.0927649">
      <feBlend
         in2="SourceGraphic"
         result="result5"
         mode="multiply"
         in="result10"
         id="feBlend155" />
      <feComposite
         in2="SourceGraphic"
         in="result5"
         result="fbSourceGraphic"
         operator="over"
         id="feComposite155" />
      <feGaussianBlur
         stdDeviation="3"
         result="result10"
         id="feGaussianBlur155" />
      <feGaussianBlur
         result="result9"
         stdDeviation="9"
         id="feGaussianBlur156" />
      <feSpecularLighting
         in="result9"
         result="result1"
         lighting-color="rgb(255,255,255)"
         surfaceScale="1"
         specularConstant="2"
         specularExponent="60"
         id="feSpecularLighting156">
        <fePointLight
           x="-5000"
           y="-10000"
           z="20000"
           id="fePointLight156" />
      </feSpecularLighting>
      <feComposite
         in2="fbSourceGraphic"
         in="result1"
         result="result2"
         operator="in"
         id="feComposite156" />
      <feGaussianBlur
         result="result9"
         stdDeviation="1"
         id="feGaussianBlur157" />
      <feComposite
         in="result9"
         result="result4"
         operator="arithmetic"
         k2="2"
         k3="0.8"
         in2="fbSourceGraphic"
         id="feComposite157" />
      <feBlend
         in="result4"
         mode="multiply"
         id="feBlend157" />
    </filter>
    <filter
       inkscape:menu-tooltip="Glowing metal texture"
       inkscape:menu="Bevels"
       inkscape:label="Glowing Metal"
       style="color-interpolation-filters:sRGB;"
       id="filter160"
       x="-0.71419137"
       y="-0.54509351"
       width="2.4283006"
       height="2.0900572">
      <feBlend
         in2="SourceGraphic"
         result="result5"
         mode="multiply"
         in="result10"
         id="feBlend158" />
      <feComposite
         in2="SourceGraphic"
         in="result5"
         result="fbSourceGraphic"
         operator="over"
         id="feComposite158" />
      <feGaussianBlur
         stdDeviation="3"
         result="result10"
         id="feGaussianBlur158" />
      <feGaussianBlur
         result="result9"
         stdDeviation="9"
         id="feGaussianBlur159" />
      <feSpecularLighting
         in="result9"
         result="result1"
         lighting-color="rgb(255,255,255)"
         surfaceScale="1"
         specularConstant="2"
         specularExponent="60"
         id="feSpecularLighting159">
        <fePointLight
           x="-5000"
           y="-10000"
           z="20000"
           id="fePointLight159" />
      </feSpecularLighting>
      <feComposite
         in2="fbSourceGraphic"
         in="result1"
         result="result2"
         operator="in"
         id="feComposite159" />
      <feGaussianBlur
         result="result9"
         stdDeviation="1"
         id="feGaussianBlur160" />
      <feComposite
         in="result9"
         result="result4"
         operator="arithmetic"
         k2="2"
         k3="0.8"
         in2="fbSourceGraphic"
         id="feComposite160" />
      <feBlend
         in="result4"
         mode="multiply"
         id="feBlend160" />
    </filter>
  </defs>
  <g
     inkscape:label="Layer 1"
     inkscape:groupmode="layer"
     id="layer1"
     transform="translate(-15.345835,-94.191214)">
    <path
       style="fill:#ffffff;stroke:#0d0e0d;stroke-width:1.379;stroke-linecap:round;stroke-linejoin:round;paint-order:markers stroke fill;fill-opacity:1;stroke-dasharray:none;stroke-opacity:1;filter:url(#filter145)"
       d="m 37.99172,130.74909 -7.718901,-0.0893 1.287683,-2.41657 c 0.708226,-1.32912 1.790984,-3.28924 2.406129,-4.35582 0.615145,-1.06659 1.680973,-2.9293 2.368509,-4.13936 l 1.250064,-2.20012 9.297349,-0.002 c 5.113542,-8e-4 9.29735,-0.12249 9.29735,-0.27039 0,-0.1479 -0.322871,-0.74558 -0.717489,-1.32819 -0.394618,-0.58261 -1.333791,-2.18434 -2.087049,-3.55941 -0.753258,-1.37508 -1.461741,-2.57045 -1.574406,-2.65639 -0.112667,-0.0859 -0.769522,-1.211 -1.45968,-2.50013 -0.69016,-1.28913 -1.704303,-3.14469 -2.253652,-4.12347 l -0.998818,-1.77959 0.805546,-1.501823 c 0.44305,-0.826001 1.299432,-2.310454 1.903071,-3.298786 l 1.097526,-1.796967 h 3.729077 c 3.532611,0 3.751522,0.03705 4.15512,0.703161 0.427868,0.706174 1.334751,2.281773 4.811728,8.359805 1.032439,1.80478 2.170544,3.77363 2.529123,4.37522 0.358579,0.60159 1.243798,2.19543 1.967151,3.54186 0.723352,1.34644 1.469207,2.61667 1.65745,2.82275 0.188243,0.20608 0.623692,0.93267 0.967658,1.61465 l 0.625401,1.23996 9.430089,0.15626 9.430088,0.15626 0.811424,1.1961 c 0.446281,0.65785 1.164601,1.89306 1.596266,2.74491 0.431662,0.85185 1.25308,2.28245 1.825371,3.17912 0.572288,0.89667 1.411478,2.33347 1.864868,3.19289 0.453384,0.85942 1.052301,1.879 1.330923,2.26574 l 0.506584,0.70316 -26.211326,-0.0724 c -14.41623,-0.0398 -29.684834,-0.11259 -33.930227,-0.16168 z"
       id="path1" />
    <path
       style="fill:#ffffff;stroke:#0d0e0d;stroke-width:1.379;stroke-linecap:round;stroke-linejoin:round;paint-order:markers stroke fill;fill-opacity:1;stroke-dasharray:none;stroke-opacity:1;filter:url(#filter160)"
       d="m 111.96924,150.78817 c -0.81094,-1.49984 -1.72064,-3.08888 -2.02154,-3.53121 -0.52272,-0.76839 -2.3735,-3.96254 -4.63087,-7.9921 -0.57773,-1.0313 -1.80697,-3.14079 -2.73164,-4.68774 -0.92467,-1.54696 -2.05615,-3.51581 -2.51441,-4.37522 -0.458253,-0.85942 -1.501979,-2.68764 -2.31939,-4.06271 -0.817412,-1.37507 -2.25615,-3.83614 -3.197196,-5.46903 -0.941044,-1.6329 -2.009574,-3.46112 -2.374511,-4.06271 -0.364935,-0.60159 -1.160921,-2.00791 -1.768854,-3.12516 -0.607933,-1.11724 -1.938689,-3.43767 -2.957234,-5.15651 -1.018543,-1.71884 -2.402475,-4.10959 -3.075401,-5.31277 -0.672925,-1.20319 -1.949225,-3.453303 -2.836222,-5.000257 -1.00136,-1.746406 -1.464281,-2.835124 -1.221144,-2.871946 0.215368,-0.03262 3.600145,-0.116337 7.521728,-0.186046 l 7.130153,-0.126745 1.084061,2.061142 c 0.596234,1.133629 1.921328,3.467462 2.944659,5.186302 1.023331,1.71884 2.233091,3.82635 2.688351,4.68337 1.25606,2.36445 2.28145,3.91082 2.59325,3.91082 0.15419,0 0.85491,-1.01958 1.55715,-2.26574 0.70223,-1.24616 1.94548,-3.41656 2.76276,-4.8231 0.81728,-1.40655 2.24897,-3.902775 3.18154,-5.547163 l 1.69557,-2.989795 h 3.80908 3.80908 l 0.78024,1.171934 c 0.42914,0.644565 1.28757,2.11788 1.90763,3.274035 l 1.12739,2.102099 -1.60164,2.7419 c -0.8809,1.50804 -2.12216,3.656 -2.75837,4.77325 -2.58944,4.54731 -6.98342,12.08588 -7.96854,13.6713 l -0.8245,1.32692 1.03657,1.79824 c 0.57011,0.98903 1.38961,2.43108 1.82112,3.20456 1.74684,3.13127 2.74831,4.87936 4.60059,8.03045 l 1.94194,3.30361 -0.8204,1.44271 c -0.45122,0.79349 -1.27406,2.21618 -1.82853,3.16154 -0.55448,0.94536 -1.3798,2.422 -1.83405,3.28142 -0.88929,1.68248 -2.71369,4.6846 -3.03627,4.99629 -0.10874,0.10506 -0.8612,-1.03611 -1.67215,-2.53594 z"
       id="path2" />
    <path
       style="fill:#ffffff;stroke:#0d0e0d;stroke-width:1.379;stroke-linecap:round;stroke-linejoin:round;paint-order:markers stroke fill;fill-opacity:1;stroke-dasharray:none;stroke-opacity:1;filter:url(#filter157)"
       d="m 102.77537,176.53238 c 0.53743,-1.07427 1.15513,-2.16417 1.37268,-2.42199 0.21755,-0.25783 0.92125,-1.4532 1.56378,-2.65639 0.64253,-1.20319 1.41536,-2.53919 1.7174,-2.9689 0.30203,-0.42971 0.99392,-1.62509 1.53753,-2.65639 0.54361,-1.0313 1.28685,-2.36731 1.65163,-2.9689 0.36479,-0.60159 1.4332,-2.42981 2.37425,-4.06271 0.94104,-1.63289 2.37978,-4.09395 3.19719,-5.46903 0.81741,-1.37506 1.86114,-3.20328 2.31939,-4.0627 0.45825,-0.85942 1.58974,-2.82827 2.51441,-4.37523 0.92467,-1.54695 2.15391,-3.65643 2.73164,-4.68774 1.93177,-3.44834 4.08697,-7.17701 4.78687,-8.28167 0.38116,-0.60159 1.22442,-2.07823 1.8739,-3.28141 0.64948,-1.20319 1.35212,-2.39857 1.56141,-2.65639 0.2093,-0.25783 0.89235,-1.4532 1.51789,-2.65639 1.36774,-2.63075 2.07876,-3.58784 2.27616,-3.06387 0.0774,0.20559 0.69416,1.22992 1.37046,2.27628 0.6763,1.04637 1.22964,1.98858 1.22964,2.0938 0,0.10522 0.82809,1.54195 1.84021,3.19274 1.01212,1.65079 2.07275,3.4629 2.35697,4.02691 0.57408,1.13926 0.88458,0.42554 -3.52647,8.10603 -0.71266,1.24089 -1.29575,2.32918 -1.29575,2.41843 0,0.0892 -0.22332,0.42309 -0.49627,0.74187 -0.27295,0.31879 -1.09789,1.70557 -1.8332,3.08175 l -1.33692,2.50215 4.69553,0.20324 c 2.58254,0.11178 6.71057,0.20324 9.1734,0.20324 h 4.47787 l 0.74257,1.17631 c 0.40842,0.64697 1.1146,1.8775 1.56929,2.73451 0.4547,0.85702 0.98848,1.7852 1.18618,2.06263 0.41069,0.5763 0.464,0.44667 -1.72043,4.18332 l -1.64426,2.81264 -13.1546,0.0815 -13.1546,0.0815 -1.24764,2.10612 c -0.6862,1.15836 -2.01878,3.44212 -2.96128,5.07502 -0.9425,1.63289 -2.00389,3.46111 -2.35862,4.0627 -0.35474,0.6016 -1.15375,1.97276 -1.77558,3.04703 l -1.1306,1.95323 h -7.48958 -7.48959 z"
       id="path3" />
    <path
       style="fill:#ffffff;stroke:#0d0e0d;stroke-width:1.379;stroke-linecap:round;stroke-linejoin:round;paint-order:markers stroke fill;fill-opacity:1;stroke-dasharray:none;stroke-opacity:1;filter:url(#filter154)"
       d="m 113.16509,216.04318 c -0.19557,-0.31316 -0.74665,-1.33275 -1.22461,-2.26574 -0.47797,-0.93301 -1.14139,-2.09232 -1.47429,-2.57626 -0.33289,-0.48393 -1.09884,-1.81994 -1.70212,-2.9689 -0.60327,-1.14895 -1.27334,-2.29996 -1.48904,-2.55779 -0.21569,-0.25782 -0.63662,-0.96098 -0.93538,-1.56257 -0.48302,-0.97259 -1.92792,-3.50189 -4.95422,-8.67232 l -0.96033,-1.64071 h -9.444641 c -8.809043,0 -9.456621,-0.0377 -9.622608,-0.56071 -0.09788,-0.3084 -0.845677,-1.63487 -1.661768,-2.94773 -0.816094,-1.31285 -1.903889,-3.13485 -2.417326,-4.04889 -2.494949,-4.44161 -2.97293,-5.31578 -2.97293,-5.43718 0,-0.0721 15.191134,-0.13116 33.758073,-0.13116 h 33.75807 l -0.65728,1.17193 c -2.56106,4.56637 -4.07124,7.27038 -5.27528,9.44555 l -1.38839,2.50819 h -9.15903 c -7.51143,0 -9.15903,0.0764 -9.15903,0.42478 0,0.46216 1.51351,3.45008 2.63428,5.20051 0.74618,1.1654 2.97897,5.04551 4.90196,8.51855 l 1.16937,2.11198 -1.40773,2.545 c -2.44929,4.42799 -1.81151,4.01284 -6.16484,4.01284 -3.33321,0 -3.83862,-0.0693 -4.15091,-0.56937 z"
       id="path4" />
    <path
       style="fill:#ffffff;stroke:#0d0e0d;stroke-width:1.379;stroke-linecap:round;stroke-linejoin:round;paint-order:markers stroke fill;fill-opacity:1;stroke-dasharray:none;stroke-opacity:1;filter:url(#filter151)"
       d="m 76.962133,216.11017 c -0.329497,-0.49716 -1.181561,-1.95868 -1.893475,-3.24781 -1.986571,-3.59726 -3.92099,-6.94643 -4.521404,-7.82817 -0.298328,-0.43811 -0.913066,-1.52801 -1.366086,-2.422 -0.453019,-0.89399 -0.997093,-1.62278 -1.209053,-1.61953 -0.45819,0.007 -0.487683,0.0552 -7.789077,12.71544 l -1.659265,2.87709 -3.820295,0.0137 -3.820295,0.0137 -0.518364,-1.01567 c -0.285099,-0.55862 -1.132173,-2.03232 -1.882383,-3.27488 l -1.364022,-2.25921 0.858684,-1.51989 c 0.970891,-1.71851 1.994553,-3.46855 4.145655,-7.08737 0.81737,-1.37507 1.79128,-3.06266 2.164242,-3.75019 0.372962,-0.68753 1.437949,-2.51575 2.366639,-4.06271 0.928688,-1.54695 2.115908,-3.61683 2.638264,-4.59973 l 0.94974,-1.78709 -1.171448,-2.04589 c -2.291122,-4.00135 -4.106793,-7.2171 -5.031837,-8.91192 -0.515983,-0.94536 -1.432865,-2.49232 -2.037517,-3.43768 l -1.099368,-1.71884 0.664838,-1.0938 c 0.365659,-0.6016 1.307203,-2.25274 2.092314,-3.66921 0.785111,-1.41647 2.185202,-3.90778 3.111309,-5.53626 l 1.683835,-2.96086 1.706049,2.87988 c 0.938329,1.58393 2.049844,3.51272 2.470034,4.28619 0.42019,0.77348 1.523881,2.67202 2.452648,4.21897 0.928764,1.54695 2.063599,3.5158 2.521852,4.37522 0.458253,0.85942 1.501979,2.68764 2.31939,4.06271 0.817415,1.37507 2.25615,3.83613 3.197196,5.46903 0.941044,1.6329 2.009452,3.46111 2.374241,4.06271 0.364789,0.60159 1.093274,1.9045 1.618856,2.89534 0.525582,0.99085 1.444752,2.56621 2.042602,3.50079 0.59785,0.93459 1.086998,1.77872 1.086998,1.87585 0,0.0971 0.610568,1.19377 1.35682,2.43701 0.74625,1.24323 1.833452,3.13937 2.416006,4.21364 0.582552,1.07428 1.167358,1.95323 1.299565,1.95323 0.132209,0 0.240382,0.14494 0.240382,0.3221 0,0.17715 0.584112,1.33737 1.298027,2.57825 2.982918,5.18473 4.405807,7.62655 5.002392,8.58461 l 0.632465,1.01567 h -3.729894 c -2.051439,0 -5.410253,0.0904 -7.464034,0.20079 l -3.734138,0.20079 z"
       id="path5" />
    <path
       style="fill:#ffffff;stroke:#0d0e0d;stroke-width:1.379;stroke-linecap:round;stroke-linejoin:round;paint-order:markers stroke fill;fill-opacity:1;stroke-dasharray:none;stroke-opacity:1;filter:url(#filter148)"
       d="m 34.986486,189.18897 c -0.741761,-1.33193 -2.107193,-3.68738 -3.034295,-5.23433 -0.927102,-1.54696 -1.988384,-3.38507 -2.358403,-4.08469 l -0.672763,-1.27205 0.672118,-1.22808 c 0.369665,-0.67545 0.970202,-1.7203 1.334527,-2.32189 0.364326,-0.60159 1.436894,-2.42981 2.383484,-4.06271 0.946591,-1.63289 2.400969,-4.11348 3.231949,-5.51243 0.830982,-1.39894 1.510876,-2.62947 1.510876,-2.73451 0,-0.10504 -4.128661,-0.19099 -9.174801,-0.19099 h -9.1748 l -1.107246,-1.79696 c -0.608986,-0.98833 -1.468259,-2.47744 -1.909495,-3.30912 l -0.802249,-1.51215 1.10409,-2.08178 c 0.607249,-1.14498 1.411375,-2.60756 1.786946,-3.25018 l 0.682856,-1.1684 13.235695,-0.0817 13.235695,-0.0817 1.452552,-2.56085 c 0.798907,-1.40846 2.168393,-3.79921 3.043303,-5.31277 0.874914,-1.51356 2.341354,-4.05277 3.258762,-5.6427 l 1.668016,-2.89077 h 7.639282 7.639286 l -0.506585,0.70316 c -0.278625,0.38674 -0.877538,1.40632 -1.330923,2.26574 -0.45339,0.85942 -1.294254,2.29884 -1.868596,3.19872 -0.574339,0.89987 -1.478565,2.44682 -2.009394,3.43767 -0.530823,0.99085 -1.792874,3.20786 -2.804554,4.9267 -1.011682,1.71884 -2.073606,3.54706 -2.35984,4.06271 -0.286234,0.51565 -1.297583,2.27355 -2.247442,3.90645 -0.949865,1.63289 -2.501495,4.3049 -3.448071,5.9378 -0.946576,1.6329 -2.174928,3.74238 -2.729672,4.68774 -0.554744,0.94536 -1.305684,2.30833 -1.668756,3.02883 -0.363072,0.72049 -1.026478,1.84555 -1.474235,2.50012 -0.447757,0.65458 -1.298075,2.10425 -1.889598,3.2215 -0.591524,1.11724 -1.86504,3.36736 -2.830039,5.00025 -1.676035,2.83606 -2.790039,4.77069 -5.566444,9.66692 -0.687536,1.21248 -1.320382,2.20531 -1.406324,2.20629 -0.08594,0.001 -0.763151,-1.08798 -1.504912,-2.41991 z"
       id="path6" />
  </g>
</svg>
